<?xml version="1.0" encoding="UTF-8" standalone="no"?>
<!-- Created with Inkscape (http://www.inkscape.org/) -->

<svg
   width="41.218483mm"
   height="39.671993mm"
   viewBox="0 0 41.218483 39.671993"
   version="1.1"
   id="svg5"
   inkscape:version="1.1 (c68e22c387, 2021-05-23)"
   sodipodi:docname="drawing-1.svg"
   xmlns:inkscape="http://www.inkscape.org/namespaces/inkscape"
   xmlns:sodipodi="http://sodipodi.sourceforge.net/DTD/sodipodi-0.dtd"
   xmlns="http://www.w3.org/2000/svg"
   xmlns:svg="http://www.w3.org/2000/svg">
  <sodipodi:namedview
     id="namedview7"
     pagecolor="#ffffff"
     bordercolor="#666666"
     borderopacity="1.0"
     inkscape:pageshadow="2"
     inkscape:pageopacity="0.0"
     inkscape:pagecheckerboard="0"
     inkscape:document-units="mm"
     showgrid="false"
     inkscape:zoom="1.4823793"
     inkscape:cx="-41.487356"
     inkscape:cy="115.01779"
     inkscape:window-width="1920"
     inkscape:window-height="1017"
     inkscape:window-x="1912"
     inkscape:window-y="-8"
     inkscape:window-maximized="1"
     inkscape:current-layer="layer1"
     fit-margin-top="0"
     fit-margin-left="0"
     fit-margin-right="0"
     fit-margin-bottom="0" />
  <defs
     id="defs2" />
  <g
     inkscape:label="Layer 1"
     inkscape:groupmode="layer"
     id="layer1"
     transform="translate(-87.613201,-22.330017)">
    <g
       id="g5237"
       transform="matrix(0.42420459,0,0,0.42420459,88.868913,29.418661)">
      <path
         fill="#f7adce"
         opacity="1"
         d="m 43.720241,-16.514922 c 2.005849,-0.421229 4.159497,-0.16258 5.983764,0.783336 1.265796,0.637649 2.36479,1.601512 3.163963,2.772295 1.489606,0.336771 2.874698,1.069434 4.005363,2.094528 1.574063,1.3819242 2.742734,3.1692411 3.603138,5.0652961 0.63976,1.466381 1.130665,3.012996 1.298523,4.6092294 0.241758,2.2180465 0.01056,4.4572072 -0.39378,6.6425267 -0.432841,2.3552888 -1.028261,4.6968538 -2.009016,6.8895628 -0.783336,1.79893 -1.816876,3.476453 -2.958099,5.068463 -2.113531,2.864141 -4.345302,5.671274 -5.971095,8.854239 -0.471902,-0.266039 -0.973365,-0.478236 -1.443155,-0.746387 0.163635,-1.758812 0.715771,-3.461673 1.348141,-5.103301 0.914245,-2.281389 2.070247,-4.46882 3.418389,-6.52112 0.429674,-0.0454 0.889963,0.04751 1.289022,-0.164691 0.851957,-0.369499 1.33864,-1.39776 1.062044,-2.289835 -0.257594,-0.977587 -1.379813,-1.6152361 -2.350011,-1.313303 -0.935359,0.23859 -1.574063,1.252072 -1.381924,2.199044 0.05595,0.395891 0.328326,0.703102 0.503574,1.04832 -2.659333,3.409943 -4.547998,7.452256 -5.303887,11.719435 -0.645038,-0.109794 -1.295356,-0.181582 -1.947784,-0.211142 -0.209031,-2.139924 -0.319881,-4.290405 -0.270262,-6.43983 0.05173,-2.900035 0.405392,-5.787402 0.926913,-8.6388743 0.78017,-0.1826378 1.499108,-0.764334 1.638462,-1.5846206 C 48.154223,7.2016005 47.397279,6.107885 46.364795,5.969587 45.491723,5.798562 44.569032,6.3369741 44.257598,7.1625392 c -0.315658,0.7865039 -0.03484,1.7830941 0.687267,2.245495 0.134075,0.1214066 0.427562,0.211142 0.318824,0.4433981 -0.333604,1.2267347 -0.57325,2.4766957 -0.737941,3.7372127 -0.491961,3.787888 -0.584863,7.618003 -0.437064,11.431227 -0.34944,0.07284 -0.695713,0.153078 -1.038818,0.247036 -0.666153,-1.674356 -1.592011,-3.225193 -2.578044,-4.727469 -1.14439,-1.788372 -2.365846,-3.593636 -2.892645,-5.679719 -0.03484,-0.212198 -0.142521,-0.464512 0.0095,-0.653484 0.187917,-0.287153 0.392724,-0.579585 0.436008,-0.930081 0.190028,-0.971253 -0.50674,-2.016406 -1.482216,-2.203266 -1.101106,-0.280819 -2.305671,0.633426 -2.314116,1.772537 -0.112961,1.088437 0.913189,2.116698 2.001626,2.005848 0.128796,0.02956 0.392724,-0.09079 0.407504,0.122463 0.291376,1.306969 0.850902,2.532648 1.452656,3.722433 1.186618,2.370069 2.611827,4.636678 3.48701,7.151379 -0.259704,0.147799 -0.522576,0.291376 -0.787559,0.429674 C 39.823616,24.468792 38.723566,22.733205 37.514779,21.076796 36.373556,19.47634 35.132041,17.946616 34.047827,16.304987 32.7208,14.365648 31.667201,12.237337 30.953542,9.9971203 30.454191,8.5096251 30.112141,6.9735672 29.833433,5.4301193 29.521999,3.804326 29.331971,2.1510843 29.341473,0.4946755 c 0,-3.2410294 1.131721,-6.4292733 2.973934,-9.0748823 1.204565,-1.7123612 2.801854,-3.2230822 4.776032,-3.9948062 0.391668,-0.162579 0.817119,-0.224866 1.207732,-0.390613 0.216421,-0.165746 0.352607,-0.411727 0.528911,-0.616534 1.229902,-1.500164 2.99716,-2.536871 4.892159,-2.932762 z"
         id="path84"
         style="stroke-width:0.105571" />
      <path
         fill="#f7adce"
         opacity="1"
         d="m 72.333147,8.0989539 c 1.632127,-0.5257435 3.351879,-0.7727796 5.067407,-0.7147156 2.365846,0.064398 4.743305,0.585919 6.849446,1.684913 1.39776,0.7453312 2.681503,1.7799267 3.50918,3.1481267 0.174192,0.354719 0.597532,0.402226 0.926913,0.539468 1.799985,0.70627 3.333932,2.051244 4.293572,3.728767 1.518111,2.575933 1.659576,5.94048 0.242814,8.591368 -0.211142,0.453955 -0.561638,0.828732 -0.761167,1.285854 -0.03062,0.635538 0.04856,1.277409 -0.06334,1.908724 -0.372665,2.607603 -1.866495,4.916441 -3.67387,6.773434 -1.451601,1.460047 -3.142849,2.713175 -5.048405,3.512347 -1.585676,0.686212 -3.276924,1.084214 -4.974505,1.371367 -2.450303,0.383223 -4.939667,0.622869 -7.420585,0.456067 -1.934061,-0.110849 -3.842784,-0.497239 -5.700833,-1.037763 -2.247607,-0.673543 -4.439261,-1.524445 -6.693201,-2.180041 -1.481161,-0.423339 -2.979214,-0.803395 -4.503659,-1.036707 0.04751,-0.437064 0.128797,-0.869905 0.209031,-1.30169 2.611826,-0.357886 5.266937,-0.122462 7.847092,0.362108 1.565617,0.31249 3.132291,0.665098 4.643012,1.186618 0.04539,0.832955 0.633426,1.621571 1.462158,1.80632 0.979699,0.283986 2.079748,-0.38639 2.319395,-1.3682 0.346272,-1.139111 -0.610201,-2.408074 -1.796819,-2.408074 -0.743219,-0.06123 -1.3682,0.425451 -1.785205,0.992367 -1.551894,-0.723161 -3.209358,-1.194008 -4.879491,-1.555061 -2.555874,-0.52891 -5.186703,-0.700991 -7.786916,-0.475069 -0.04328,-0.649262 -0.163636,-1.289022 -0.321992,-1.919281 4.123603,-1.634239 8.463626,-2.726898 12.874382,-3.207246 0.594365,-0.05173 1.186618,-0.168914 1.785206,-0.160468 0.325158,0.335715 0.553192,0.798116 1.027205,0.961751 1.079992,0.528911 2.517869,-0.215364 2.683615,-1.41254 0.248092,-1.171838 -0.823454,-2.371124 -2.016406,-2.249717 -0.924802,0.03484 -1.641629,0.816063 -1.808431,1.692303 -2.009016,-0.02111 -4.004308,0.258649 -5.977429,0.605977 -2.550596,0.46768 -5.073742,1.076824 -7.554661,1.830601 -0.534189,0.146744 -1.048319,0.367387 -1.5994,0.446565 -0.146744,-0.311434 -0.351551,-0.594364 -0.466624,-0.919523 0.789671,-0.652429 1.592011,-1.296412 2.291946,-2.050189 1.605735,-1.634238 2.983437,-3.496511 4.760196,-4.958669 0.602811,-0.460289 1.214067,-0.956473 1.929838,-1.223568 0.409615,0.07707 0.807618,0.287153 1.237292,0.200585 1.051487,-0.0929 1.848548,-1.179228 1.655353,-2.210656 -0.121406,-0.851958 -0.891019,-1.557172 -1.750367,-1.600457 -0.942749,-0.09396 -1.885498,0.624981 -2.03013,1.564562 -0.09818,0.44551 0.04117,0.892075 0.193195,1.308025 -1.408317,0.716827 -2.581211,1.790484 -3.744603,2.83986 -1.796818,1.6733 -3.496511,3.473285 -5.518196,4.882658 -0.295599,-0.270262 -0.589086,-0.542635 -0.884685,-0.812897 1.195064,-1.285854 2.355289,-2.605492 3.401498,-4.016976 1.318581,-1.752478 2.524202,-3.587302 3.858619,-5.328168 1.093716,-1.418874 2.324674,-2.733233 3.686539,-3.899792 1.356588,-1.14439 2.83247,-2.14098 4.369584,-3.025665 1.797874,-1.0303725 3.655923,-1.9805114 5.636435,-2.6076031 z"
         id="path86"
         style="stroke-width:0.105571" />
      <path
         fill="#f7adce"
         opacity="1"
         d="M 9.8414549,8.0071071 C 11.897978,7.4644723 14.05796,7.2860573 16.172547,7.530982 c 3.019331,0.3811113 5.797959,1.7419213 8.407674,3.241029 2.356344,1.352365 4.570168,2.988715 6.414493,4.994564 2.580155,2.794464 4.437149,6.153733 6.903287,9.041099 0.616535,0.755889 1.284799,1.465326 1.942506,2.184264 -0.338882,0.304045 -0.664041,0.622869 -0.983921,0.946972 -1.753534,-0.858292 -3.326542,-2.043854 -4.780255,-3.337099 -1.68069,-1.556116 -3.281146,-3.216748 -4.638789,-5.063185 0.205864,-0.399058 0.36422,-0.844568 0.286097,-1.298523 -0.101348,-0.943804 -0.999757,-1.71764 -1.94884,-1.666966 -0.95225,-0.0032 -1.803152,0.821343 -1.866495,1.764092 -0.08023,0.869904 0.512019,1.750367 1.356587,1.988957 0.47507,0.160468 0.973365,0.03062 1.444211,-0.07918 2.279278,3.66648 5.525586,6.714315 9.265966,8.858462 -0.316713,0.577473 -0.599643,1.171837 -0.864626,1.775704 -3.726656,-0.901577 -7.372023,-2.16315 -10.804135,-3.879734 -1.071546,-0.53419 -2.125144,-1.105329 -3.165019,-1.698638 0.0285,-0.50674 -0.01056,-1.047264 -0.326214,-1.468492 -0.384279,-0.583808 -1.106384,-0.918468 -1.799985,-0.830844 -1.010315,0.08657 -1.820044,1.090549 -1.692303,2.097696 0.07284,0.991311 1.027205,1.804208 2.017461,1.721863 0.526799,-0.0053 0.968086,-0.323048 1.3682,-0.629203 1.727142,1.233069 3.639032,2.171595 5.565703,3.046778 2.745901,1.235181 5.584705,2.254997 8.460459,3.142849 -0.04117,0.348384 -0.06229,0.699935 -0.126685,1.046208 -0.148855,0.0739 -0.326215,0.05173 -0.486683,0.0739 -2.33523,0.136187 -4.580725,0.838234 -6.854724,1.327027 -1.549782,0.313546 -3.15235,0.570084 -4.72958,0.300878 -0.390613,-0.714716 -1.190841,-1.227791 -2.023796,-1.088437 -1.043042,0.126685 -1.841158,1.210899 -1.622626,2.245495 0.171025,1.163392 1.552949,1.91189 2.623439,1.430487 0.670376,-0.250204 1.074713,-0.915301 1.187673,-1.59729 2.031186,0.243869 4.064484,-0.107682 6.068221,-0.419116 1.964676,-0.289265 3.931464,-0.675655 5.926755,-0.648206 0.05806,0.369498 0.117184,0.738997 0.181582,1.108495 -2.155759,0.354719 -4.267179,0.935359 -6.339537,1.619459 -2.299337,0.761167 -4.573336,1.617348 -6.942349,2.14098 -3.861787,0.869905 -7.879818,0.622869 -11.746884,-0.07284 C 9.6862656,39.440869 7.5368402,38.784218 5.6566209,37.61238 3.876694,36.49016 2.289962,35.049116 1.0400015,33.353646 c -1.18345079,-1.608902 -2.0713028,-3.495455 -2.2391607,-5.505527 -0.05173,-0.490905 0.031671,-0.984977 -0.016891,-1.474827 -0.1583564,-0.33466 -0.407504,-0.614423 -0.5859189,-0.935359 -0.9902559,-1.71025 -1.3618658,-3.765717 -1.0514871,-5.715613 0.400114,-2.735344 2.12408831,-5.267992 4.5923381,-6.541179 C 2.2234523,12.897155 2.7724214,12.756746 3.2759951,12.516044 3.5462568,12.253172 3.6898334,11.887897 3.9368695,11.603911 5.4011391,9.7490285 7.5938486,8.6162518 9.8414549,8.0071071 Z"
         id="path88"
         style="stroke-width:0.105571" />
      <path
         fill="#f7adce"
         opacity="1"
         d="m 53.991243,37.23338 c 1.415707,0.649262 2.838804,1.287966 4.312575,1.797874 2.356344,0.860404 4.795034,1.467437 7.145045,2.344732 3.30226,1.17606 6.295198,3.119622 8.859517,5.496025 2.204322,2.010072 4.334745,4.228119 5.592095,6.971909 0.905799,2.013238 1.401983,4.210171 1.470604,6.415549 0.06123,2.448191 -0.442342,5.055794 -2.061801,6.971908 -0.159412,0.172081 -0.272373,0.382167 -0.247036,0.62498 0.0021,2.358456 -1.056766,4.672572 -2.779685,6.271973 -2.182152,2.061801 -5.45063,2.970767 -8.356999,2.129366 -0.286097,-0.07284 -0.594365,-0.220643 -0.883629,-0.07707 -2.035409,0.845623 -4.345302,0.719994 -6.433496,0.135131 -2.641387,-0.77278 -5.095912,-2.202211 -7.054254,-4.139439 -2.165261,-2.229659 -3.580968,-5.04946 -4.795034,-7.877707 -0.859348,-2.038576 -1.520223,-4.167943 -1.842214,-6.359597 -0.427563,-2.726898 -0.281875,-5.492858 -0.26815,-8.240871 0.01478,-1.728197 -0.03484,-3.45745 -0.211142,-5.177202 -0.05806,-0.546857 -0.148855,-1.090548 -0.172081,-1.640573 0.387445,-0.03589 0.774891,-0.08657 1.157058,-0.162579 0.960696,1.880219 1.460047,3.955745 1.830601,6.021769 0.336771,2.085027 0.532078,4.199614 0.508852,6.31209 -0.774891,0.298766 -1.352364,1.086325 -1.27952,1.931949 0.0285,1.088437 1.142278,1.987902 2.212768,1.777815 1.096882,-0.130908 1.88233,-1.356587 1.548726,-2.40913 -0.180526,-0.697824 -0.785448,-1.202453 -1.467437,-1.380868 0.399059,-4.295684 -0.292431,-8.67688 -1.931949,-12.664296 0.609145,-0.242813 1.197175,-0.536301 1.744033,-0.898409 3.178742,3.885012 5.790569,8.245094 7.648618,12.90922 -0.350496,0.465568 -0.688323,0.991312 -0.618646,1.605735 0.02956,1.195064 1.354476,2.093473 2.479863,1.704972 1.094771,-0.298766 1.683857,-1.662744 1.158113,-2.666724 -0.353662,-0.798116 -1.266851,-1.180283 -2.102974,-1.079991 -0.577473,-1.865439 -1.419929,-3.634809 -2.326784,-5.359839 -1.467437,-2.789186 -3.169241,-5.45063 -4.976617,-8.027618 0.135131,-0.344162 0.485627,-0.570083 0.725273,-0.849847 1.668022,1.195064 3.563021,2.010072 5.430572,2.835637 1.582509,0.703103 3.174519,1.455824 4.504714,2.585434 0.199529,0.175248 0.414894,0.339938 0.572195,0.55847 0.0834,0.398003 -0.01373,0.834011 0.175247,1.214067 0.306156,0.782281 1.171838,1.281632 2.002682,1.169726 0.929025,-0.09818 1.707083,-0.962807 1.683857,-1.901333 0.02745,-1.012426 -0.875183,-1.942506 -1.892887,-1.922448 -0.557415,-0.03167 -1.047265,0.270262 -1.467437,0.600699 -1.091604,-1.12961 -2.472473,-1.912946 -3.820614,-2.691005 -2.124089,-1.215122 -4.379085,-2.243383 -6.3047,-3.770995 0.195306,-0.354719 0.37161,-0.718939 0.532078,-1.089493 z"
         id="path90"
         style="stroke-width:0.105571" />
      <path
         fill="#f7adce"
         opacity="1"
         d="m 32.98156,39.067148 c 1.466381,-0.504629 2.877865,-1.148612 4.290405,-1.78415 0.156245,0.362109 0.330437,0.716827 0.525744,1.059933 -0.66932,0.759056 -1.504387,1.348142 -2.310949,1.952008 -2.421799,1.683857 -5.109636,2.951765 -7.873485,3.965246 -0.24598,0.08657 -0.486682,0.202696 -0.747442,0.234368 -0.448677,-0.399059 -0.980755,-0.781226 -1.617348,-0.715772 -1.186618,0 -2.129367,1.285855 -1.77676,2.418632 0.255482,1.059933 1.50861,1.713417 2.522091,1.295356 0.834011,-0.296655 1.317526,-1.183451 1.251017,-2.047022 4.201725,-0.982866 8.133189,-3.0415 11.388998,-5.867635 0.420173,0.501462 0.885741,0.962807 1.388259,1.381924 -2.648777,4.267179 -5.981653,8.103629 -9.789598,11.374218 -0.507797,-0.212197 -1.087382,-0.343105 -1.617348,-0.12774 -0.897353,0.294543 -1.474827,1.318581 -1.238348,2.238105 0.187917,0.886796 1.07788,1.56245 1.986846,1.475882 1.016649,-0.01478 1.884443,-0.998702 1.793652,-2.009016 0.0063,-0.3051 -0.194251,-0.591198 -0.166803,-0.885741 2.397518,-1.805264 4.471988,-3.994806 6.431385,-6.258248 1.3682,-1.595178 2.674113,-3.245252 3.897681,-4.955502 0.336771,0.168913 0.677766,0.330437 1.020872,0.487738 -0.657708,2.107197 -0.789672,4.323132 -1.002925,6.50634 -0.199529,1.841158 -0.455011,3.731934 -1.33125,5.392566 -0.790727,0.14041 -1.527612,0.699936 -1.685969,1.518111 -0.280819,1.047264 0.529967,2.201155 1.601512,2.319395 1.071546,0.19425 2.145203,-0.719995 2.181097,-1.794707 0.06545,-0.779114 -0.433897,-1.511777 -1.113774,-1.85805 0.656651,-1.406205 1.025094,-2.921149 1.302746,-4.442427 0.477181,-2.404907 0.763278,-4.860488 1.542392,-7.195719 0.411727,0.04856 0.823454,0.09924 1.236236,0.144633 -0.365275,2.458748 -0.451844,4.949168 -0.415949,7.432197 0.05279,2.643498 0.122462,5.309165 -0.314602,7.928382 -0.362108,2.232826 -1.05571,4.40231 -1.964676,6.470446 -1.329139,3.023553 -2.919038,6.059775 -5.455909,8.252484 -2.35001,1.975233 -5.224708,3.40572 -8.291545,3.778386 -1.330195,0.127741 -2.705785,0.06862 -3.96947,-0.394836 -0.316713,-0.107682 -0.649261,-0.314601 -0.986033,-0.155189 -2.112475,0.679877 -4.47621,0.462401 -6.45461,-0.529967 -2.80291,-1.351308 -4.834096,-4.264012 -4.966059,-7.394192 -0.03062,-0.318824 0.05701,-0.694657 -0.202697,-0.940637 -1.147556,-1.328083 -1.75459,-3.040445 -1.995291,-4.75914 -0.3219919,-2.376403 -0.01689,-4.812982 0.718938,-7.085925 0.993423,-3.208303 3.237862,-5.830686 5.665995,-8.068791 2.646665,-2.566431 5.766288,-4.687352 9.24274,-5.954204 2.396462,-0.911078 4.89216,-1.524445 7.300234,-2.40174 z"
         id="path92"
         style="stroke-width:0.105571" />
      <g
         id="#da3997ff"
         transform="matrix(0.10557099,0,0,0.10557099,-7.160753,-20.086389)">
        <path
           fill="#da3997"
           opacity="1"
           d="m 501.7,439.51 c 4.96,0.2 9.89,0.91 14.78,1.72 -0.2,4.6 -0.9,9.17 -0.83,13.78 0.07,4.58 4.9,8.05 9.28,7.25 2.82,-0.34 4.89,-2.44 6.98,-4.16 -0.38,-3.84 -0.71,-7.69 -0.85,-11.55 7.24,3.59 14.04,8.2 19.64,14.06 -5.13,2.42 -10.72,3.42 -16.08,5.04 -3.57,2.86 -3.23,8.33 -1.27,12.04 1.01,2.02 3.17,4.16 5.65,3.36 7.46,-1.83 14.64,-4.82 21.35,-8.57 1.27,2.04 2.49,4.12 3.68,6.22 -15.64,5.71 -31.22,11.68 -46.09,19.21 -6.86,3.29 -5.11,15.18 2.05,17.06 2.01,0.83 3.94,-0.42 5.71,-1.23 14.32,-7.43 28.99,-14.16 43.82,-20.51 1.22,4.88 1.87,9.88 2.27,14.9 -4.61,0.88 -9.29,1.49 -13.78,2.85 -4.61,1.28 -6.62,7.31 -4.26,11.33 1.2,2.47 3.71,3.8 5.99,5.14 3.6,-1.65 7.33,-2.96 11.11,-4.14 -1.28,7.27 -3.66,14.31 -6.92,20.94 -3.34,-3.49 -6.24,-7.39 -8.5,-11.66 -3.31,-7.86 -16.74,-2 -15.53,5.35 3.94,7.26 9.67,13.42 15.53,19.18 -1.65,1.82 -3.32,3.61 -5.02,5.38 -10.05,-13.42 -20.82,-26.34 -32.41,-38.46 -3.41,-3.98 -9.8,-2.52 -13.16,0.77 -2.81,2.47 -3.88,7.48 -0.81,10.18 11.91,11.93 23.36,24.32 34.36,37.1 -4.28,2.72 -8.89,4.86 -13.56,6.8 -2.81,-4.73 -4.82,-10.07 -8.51,-14.2 -5.61,-4.81 -14.6,1.18 -13.55,8.09 2.33,3.34 5.12,6.34 7.3,9.79 -7.17,0.89 -14.46,0.95 -21.6,-0.31 2.29,-3.88 4.65,-7.77 7.76,-11.06 1.55,-1.73 3.59,-3.65 2.92,-6.24 -0.98,-4.3 -4.84,-7.95 -9.22,-8.56 -2.18,-0.49 -3.63,1.37 -4.79,2.88 -4.45,5.87 -8.36,12.18 -11.3,18.95 -2.29,-0.91 -4.57,-1.84 -6.84,-2.79 9.3,-14.09 18.49,-28.31 26.19,-43.36 3.86,-6.76 -4.9,-15.76 -11.87,-12.66 -1.97,0.57 -2.75,2.61 -3.64,4.25 -7.27,14.7 -15.2,29.07 -23.58,43.16 -3.78,-3.41 -7.34,-7.04 -10.66,-10.89 3.46,-3.75 7.22,-7.25 10.17,-11.43 2.58,-3.87 0.22,-9.42 -3.81,-11.22 -2.39,-1.22 -5.12,-0.7 -7.66,-0.53 -1.97,3.6 -4.28,7 -6.78,10.24 -2.94,-6.29 -5.25,-12.92 -6.21,-19.82 5.52,0.92 10.75,2.86 15.9,4.96 4.34,0.71 7.52,-3.76 8.48,-7.52 0.75,-2.69 0.48,-6.61 -2.67,-7.58 -7.28,-2.75 -14.97,-4.25 -22.67,-5.18 0.2,-2.41 0.41,-4.82 0.63,-7.22 15.89,4.4 32,8.07 48.31,10.57 7.82,1.97 13.99,-9.32 8.81,-15.17 -1.35,-1.98 -3.93,-1.94 -6.03,-2.31 -15.79,-2.04 -31.5,-4.78 -47.09,-8.03 1.79,-4.71 4.15,-9.17 6.79,-13.45 4.18,1.87 8.31,3.92 12.65,5.42 3.55,1.38 7.68,-0.77 9.32,-4.04 1.74,-3.2 0.89,-7.23 -1.12,-10.08 -3.53,-1.4 -7.32,-1.91 -10.94,-3.02 4.3,-4.92 9.74,-8.84 15.53,-11.8 1.26,5.34 0.61,10.82 0.59,16.24 1.33,4.19 6.46,5.63 10.41,5.09 2.66,-0.27 5.92,-1.87 5.74,-4.99 0.17,-7.58 -0.8,-15.15 -2.5,-22.52 2.3,-0.63 4.62,-1.24 6.93,-1.84 1.26,16.42 2.94,32.83 6.04,49.02 1.07,7.82 13.62,9.65 17.21,2.75 1.19,-1.68 0.53,-3.73 0.24,-5.56 -3.31,-15.69 -5.84,-31.53 -8.01,-47.41 z"
           id="path95" />
      </g>
    </g>
  </g>
</svg>
