<?xml version="1.0" encoding="UTF-8" standalone="no"?>
<!-- Created with Inkscape (http://www.inkscape.org/) -->

<svg
   width="9.448844mm"
   height="8.4033098mm"
   viewBox="0 0 9.4488438 8.4033097"
   version="1.1"
   id="svg5"
   xml:space="preserve"
   sodipodi:docname="house.svg"
   inkscape:version="1.2.1 (9c6d41e410, 2022-07-14, custom)"
   xmlns:inkscape="http://www.inkscape.org/namespaces/inkscape"
   xmlns:sodipodi="http://sodipodi.sourceforge.net/DTD/sodipodi-0.dtd"
   xmlns="http://www.w3.org/2000/svg"
   xmlns:svg="http://www.w3.org/2000/svg"><sodipodi:namedview
     id="namedview7"
     pagecolor="#ffffff"
     bordercolor="#666666"
     borderopacity="1.0"
     inkscape:showpageshadow="2"
     inkscape:pageopacity="0.0"
     inkscape:pagecheckerboard="0"
     inkscape:deskcolor="#d1d1d1"
     inkscape:document-units="mm"
     showgrid="false"
     inkscape:zoom="17.557358"
     inkscape:cx="20.56118"
     inkscape:cy="13.868829"
     inkscape:window-width="3840"
     inkscape:window-height="2160"
     inkscape:window-x="1920"
     inkscape:window-y="0"
     inkscape:window-maximized="1"
     inkscape:current-layer="layer1" /><defs
     id="defs2" /><g
     inkscape:label="Layer 1"
     inkscape:groupmode="layer"
     id="layer1"
     transform="translate(-55.794817,-47.023929)"><path
       style="fill:#ffffff;stroke-width:0.0138651"
       d="m 57.758811,55.416858 c -0.123439,-0.01819 -0.222505,-0.05022 -0.339325,-0.109744 -0.271134,-0.138142 -0.459624,-0.371832 -0.545513,-0.676327 -0.02987,-0.105901 -0.03016,-0.118593 -0.03449,-1.496786 l -0.0044,-1.389979 h -0.293161 c -0.334624,0 -0.400643,-0.01192 -0.523366,-0.09452 -0.148922,-0.100231 -0.224586,-0.245258 -0.223732,-0.428832 5.39e-4,-0.115824 0.025,-0.199176 0.08611,-0.293436 0.03603,-0.05558 0.54669,-0.510104 2.171733,-1.933015 1.330603,-1.165095 2.154469,-1.877033 2.204484,-1.904991 0.111629,-0.0624 0.185745,-0.07567 0.325395,-0.05827 0.08509,0.0106 0.135985,0.02589 0.195187,0.05863 0.05121,0.02832 0.623055,0.521731 1.585928,1.368406 0.828213,0.728266 1.793583,1.576962 2.145267,1.885992 0.617195,0.542337 0.641036,0.565118 0.685767,0.655257 0.05608,0.11301 0.06408,0.234164 0.02353,0.356563 -0.0514,0.155165 -0.146103,0.263326 -0.300067,0.342706 -0.07464,0.03849 -0.07567,0.0386 -0.399479,0.04319 l -0.324642,0.0046 0.009,1.333376 c 0.0056,0.831336 0.0039,1.368004 -0.0044,1.425345 -0.05244,0.361427 -0.260701,0.651225 -0.582178,0.810104 -0.05523,0.0273 -0.14807,0.06323 -0.2063,0.07984 l -0.105873,0.03021 -2.73143,0.0019 c -1.508012,0.0011 -2.76845,-0.0035 -2.814081,-0.01025 z"
       id="path767"
       sodipodi:nodetypes="ccsccscscsscssssccsccccccccc" /></g></svg>
