<?xml version="1.0" encoding="UTF-8" standalone="no"?>
<!-- Created with Inkscape (http://www.inkscape.org/) -->

<svg
   width="74.985863mm"
   height="188.965mm"
   viewBox="0 0 74.985863 188.965"
   version="1.1"
   id="svg5"
   inkscape:version="1.1.1 (3bf5ae0d25, 2021-09-20)"
   sodipodi:docname="pillar.svg"
   xmlns:inkscape="http://www.inkscape.org/namespaces/inkscape"
   xmlns:sodipodi="http://sodipodi.sourceforge.net/DTD/sodipodi-0.dtd"
   xmlns="http://www.w3.org/2000/svg"
   xmlns:svg="http://www.w3.org/2000/svg">
  <sodipodi:namedview
     id="namedview7"
     pagecolor="#ffffff"
     bordercolor="#666666"
     borderopacity="1.0"
     inkscape:pageshadow="2"
     inkscape:pageopacity="0.0"
     inkscape:pagecheckerboard="0"
     inkscape:document-units="mm"
     showgrid="false"
     inkscape:zoom="2.56"
     inkscape:cx="137.89063"
     inkscape:cy="49.609375"
     inkscape:window-width="634"
     inkscape:window-height="817"
     inkscape:window-x="1280"
     inkscape:window-y="0"
     inkscape:window-maximized="1"
     inkscape:current-layer="layer1"
     fit-margin-top="0"
     fit-margin-left="0"
     fit-margin-right="0"
     fit-margin-bottom="0" />
  <defs
     id="defs2" />
  <g
     inkscape:label="Layer 1"
     inkscape:groupmode="layer"
     id="layer1"
     transform="translate(256.40727,-77.673621)">
    <path
       id="path872"
       style="fill:#ffffff;stroke-width:0.267403"
       d="m -231.85315,77.683533 c -3.33017,0.08907 -6.70201,-0.141157 -9.99914,0.320449 -1.51712,0.564794 -1.66096,2.285541 -1.2587,3.499707 0.0391,0.517131 0.46343,1.16768 0.30273,1.596008 -4.26475,1.888104 -7.67692,5.205086 -9.2028,9.17617 -1.4278,3.515308 -1.97968,7.476349 -0.51127,11.056883 1.46565,3.89907 5.04985,7.44956 9.78023,8.32786 1.86526,0.35432 3.82515,0.14222 5.63544,-0.23684 0.41643,0.35282 -0.0267,0.94038 0.11892,1.39133 -0.41421,13.43708 -1.26461,26.85993 -1.8975,40.28978 -1.3235,26.27108 -2.77437,52.54022 -3.47626,78.83122 -0.11887,3.34113 -0.19346,6.69388 -0.39636,10.02623 -0.54795,1.30839 -1.78118,2.33714 -3.06382,3.11206 -0.74837,0.199 -1.48462,0.54509 -1.74276,1.23415 -0.76557,0.86701 -1.86412,1.56544 -2.14214,2.69531 -0.31846,0.65256 0.0503,1.62571 -0.82582,1.97003 -0.92166,0.48087 -0.97658,1.58399 -0.88655,2.42255 0.13742,0.98663 0.90207,1.8371 1.92278,2.25 0.47958,0.39463 -0.033,0.88302 -0.50425,0.98617 -1.08319,0.40561 -2.64032,0.38913 -3.14423,1.51232 -0.74368,0.79033 -2.06107,1.19149 -2.4696,2.25369 -1.1199,1.92247 -1.0392,4.38989 0.15052,6.24001 h 73.18655 c 1.27776,-2.32401 1.2424,-5.45577 -0.91291,-7.37801 -0.74244,-0.49297 -1.53761,-0.98509 -1.96341,-1.72419 -0.94535,-0.76912 -2.5803,-0.42792 -3.35537,-1.40757 -0.0484,-0.71408 1.08969,-0.75939 1.41689,-1.31836 0.88825,-0.9645 0.9714,-2.45872 0.23832,-3.50135 -0.42389,-0.39154 -1.26072,-0.65283 -1.06205,-1.32677 0.0118,-1.3985 -1.08899,-2.51872 -2.13521,-3.45961 -0.44889,-0.63041 -0.9606,-1.36318 -1.89613,-1.45446 -1.5345,-0.51847 -2.24868,-1.90957 -3.20538,-2.97265 -0.6602,-25.92604 -1.82661,-51.83983 -3.20614,-77.74363 -0.88256,-17.48309 -1.85036,-34.96511 -2.54931,-52.45376 -0.0653,-0.41697 0.42045,-0.65709 0.76159,-0.38855 3.12591,0.61405 6.59618,0.26874 9.21546,-1.42579 5.18664,-3.12791 7.44973,-9.16251 6.14583,-14.462271 -0.82215,-3.983107 -2.98115,-7.858289 -6.62274,-10.443231 -1.10113,-0.804729 -2.31217,-1.49269 -3.60367,-2.043713 -0.13961,-0.721477 0.40783,-1.391065 0.41201,-2.12078 0.24155,-1.127878 -0.0818,-2.728955 -1.56809,-3.035846 -1.95339,-0.389891 -3.98299,-0.158726 -5.96959,-0.25562 -9.90516,-0.07402 -19.81069,-0.04303 -29.71607,-0.03893 z m 12.90658,2.158203 h 22.28322 c 0.041,1.187062 -0.43899,2.309038 -0.89759,3.410157 -14.22128,0.03711 -28.44254,0.07422 -42.6638,0.111328 -0.52239,-1.128848 -0.8662,-2.31024 -0.9849,-3.521485 z m -19.84559,4.619141 c 13.50571,0.01204 27.01143,0.01595 40.51716,0.01172 3.7247,1.006032 7.10553,3.143698 8.98894,6.167295 2.82154,4.203416 3.38826,9.735148 0.72467,14.112828 -1.57942,2.57153 -4.55514,4.69922 -8.02388,4.77836 -2.85985,0.21132 -5.83243,-0.74491 -7.67743,-2.6952 -1.85294,-1.6961 -2.94603,-4.04318 -2.72569,-6.39909 -0.10521,-2.890739 1.55163,-5.856031 4.33191,-7.454909 1.98916,-0.95387 4.64389,-0.89019 6.52917,0.22058 1.94039,1.208443 2.99083,3.295701 2.74245,5.354406 -0.0189,2.099973 -1.37853,4.369233 -3.84754,4.921653 -2.12973,0.55535 -4.57436,-0.46618 -5.33667,-2.3124 -0.95461,-1.9266 0.13704,-4.484334 2.3422,-5.361492 1.43618,-0.291885 3.27658,0.17999 3.80302,1.501953 0.28079,0.785965 0.29356,1.649499 -0.0381,2.425781 -0.038,-1.127554 -0.63966,-2.614307 -2.13584,-2.728943 -0.99295,-0.01605 -2.06908,0.717195 -2.07681,1.590271 0.55304,0.326178 0.80017,-0.47255 1.1371,-0.716796 0.72486,-0.619882 2.04551,-0.200493 2.18243,0.667968 0.3866,1.00189 -0.15034,2.436708 -1.51315,2.541018 -1.11528,-0.23378 -1.22432,-1.405952 -1.8131,-2.101565 -0.5201,0.451902 -8.9e-4,1.094225 0.14549,1.578125 0.5818,1.07276 2.3509,1.47827 3.38894,0.6543 1.17884,-0.66635 1.70182,-1.935879 1.54449,-3.12305 -0.0557,-1.801946 -2.23654,-3.37134 -4.28432,-2.902441 -2.67386,0.429145 -4.21749,3.088981 -3.5621,5.297221 0.46831,2.14429 2.7552,4.04759 5.35644,3.80464 2.98251,-0.21553 5.20186,-2.65926 5.48271,-5.158404 0.57361,-3.253433 -1.8925,-6.834664 -5.67367,-7.510817 -2.44207,-0.326379 -4.84618,0.431332 -7.23126,0.779172 -4.63793,0.882221 -9.35337,1.674048 -14.12363,1.506199 -5.75379,0.08698 -11.29535,-1.388187 -16.91172,-2.222129 -1.80463,-0.307746 -3.78369,-0.179763 -5.30287,0.801913 -2.78855,1.58115 -4.0551,4.791922 -3.14806,7.563206 0.6425,2.30248 3.03164,4.38673 5.87755,4.24741 2.60807,-0.0791 4.67768,-2.15132 4.83729,-4.359043 0.27186,-1.998212 -1.0801,-4.218604 -3.41549,-4.702688 -1.37185,-0.353995 -2.91686,0.09274 -3.74991,1.113574 -0.95159,0.962776 -0.97123,2.419415 -0.47591,3.557657 0.55532,1.22658 2.39353,2.25675 3.8156,1.45211 0.89339,-0.55431 1.31781,-1.579441 1.13263,-2.51172 -0.76452,0.670708 -0.77098,1.94108 -1.9474,2.23242 -1.5437,-0.0954 -2.03853,-1.851683 -1.37728,-2.88801 0.41956,-0.896195 2.0502,-0.741279 2.39798,0.132152 0.10189,0.325956 0.9696,0.577359 0.74092,0.02148 -0.32001,-1.235853 -2.43633,-1.857873 -3.36019,-0.757537 -0.59847,0.592424 -0.78088,1.404843 -0.82114,2.171599 -0.70654,-1.403218 -0.1028,-3.56154 1.84307,-3.892949 1.0454,-0.230767 2.36088,-0.239333 3.03122,0.625695 2.09623,1.622511 2.11508,4.90717 -0.22235,6.3765 -2.1705,1.43366 -5.54801,0.6746 -6.82699,-1.37347 -1.01367,-1.549365 -1.06206,-3.471209 -0.67891,-5.175229 0.64202,-2.203793 3.02076,-4.023021 5.68553,-3.992188 2.28023,-0.204363 4.43678,0.963414 5.66724,2.59057 1.56992,1.79824 2.20361,4.095693 1.99783,6.329737 -0.003,2.06504 -0.96257,4.08037 -2.63853,5.54604 -2.39794,2.36283 -6.41305,3.48791 -9.86622,2.40602 -4.18813,-1.24451 -7.05332,-4.9058 -7.47967,-8.68997 -0.86482,-5.600194 1.99208,-11.72097 7.66429,-14.652987 1.34593,-0.631568 2.82475,-1.33215 4.37751,-1.39855 z m 34.25638,8.708984 c -0.33965,0.591366 -1.02421,1.000361 -1.37739,1.604075 -0.46983,0.621533 -0.87422,1.277492 -1.31317,1.915457 -0.35427,-0.678692 -0.27601,-1.485111 -0.50811,-2.207032 -0.12829,-0.505273 0.26781,-0.983378 0.86803,-0.986217 0.7661,-0.186972 1.52952,-0.339136 2.32392,-0.402455 z m -28.55744,-0.05078 c 0.99936,0.120606 1.97752,0.344084 2.96812,0.533203 -0.15481,1.018909 -0.0295,2.088469 -0.4835,3.058594 -0.46825,-0.482405 -0.5445,-1.175345 -1.05765,-1.648132 -0.51305,-0.655823 -1.17099,-1.228224 -1.58366,-1.941712 0.0523,0.0011 0.10441,-0.0021 0.15669,-0.002 z m 14.18247,7.624999 h 10.85397 c 0.0597,0.60026 0.11938,1.20052 0.17907,1.80078 h -22.06833 c 0.0597,-0.60026 0.11938,-1.20052 0.17908,-1.80078 z m 1.07666,2.39258 c 2.71607,0.003 5.43321,-0.001 8.14776,0.084 -6.02785,0.19619 -12.06376,0.11427 -18.09322,0.0336 -0.59345,-0.0351 1.0896,-0.0545 1.44539,-0.0699 2.83248,-0.0756 5.66672,-0.0546 8.50007,-0.0478 z m -11.9866,1.01953 c 2.42423,0.0833 4.86521,-0.004 7.29673,0.0273 h 15.09841 c 0.54408,1.40296 2.08118,2.45446 2.04313,4.02535 0.26443,2.64356 0.17146,5.30282 0.36588,7.95083 1.68691,39.98701 4.16359,79.94894 5.29794,119.9532 0.11479,2.00043 0.0253,4.04714 0.64449,5.9925 0.26852,0.53416 1.49435,0.6931 1.53331,-0.0469 0.11197,-0.63427 0.13902,-1.31186 0.14666,-0.27095 -0.0375,1.04328 0.98494,1.8094 1.50541,2.68029 0.5795,0.74034 1.2601,1.41913 2.03233,2.01058 h -50.11317 c 1.47574,-1.1044 2.5047,-2.56954 3.46055,-4.02734 0.3844,0.29251 1.07581,0.1067 1.48629,-0.0918 0.71126,-0.65094 0.51514,-1.67977 0.70142,-2.50333 0.34726,-4.33142 0.335,-8.67863 0.51606,-13.01704 1.24628,-38.18467 3.61422,-76.33244 5.16202,-114.50754 0.12745,-1.66223 0.0449,-3.34722 0.30211,-4.99554 0.40816,-1.10518 1.44134,-1.93294 1.88249,-3.02343 0.15759,-0.15893 0.41761,-0.15926 0.63794,-0.15625 z m 10.75773,1.91016 c -1.69904,0.32724 -2.34118,2.03889 -2.18024,3.39522 -0.36519,10.69879 -0.29236,21.40412 -0.40373,32.10621 -0.23794,33.10508 -0.33733,66.21299 -0.50726,99.31693 0.18479,0.66352 0.97912,1.0094 1.51135,1.45213 1.53671,0.86651 3.93016,0.24789 4.68453,-1.19627 0.32838,-1.06361 0.014,-2.18154 0.13316,-3.26836 0.0543,-29.10278 -0.15298,-58.20531 -0.29658,-87.3077 -0.0941,-13.60555 -0.13452,-27.2132 -0.40065,-40.81652 -0.002,-1.25856 -0.1544,-2.79396 -1.56016,-3.48047 -0.29416,-0.1492 -0.63867,-0.23097 -0.98042,-0.20117 z m 6.34361,-0.004 c -1.58729,0.35627 -1.97802,2.00267 -1.92013,3.23861 -0.2649,6.00694 0.0901,12.01688 0.11266,18.02512 0.58721,35.65284 1.28103,71.30485 1.64399,106.9601 0.007,2.19323 -6.7e-4,4.39484 0.0381,6.58281 0.69683,0.91387 1.74294,2.11889 3.18828,1.76717 0.9803,-0.13211 1.78224,-0.75726 2.3495,-1.42341 -0.39739,-35.54871 -1.50829,-71.08696 -2.41663,-106.62747 -0.24133,-8.15079 -0.40257,-16.30441 -0.75194,-24.45214 -0.11449,-1.13074 -0.17064,-2.32134 -0.70385,-3.36572 -0.34214,-0.43247 -0.93382,-0.71864 -1.54001,-0.70507 z m -12.73871,0.0117 c -1.48248,0.29747 -1.75447,1.84225 -1.78176,2.95898 -0.52172,6.38603 -0.44511,12.7935 -0.69029,19.18941 -0.81523,32.26902 -1.79637,64.53544 -2.35577,96.80893 -0.0825,5.4276 -0.18218,10.8692 -0.17946,16.28878 0.79831,0.87259 2.18711,1.7896 3.5044,1.18509 0.88617,-0.32843 1.4716,-1.04745 2.01548,-1.69877 0.021,-21.69837 0.5165,-43.39336 0.83084,-65.08934 0.33783,-21.42022 0.77533,-42.83961 1.02479,-64.26066 -0.0354,-1.48418 0.0513,-3.05826 -0.61109,-4.44883 -0.36313,-0.52678 -1.00843,-1.00686 -1.75714,-0.93359 z m 17.59155,0.006 c -1.50957,0.46245 -1.72362,2.086 -1.67257,3.29022 -0.0457,5.68931 0.36472,11.3718 0.54548,17.05737 1.54439,37.2483 3.51869,74.4833 4.71746,111.74223 0.0511,1.09524 0.0589,2.21169 0.16341,3.293 0.71639,0.55458 1.54679,1.55647 2.64578,1.13085 0.99461,-0.2649 1.04861,-1.37277 1.18811,-2.11747 0.17827,-2.93433 -0.1098,-5.87376 -0.14435,-8.80974 -0.60559,-19.59607 -1.41798,-39.18687 -2.40678,-58.77102 -1.00313,-20.76997 -1.97186,-41.54165 -2.91101,-62.31359 -0.16199,-1.48542 0.006,-3.32252 -1.45849,-4.36904 -0.20149,-0.10204 -0.43345,-0.16264 -0.66704,-0.13281 z m -22.422,0.0117 c -1.51653,0.55884 -1.57147,2.21985 -1.70501,3.44187 -0.50298,8.06278 -0.72088,16.13666 -1.13996,24.20291 -1.506,33.50408 -3.37636,66.99771 -4.3716,100.5177 -0.0424,2.40593 -0.15847,4.83289 0.13483,7.22465 0.26294,0.83305 1.56339,1.70974 2.44491,0.969 0.43237,-0.37032 1.05516,-0.71865 1.27598,-1.19632 0.79788,-24.37467 1.82708,-48.74296 2.97019,-73.10702 0.86745,-19.42319 1.83261,-38.84428 2.44783,-58.27504 -0.0369,-1.26036 -0.0437,-2.83748 -1.32073,-3.66252 -0.22002,-0.11445 -0.48432,-0.15254 -0.73644,-0.11523 z m 5.19979,0.77148 c 1.31623,0.4572 1.08054,1.94516 1.13042,2.94646 0.15899,9.9424 -0.17806,19.884 -0.28758,29.82558 -0.50902,31.05299 -1.01439,62.10612 -1.38223,93.16066 -0.0921,2.81456 0.0186,5.67099 -0.54987,8.44509 -0.71884,1.18574 -2.83824,0.85973 -3.49846,-0.23617 -0.46141,-0.80797 -0.0362,-1.73798 -0.16183,-2.60016 0.63165,-38.13135 1.74529,-76.25472 2.74349,-114.37962 0.16911,-5.06779 0.24491,-10.14076 0.51651,-15.20431 0.12048,-0.71888 0.31565,-2.11659 1.48955,-1.95753 z m 12.55963,-0.0234 c 1.304,0.27739 1.28998,1.68835 1.34147,2.63041 0.43734,9.52124 0.54616,19.05116 0.84406,28.57613 0.89205,33.9483 1.83408,67.89641 2.39373,101.85035 0.17195,0.70397 -0.19902,1.39153 -0.91,1.7403 -0.92648,0.62181 -2.70437,0.4675 -2.87911,-0.71906 -0.41871,-1.75153 -0.2988,-3.56144 -0.41701,-5.34033 -0.12062,-6.67799 -0.0735,-13.35749 -0.21787,-20.03546 -0.41218,-31.69134 -1.07476,-63.37985 -1.48995,-95.07112 -0.002,-3.95532 -0.15002,-7.9152 0.0365,-11.86755 0.0787,-0.66863 0.30886,-1.73866 1.29826,-1.76367 z m -17.47515,0.0352 c 1.14491,0.34069 0.92991,1.6326 1.03028,2.46756 0.0755,4.95003 -0.35114,9.89223 -0.47931,14.83936 -1.56608,38.16001 -3.62787,76.3052 -4.82046,114.47631 -0.15093,1.05969 0.20073,2.38733 -0.84524,3.1699 -0.69349,0.39487 -1.78488,-0.12207 -1.56783,-0.87723 -0.32252,-5.51942 0.0738,-11.04486 0.20223,-16.56455 0.86881,-25.04414 2.18155,-50.07434 3.34129,-75.10901 0.63611,-13.34765 1.2035,-26.69862 1.91689,-40.04296 0.15341,-0.79994 0.13309,-1.84976 0.99383,-2.33008 0.0724,-0.028 0.15133,-0.027 0.22832,-0.0293 z m 22.24069,0.004 c 1.15035,0.33882 1.03846,1.64881 1.14253,2.50775 0.62157,9.20652 0.8881,18.42817 1.36917,27.64078 1.48796,32.44797 3.25075,64.88879 4.2038,97.35333 0.008,2.32205 0.12908,4.66354 -0.1145,6.97275 -0.33221,0.79344 -1.79643,0.76557 -2.03213,-0.0592 -0.49879,-1.13333 -0.25649,-2.43849 -0.39743,-3.64512 -0.72895,-23.52874 -1.78478,-47.04826 -2.88075,-70.56578 -0.8252,-18.26744 -1.73704,-36.53289 -2.3379,-54.80723 0.0212,-1.55455 -0.10212,-3.14458 0.2436,-4.67268 0.12787,-0.31591 0.35545,-0.73202 0.80358,-0.72461 z m -10.91665,0.0742 c 1.35945,0.29528 1.5201,1.70244 1.45505,2.72405 0.34347,9.84217 0.21187,19.69058 0.32512,29.53567 0.19005,33.83921 0.3801,67.67842 0.57014,101.51763 -0.88786,1.3014 -3.14527,1.8042 -4.46247,0.67456 -0.68269,-0.43092 -0.81838,-1.17778 -0.68865,-1.85151 0.24526,-42.01706 0.4292,-84.03453 0.7527,-126.05116 0.0526,-1.91234 -0.0401,-3.8752 0.43423,-5.7426 0.30155,-0.50064 0.93864,-0.9208 1.61388,-0.80664 z m -14.70848,1.3418 c 0.29672,2.20495 -0.0693,4.42662 -0.0801,6.63849 -1.26148,28.85232 -2.80194,57.69479 -4.10479,86.54555 -0.55285,12.80689 -0.86355,25.62106 -1.40626,38.42794 -0.0925,0.64726 -0.0889,1.43242 -0.5734,1.93881 -0.29591,-0.32995 -0.0894,-0.96335 -0.187,-1.40018 -0.1544,-5.12173 0.18512,-10.24232 0.29346,-15.36261 1.15073,-34.85246 3.25338,-69.67334 4.84796,-104.51105 0.22638,-3.92255 0.28743,-7.86198 0.72887,-11.76914 0.0465,-0.17295 0.37431,-1.09657 0.48125,-0.50781 z m 29.05659,-0.20899 c 0.88371,1.1547 0.4973,2.63005 0.70833,3.93513 1.75841,38.814 4.06542,77.60982 5.3816,116.43846 0.11094,4.44724 0.36448,8.91064 0.0836,13.35103 -0.36111,0.0304 -0.50546,-0.57188 -0.53137,-0.84953 -0.39205,-3.08559 -0.31962,-6.20162 -0.4751,-9.30093 -0.35724,-11.52123 -0.71406,-23.04278 -1.29122,-34.5576 -1.31879,-29.1521 -2.9329,-58.29552 -4.08917,-87.45223 0.0609,-0.50634 -0.1305,-1.16634 0.21336,-1.56433 z m -0.44096,138.98634 c 3.99812,0.0671 8.05541,-0.0838 12.01346,0.23828 -3.1428,0.19924 -6.30616,0.15732 -9.45855,0.20225 -12.54051,0.008 -25.08189,0.0742 -37.62188,-0.0465 -1.7437,-0.0498 -3.50007,-0.003 -5.23533,-0.14794 1.85324,-0.2391 3.75992,-0.14343 5.63442,-0.20288 11.55558,-0.0796 23.112,-0.0468 34.66788,-0.0432 z m -9.32964,1.30859 c 7.06776,0.0205 14.14163,-0.10033 21.20432,0.17383 0.93591,0.13184 2.33789,-0.11011 2.79352,0.82813 0.19415,0.86895 -0.0254,2.07217 -1.03211,2.45775 -4.25465,0.20606 -8.52065,0.0779 -12.7801,0.13802 -14.26214,0.0392 -28.5304,0.0688 -42.78847,-0.11461 -0.9209,-0.26461 -1.00395,-1.31549 -1.08285,-2.02436 -0.062,-0.66002 0.56232,-1.19177 1.30663,-1.14265 2.98291,-0.35752 6.00952,-0.21815 9.01237,-0.29296 7.78869,-0.0527 15.57786,-0.0281 23.36669,-0.0231 z m 8.02689,4.48243 c 5.75815,0.0563 11.56376,-0.0994 17.28936,0.2539 -7.51616,0.35927 -15.05843,0.17256 -22.58584,0.23361 -12.25748,-0.0202 -24.52042,0.0951 -36.77384,-0.16141 -0.91632,-0.0323 -0.65731,-0.12552 0.10773,-0.15822 4.15384,-0.18516 8.31888,-0.0978 12.47743,-0.15355 9.82829,-0.0417 19.65679,-0.0145 29.48515,-0.0143 z m -4.75659,1.09765 c 6.93989,0.0256 13.88138,0.005 20.81931,0.16992 -0.70122,0.90654 -1.06048,2.19078 -0.21488,3.1211 0.26682,0.34205 0.61473,0.62835 0.97369,0.89453 -3.58463,0.3362 -7.19883,0.13882 -10.79667,0.21298 -15.68409,0.0114 -31.37047,0.0814 -47.05302,-0.078 -0.38727,-0.0539 -1.35832,-0.003 -1.34688,-0.19753 1.19849,-0.7938 1.90822,-2.48039 0.80806,-3.57422 -0.42531,-0.48257 0.41506,-0.45328 0.74805,-0.39817 12.01938,-0.20429 24.04147,-0.14292 36.06234,-0.15066 z m -20.9939,5.01753 c 13.56319,0.003 27.12723,-0.0462 40.68976,0.0464 1.45241,0.056 2.96881,0.036 4.37584,0.24652 -3e-5,0.35205 -0.89203,0.1784 -1.23837,0.26905 -5.36454,0.23823 -10.73991,0.0968 -16.10919,0.14833 -14.97795,-1.9e-4 -29.95829,0.0815 -44.93458,-0.0925 -0.67384,-0.0638 -1.5028,10e-4 -2.06946,-0.26821 0.63487,-0.36811 1.554,-0.12375 2.29721,-0.23006 5.66087,-0.16043 11.32583,-0.12383 16.98879,-0.11955 z m 25.45054,1.57812 c 7.26814,0.0294 14.53731,0.003 21.8042,0.14258 1.346,0.9771 1.17017,2.76549 0.71854,4.09571 -0.23781,0.62079 -0.77842,1.34653 -1.65463,1.1321 -21.63288,0.0137 -43.267,0.16259 -64.89916,0.0171 -0.99991,-0.0653 -2.11308,0.0391 -3.01744,-0.35506 -1.26164,-1.32436 -1.303,-3.55275 0.11048,-4.78691 1.18623,-0.20767 2.49366,-0.12382 3.72843,-0.17327 14.4029,-0.0873 28.80628,-0.0791 43.20955,-0.0722 z"
       sodipodi:nodetypes="scccccccccccccccccccccccccccccccccccccccccssccccccscccccccccccccccccccccccccccccccccccccccccccccccccccccccccccscccccccccccccccccccccccccccccccccccccccccccccccccccccccccccccccccccccccccccccccccccccccccccccccccccccccccccccccccccccccccccccccccccccccccscccccccccssccccccccccccccccccccccccccccccscccccsscccccccccccscccccsscccccccccccscccccccsscccccccccc" />
  </g>
</svg>
