<?xml version="1.0" encoding="UTF-8" standalone="no"?>
<!-- Created with Inkscape (http://www.inkscape.org/) -->

<svg
   width="19.637125mm"
   height="16.036745mm"
   viewBox="0 0 19.637125 16.036745"
   version="1.1"
   id="svg5"
   xml:space="preserve"
   sodipodi:docname="bee.svg"
   inkscape:version="1.2.2 (b0a8486541, 2022-12-01)"
   xmlns:inkscape="http://www.inkscape.org/namespaces/inkscape"
   xmlns:sodipodi="http://sodipodi.sourceforge.net/DTD/sodipodi-0.dtd"
   xmlns="http://www.w3.org/2000/svg"
   xmlns:svg="http://www.w3.org/2000/svg"><sodipodi:namedview
     id="namedview7"
     pagecolor="#ffffff"
     bordercolor="#666666"
     borderopacity="1.0"
     inkscape:showpageshadow="2"
     inkscape:pageopacity="0.0"
     inkscape:pagecheckerboard="0"
     inkscape:deskcolor="#d1d1d1"
     inkscape:document-units="mm"
     showgrid="false"
     inkscape:zoom="12.414927"
     inkscape:cx="44.422331"
     inkscape:cy="40.314373"
     inkscape:window-width="1914"
     inkscape:window-height="2126"
     inkscape:window-x="3840"
     inkscape:window-y="0"
     inkscape:window-maximized="1"
     inkscape:current-layer="layer1" /><defs
     id="defs2" /><g
     inkscape:label="Layer 1"
     inkscape:groupmode="layer"
     id="layer1"
     transform="translate(635.19397,-88.255816)"><path
       id="path10722"
       style="fill:#ffd42a;fill-opacity:1;stroke:none;stroke-width:0.265002;stroke-linecap:round;stroke-miterlimit:2;stroke-dasharray:none;stroke-opacity:1;paint-order:fill markers stroke;stop-color:#000000"
       d="m -626.68459,95.261034 c -0.0767,0.01193 -0.14064,0.06221 -0.20473,0.10272 -0.20148,0.142944 -0.38988,0.305525 -0.55777,0.486859 -0.0371,0.04589 -0.0859,0.08991 -0.0977,0.149957 0.005,0.04784 0.0605,0.06498 0.0954,0.08764 0.27382,0.139279 0.5643,0.242472 0.85568,0.338198 0.43495,0.140474 0.89289,0.231984 1.35174,0.200611 0.46887,-0.02871 0.92241,-0.166417 1.36127,-0.326419 0.2252,-0.08056 0.45132,-0.158964 0.67522,-0.243018 0.0307,-0.02108 6.8e-4,-0.05236 -0.0167,-0.07021 -0.18253,-0.195518 -0.37212,-0.384555 -0.56708,-0.567669 -0.064,-0.05407 -0.12394,-0.116454 -0.19908,-0.15514 -0.0381,-0.01365 -0.0681,0.02531 -0.0986,0.04147 -0.12868,0.09232 -0.24669,0.199635 -0.38437,0.279181 -0.15462,0.0973 -0.32255,0.168397 -0.50371,0.193542 -0.31385,0.04624 -0.64011,0.01056 -0.94356,-0.08587 -0.18209,-0.05889 -0.35304,-0.143934 -0.49664,-0.271643 -0.0768,-0.06097 -0.15514,-0.12601 -0.24914,-0.157967 -0.007,-0.0016 -0.0134,-0.0025 -0.0202,-0.0022 z m -1.20436,1.684748 c -0.0517,0.0035 -0.0891,0.05142 -0.0985,0.100247 -0.0202,0.10508 -0.003,0.213054 0.007,0.318408 0.0306,0.230593 0.0668,0.461988 0.13535,0.68476 0.0522,0.164452 0.13249,0.325339 0.26446,0.44033 0.17117,0.155353 0.39503,0.231124 0.61031,0.303094 0.53074,0.166978 1.08892,0.226433 1.64305,0.2429 0.28873,0.0014 0.57813,-0.003 0.86499,-0.03911 0.39,-0.04612 0.78433,-0.147821 1.11284,-0.370709 0.17927,-0.123423 0.3378,-0.286321 0.42902,-0.485919 0.0458,-0.12689 0.0581,-0.262866 0.0737,-0.396037 0.0178,-0.197774 0.0274,-0.397379 0.0118,-0.595587 -0.007,-0.03779 -0.008,-0.08619 -0.0425,-0.11014 -0.0523,-0.01411 -0.10405,0.01773 -0.15255,0.03357 -0.30886,0.13084 -0.59254,0.311992 -0.90092,0.443982 -0.21895,0.09767 -0.44771,0.165239 -0.68511,0.19048 -0.29977,0.03141 -0.6057,0.02825 -0.90752,0.01566 -0.51279,-0.02145 -1.02513,-0.122768 -1.49344,-0.336078 -0.21136,-0.09288 -0.40845,-0.213674 -0.60478,-0.334193 -0.0796,-0.04556 -0.1623,-0.101186 -0.2568,-0.105666 -0.004,-1.71e-4 -0.007,-2.28e-4 -0.0105,0 z m 0.20708,1.993734 c -0.0342,9.12e-4 -0.056,0.03553 -0.0536,0.06844 -0.006,0.181248 0.0375,0.359737 0.0822,0.534097 0.037,0.126685 0.0723,0.257238 0.14348,0.369767 0.11524,0.15888 0.28419,0.26812 0.45293,0.36294 0.24876,0.13482 0.5174,0.23245 0.79302,0.29543 0.35115,0.067 0.70918,0.0883 1.06583,0.10119 0.31944,0.008 0.6407,0.01 0.95806,-0.0323 0.21469,-0.0295 0.41162,-0.12911 0.59877,-0.23336 0.20563,-0.12033 0.40607,-0.25689 0.56696,-0.434325 0.11399,-0.126726 0.15149,-0.298769 0.18894,-0.46 0.0312,-0.158959 0.0595,-0.321376 0.0488,-0.483915 -0.002,-0.03667 -0.0174,-0.09318 -0.0651,-0.08517 -0.1648,0.04766 -0.3226,0.116616 -0.48168,0.180347 -0.34929,0.146693 -0.70739,0.284404 -1.08551,0.334784 -0.18788,0.02781 -0.37478,0.03801 -0.56472,0.03781 -0.26258,2.28e-4 -0.5257,0.0087 -0.78607,-0.02497 -0.45432,-0.04992 -0.88396,-0.219703 -1.31133,-0.377073 -0.16468,-0.05687 -0.32883,-0.119903 -0.50087,-0.15078 -0.0143,-0.0021 -0.0287,-0.0032 -0.0431,-0.0027 -0.002,-2.28e-4 -0.005,-2.28e-4 -0.007,-2.28e-4 z" /><path
       id="path10740"
       style="fill:#ffffff;stroke-width:0.999999"
       d="m -629.34904,92.066222 c -0.074,2.28e-4 -0.13454,0.03739 -0.17411,0.111321 -0.0837,0.156339 0.5131,0.590637 0.80795,0.641188 0.52267,0.08961 0.58218,0.118328 0.62597,0.301564 0.0233,0.09758 0.0855,0.367169 0.13818,0.59912 0.10223,0.450222 0.18804,0.571169 0.55471,0.781944 0.12772,0.07341 0.24075,0.127271 0.25115,0.119566 0.0347,-0.0257 -0.30346,-1.078527 -0.42502,-1.323226 -0.17516,-0.35262 -0.40021,-0.566137 -0.67451,-0.639997 -0.1331,-0.03584 -0.30763,-0.116848 -0.38791,-0.179996 -0.0934,-0.07344 -0.64239,-0.41176 -0.71641,-0.411484 z m 8.27725,0.08805 c -0.16463,0 -1.31789,0.404201 -1.62048,0.560675 -0.16475,0.08519 -0.53221,0.709228 -0.7115,1.208373 -0.0357,0.09952 -0.10866,0.282717 -0.16209,0.407111 -0.0881,0.205046 -0.0639,0.294967 0.0491,0.181998 0.0243,-0.02432 0.15692,-0.0859 0.29462,-0.136763 0.24729,-0.09135 0.25295,-0.100163 0.46341,-0.72222 0.23306,-0.688847 0.18889,-0.647234 0.79938,-0.751906 0.43924,-0.07531 1.27045,-0.747268 0.88754,-0.747268 z"
       sodipodi:nodetypes="ssssscsscsssssssssss" /><path
       id="path10720"
       style="fill:#eca009;fill-opacity:1;stroke:none;stroke-width:0.265;stroke-linecap:round;stroke-miterlimit:2;stroke-dasharray:none;stroke-opacity:1;paint-order:fill markers stroke;stop-color:#000000"
       d="m -634.28198,90.864573 c -0.14869,2.28e-4 -0.29464,0.04636 -0.42678,0.111908 -0.17312,0.0895 -0.29475,0.25889 -0.34314,0.445748 -0.0904,0.308186 -0.0366,0.639476 0.0823,0.932136 0.18926,0.473313 0.50271,0.880481 0.79937,1.289889 0.11161,0.16063 0.22794,0.318347 0.3157,0.493928 0.0208,0.06786 0.026,0.140247 0.0555,0.205911 0.089,0.224896 0.21295,0.437822 0.37142,0.620914 0.12604,0.14268 0.31264,0.206947 0.48663,0.269875 0.324,0.105835 0.66379,0.172676 1.0054,0.172339 0.1374,-0.0023 0.27535,-0.03045 0.39581,-0.0986 0.24274,-0.134057 0.46924,-0.295269 0.69689,-0.453051 0.17144,-0.126067 0.34783,-0.253908 0.47744,-0.425016 0.0404,-0.0526 0.0728,-0.140114 0.0134,-0.191775 -0.0694,-0.05318 -0.16277,-0.05519 -0.24502,-0.07433 -0.26937,-0.04195 -0.54079,-0.06845 -0.80762,-0.125219 -0.32029,-0.05824 -0.63403,-0.169726 -0.963,-0.166567 -0.27451,-4.56e-4 -0.5554,-9.8e-4 -0.82047,0.07951 -0.13439,0.03846 -0.24533,0.136664 -0.30945,0.259745 -0.0173,0.02864 -0.0366,0.06422 -0.0531,0.08776 -0.003,-0.08189 0.009,-0.167896 0.0628,-0.233004 0.12487,-0.164072 0.33195,-0.227222 0.52385,-0.273763 0.0686,-0.01856 0.13783,-0.03482 0.20567,-0.05584 0.0323,-0.02889 0.006,-0.07878 0.0105,-0.116503 -0.007,-0.165193 -0.0304,-0.335025 0.0181,-0.496283 0.0266,-0.08443 0.0894,-0.150797 0.1224,-0.231356 0.0145,-0.07138 -0.0621,-0.113502 -0.11038,-0.14925 -0.2364,-0.15886 -0.50041,-0.277009 -0.71692,-0.463889 -0.0744,-0.07075 -0.16191,-0.145208 -0.18365,-0.250203 -6.8e-4,-0.02006 0.0132,-0.06076 0.0376,-0.0384 0.0733,0.05031 0.11243,0.135895 0.18824,0.184 0.28488,0.21923 0.60434,0.393694 0.94074,0.519843 0.13127,0.05047 0.27401,0.06124 0.41335,0.05819 0.0437,0.0054 0.0588,-0.03525 0.0443,-0.07056 -0.047,-0.193284 -0.13207,-0.374943 -0.2098,-0.557303 -0.10279,-0.220014 -0.20001,-0.449527 -0.36211,-0.633754 -0.14446,-0.152984 -0.34283,-0.237511 -0.53021,-0.324887 -0.34375,-0.147383 -0.70748,-0.251868 -1.07891,-0.298147 -0.0355,-0.0031 -0.0711,-0.0043 -0.10672,-0.004 z m 17.60387,0.173752 c -0.37369,0.0091 -0.73762,0.115391 -1.08527,0.245962 -0.33242,0.127567 -0.65192,0.293511 -0.93367,0.51254 -0.44786,0.335451 -0.89385,0.675899 -1.30332,1.058062 -0.0723,0.07489 -0.15836,0.143312 -0.2045,0.238541 -0.0187,0.04782 0.0361,0.07699 0.0765,0.07704 0.21491,0.0191 0.4292,-0.02438 0.64035,-0.05913 0.36563,-0.07013 0.73044,-0.155252 1.07904,-0.287663 0.1993,-0.08738 0.39665,-0.180024 0.60512,-0.242782 0.26976,-0.08173 0.53327,-0.190027 0.76817,-0.347622 0.061,-0.03651 0.12196,-0.07532 0.19,-0.0973 -0.0931,0.149238 -0.2308,0.265713 -0.38237,0.354336 -0.18491,0.108501 -0.39204,0.162545 -0.59264,0.233005 -0.0647,0.01995 -0.11789,0.07625 -0.12016,0.14607 -0.0159,0.182864 -0.0123,0.371973 -0.0834,0.545169 -0.0381,0.110988 -0.10888,0.210655 -0.13087,0.326772 -0.003,0.06441 0.0707,0.0935 0.11556,0.123688 0.18989,0.112873 0.41208,0.174396 0.57344,0.330895 0.0116,0.01443 0.0354,0.03737 0.0286,0.05442 -0.10422,-0.0097 -0.19758,-0.06599 -0.29285,-0.105665 -0.15557,-0.0701 -0.32338,-0.122695 -0.49593,-0.1145 -0.35059,-0.0075 -0.69729,0.05482 -1.04499,0.0887 -0.34973,0.04068 -0.70145,0.06536 -1.0517,0.103898 -0.0688,0.0093 -0.16341,0.025 -0.1807,0.106018 -0.0227,0.121299 -0.007,0.258877 0.0823,0.351392 0.15271,0.163018 0.33613,0.293032 0.507,0.435853 0.17834,0.141317 0.35377,0.288387 0.53422,0.42584 0.11916,0.0023 0.24077,-0.0096 0.36093,-0.01202 0.31147,-0.01559 0.6255,-0.01591 0.93367,-0.06856 0.16992,-0.03274 0.3347,-0.104237 0.46931,-0.213568 0.13182,-0.124134 0.20621,-0.294082 0.28754,-0.45258 0.16657,-0.334172 0.30131,-0.686355 0.51443,-0.994098 0.1371,-0.210273 0.30217,-0.399513 0.46294,-0.592407 0.25657,-0.32401 0.48584,-0.684269 0.58511,-1.089868 0.0592,-0.246043 0.0563,-0.526297 -0.0921,-0.741539 -0.14458,-0.213264 -0.40501,-0.312133 -0.65331,-0.332662 -0.0553,-0.0051 -0.11092,-0.007 -0.16645,-0.0062 z m -15.57185,0.467069 v 1.18e-4 c -0.0378,0.0027 -0.0782,0.02583 -0.0717,0.06891 0.0205,0.113919 0.0814,0.215965 0.12381,0.322649 0.10104,0.223082 0.18818,0.452691 0.27506,0.681815 0.0451,0.09794 0.0847,0.206154 0.16774,0.278946 0.14675,0.09994 0.32548,0.137569 0.49734,0.169865 0.1243,0.02093 0.25241,0.02202 0.37743,0.0084 0.0489,-0.0095 0.11629,-0.05056 0.0925,-0.109435 -0.0605,-0.112342 -0.15367,-0.203298 -0.23536,-0.300267 -0.30688,-0.337886 -0.62554,-0.666114 -0.96759,-0.968654 -0.0714,-0.05424 -0.13488,-0.131947 -0.22618,-0.151253 -0.006,-6.84e-4 -0.0113,-9.34e-4 -0.0171,-9.34e-4 -0.005,-4.56e-4 -0.0105,-4.56e-4 -0.0159,-1.18e-4 z m 12.99655,0.444217 c -0.12406,0.03574 -0.2369,0.10236 -0.35422,0.15514 -0.60607,0.29749 -1.20555,0.608996 -1.78959,0.947921 -0.38586,0.210752 -0.79202,0.378956 -1.19577,0.552827 -0.15871,0.07463 -0.32065,0.145779 -0.46789,0.241722 -0.0657,0.04468 -0.11597,0.143381 -0.0696,0.217573 0.0503,0.065 0.14482,0.06542 0.21804,0.04877 0.32812,-0.03594 0.65854,-0.03683 0.98857,-0.04724 0.85923,-0.02106 1.71928,-0.01628 2.57777,-0.06302 0.27356,-0.01885 0.55039,-0.03007 0.81776,-0.09553 0.0715,-0.01436 0.13423,-0.05912 0.16633,-0.125337 0.11447,-0.198828 0.213,-0.408147 0.28648,-0.625626 0.0219,-0.06811 0.0386,-0.167158 -0.0366,-0.208974 -0.0911,-0.04401 -0.19504,-0.0064 -0.28802,0.01213 -0.24946,0.0665 -0.49403,0.147713 -0.7479,0.196016 -0.3689,0.07164 -0.74214,0.135523 -1.11649,0.157732 -0.0634,-6.84e-4 -0.12835,0.0097 -0.18789,-0.01237 -0.004,-0.06173 0.0423,-0.113813 0.0736,-0.163386 0.18292,-0.241712 0.40887,-0.446927 0.63292,-0.651305 0.17013,-0.155328 0.34627,-0.305445 0.50147,-0.476022 0.0247,-0.01842 0.0333,-0.06253 -0.009,-0.06102 z m -12.05676,0.101424 c -0.0468,0.01623 -0.009,0.06611 0.0103,0.08988 0.18861,0.253035 0.43064,0.465425 0.59158,0.738948 0.0394,0.07269 0.0836,0.161431 0.0496,0.24396 -0.0339,0.05572 -0.10286,0.06253 -0.16151,0.05607 -0.46557,-0.03004 -0.92376,-0.123753 -1.38495,-0.189419 -0.0974,-0.01126 -0.19488,-0.03437 -0.29308,-0.03287 -0.0638,0.02127 -0.0586,0.103198 -0.0635,0.157496 -6.9e-4,0.16102 0.003,0.322843 0.0199,0.482973 0.0216,0.04532 0.0839,0.04195 0.12475,0.05913 0.43959,0.110612 0.87702,0.240035 1.32888,0.290844 0.60358,0.06644 1.21168,0.07433 1.8168,0.118034 0.35159,0.0256 0.70359,0.04891 1.05182,0.101659 0.17237,0.02728 0.34467,0.06313 0.51796,0.08682 0.0698,0.0014 0.0945,-0.0771 0.11579,-0.130167 0.0365,-0.11798 0.0537,-0.243245 0.0492,-0.366588 4.6e-4,-0.04692 -0.0408,-0.07453 -0.0821,-0.08434 -0.45933,-0.156857 -0.93421,-0.266185 -1.38696,-0.442921 -0.50936,-0.194779 -1.00473,-0.430287 -1.46022,-0.731173 -0.25978,-0.161008 -0.52572,-0.314216 -0.8048,-0.439387 -0.0126,-0.0044 -0.0257,-0.01078 -0.0395,-0.009 z m 1.77593,2.086558 c -0.19172,0.007 -0.40191,0.02592 -0.55589,0.152666 -0.0826,0.07685 -0.1528,0.166471 -0.23807,0.240898 -0.27157,0.257135 -0.58199,0.470379 -0.85604,0.725165 -0.0485,0.05074 -0.10733,0.107829 -0.11226,0.181644 0.0148,0.06016 0.092,0.06753 0.14371,0.07127 0.23424,-0.0073 0.4674,-0.03487 0.70125,-0.04865 0.56841,-0.04073 1.13773,-0.07405 1.70348,-0.144539 0.099,-0.01605 0.20626,-0.01235 0.29497,-0.06538 0.16863,-0.06405 0.35,-0.08386 0.52597,-0.119093 0.15928,-0.02928 0.31993,-0.05279 0.47814,-0.08717 0.0349,-0.02586 -9.1e-4,-0.07108 -0.005,-0.104016 -0.0508,-0.151087 -0.0946,-0.305699 -0.16127,-0.450695 -0.0322,-0.07211 -0.10257,-0.12062 -0.1807,-0.128754 -0.42088,-0.05108 -0.83744,-0.131564 -1.25749,-0.189183 -0.1594,-0.02008 -0.31988,-0.03622 -0.48074,-0.03416 z m 8.34694,0.02757 v 1.18e-4 c -0.52123,0.008 -1.04224,0.03648 -1.56177,0.07869 -0.12059,0.01564 -0.24826,0.0168 -0.35987,0.07009 -0.10868,0.06678 -0.15114,0.196163 -0.20462,0.304979 -0.0569,0.136159 -0.11887,0.27226 -0.15314,0.416181 9.2e-4,0.05744 0.0693,0.07641 0.11297,0.09553 0.22309,0.07579 0.45956,0.09803 0.68971,0.143125 0.46175,0.08285 0.92408,0.170338 1.39226,0.210034 0.45201,0.0418 0.90625,0.06532 1.35844,0.09601 0.0588,-0.0045 0.12916,-0.01887 0.16445,-0.07068 0.0194,-0.05093 -0.0276,-0.09741 -0.0539,-0.136881 -0.16641,-0.196653 -0.3736,-0.353212 -0.57309,-0.514307 -0.10045,-0.08447 -0.22587,-0.163237 -0.26422,-0.296733 -0.0181,-0.0982 0.003,-0.208837 -0.0522,-0.297087 -0.072,-0.09542 -0.20387,-0.0942 -0.3117,-0.09765 -0.0611,-0.0016 -0.12218,-0.0016 -0.18329,-0.0014 z" /><path
       id="path10728"
       style="fill:#ffffff;stroke-width:0.999999"
       d="m -627.68215,88.267808 c -0.0902,0.124093 0.0183,0.273291 0.42278,0.69112 0.58088,0.600019 1.40168,1.355531 1.40168,1.42234 -0.57121,0.09549 -1.28364,0.351613 -1.32688,1.050228 0,0.175643 0.0423,0.396094 0.25145,0.596935 0.18762,0.180137 0.28157,0.354647 0.0222,0.465749 -0.19839,0.085 -0.3825,0.42206 -0.57067,0.737272 -0.11681,0.195686 -0.1567,0.220939 -0.29603,0.187772 -0.38454,-0.09154 -1.39917,-0.44719 -1.75919,-0.616676 -0.38757,-0.182453 -0.53534,-0.261519 -1.96994,-1.053467 -1.56355,-0.863134 -2.23138,-1.1097 -2.8367,-1.047224 -0.57123,0.05895 -0.79856,0.301101 -0.84638,0.901272 -0.041,0.514222 0.22029,1.197578 0.69054,1.806199 0.18543,0.239994 0.42646,0.632393 0.53563,0.871942 0.38767,0.850696 0.77917,1.107563 1.88076,1.233934 0.96419,0.110609 3.57077,-0.07247 3.73142,-0.248342 0.0424,-0.04639 0.0411,-0.05602 -0.004,-0.03098 -0.036,0.02004 -0.80948,0.114711 -1.33741,0.149392 -0.52794,0.03468 -1.10231,0.07685 -1.27647,0.09365 -0.4536,0.04374 -0.41536,-0.06442 0.18989,-0.537042 0.27859,-0.217536 0.55884,-0.467373 0.6228,-0.555183 0.17884,-0.245505 0.59377,-0.287868 1.42571,-0.145598 0.36941,0.06317 0.76197,0.123177 0.8723,0.13323 0.18331,0.01673 0.20976,0.04554 0.30733,0.334899 0.0587,0.174152 0.10415,0.316714 0.10096,0.31676 -0.003,4.5e-5 -0.23409,0.04018 -0.51313,0.08929 -0.4222,0.0743 -0.53543,0.09625 -0.66533,0.241068 0.43805,-0.05996 1.33138,-0.325538 1.261,-0.170211 0,0.0258 0.0695,-0.106278 -0.19116,0.144627 -0.2622,0.25234 -0.57459,0.627713 -0.69902,0.84002 -0.12372,0.211103 -0.27525,0.447852 -0.33678,0.526086 -0.0615,0.07824 -0.0995,0.174581 -0.0843,0.214158 0.0152,0.03958 -0.032,0.09887 -0.10496,0.131817 -0.0729,0.03294 -0.15904,0.141381 -0.1913,0.240896 -0.0323,0.09952 -0.14935,0.300114 -0.26022,0.445865 -0.11087,0.145751 -0.20155,0.313028 -0.20155,0.371653 0,0.05863 -0.0746,0.170347 -0.16586,0.248319 -0.0912,0.07797 -0.25545,0.287939 -0.36494,0.466599 -0.37183,0.606805 -0.11223,0.604982 0.54906,-0.0039 0.29057,-0.267539 0.36424,-0.377251 0.4335,-0.645415 0.091,-0.352195 0.28142,-0.672011 0.62927,-1.05712 0.12334,-0.136541 0.28385,-0.347261 0.35681,-0.468367 0.073,-0.121102 0.17203,-0.235318 0.22005,-0.253737 0.17464,-0.06702 0.15029,0.08238 -0.0578,0.355045 -0.22992,0.301217 -0.24482,0.386647 -0.15208,0.875712 0.0565,0.298022 0.0506,0.332064 -0.0824,0.475668 -0.33932,0.366109 -0.4655,0.69461 -0.58569,1.524426 -0.18681,1.289631 -0.13104,1.492661 0.14418,1.534841 0.0836,0.0128 0.12126,0.0526 0.10354,0.10921 -0.0153,0.049 -0.0247,0.25479 -0.021,0.4574 0.007,0.35423 0.11009,0.65837 0.29709,0.87242 0.0711,0.0814 0.057,0.16573 -0.0993,0.59405 -0.10021,0.27456 -0.21882,0.57117 -0.26352,0.65908 -0.0447,0.0879 -0.0997,0.22771 -0.12216,0.31064 h 1.2e-4 c -0.0917,0.33787 0.14037,-0.0788 0.39038,-0.7009 0.16591,-0.4128 0.2973,-0.6526 0.38144,-0.69631 0.0706,-0.0367 0.13577,-0.0727 0.14489,-0.0801 0.009,-0.007 -0.0398,-0.14515 -0.10885,-0.30616 -0.10415,-0.24298 -0.11311,-0.31595 -0.0525,-0.42913 0.063,-0.11775 0.0503,-0.16918 -0.0933,-0.37637 l -0.16633,-0.23995 0.11815,-0.16869 c 0.12026,-0.25251 0.0672,-0.8496 -0.0101,-1.221033 -0.0697,-0.293998 -0.10812,-0.964204 -0.0508,-1.066641 0.0498,-0.08899 0.0717,-0.501728 0.10286,-0.257882 0.0701,0.548989 0.4686,1.662226 0.75851,2.118836 0.56958,0.89709 1.55121,1.76898 1.99173,1.76898 0.15644,0 0.94853,-0.5443 1.24147,-0.8531 0.69822,-0.73601 1.15167,-1.793987 1.22404,-2.856135 0.0362,-0.531031 0.12947,0.07608 0.17437,0.285999 0.0602,0.281646 0.0116,0.273207 -0.0616,1.553536 -0.0403,0.70542 0.006,0.47314 0.22935,0.7383 0.0728,0.0867 0.0914,0.079 -0.0885,0.28389 -0.1806,0.2057 -0.18871,0.23184 -0.1013,0.32842 0.0855,0.0944 0.0859,0.12694 0.004,0.32359 -0.11522,0.27553 -0.11553,0.40227 -10e-4,0.4871 0.0496,0.0368 0.20005,0.37798 0.33419,0.75803 0.13414,0.38005 0.25627,0.70344 0.27152,0.71869 0.10183,0.10182 0.057,-0.12437 -0.14783,-0.7452 l -0.23524,-0.71326 0.17976,-0.35375 c 0.19656,-0.38681 0.29446,-0.96857 0.1754,-1.04216 -0.0492,-0.0304 -0.0263,-0.0852 0.0749,-0.17894 0.20346,-0.18856 0.30221,-0.13845 0.21828,-0.65936 -0.17637,-1.094613 -0.63912,-2.306731 -0.99269,-2.600164 -0.0803,-0.06662 -0.0908,-0.147438 -0.0571,-0.437857 0.0314,-0.27023 0.0181,-0.401987 -0.0548,-0.546582 -0.0528,-0.104804 -0.0797,-0.322854 -0.15808,-0.441273 -0.16585,-0.25061 0.0138,-0.284135 0.006,-0.298655 l -0.13692,-0.261878 -0.86456,0.308091 c -1.16178,0.414006 -1.85368,0.386298 -3.04508,-0.07315 -0.2658,-0.102501 -0.48321,-0.208627 -0.48321,-0.235713 0,-0.122303 0.70067,-0.72599 0.84261,-0.72599 0.042,0 0.1677,0.08026 0.27942,0.178346 0.39435,0.34625 1.261,0.471492 1.74282,0.251852 0.13269,-0.06048 0.3266,-0.182052 0.43091,-0.270111 0.1043,-0.08806 0.20513,-0.160087 0.22405,-0.160087 0.0903,0 1.06502,0.99642 1.15006,1.175626 0.0532,0.11216 0.20064,0.293776 0.3276,0.403695 0.46548,0.40301 0.63228,0.652304 0.82847,1.238176 0.16048,0.479226 0.22189,0.589583 0.38285,0.687468 0.10544,0.06412 0.29445,0.224529 0.41995,0.356457 0.12824,0.13481 0.28506,0.239837 0.3581,0.239837 0.1589,0 0.1645,-0.082 0.0199,-0.292257 -0.0606,-0.08805 -0.14413,-0.245681 -0.18576,-0.350214 -0.0416,-0.104532 -0.14398,-0.253805 -0.22747,-0.331719 -0.0835,-0.07791 -0.20289,-0.241166 -0.26528,-0.362818 -0.0624,-0.121654 -0.26329,-0.397817 -0.44646,-0.613727 -0.18317,-0.215911 -0.33301,-0.417864 -0.33301,-0.448813 0,-0.101795 -0.98745,-1.244986 -1.36682,-1.582382 -0.14253,-0.29684 0.65545,0.04328 1.22665,0.08571 0.014,-0.01395 0.19836,0.0047 0.40982,0.04147 0.21146,0.03675 1.18019,0.09508 1.77168,0.100835 0.59346,0.0058 1.44699,0.01862 1.77922,-0.06656 0.62304,-0.159729 0.82891,-0.378688 1.22475,-1.302258 0.0782,-0.182445 0.29867,-0.516119 0.48992,-0.741421 0.64327,-0.757782 0.93515,-1.381882 0.85239,-1.823045 -0.0521,-0.277455 -0.40026,-0.664634 -0.68111,-0.757324 -0.35788,-0.118112 -1.00139,-0.03491 -1.67768,0.216984 -0.59744,0.222526 -2.33438,1.086728 -3.25405,1.619018 -0.45208,0.261656 -1.69496,0.822348 -1.82293,0.822348 -0.0318,0 -0.0915,-0.112525 -0.13276,-0.250085 -0.0936,-0.338853 -0.58733,-0.525401 -0.15879,-0.775228 0.15822,0 1.0165,-0.592711 1.5858,-1.095051 0.30731,-0.271169 0.55883,-0.513723 0.55883,-0.539046 0,-0.07282 -0.18207,-0.235597 -0.26351,-0.235597 -0.0407,0 -0.17977,0.108326 -0.3091,0.240781 -0.12934,0.132454 -0.4809,0.365983 -0.78124,0.518901 -0.30034,0.152916 -0.63431,0.344503 -0.74213,0.425721 -0.18305,0.137887 -0.55946,0.322415 -0.65767,0.322415 -0.0239,0 0.0262,-0.07464 0.11132,-0.165861 0.19517,-0.209252 0.29014,-0.392757 0.29014,-0.560836 -0.14067,-0.792657 -0.66772,-0.997266 -1.14594,-1.051409 -9e-5,-0.163543 0.28455,-0.306415 1.12215,-1.112882 0.72372,-0.696832 0.92254,-0.919946 0.84626,-0.949218 -0.14657,-0.05624 -0.29899,0.06476 -1.14382,0.907753 -0.52472,0.523582 -0.90428,0.775454 -1.12427,1.108289 -0.10765,-0.01969 -0.22574,-0.02993 -0.34538,-0.02992 -0.10872,9e-6 -0.21627,0.0085 -0.31594,0.02486 -0.0178,-0.02598 -0.0346,-0.04915 -0.0528,-0.0761 -0.75449,-0.915663 -1.90955,-2.165697 -2.01694,-2.018043 z m -1.29884,2.51745 c -0.0166,0.0016 -0.0311,0.0087 -0.0449,0.02015 -0.13806,0.114581 -0.11173,0.184036 0.23454,0.618558 0.31379,0.393782 0.63844,0.680249 1.06689,0.941442 0.11445,0.06977 0.81258,0.407278 0.93202,0.407398 0.24703,2.28e-4 0.59712,-0.106976 0.59712,-0.182939 0,-0.05857 -1.33936,-0.786658 -1.65271,-0.896615 -0.11934,-0.04188 -0.40194,-0.266986 -0.65013,-0.517839 -0.29603,-0.299178 -0.41072,-0.396837 -0.48285,-0.390147 z m -5.2836,0.09907 c 0.10141,0.0018 0.22484,0.02202 0.42019,0.06185 0.2515,0.05129 0.63742,0.18285 0.85757,0.292257 0.34775,0.172827 0.42507,0.243198 0.58946,0.536451 0.15707,0.280198 0.38779,0.843949 0.38779,0.947568 0,0.01493 -0.11774,0.014 -0.26163,-0.0023 -0.28822,-0.03249 -1.0735,-0.464436 -1.21709,-0.669448 -0.0477,-0.06807 -0.10532,-0.105089 -0.12805,-0.08234 -0.0947,0.09474 0.10718,0.327803 0.46778,0.540103 0.61313,0.36098 0.57036,0.314414 0.45282,0.493811 -0.0695,0.106039 -0.0976,0.250019 -0.0856,0.437266 l 0.0179,0.279063 -0.30156,0.0781 c -0.32306,0.08357 -0.5142,0.258397 -0.5103,0.466833 0.002,0.116714 0.011,0.113327 0.0916,-0.03534 0.12648,-0.233066 0.27995,-0.296259 0.80326,-0.330776 0.34174,-0.02255 0.58362,6.84e-4 0.94227,0.09094 0.26537,0.06673 0.65974,0.138971 0.87642,0.160558 0.21668,0.02159 0.43325,0.06359 0.48132,0.0933 0.14748,0.09115 -0.0982,0.352555 -0.72246,0.768515 -0.52895,0.352461 -0.5876,0.376798 -0.90209,0.373538 -0.43372,-0.0045 -1.06836,-0.17099 -1.31145,-0.344089 -0.19171,-0.136505 -0.50253,-0.671999 -0.50253,-0.865698 0,-0.05718 -0.2139,-0.388975 -0.47531,-0.737299 -0.58207,-0.77559 -0.82197,-1.327736 -0.77759,-1.789588 0.0375,-0.389809 0.19736,-0.609574 0.51926,-0.713621 0.10715,-0.03464 0.18661,-0.05145 0.28801,-0.04971 z m 17.64086,0.175757 c 1.07386,0.01928 1.20905,1.060579 0.11026,2.309665 -0.22063,0.250804 -0.45322,0.601717 -0.57816,0.872061 -0.42945,0.929269 -0.45475,0.968557 -0.70985,1.100353 -0.19247,0.09944 -0.38958,0.132728 -0.90952,0.153608 l -0.66379,0.02662 -0.51231,-0.410881 c -0.59136,-0.474277 -0.6008,-0.484939 -0.60194,-0.698661 -9.1e-4,-0.157165 0.01,-0.16161 0.4666,-0.1979 0.25708,-0.0204 0.72526,-0.06843 1.04039,-0.106725 0.7676,-0.09327 0.9566,-0.08333 1.26609,0.0662 0.14446,0.0698 0.27529,0.114166 0.29085,0.0986 0.0586,-0.05863 -0.12362,-0.203394 -0.41289,-0.327831 -0.16481,-0.0709 -0.29967,-0.1567 -0.29967,-0.190599 0,-0.0339 0.0458,-0.148516 0.10201,-0.254679 0.0562,-0.106162 0.10372,-0.313953 0.10555,-0.461769 0.003,-0.261702 0.01,-0.270526 0.24984,-0.339965 0.34012,-0.09847 0.57208,-0.226476 0.74402,-0.410526 0.20826,-0.222929 0.13503,-0.238487 -0.16728,-0.03546 -0.14283,0.09593 -0.41271,0.218895 -0.59982,0.273291 -0.18712,0.0544 -0.44008,0.149832 -0.56202,0.212038 -0.48432,0.247085 -1.92293,0.527869 -1.92293,0.375304 0,-0.107471 0.69229,-0.702082 1.57672,-1.354206 0.34578,-0.25495 0.78901,-0.459745 1.29661,-0.599004 0.26136,-0.07171 0.49237,-0.103108 0.69124,-0.09954 z m -15.5834,0.467657 c 0.12235,0 1.4038,1.299188 1.4038,1.423238 0,0.16253 -0.82242,0.04133 -0.97525,-0.143716 -0.047,-0.05691 -0.12205,-0.211989 -0.1668,-0.344676 -0.0448,-0.13269 -0.14536,-0.381977 -0.22358,-0.554004 -0.16998,-0.373821 -0.17073,-0.380842 -0.0382,-0.380842 z m 12.9631,0.441744 c 0.0133,0.01333 -0.20306,0.224723 -0.48086,0.469777 -0.51765,0.456641 -0.81403,0.808751 -0.74165,0.881131 0.0756,0.07561 1.27248,-0.09603 1.77356,-0.254325 0.49817,-0.157457 0.61562,-0.157133 0.61562,0.0014 0,0.11736 -0.28772,0.736422 -0.36423,0.783711 -0.16755,0.103552 -0.96683,0.159125 -2.53384,0.176107 v 1.19e-4 c -0.94706,0.01028 -1.80616,0.03711 -1.90915,0.05972 -0.20878,0.04586 -0.2965,-0.03039 -0.21086,-0.183411 0.0301,-0.05382 0.36409,-0.224169 0.74213,-0.378603 0.37803,-0.154431 0.85019,-0.379597 1.04922,-0.500289 0.48762,-0.295696 2.02971,-1.085696 2.06006,-1.055353 z m -12.06984,0.10107 c 0.0638,0 0.63026,0.30688 0.9087,0.492279 0.51341,0.341847 1.34646,0.710222 2.06206,0.911874 0.40747,0.114825 0.75613,0.224042 0.77475,0.242665 0.0186,0.01862 0.0151,0.14414 -0.008,0.279063 -0.0228,0.134923 -0.0729,0.242474 -0.11143,0.238895 -0.0385,-0.0036 -0.27365,-0.04353 -0.52244,-0.08882 -0.24879,-0.04529 -1.0223,-0.108742 -1.71891,-0.140886 -1.06339,-0.04907 -1.37298,-0.08552 -1.93,-0.227705 l -0.66344,-0.169392 -0.0183,-0.316643 c -0.0129,-0.224664 0.004,-0.316641 0.0581,-0.316641 0.0419,0 0.43325,0.05857 0.86958,0.130168 0.43634,0.07159 0.83765,0.113143 0.89185,0.09235 0.1918,-0.0736 0.10468,-0.307876 -0.26811,-0.720925 -0.20167,-0.223451 -0.3478,-0.406285 -0.32477,-0.406285 z m 10.19484,2.112709 c 0.43212,-9.11e-4 0.44592,0.06479 0.44728,0.312283 6.9e-4,0.116463 0.0642,0.211588 0.22158,0.33172 0.49995,0.38158 0.75104,0.639684 0.67145,0.690178 -0.0428,0.02718 -0.105,0.0457 -0.13818,0.04123 -0.0332,-0.0045 -0.41314,-0.02946 -0.84437,-0.05548 -0.43124,-0.02603 -1.01477,-0.09028 -1.29673,-0.142771 -0.28196,-0.05249 -0.70942,-0.12814 -0.94992,-0.168214 -0.26988,-0.04497 -0.43727,-0.101688 -0.43727,-0.148074 0,-0.04133 0.0646,-0.221201 0.14348,-0.399689 0.13573,-0.3069 0.15784,-0.326606 0.40711,-0.363523 0.14497,-0.02147 0.67999,-0.05695 1.18894,-0.07881 0.25204,-0.01083 0.44259,-0.01856 0.58663,-0.01885 z m -6.76068,2.765234 c 0.0663,-0.0057 0.17323,0.04848 0.33184,0.149838 0.70692,0.45176 1.3903,0.635449 2.36845,0.636817 0.76501,9.12e-4 1.03774,-0.07217 1.79182,-0.481323 0.25881,-0.140422 0.48842,-0.237575 0.51019,-0.215806 0.0753,0.07531 0.0238,0.927369 -0.0666,1.100351 -0.21978,0.420907 -0.71145,0.701861 -1.40321,0.801853 -0.76269,0.110247 -1.80194,0.04707 -2.48295,-0.1509 -0.79546,-0.231248 -0.95889,-0.418561 -1.09281,-1.252665 -0.0646,-0.40231 -0.0672,-0.578589 0.0432,-0.588165 z m 0.19307,1.990905 c 0.0443,0.06647 0.34174,0.07767 0.63199,0.18883 0.80522,0.308384 1.15123,0.377422 1.87841,0.374481 0.70816,-0.0028 1.07072,-0.07764 1.73846,-0.358342 0.26437,-0.111132 0.50569,-0.202024 0.53622,-0.202024 0.0879,0 -0.002,0.643136 -0.1231,0.885605 -0.11857,0.236526 -0.70666,0.633206 -1.10129,0.742836 -0.3828,0.10634 -1.72961,0.0675 -2.23322,-0.0643 -0.58216,-0.15241 -1.07706,-0.44593 -1.18658,-0.703841 -0.12443,-0.293039 -0.22195,-0.805286 -0.1635,-0.858513 0.004,-0.0032 0.0163,-0.0142 0.0226,-0.0047 z"
       sodipodi:nodetypes="ssccsssssssssssssscssscsssccsssssssssssssscssssssssssccsscssccccssssssssssscsssccssssssssscssssssssssssssssssssccsassssssssccssssssssccssscsccsssssssscsssssscscsscccsssscsscssssssssssccccssscssscssssssssssssssssssssscccsssssssscssscccsscssscsscsssssssssscsssssssssssssssssscssssss" /></g></svg>
