<?xml version="1.0" encoding="UTF-8" standalone="no"?>
<!-- Created with Inkscape (http://www.inkscape.org/) -->

<svg
   width="19.637125mm"
   height="16.036745mm"
   viewBox="0 0 19.637125 16.036745"
   version="1.1"
   id="svg5"
   xml:space="preserve"
   sodipodi:docname="bee.svg"
   inkscape:version="1.2.2 (b0a8486541, 2022-12-01)"
   xmlns:inkscape="http://www.inkscape.org/namespaces/inkscape"
   xmlns:sodipodi="http://sodipodi.sourceforge.net/DTD/sodipodi-0.dtd"
   xmlns="http://www.w3.org/2000/svg"
   xmlns:svg="http://www.w3.org/2000/svg"><sodipodi:namedview
     id="namedview7"
     pagecolor="#ffffff"
     bordercolor="#666666"
     borderopacity="1.0"
     inkscape:showpageshadow="2"
     inkscape:pageopacity="0.0"
     inkscape:pagecheckerboard="0"
     inkscape:deskcolor="#d1d1d1"
     inkscape:document-units="mm"
     showgrid="false"
     inkscape:zoom="17.557358"
     inkscape:cx="46.106025"
     inkscape:cy="39.499109"
     inkscape:window-width="3840"
     inkscape:window-height="2160"
     inkscape:window-x="1920"
     inkscape:window-y="0"
     inkscape:window-maximized="1"
     inkscape:current-layer="layer1" /><defs
     id="defs2" /><g
     inkscape:label="Layer 1"
     inkscape:groupmode="layer"
     id="layer1"
     transform="translate(635.19397,-88.255816)"><path
       id="path10722"
       style="fill:#ffd42a;fill-opacity:1;stroke:none;stroke-width:0.265002;stroke-linecap:round;stroke-miterlimit:2;stroke-dasharray:none;stroke-opacity:1;paint-order:fill markers stroke;stop-color:#000000"
       d="m -626.68459,95.261034 c -0.0767,0.01193 -0.14064,0.06221 -0.20473,0.10272 -0.20148,0.142944 -0.38988,0.305525 -0.55777,0.486859 -0.0371,0.04589 -0.0859,0.08991 -0.0977,0.149957 0.005,0.04784 0.0605,0.06498 0.0954,0.08764 0.27382,0.139279 0.5643,0.242472 0.85568,0.338198 0.43495,0.140474 0.89289,0.231984 1.35174,0.200611 0.46887,-0.02871 0.92241,-0.166417 1.36127,-0.326419 0.2252,-0.08056 0.45132,-0.158964 0.67522,-0.243018 0.0307,-0.02108 6.8e-4,-0.05236 -0.0167,-0.07021 -0.18253,-0.195518 -0.37212,-0.384555 -0.56708,-0.567669 -0.064,-0.05407 -0.12394,-0.116454 -0.19908,-0.15514 -0.0381,-0.01365 -0.0681,0.02531 -0.0986,0.04147 -0.12868,0.09232 -0.24669,0.199635 -0.38437,0.279181 -0.15462,0.0973 -0.32255,0.168397 -0.50371,0.193542 -0.31385,0.04624 -0.64011,0.01056 -0.94356,-0.08587 -0.18209,-0.05889 -0.35304,-0.143934 -0.49664,-0.271643 -0.0768,-0.06097 -0.15514,-0.12601 -0.24914,-0.157967 -0.007,-0.0016 -0.0134,-0.0025 -0.0202,-0.0022 z m -1.20436,1.684748 c -0.0517,0.0035 -0.0891,0.05142 -0.0985,0.100247 -0.0202,0.10508 -0.003,0.213054 0.007,0.318408 0.0306,0.230593 0.0668,0.461988 0.13535,0.68476 0.0522,0.164452 0.13249,0.325339 0.26446,0.44033 0.17117,0.155353 0.39503,0.231124 0.61031,0.303094 0.53074,0.166978 1.08892,0.226433 1.64305,0.2429 0.28873,0.0014 0.57813,-0.003 0.86499,-0.03911 0.39,-0.04612 0.78433,-0.147821 1.11284,-0.370709 0.17927,-0.123423 0.3378,-0.286321 0.42902,-0.485919 0.0458,-0.12689 0.0581,-0.262866 0.0737,-0.396037 0.0178,-0.197774 0.0274,-0.397379 0.0118,-0.595587 -0.007,-0.03779 -0.008,-0.08619 -0.0425,-0.11014 -0.0523,-0.01411 -0.10405,0.01773 -0.15255,0.03357 -0.30886,0.13084 -0.59254,0.311992 -0.90092,0.443982 -0.21895,0.09767 -0.44771,0.165239 -0.68511,0.19048 -0.29977,0.03141 -0.6057,0.02825 -0.90752,0.01566 -0.51279,-0.02145 -1.02513,-0.122768 -1.49344,-0.336078 -0.21136,-0.09288 -0.40845,-0.213674 -0.60478,-0.334193 -0.0796,-0.04556 -0.1623,-0.101186 -0.2568,-0.105666 -0.004,-1.71e-4 -0.007,-2.28e-4 -0.0105,0 z m 0.20708,1.993734 c -0.0342,9.12e-4 -0.056,0.03553 -0.0536,0.06844 -0.006,0.181248 0.0375,0.359737 0.0822,0.534097 0.037,0.126685 0.0723,0.257238 0.14348,0.369767 0.11524,0.15888 0.28419,0.26812 0.45293,0.36294 0.24876,0.13482 0.5174,0.23245 0.79302,0.29543 0.35115,0.067 0.70918,0.0883 1.06583,0.10119 0.31944,0.008 0.6407,0.01 0.95806,-0.0323 0.21469,-0.0295 0.41162,-0.12911 0.59877,-0.23336 0.20563,-0.12033 0.40607,-0.25689 0.56696,-0.434325 0.11399,-0.126726 0.15149,-0.298769 0.18894,-0.46 0.0312,-0.158959 0.0595,-0.321376 0.0488,-0.483915 -0.002,-0.03667 -0.0174,-0.09318 -0.0651,-0.08517 -0.1648,0.04766 -0.3226,0.116616 -0.48168,0.180347 -0.34929,0.146693 -0.70739,0.284404 -1.08551,0.334784 -0.18788,0.02781 -0.37478,0.03801 -0.56472,0.03781 -0.26258,2.28e-4 -0.5257,0.0087 -0.78607,-0.02497 -0.45432,-0.04992 -0.88396,-0.219703 -1.31133,-0.377073 -0.16468,-0.05687 -0.32883,-0.119903 -0.50087,-0.15078 -0.0143,-0.0021 -0.0287,-0.0032 -0.0431,-0.0027 -0.002,-2.28e-4 -0.005,-2.28e-4 -0.007,-2.28e-4 z" /><path
       id="path10720"
       style="fill:#eca009;fill-opacity:1;stroke:none;stroke-width:0.265;stroke-linecap:round;stroke-miterlimit:2;stroke-dasharray:none;stroke-opacity:1;paint-order:fill markers stroke;stop-color:#000000"
       d="m -634.28198,90.864573 c -0.14869,2.28e-4 -0.29464,0.04636 -0.42678,0.111908 -0.17312,0.0895 -0.29475,0.25889 -0.34314,0.445748 -0.0904,0.308186 -0.0366,0.639476 0.0823,0.932136 0.18926,0.473313 0.50271,0.880481 0.79937,1.289889 0.11161,0.16063 0.22794,0.318347 0.3157,0.493928 0.0208,0.06786 0.026,0.140247 0.0555,0.205911 0.089,0.224896 0.21295,0.437822 0.37142,0.620914 0.12604,0.14268 0.31264,0.206947 0.48663,0.269875 0.324,0.105835 0.66379,0.172676 1.0054,0.172339 0.1374,-0.0023 0.27535,-0.03045 0.39581,-0.0986 0.24274,-0.134057 0.46924,-0.295269 0.69689,-0.453051 0.17144,-0.126067 0.34783,-0.253908 0.47744,-0.425016 0.0404,-0.0526 0.0728,-0.140114 0.0134,-0.191775 -0.0694,-0.05318 -0.16277,-0.05519 -0.24502,-0.07433 -0.26937,-0.04195 -0.54079,-0.06845 -0.80762,-0.125219 -0.32029,-0.05824 -0.63403,-0.169726 -0.963,-0.166567 -0.27451,-4.56e-4 -0.5554,-9.8e-4 -0.82047,0.07951 -0.13439,0.03846 -0.24533,0.136664 -0.30945,0.259745 -0.0173,0.02864 -0.0366,0.06422 -0.0531,0.08776 -0.003,-0.08189 0.009,-0.167896 0.0628,-0.233004 0.12487,-0.164072 0.33195,-0.227222 0.52385,-0.273763 0.0686,-0.01856 0.13783,-0.03482 0.20567,-0.05584 0.0323,-0.02889 0.006,-0.07878 0.0105,-0.116503 -0.007,-0.165193 -0.0304,-0.335025 0.0181,-0.496283 0.0266,-0.08443 0.0894,-0.150797 0.1224,-0.231356 0.0145,-0.07138 -0.0621,-0.113502 -0.11038,-0.14925 -0.2364,-0.15886 -0.50041,-0.277009 -0.71692,-0.463889 -0.0744,-0.07075 -0.16191,-0.145208 -0.18365,-0.250203 -6.8e-4,-0.02006 0.0132,-0.06076 0.0376,-0.0384 0.0733,0.05031 0.11243,0.135895 0.18824,0.184 0.28488,0.21923 0.60434,0.393694 0.94074,0.519843 0.13127,0.05047 0.27401,0.06124 0.41335,0.05819 0.0437,0.0054 0.0588,-0.03525 0.0443,-0.07056 -0.047,-0.193284 -0.13207,-0.374943 -0.2098,-0.557303 -0.10279,-0.220014 -0.20001,-0.449527 -0.36211,-0.633754 -0.14446,-0.152984 -0.34283,-0.237511 -0.53021,-0.324887 -0.34375,-0.147383 -0.70748,-0.251868 -1.07891,-0.298147 -0.0355,-0.0031 -0.0711,-0.0043 -0.10672,-0.004 z m 17.60387,0.173752 c -0.37369,0.0091 -0.73762,0.115391 -1.08527,0.245962 -0.33242,0.127567 -0.65192,0.293511 -0.93367,0.51254 -0.44786,0.335451 -0.89385,0.675899 -1.30332,1.058062 -0.0723,0.07489 -0.15836,0.143312 -0.2045,0.238541 -0.0187,0.04782 0.0361,0.07699 0.0765,0.07704 0.21491,0.0191 0.4292,-0.02438 0.64035,-0.05913 0.36563,-0.07013 0.73044,-0.155252 1.07904,-0.287663 0.1993,-0.08738 0.39665,-0.180024 0.60512,-0.242782 0.26976,-0.08173 0.53327,-0.190027 0.76817,-0.347622 0.061,-0.03651 0.12196,-0.07532 0.19,-0.0973 -0.0931,0.149238 -0.2308,0.265713 -0.38237,0.354336 -0.18491,0.108501 -0.39204,0.162545 -0.59264,0.233005 -0.0647,0.01995 -0.11789,0.07625 -0.12016,0.14607 -0.0159,0.182864 -0.0123,0.371973 -0.0834,0.545169 -0.0381,0.110988 -0.10888,0.210655 -0.13087,0.326772 -0.003,0.06441 0.0707,0.0935 0.11556,0.123688 0.18989,0.112873 0.41208,0.174396 0.57344,0.330895 0.0116,0.01443 0.0354,0.03737 0.0286,0.05442 -0.10422,-0.0097 -0.19758,-0.06599 -0.29285,-0.105665 -0.15557,-0.0701 -0.32338,-0.122695 -0.49593,-0.1145 -0.35059,-0.0075 -0.69729,0.05482 -1.04499,0.0887 -0.34973,0.04068 -0.70145,0.06536 -1.0517,0.103898 -0.0688,0.0093 -0.16341,0.025 -0.1807,0.106018 -0.0227,0.121299 -0.007,0.258877 0.0823,0.351392 0.15271,0.163018 0.33613,0.293032 0.507,0.435853 0.17834,0.141317 0.35377,0.288387 0.53422,0.42584 0.11916,0.0023 0.24077,-0.0096 0.36093,-0.01202 0.31147,-0.01559 0.6255,-0.01591 0.93367,-0.06856 0.16992,-0.03274 0.3347,-0.104237 0.46931,-0.213568 0.13182,-0.124134 0.20621,-0.294082 0.28754,-0.45258 0.16657,-0.334172 0.30131,-0.686355 0.51443,-0.994098 0.1371,-0.210273 0.30217,-0.399513 0.46294,-0.592407 0.25657,-0.32401 0.48584,-0.684269 0.58511,-1.089868 0.0592,-0.246043 0.0563,-0.526297 -0.0921,-0.741539 -0.14458,-0.213264 -0.40501,-0.312133 -0.65331,-0.332662 -0.0553,-0.0051 -0.11092,-0.007 -0.16645,-0.0062 z m -15.57185,0.467069 v 1.18e-4 c -0.0378,0.0027 -0.0782,0.02583 -0.0717,0.06891 0.0205,0.113919 0.0814,0.215965 0.12381,0.322649 0.10104,0.223082 0.18818,0.452691 0.27506,0.681815 0.0451,0.09794 0.0847,0.206154 0.16774,0.278946 0.14675,0.09994 0.32548,0.137569 0.49734,0.169865 0.1243,0.02093 0.25241,0.02202 0.37743,0.0084 0.0489,-0.0095 0.11629,-0.05056 0.0925,-0.109435 -0.0605,-0.112342 -0.15367,-0.203298 -0.23536,-0.300267 -0.30688,-0.337886 -0.62554,-0.666114 -0.96759,-0.968654 -0.0714,-0.05424 -0.13488,-0.131947 -0.22618,-0.151253 -0.006,-6.84e-4 -0.0113,-9.34e-4 -0.0171,-9.34e-4 -0.005,-4.56e-4 -0.0105,-4.56e-4 -0.0159,-1.18e-4 z m 12.99655,0.444217 c -0.12406,0.03574 -0.2369,0.10236 -0.35422,0.15514 -0.60607,0.29749 -1.20555,0.608996 -1.78959,0.947921 -0.38586,0.210752 -0.79202,0.378956 -1.19577,0.552827 -0.15871,0.07463 -0.32065,0.145779 -0.46789,0.241722 -0.0657,0.04468 -0.11597,0.143381 -0.0696,0.217573 0.0503,0.065 0.14482,0.06542 0.21804,0.04877 0.32812,-0.03594 0.65854,-0.03683 0.98857,-0.04724 0.85923,-0.02106 1.71928,-0.01628 2.57777,-0.06302 0.27356,-0.01885 0.55039,-0.03007 0.81776,-0.09553 0.0715,-0.01436 0.13423,-0.05912 0.16633,-0.125337 0.11447,-0.198828 0.213,-0.408147 0.28648,-0.625626 0.0219,-0.06811 0.0386,-0.167158 -0.0366,-0.208974 -0.0911,-0.04401 -0.19504,-0.0064 -0.28802,0.01213 -0.24946,0.0665 -0.49403,0.147713 -0.7479,0.196016 -0.3689,0.07164 -0.74214,0.135523 -1.11649,0.157732 -0.0634,-6.84e-4 -0.12835,0.0097 -0.18789,-0.01237 -0.004,-0.06173 0.0423,-0.113813 0.0736,-0.163386 0.18292,-0.241712 0.40887,-0.446927 0.63292,-0.651305 0.17013,-0.155328 0.34627,-0.305445 0.50147,-0.476022 0.0247,-0.01842 0.0333,-0.06253 -0.009,-0.06102 z m -12.05676,0.101424 c -0.0468,0.01623 -0.009,0.06611 0.0103,0.08988 0.18861,0.253035 0.43064,0.465425 0.59158,0.738948 0.0394,0.07269 0.0836,0.161431 0.0496,0.24396 -0.0339,0.05572 -0.10286,0.06253 -0.16151,0.05607 -0.46557,-0.03004 -0.92376,-0.123753 -1.38495,-0.189419 -0.0974,-0.01126 -0.19488,-0.03437 -0.29308,-0.03287 -0.0638,0.02127 -0.0586,0.103198 -0.0635,0.157496 -6.9e-4,0.16102 0.003,0.322843 0.0199,0.482973 0.0216,0.04532 0.0839,0.04195 0.12475,0.05913 0.43959,0.110612 0.87702,0.240035 1.32888,0.290844 0.60358,0.06644 1.21168,0.07433 1.8168,0.118034 0.35159,0.0256 0.70359,0.04891 1.05182,0.101659 0.17237,0.02728 0.34467,0.06313 0.51796,0.08682 0.0698,0.0014 0.0945,-0.0771 0.11579,-0.130167 0.0365,-0.11798 0.0537,-0.243245 0.0492,-0.366588 4.6e-4,-0.04692 -0.0408,-0.07453 -0.0821,-0.08434 -0.45933,-0.156857 -0.93421,-0.266185 -1.38696,-0.442921 -0.50936,-0.194779 -1.00473,-0.430287 -1.46022,-0.731173 -0.25978,-0.161008 -0.52572,-0.314216 -0.8048,-0.439387 -0.0126,-0.0044 -0.0257,-0.01078 -0.0395,-0.009 z m 1.77593,2.086558 c -0.19172,0.007 -0.40191,0.02592 -0.55589,0.152666 -0.0826,0.07685 -0.1528,0.166471 -0.23807,0.240898 -0.27157,0.257135 -0.58199,0.470379 -0.85604,0.725165 -0.0485,0.05074 -0.10733,0.107829 -0.11226,0.181644 0.0148,0.06016 0.092,0.06753 0.14371,0.07127 0.23424,-0.0073 0.4674,-0.03487 0.70125,-0.04865 0.56841,-0.04073 1.13773,-0.07405 1.70348,-0.144539 0.099,-0.01605 0.20626,-0.01235 0.29497,-0.06538 0.16863,-0.06405 0.35,-0.08386 0.52597,-0.119093 0.15928,-0.02928 0.31993,-0.05279 0.47814,-0.08717 0.0349,-0.02586 -9.1e-4,-0.07108 -0.005,-0.104016 -0.0508,-0.151087 -0.0946,-0.305699 -0.16127,-0.450695 -0.0322,-0.07211 -0.10257,-0.12062 -0.1807,-0.128754 -0.42088,-0.05108 -0.83744,-0.131564 -1.25749,-0.189183 -0.1594,-0.02008 -0.31988,-0.03622 -0.48074,-0.03416 z m 8.34694,0.02757 v 1.18e-4 c -0.52123,0.008 -1.04224,0.03648 -1.56177,0.07869 -0.12059,0.01564 -0.24826,0.0168 -0.35987,0.07009 -0.10868,0.06678 -0.15114,0.196163 -0.20462,0.304979 -0.0569,0.136159 -0.11887,0.27226 -0.15314,0.416181 9.2e-4,0.05744 0.0693,0.07641 0.11297,0.09553 0.22309,0.07579 0.45956,0.09803 0.68971,0.143125 0.46175,0.08285 0.92408,0.170338 1.39226,0.210034 0.45201,0.0418 0.90625,0.06532 1.35844,0.09601 0.0588,-0.0045 0.12916,-0.01887 0.16445,-0.07068 0.0194,-0.05093 -0.0276,-0.09741 -0.0539,-0.136881 -0.16641,-0.196653 -0.3736,-0.353212 -0.57309,-0.514307 -0.10045,-0.08447 -0.22587,-0.163237 -0.26422,-0.296733 -0.0181,-0.0982 0.003,-0.208837 -0.0522,-0.297087 -0.072,-0.09542 -0.20387,-0.0942 -0.3117,-0.09765 -0.0611,-0.0016 -0.12218,-0.0016 -0.18329,-0.0014 z" /><path
       id="path10740"
       style="fill:#ffffff;stroke-width:0.999999"
       d="M -627.64973 88.255816 C -627.66427 88.254548 -627.67506 88.258473 -627.68177 88.267702 L -627.68228 88.267702 C -627.77248 88.391794 -627.66405 88.541304 -627.25957 88.959132 C -626.67869 89.559151 -625.85759 90.314459 -625.85759 90.381268 C -626.4288 90.476758 -627.1414 90.732718 -627.18464 91.431333 C -627.18464 91.606976 -627.14213 91.827355 -626.93298 92.028196 C -626.85947 92.098771 -626.80088 92.168494 -626.77175 92.233868 C -627.17595 92.010282 -627.67219 91.755084 -627.84817 91.693332 C -627.96751 91.651452 -628.25006 91.426387 -628.49825 91.175534 C -628.79428 90.876357 -628.90878 90.778687 -628.98091 90.785377 C -628.99751 90.786977 -629.01207 90.794081 -629.02587 90.805531 C -629.16393 90.920112 -629.13753 90.989576 -628.79126 91.424098 C -628.47747 91.81788 -628.15311 92.10445 -627.72466 92.365643 C -627.65327 92.409163 -627.35475 92.556746 -627.11126 92.661749 C -627.23637 92.810006 -627.35835 93.024463 -627.48178 93.231223 C -627.5083 93.275644 -627.53037 93.310543 -627.55103 93.33871 C -627.55779 93.323423 -627.56432 93.309617 -627.57015 93.297885 C -627.74531 92.945268 -627.97022 92.731472 -628.24452 92.657615 C -628.37762 92.621775 -628.55233 92.540926 -628.63261 92.477781 C -628.72601 92.404341 -629.27483 92.06616 -629.34885 92.066436 C -629.42285 92.066664 -629.48343 92.103612 -629.523 92.17754 C -629.6067 92.333879 -629.01015 92.768294 -628.7153 92.818845 C -628.19263 92.908455 -628.13277 92.936883 -628.08898 93.120119 C -628.08016 93.157046 -628.05657 93.26074 -628.03678 93.346978 C -628.50361 93.206432 -629.24031 92.941958 -629.53695 92.802309 C -629.92452 92.619856 -630.07226 92.54109 -631.50686 91.749143 C -633.0704 90.88601 -633.73806 90.639186 -634.34338 90.701662 C -634.91461 90.760611 -635.14202 91.002728 -635.18984 91.602899 C -635.23084 92.11712 -634.96969 92.800886 -634.49944 93.409507 C -634.31401 93.6495 -634.07272 94.041739 -633.96355 94.281288 C -633.57588 95.131983 -633.18464 95.38895 -632.08305 95.515321 C -631.28211 95.607202 -629.35208 95.49608 -628.62796 95.355124 C -628.62831 95.355508 -628.62865 95.355773 -628.629 95.356158 C -628.20254 95.297785 -627.34465 95.04482 -627.36447 95.174774 C -627.37734 95.173844 -627.42242 95.199584 -627.55878 95.330836 C -627.82098 95.583176 -628.13353 95.958272 -628.25796 96.170578 C -628.38168 96.381681 -628.53336 96.618411 -628.59489 96.696644 C -628.65639 96.774884 -628.69432 96.871525 -628.67912 96.911102 C -628.66392 96.950682 -628.71107 97.00993 -628.78403 97.042877 C -628.85693 97.075817 -628.94297 97.184174 -628.97523 97.283689 C -629.00753 97.383209 -629.12481 97.583905 -629.23568 97.729656 C -629.34655 97.875407 -629.43722 98.042585 -629.43722 98.10121 C -629.43722 98.15984 -629.51184 98.271802 -629.6031 98.349774 C -629.6943 98.427743 -629.85844 98.637752 -629.96793 98.816412 C -630.33976 99.423216 -630.0799 99.421159 -629.41861 98.812278 C -629.12804 98.544739 -629.05482 98.435003 -628.98556 98.166839 C -628.89456 97.814644 -628.70399 97.494648 -628.35614 97.109539 C -628.2328 96.972998 -628.07202 96.762457 -627.99906 96.641351 C -627.92606 96.520249 -627.82746 96.406038 -627.77944 96.387619 C -627.6048 96.320599 -627.62871 96.469972 -627.8368 96.742636 C -628.06672 97.043853 -628.08198 97.129487 -627.98924 97.618552 C -627.93274 97.916574 -627.93841 97.950371 -628.07141 98.093975 C -628.41073 98.460084 -628.53723 98.788615 -628.65742 99.61843 C -628.84423 100.90806 -628.78846 101.11104 -628.51324 101.15322 C -628.42964 101.16602 -628.39165 101.20616 -628.40937 101.26277 C -628.42467 101.31177 -628.43426 101.5175 -628.43056 101.72011 C -628.42356 102.07434 -628.32042 102.37836 -628.13342 102.59241 C -628.06232 102.67381 -628.07634 102.75785 -628.23264 103.18617 C -628.33285 103.46073 -628.45149 103.75765 -628.49619 103.84556 C -628.54089 103.93346 -628.59568 104.07321 -628.61814 104.15614 C -628.70984 104.49401 -628.478 104.0775 -628.22799 103.45541 C -628.06208 103.04261 -627.93075 102.80252 -627.84661 102.75881 C -627.77601 102.72211 -627.71052 102.68611 -627.7014 102.67871 C -627.6924 102.67171 -627.74139 102.53379 -627.81044 102.37278 C -627.91459 102.1298 -627.92324 102.05653 -627.86263 101.94335 C -627.79963 101.8256 -627.81257 101.77434 -627.95617 101.56715 L -628.12257 101.32737 L -628.00423 101.15839 C -627.88397 100.90588 -627.93726 100.30871 -628.01456 99.937274 C -628.08426 99.643276 -628.12253 98.973109 -628.06521 98.870672 C -628.01541 98.781682 -627.99353 98.368961 -627.96237 98.612807 C -627.89227 99.161795 -627.49367 100.27545 -627.20376 100.73206 C -626.63418 101.62915 -625.65267 102.50094 -625.21215 102.50094 C -625.05571 102.50094 -624.26382 101.95656 -623.97088 101.64776 C -623.27266 100.91175 -622.81904 99.853754 -622.74667 98.791607 C -622.71047 98.260577 -622.61742 98.867459 -622.57252 99.077378 C -622.51232 99.359023 -622.56081 99.35096 -622.63401 100.63129 C -622.67431 101.33671 -622.62792 101.10407 -622.40457 101.36923 C -622.33177 101.45593 -622.31304 101.44856 -622.49294 101.65345 C -622.67354 101.85915 -622.68163 101.88501 -622.59422 101.98159 C -622.50872 102.07599 -622.50819 102.10844 -622.59009 102.30509 C -622.70531 102.58062 -622.70565 102.70757 -622.59112 102.7924 C -622.54152 102.8292 -622.39143 103.17044 -622.25729 103.55049 C -622.12315 103.93054 -622.00072 104.25406 -621.98547 104.26931 C -621.88364 104.37113 -621.92844 104.14496 -622.13327 103.52413 L -622.36891 102.81048 L -622.18908 102.45702 C -621.99252 102.07021 -621.89432 101.48829 -622.01338 101.4147 C -622.06258 101.3843 -622.03965 101.32964 -621.93845 101.2359 C -621.73499 101.04734 -621.63644 101.09742 -621.72037 100.57651 C -621.89674 99.481899 -622.35951 98.269586 -622.71308 97.976153 C -622.79338 97.909533 -622.80362 97.828872 -622.76992 97.538454 C -622.73852 97.268224 -622.7518 97.136312 -622.8247 96.991717 C -622.8775 96.886913 -622.90445 96.668819 -622.98283 96.5504 C -623.14578 96.304176 -622.97628 96.267723 -622.97766 96.252744 C -622.90845 96.334404 -622.85341 96.404419 -622.8371 96.438779 C -622.7839 96.550939 -622.63643 96.732453 -622.50947 96.842372 C -622.04399 97.245382 -621.87729 97.494668 -621.6811 98.080539 C -621.52062 98.559765 -621.45914 98.670468 -621.29818 98.768353 C -621.19274 98.832473 -621.00355 98.992992 -620.87805 99.12492 C -620.74981 99.25973 -620.59297 99.364699 -620.51993 99.364699 C -620.36103 99.364699 -620.35569 99.282467 -620.50029 99.07221 C -620.56089 98.98416 -620.64418 98.826377 -620.68581 98.721844 C -620.72741 98.617312 -620.8297 98.467995 -620.91319 98.390081 C -620.99669 98.312171 -621.11641 98.148964 -621.1788 98.027313 C -621.2412 97.905659 -621.4416 97.629823 -621.62477 97.413913 C -621.80794 97.198003 -621.95809 96.995794 -621.95809 96.964845 C -621.95809 96.86305 -622.94556 95.719908 -623.32493 95.382513 C -623.46746 95.085673 -622.66933 95.425866 -622.09813 95.468296 C -622.08413 95.454346 -621.89979 95.472867 -621.68833 95.509637 C -621.47687 95.546387 -620.50836 95.604651 -619.91687 95.610406 C -619.32341 95.616206 -618.46988 95.62944 -618.13765 95.54426 C -617.51461 95.384531 -617.30875 95.165583 -616.91292 94.242014 C -616.83472 94.059569 -616.61427 93.725759 -616.42302 93.500457 C -615.77975 92.742676 -615.4876 92.118475 -615.57036 91.677313 C -615.62246 91.399858 -615.97061 91.012943 -616.25146 90.920253 C -616.60934 90.802141 -617.2531 90.884883 -617.92939 91.136777 C -618.52683 91.359303 -620.26379 92.22351 -621.18346 92.7558 C -621.51446 92.94738 -622.2662 93.297809 -622.69706 93.472552 C -622.52889 92.97645 -622.50846 92.995716 -621.95912 92.901527 C -621.51988 92.826217 -620.68892 92.154286 -621.07183 92.154286 C -621.23646 92.154286 -622.38982 92.558501 -622.69241 92.714975 C -622.79411 92.767567 -622.97311 93.025418 -623.13734 93.332509 C -623.13779 93.331038 -623.13845 93.329851 -623.13889 93.328375 C -623.23249 92.989522 -623.72608 92.803055 -623.29754 92.553228 C -623.13932 92.553228 -622.28141 91.960544 -621.71211 91.458205 C -621.4048 91.187036 -621.15297 90.944026 -621.15297 90.918703 C -621.15297 90.845883 -621.33508 90.683575 -621.41652 90.683575 C -621.45722 90.683575 -621.59621 90.791415 -621.72554 90.92387 C -621.85488 91.056324 -622.20655 91.2903 -622.50689 91.443218 C -622.80723 91.596134 -623.14114 91.787297 -623.24896 91.868515 C -623.43201 92.006402 -623.80859 92.190976 -623.9068 92.190976 C -623.9307 92.190976 -623.88082 92.116316 -623.7957 92.025095 C -623.60053 91.815843 -623.50528 91.632485 -623.50528 91.464406 C -623.64595 90.671749 -624.17324 90.46745 -624.65146 90.413307 C -624.65155 90.249764 -624.36665 90.106663 -623.52905 89.300197 C -622.80533 88.603365 -622.60631 88.380173 -622.68259 88.350901 C -622.82916 88.294661 -622.98188 88.415863 -623.82671 89.258856 C -624.35142 89.782437 -624.73119 90.033964 -624.95118 90.366798 C -625.05883 90.347108 -625.17674 90.336816 -625.29638 90.336826 C -625.4051 90.336835 -625.51246 90.345787 -625.61213 90.362147 C -625.62993 90.336167 -625.64664 90.312616 -625.66484 90.285666 C -626.37217 89.427233 -627.43158 88.274839 -627.64973 88.255816 z M -634.26483 90.884079 C -634.16342 90.885879 -634.03953 90.906261 -633.84418 90.946091 C -633.59268 90.997381 -633.20702 91.129173 -632.98687 91.23858 C -632.63912 91.411406 -632.56163 91.481728 -632.39724 91.774981 C -632.24017 92.055179 -632.00967 92.618591 -632.00967 92.72221 C -632.00967 92.73714 -632.12726 92.736443 -632.27115 92.720143 C -632.55937 92.687653 -633.34454 92.255945 -633.48813 92.050933 C -633.53583 91.982863 -633.59356 91.945502 -633.61629 91.968251 C -633.71099 92.062991 -633.50922 92.29597 -633.14862 92.50827 C -632.53549 92.869249 -632.57839 92.822899 -632.69593 93.002296 C -632.76543 93.108335 -632.7932 93.252232 -632.7812 93.439479 L -632.76363 93.718532 L -633.0649 93.796563 C -633.38796 93.880133 -633.57936 94.055282 -633.57546 94.263718 C -633.57346 94.380432 -633.56408 94.376728 -633.48348 94.228061 C -633.357 93.994996 -633.20374 93.931849 -632.68043 93.897332 C -632.33869 93.874782 -632.09702 93.898027 -631.73837 93.988283 C -631.473 94.055013 -631.07861 94.127409 -630.86193 94.148996 C -630.64525 94.170586 -630.42838 94.212304 -630.38031 94.242014 C -630.23283 94.333164 -630.47849 94.595 -631.10275 95.010959 C -631.6317 95.36342 -631.69053 95.387323 -632.00502 95.384063 C -632.43874 95.379563 -633.07348 95.213514 -633.31657 95.040415 C -633.50828 94.90391 -633.81886 94.368017 -633.81886 94.174318 C -633.81886 94.117138 -634.03287 93.785736 -634.29428 93.437412 C -634.87635 92.661823 -635.11639 92.109709 -635.07201 91.647857 C -635.03451 91.258048 -634.87457 91.038252 -634.55267 90.934205 C -634.44552 90.899566 -634.36623 90.882339 -634.26483 90.884079 z M -616.62353 91.060296 C -615.54967 91.079576 -615.41467 92.120631 -616.51346 93.369716 C -616.73409 93.620519 -616.96678 93.97167 -617.09172 94.242014 C -617.52117 95.171282 -617.54613 95.210409 -617.80123 95.342205 C -617.9937 95.441645 -618.19132 95.474804 -618.71126 95.495684 L -619.37478 95.522556 L -619.88689 95.111728 C -620.47825 94.637452 -620.48778 94.626785 -620.48892 94.413063 C -620.48983 94.255898 -620.47889 94.251432 -620.02229 94.215142 C -619.76521 94.194742 -619.29717 94.146467 -618.98204 94.108172 C -618.21444 94.014902 -618.02546 94.024788 -617.71597 94.174318 C -617.57151 94.244118 -617.44059 94.288586 -617.42503 94.27302 C -617.36643 94.21439 -617.54865 94.069828 -617.83792 93.945391 C -618.00273 93.874491 -618.13765 93.788604 -618.13765 93.754705 C -618.13765 93.720805 -618.09205 93.606103 -618.03584 93.49994 C -617.97964 93.393778 -617.93174 93.185769 -617.92991 93.037953 C -617.92691 92.776251 -617.92015 92.767878 -617.68031 92.698439 C -617.34019 92.599969 -617.10811 92.471661 -616.93617 92.287611 C -616.72791 92.064682 -616.80129 92.048928 -617.1036 92.251955 C -617.24643 92.347884 -617.51645 92.470927 -617.70356 92.525323 C -617.89068 92.579723 -618.14335 92.675507 -618.26529 92.737713 C -618.74961 92.984798 -620.18817 93.265449 -620.18817 93.112884 C -620.18817 93.005413 -619.49595 92.410568 -618.61152 91.758445 C -618.26574 91.503495 -617.82256 91.298774 -617.31496 91.159515 C -617.0536 91.087805 -616.8224 91.056728 -616.62353 91.060296 z M -632.20707 91.527968 C -632.08472 91.527968 -630.80354 92.827087 -630.80354 92.951137 C -630.80354 93.113666 -631.62584 92.992522 -631.77867 92.807476 C -631.82567 92.750566 -631.90084 92.595481 -631.94559 92.462794 C -631.99039 92.330104 -632.09061 92.08085 -632.16883 91.908823 C -632.33881 91.535002 -632.3396 91.527968 -632.20707 91.527968 z M -619.24404 91.969284 C -619.23074 91.982614 -619.44735 92.193969 -619.72515 92.439023 C -620.2428 92.895664 -620.53908 93.248243 -620.4667 93.320623 C -620.3911 93.396233 -619.19425 93.224153 -618.69317 93.065858 C -618.195 92.908401 -618.07719 92.908876 -618.07719 93.067409 C -618.07719 93.184768 -618.36499 93.804051 -618.4415 93.85134 C -618.60905 93.954892 -619.40819 94.010058 -620.9752 94.02704 L -620.9752 94.027557 C -621.92226 94.037837 -622.78165 94.064375 -622.88464 94.086985 C -623.09342 94.132845 -623.18112 94.056554 -623.09548 93.903533 C -623.06538 93.849713 -622.73145 93.679696 -622.35341 93.525262 C -621.97538 93.370831 -621.50289 93.145726 -621.30386 93.025034 C -620.81624 92.729338 -619.27439 91.938941 -619.24404 91.969284 z M -631.3141 92.07057 C -631.2503 92.07057 -630.68355 92.377648 -630.40512 92.563047 C -629.89171 92.904893 -629.05882 93.272967 -628.34323 93.474619 C -627.93576 93.589444 -627.58722 93.698875 -627.5686 93.717498 C -627.55 93.736118 -627.55325 93.861628 -627.57635 93.996551 C -627.59915 94.131474 -627.64944 94.238875 -627.68797 94.235296 C -627.72647 94.231696 -627.96163 94.191702 -628.21042 94.146413 C -628.45921 94.101123 -629.23257 94.037997 -629.92918 94.005853 C -630.99256 93.956783 -631.30227 93.920144 -631.85929 93.77796 L -632.52282 93.608461 L -632.5409 93.291684 C -632.5538 93.067021 -632.53712 92.975425 -632.48302 92.975425 C -632.44112 92.975425 -632.04964 93.034051 -631.61331 93.105649 C -631.17697 93.177239 -630.77557 93.218426 -630.72137 93.197633 C -630.52957 93.124033 -630.61679 92.889796 -630.98958 92.476747 C -631.19125 92.253296 -631.33713 92.07057 -631.3141 92.07057 z M -629.50026 94.159848 C -629.29603 94.160296 -629.04278 94.187629 -628.7308 94.24098 C -628.36139 94.30415 -627.96883 94.364253 -627.8585 94.374306 C -627.67519 94.391036 -627.64911 94.41981 -627.55154 94.709169 C -627.49284 94.883321 -627.44707 95.025899 -627.45026 95.025945 C -627.45326 95.02599 -627.68436 95.066236 -627.9634 95.115346 C -628.27537 95.170246 -628.41814 95.196784 -628.52409 95.265207 C -628.78673 95.302053 -629.30442 95.359569 -629.69301 95.385097 C -630.22095 95.419777 -630.79526 95.462348 -630.96942 95.479148 C -631.42302 95.522888 -631.3845 95.414334 -630.77925 94.941713 C -630.50066 94.724177 -630.22051 94.474518 -630.15655 94.386708 C -630.04478 94.233267 -629.84065 94.159103 -629.50026 94.159848 z M -621.11886 94.183103 C -620.68674 94.182192 -620.67322 94.248252 -620.67186 94.495745 C -620.67117 94.612208 -620.60755 94.707376 -620.45017 94.827508 C -619.95022 95.209088 -619.6993 95.466894 -619.77889 95.517388 C -619.82169 95.544568 -619.88369 95.563199 -619.91687 95.558729 C -619.95007 95.554229 -620.33003 95.529456 -620.76126 95.503436 C -621.1925 95.477406 -621.77586 95.412783 -622.05782 95.360292 C -622.33978 95.307802 -622.76765 95.232417 -623.00815 95.192344 C -623.27803 95.147374 -623.44533 95.090418 -623.44533 95.044032 C -623.44533 95.002702 -623.38055 94.823061 -623.30167 94.644573 C -623.16594 94.337674 -623.14373 94.317688 -622.89446 94.280771 C -622.74949 94.259301 -622.21485 94.224083 -621.7059 94.202223 C -621.45386 94.191393 -621.2629 94.183393 -621.11886 94.183103 z M -626.66426 95.26314 C -626.62226 95.26314 -626.49641 95.343338 -626.38469 95.441424 C -625.99034 95.787674 -625.12398 95.913245 -624.64216 95.693605 C -624.50947 95.633125 -624.31549 95.511396 -624.21118 95.423337 C -624.10688 95.335277 -624.00582 95.26314 -623.9869 95.26314 C -623.92879 95.26314 -623.50634 95.674627 -623.1885 96.016583 L -623.97863 96.298219 C -625.14041 96.712225 -625.83201 96.684286 -627.02341 96.224839 C -627.28921 96.122338 -627.50658 96.01628 -627.50658 95.989194 C -627.50658 95.866891 -626.8062 95.26314 -626.66426 95.26314 z M -627.87969 96.948309 C -627.81339 96.942609 -627.70653 96.996812 -627.54793 97.09817 C -626.84101 97.54993 -626.15774 97.733973 -625.17959 97.735341 C -624.41458 97.736253 -624.14153 97.662869 -623.38746 97.253716 C -623.12865 97.113295 -622.89918 97.016457 -622.87741 97.038226 C -622.80211 97.113536 -622.85367 97.965435 -622.94407 98.138417 C -623.16385 98.559323 -623.65533 98.840443 -624.34709 98.940435 C -625.10978 99.050682 -626.14913 98.98751 -626.83014 98.78954 C -627.6256 98.558292 -627.78918 98.371006 -627.9231 97.536903 C -627.9877 97.134594 -627.99009 96.957885 -627.87969 96.948309 z M -627.6921 98.935784 C -627.69 98.936039 -627.68799 98.937027 -627.68642 98.939402 C -627.64212 99.005872 -627.34466 99.016861 -627.05442 99.128021 C -626.2492 99.436404 -625.90367 99.505616 -625.17649 99.502675 C -624.46833 99.499875 -624.10532 99.425259 -623.43758 99.144557 C -623.17321 99.033425 -622.93223 98.942502 -622.9017 98.942502 C -622.8138 98.942502 -622.90359 99.585251 -623.02469 99.827719 C -623.14326 100.06425 -623.73128 100.4612 -624.12591 100.57083 C -624.50871 100.67717 -625.85576 100.63855 -626.35937 100.50675 C -626.94153 100.35434 -627.43634 100.06031 -627.54586 99.802398 C -627.67029 99.509359 -627.76761 98.997279 -627.70916 98.944052 C -627.70616 98.941652 -627.69841 98.93502 -627.6921 98.935784 z " /></g></svg>
