<?xml version="1.0" encoding="UTF-8" standalone="no"?>
<!-- Created with Inkscape (http://www.inkscape.org/) -->

<svg
   version="1.1"
   id="svg2"
   width="285.46448"
   height="388.57086"
   viewBox="0 0 285.46447 388.57085"
   sodipodi:docname="cache_line.svg"
   xml:space="preserve"
   inkscape:version="1.2.2 (b0a8486541, 2022-12-01)"
   xmlns:inkscape="http://www.inkscape.org/namespaces/inkscape"
   xmlns:sodipodi="http://sodipodi.sourceforge.net/DTD/sodipodi-0.dtd"
   xmlns="http://www.w3.org/2000/svg"
   xmlns:svg="http://www.w3.org/2000/svg"><defs
     id="defs6"><clipPath
       clipPathUnits="userSpaceOnUse"
       id="clipPath948"><circle
         style="fill:#000000;stroke-width:1.37953;stroke-linecap:round;stroke-linejoin:round;paint-order:markers fill stroke"
         id="circle950"
         cx="137.87604"
         cy="3.8671874e-06"
         r="22.41445" /></clipPath><clipPath
       clipPathUnits="userSpaceOnUse"
       id="clipPath5937"><circle
         style="fill:#000000;stroke-width:0.956981;stroke-linecap:round;stroke-linejoin:round;paint-order:markers fill stroke"
         id="circle5939"
         cx="563.42859"
         cy="393.31909"
         r="15.548921" /></clipPath><clipPath
       clipPathUnits="userSpaceOnUse"
       id="clipPath706"><rect
         style="fill:#ffffff;stroke-width:1.42992;stroke-linecap:square;stroke-miterlimit:2;paint-order:fill markers stroke;stop-color:#000000"
         id="rect708"
         width="114.22203"
         height="174.66386"
         x="53.18219"
         y="-411.6936" /></clipPath></defs><sodipodi:namedview
     id="namedview4"
     pagecolor="#ffffff"
     bordercolor="#666666"
     borderopacity="1.0"
     inkscape:showpageshadow="2"
     inkscape:pageopacity="0.0"
     inkscape:pagecheckerboard="0"
     inkscape:deskcolor="#d1d1d1"
     showgrid="false"
     inkscape:zoom="2.0000001"
     inkscape:cx="163"
     inkscape:cy="220.24999"
     inkscape:window-width="1914"
     inkscape:window-height="2126"
     inkscape:window-x="3840"
     inkscape:window-y="0"
     inkscape:window-maximized="1"
     inkscape:current-layer="g8" /><g
     inkscape:groupmode="layer"
     inkscape:label="Image"
     id="g8"
     transform="translate(-856.06267,-2805.9668)"><path
       id="rect348"
       d="M 866.77947 2805.9668 C 860.84193 2805.9668 856.06267 2810.7461 856.06267 2816.6836 L 856.06267 3183.8203 C 856.06267 3189.7579 860.84193 3194.5371 866.77947 3194.5371 L 1130.8088 3194.5371 C 1136.7463 3194.5371 1141.5275 3189.7579 1141.5275 3183.8203 L 1141.5275 2816.6836 C 1141.5275 2810.7461 1136.7463 2805.9668 1130.8088 2805.9668 L 866.77947 2805.9668 z M 928.63494 2841.5234 C 933.61677 2841.5234 937.46548 2843.1858 940.93767 2846.2051 L 945.31658 2842.2031 C 945.92043 2841.6748 946.07083 2841.5234 946.75017 2841.5234 C 948.10885 2841.5234 948.10955 2842.2045 948.10955 2843.6387 L 948.10955 2859.8672 C 948.10955 2861.8297 948.03302 2861.9805 946.07048 2861.9805 C 944.78728 2861.9805 944.25856 2861.9792 944.10759 2860.7715 C 942.52246 2849.7511 936.1826 2845.0723 930.06853 2845.0723 C 926.82279 2845.0723 921.01061 2846.0534 917.2365 2851.2617 C 913.68883 2856.1681 913.68767 2863.4133 913.68767 2868.2441 C 913.68767 2875.113 914.14149 2880.0212 916.78337 2884.4746 C 919.57622 2889.079 924.85968 2891.418 930.21892 2891.418 C 936.7104 2891.418 944.03234 2886.6629 944.56072 2876.6992 C 944.6362 2875.416 945.31577 2875.416 946.29705 2875.416 C 947.58024 2875.416 948.10955 2875.4923 948.10955 2877.002 C 948.10955 2885.0786 941.01277 2894.9648 928.70915 2894.9648 C 913.53721 2894.9648 902.13884 2885.0767 902.13884 2868.2441 C 902.13884 2851.1851 913.8404 2841.5234 928.63494 2841.5234 z M 1035.6681 2841.75 L 1035.6681 2867.0371 L 1035.7443 2867.0371 C 1037.8578 2863.1875 1041.4808 2860.168 1046.84 2860.168 C 1055.2186 2860.168 1057.0295 2865.1494 1057.0295 2870.8106 L 1057.0295 2890.5879 L 1062.2385 2890.5879 L 1062.2385 2894.1348 C 1060.7288 2894.0593 1056.1996 2893.9082 1052.8029 2893.9082 C 1049.8591 2893.9082 1046.2351 2894.0593 1043.5177 2894.1348 L 1043.5177 2890.5879 L 1048.424 2890.5879 L 1048.424 2869.9063 C 1048.424 2863.2638 1046.9149 2862.8867 1045.7072 2862.8867 C 1041.9331 2862.8867 1036.1213 2866.434 1036.1213 2874.8125 L 1036.1213 2890.5879 L 1041.3302 2890.5879 L 1041.3302 2894.1348 C 1039.2167 2894.0593 1034.7623 2893.9082 1031.8185 2893.9082 C 1028.9502 2893.9082 1024.4223 2894.0593 1022.3088 2894.1348 L 1022.3088 2890.5879 L 1027.5158 2890.5879 L 1027.5158 2848.8457 C 1027.5158 2845.9019 1026.9887 2845.9023 1022.3088 2845.9023 L 1022.3088 2842.3555 L 1035.6681 2841.75 z M 969.01775 2859.9414 C 978.30207 2859.9414 983.88689 2864.3194 983.88689 2871.4902 L 983.88689 2887.7949 C 983.88689 2889.3801 983.88805 2890.3614 987.43572 2890.5879 C 988.26602 2890.6634 989.0197 2890.8146 989.0197 2892.3242 C 989.0197 2894.1358 988.11333 2894.1348 986.60369 2894.1348 L 983.43376 2894.1348 C 976.56487 2894.1348 976.56462 2890.134 976.56462 2888.5488 C 974.97949 2891.9455 971.88584 2894.5879 967.28142 2894.5879 C 961.62025 2894.5879 954.52556 2892.1732 954.52556 2885.9082 C 954.52556 2877.9826 964.41197 2874.3593 975.28142 2874.1328 L 975.28142 2871.416 C 975.28142 2866.2832 973.32013 2862.6602 968.79119 2862.6602 C 966.52672 2862.6602 965.92319 2862.8094 964.33806 2863.1113 C 964.41354 2863.1868 966.07244 2864.4713 966.07244 2866.8867 C 966.07244 2870.057 963.65848 2871.6426 961.31853 2871.6426 C 959.28051 2871.6426 956.63884 2870.2079 956.63884 2866.8867 C 956.63884 2860.0933 966.52683 2859.9414 969.01775 2859.9414 z M 1008.0412 2859.9414 C 1014.0043 2859.9414 1019.59 2861.9049 1019.59 2866.8867 C 1019.59 2870.057 1017.1741 2871.6426 1014.8342 2871.6426 C 1012.7961 2871.6426 1010.1545 2870.2079 1010.1545 2866.8867 C 1010.1545 2865.1506 1010.9849 2863.9418 1011.6642 2863.3379 C 1010.4565 2863.1114 1009.6264 2862.9609 1008.2677 2862.9609 C 1001.2479 2862.9609 1001.2482 2872.3221 1001.2482 2877.002 C 1001.2482 2880.6251 1001.3231 2884.021 1002.6818 2886.9648 C 1004.0405 2889.9087 1006.3805 2891.5684 1009.0978 2891.5684 C 1014.6835 2891.5684 1016.3448 2886.7382 1016.8732 2885.2285 C 1017.1751 2884.3227 1017.4773 2884.2481 1018.6095 2884.2481 C 1019.3644 2884.2481 1020.4201 2884.2479 1020.4201 2885.3047 C 1020.4201 2886.135 1018.0802 2894.5879 1007.8146 2894.5879 C 998.90771 2894.5879 991.58611 2888.5503 991.58611 2877.3789 C 991.58611 2866.8114 998.07752 2859.9414 1008.0412 2859.9414 z M 1081.0334 2859.9414 C 1092.7331 2859.9414 1095.4494 2868.7743 1095.4494 2875.4922 C 1095.4494 2877.6057 1094.9224 2877.6797 1093.0353 2877.6797 L 1074.1642 2877.6797 C 1074.1642 2882.1331 1074.1633 2891.5684 1082.6174 2891.5684 C 1085.6367 2891.5684 1090.0148 2889.9833 1091.8263 2885.3789 C 1092.2038 2884.3222 1092.3556 2883.9453 1093.6388 2883.9453 C 1094.0163 2883.9453 1095.4494 2883.946 1095.4494 2885.3047 C 1095.4494 2886.8898 1092.0543 2894.5879 1081.9396 2894.5879 C 1072.0514 2894.5879 1064.5021 2888.0973 1064.5021 2877.1523 C 1064.5021 2866.5848 1071.2962 2859.9414 1081.0334 2859.9414 z M 1081.1095 2862.6602 C 1074.4671 2862.6602 1074.2397 2871.3399 1074.1642 2875.1895 L 1088.2795 2875.1895 C 1088.2795 2873.4534 1088.2804 2862.6602 1081.1095 2862.6602 z M 975.28142 2876.5488 C 973.31888 2876.6998 963.35564 2877.6052 963.35564 2885.9082 C 963.35564 2888.7765 965.09289 2891.8711 968.18767 2891.8711 C 970.37666 2891.8711 975.28142 2890.2102 975.28142 2883.7188 L 975.28142 2876.5488 z "
       style="fill:#fdfdfd;fill-opacity:1" /><rect
       id="rect508"
       width="231.17062"
       height="29.156525"
       x="883.20959"
       y="2927.7529"
       ry="4.9264684"
       style="fill:#000000;fill-opacity:1" /><rect
       id="rect512"
       width="231.17062"
       height="29.156525"
       x="883.20959"
       y="2969.2007"
       ry="4.9264684"
       style="fill:#000000;fill-opacity:1" /><rect
       id="rect526"
       width="231.17062"
       height="29.156525"
       x="883.20959"
       y="3010.6484"
       ry="4.9264684"
       style="fill:#000000;fill-opacity:1" /><rect
       id="rect528"
       width="231.17062"
       height="29.156525"
       x="883.20959"
       y="3052.0964"
       ry="4.9264684"
       style="fill:#000000;fill-opacity:1" /><rect
       id="rect542"
       width="231.17062"
       height="29.156525"
       x="883.20959"
       y="3093.5447"
       ry="4.9264684"
       style="fill:#000000;fill-opacity:1" /><rect
       id="rect1244"
       width="231.17062"
       height="29.156525"
       x="883.20959"
       y="3134.9929"
       ry="4.9264684"
       style="fill:#000000;fill-opacity:1" /></g></svg>
