<?xml version="1.0" encoding="UTF-8" standalone="no"?>
<!-- Created with Inkscape (http://www.inkscape.org/) -->

<svg
   version="1.1"
   id="svg2"
   width="300.67383"
   height="299.63089"
   viewBox="0 0 300.67382 299.63088"
   sodipodi:docname="cpu.svg"
   xml:space="preserve"
   inkscape:version="1.2.2 (b0a8486541, 2022-12-01)"
   xmlns:inkscape="http://www.inkscape.org/namespaces/inkscape"
   xmlns:sodipodi="http://sodipodi.sourceforge.net/DTD/sodipodi-0.dtd"
   xmlns="http://www.w3.org/2000/svg"
   xmlns:svg="http://www.w3.org/2000/svg"><defs
     id="defs6"><clipPath
       clipPathUnits="userSpaceOnUse"
       id="clipPath948"><circle
         style="fill:#000000;stroke-width:1.37953;stroke-linecap:round;stroke-linejoin:round;paint-order:markers fill stroke"
         id="circle950"
         cx="137.87604"
         cy="3.8671874e-06"
         r="22.41445" /></clipPath><clipPath
       clipPathUnits="userSpaceOnUse"
       id="clipPath5937"><circle
         style="fill:#000000;stroke-width:0.956981;stroke-linecap:round;stroke-linejoin:round;paint-order:markers fill stroke"
         id="circle5939"
         cx="563.42859"
         cy="393.31909"
         r="15.548921" /></clipPath><clipPath
       clipPathUnits="userSpaceOnUse"
       id="clipPath706"><rect
         style="fill:#ffffff;stroke-width:1.42992;stroke-linecap:square;stroke-miterlimit:2;paint-order:fill markers stroke;stop-color:#000000"
         id="rect708"
         width="114.22203"
         height="174.66386"
         x="53.18219"
         y="-411.6936" /></clipPath></defs><sodipodi:namedview
     id="namedview4"
     pagecolor="#ffffff"
     bordercolor="#666666"
     borderopacity="1.0"
     inkscape:showpageshadow="2"
     inkscape:pageopacity="0.0"
     inkscape:pagecheckerboard="0"
     inkscape:deskcolor="#d1d1d1"
     showgrid="false"
     inkscape:zoom="2.8284272"
     inkscape:cx="190.56527"
     inkscape:cy="94.57553"
     inkscape:window-width="1914"
     inkscape:window-height="2126"
     inkscape:window-x="3840"
     inkscape:window-y="0"
     inkscape:window-maximized="1"
     inkscape:current-layer="g8" /><g
     inkscape:groupmode="layer"
     inkscape:label="Image"
     id="g8"
     transform="translate(-313.67849,-3208.311)"><path
       id="path641"
       d="M 379.40115 3208.311 L 379.40115 3233.8403 L 358.34451 3233.8403 C 347.8867 3233.8403 339.20779 3242.5212 339.20779 3252.979 L 339.20779 3263.9633 L 313.67849 3263.9633 L 313.67849 3278.6391 L 339.20779 3278.6391 L 339.20779 3298.6938 L 313.67849 3298.6938 L 313.67849 3313.3696 L 339.20779 3313.3696 L 339.20779 3333.4223 L 313.67849 3333.4223 L 313.67849 3348.1001 L 339.20779 3348.1001 L 339.20779 3368.1528 L 313.67849 3368.1528 L 313.67849 3382.8305 L 339.20779 3382.8305 L 339.20779 3402.8833 L 313.67849 3402.8833 L 313.67849 3417.559 L 339.20779 3417.559 L 339.20779 3437.6137 L 313.67849 3437.6137 L 313.67849 3452.2895 L 339.20779 3452.2895 L 339.20779 3463.2758 C 339.20779 3473.7336 347.8867 3482.4145 358.34451 3482.4145 L 379.33669 3482.4145 L 379.33669 3507.9419 L 394.01443 3507.9419 L 394.01443 3482.4145 L 410.26052 3482.4145 L 410.26052 3507.9419 L 424.9363 3507.9419 L 424.9363 3482.4145 L 441.18435 3482.4145 L 441.18435 3507.9419 L 455.86013 3507.9419 L 455.86013 3482.4145 L 472.10622 3482.4145 L 472.10622 3507.9419 L 486.78396 3507.9419 L 486.78396 3482.4145 L 503.03005 3482.4145 L 503.03005 3507.9419 L 517.70583 3507.9419 L 517.70583 3482.4145 L 533.95388 3482.4145 L 533.95388 3507.9419 L 548.62966 3507.9419 L 548.62966 3482.4145 L 569.6863 3482.4145 C 580.14411 3482.4145 588.82497 3473.7336 588.82497 3463.2758 L 588.82497 3452.2895 L 614.35232 3452.2895 L 614.35232 3437.6118 L 588.82497 3437.6118 L 588.82497 3417.559 L 614.35232 3417.559 L 614.35232 3402.8833 L 588.82497 3402.8833 L 588.82497 3382.8286 L 614.35232 3382.8286 L 614.35232 3368.1528 L 588.82497 3368.1528 L 588.82497 3348.1001 L 614.35232 3348.1001 L 614.35232 3333.4223 L 588.82497 3333.4223 L 588.82497 3313.3696 L 614.35232 3313.3696 L 614.35232 3298.6919 L 588.82497 3298.6919 L 588.82497 3278.6391 L 614.35232 3278.6391 L 614.35232 3263.9633 L 588.82497 3263.9633 L 588.82497 3252.979 C 588.82497 3242.5211 580.14411 3233.8403 569.6863 3233.8403 L 548.69412 3233.8403 L 548.69412 3208.311 L 534.01638 3208.311 L 534.01638 3233.8403 L 517.77029 3233.8403 L 517.77029 3208.311 L 503.09451 3208.311 L 503.09451 3233.8403 L 486.84646 3233.8403 L 486.84646 3208.311 L 472.17068 3208.311 L 472.17068 3233.8403 L 455.92458 3233.8403 L 455.92458 3208.311 L 441.24685 3208.311 L 441.24685 3233.8403 L 425.00076 3233.8403 L 425.00076 3208.311 L 410.32302 3208.311 L 410.32302 3233.8403 L 394.07693 3233.8403 L 394.07693 3208.311 L 379.40115 3208.311 z M 408.20583 3328.8911 C 413.65654 3328.8911 417.8678 3330.7089 421.66677 3334.0122 L 426.45779 3329.6333 C 427.11848 3329.0552 427.28288 3328.8911 428.02615 3328.8911 C 429.5127 3328.8911 429.51247 3329.6345 429.51247 3331.2036 L 429.51247 3348.9594 C 429.51247 3351.1066 429.43121 3351.2719 427.28396 3351.2719 C 425.87998 3351.2719 425.30069 3351.2711 425.13552 3349.9497 C 423.4012 3337.8921 416.46565 3332.7719 409.77615 3332.7719 C 406.22492 3332.7719 399.86447 3333.8469 395.73513 3339.5454 C 391.85356 3344.9135 391.85427 3352.8419 391.85427 3358.1274 C 391.85427 3365.6428 392.34851 3371.0106 395.23904 3375.8833 C 398.29474 3380.9211 404.07656 3383.4809 409.94021 3383.4809 C 417.04265 3383.4809 425.05351 3378.2768 425.63162 3367.3755 C 425.7142 3365.9715 426.45838 3365.9731 427.53201 3365.9731 C 428.93597 3365.9731 429.51247 3366.0557 429.51247 3367.7075 C 429.51247 3376.5442 421.74947 3387.3618 408.28787 3387.3618 C 391.68797 3387.3618 379.21755 3376.5443 379.21755 3358.1274 C 379.21755 3339.4629 392.01886 3328.8911 408.20583 3328.8911 z M 437.75076 3329.7993 L 467.39919 3329.7993 C 479.70457 3329.7993 486.64333 3336.9028 486.64333 3345.9048 C 486.64333 3355.7322 478.30146 3361.5122 468.14333 3361.5122 L 457.24099 3361.5122 L 457.24099 3382.5727 L 465.00466 3382.5727 L 465.00466 3386.4536 C 462.11413 3386.2059 454.68117 3386.2055 451.37771 3386.2055 C 448.07424 3386.2055 440.64126 3386.2059 437.75076 3386.4536 L 437.75076 3382.5727 L 445.51443 3382.5727 L 445.51443 3333.6801 L 437.75076 3333.6801 L 437.75076 3329.7993 z M 491.00271 3329.7993 C 493.89324 3330.047 501.32621 3330.0473 504.62966 3330.0473 C 507.93313 3330.0473 515.36413 3330.047 518.25466 3329.7993 L 518.25466 3333.6801 L 510.49294 3333.6801 L 510.49294 3369.1098 C 510.49294 3372.8262 510.4925 3383.4809 521.88943 3383.4809 C 528.66152 3383.4809 536.67263 3379.9299 536.67263 3367.4594 L 536.67263 3336.0766 C 536.67263 3334.2596 536.67285 3334.1759 534.60818 3333.9282 C 534.03008 3333.8456 532.29562 3333.6801 530.5613 3333.6801 L 528.90896 3333.6801 L 528.90896 3329.7993 C 531.88208 3329.8819 535.8474 3330.0473 538.9031 3330.0473 C 541.87622 3330.0473 545.75756 3329.8823 548.81326 3329.7993 L 548.81326 3333.6801 L 547.16091 3333.6801 C 546.5828 3333.6801 544.8489 3333.6804 543.03201 3333.9282 C 541.04993 3334.1759 541.04958 3334.2596 541.04958 3336.0766 L 541.04958 3367.7075 C 541.04958 3378.5263 534.27768 3387.3618 521.55935 3387.3618 C 507.1893 3387.3618 498.76443 3378.7733 498.76443 3367.5415 L 498.76443 3333.6801 L 491.00271 3333.6801 L 491.00271 3329.7993 z M 456.74685 3333.6801 L 456.74685 3358.1274 L 464.01443 3358.1274 C 474.00739 3358.1274 474.00662 3353.0069 474.00662 3345.9048 C 474.00662 3338.7198 474.00739 3333.6801 464.01443 3333.6801 L 456.74685 3333.6801 z " /></g></svg>
