<?xml version="1.0" encoding="UTF-8" standalone="no"?>
<!-- Created with Inkscape (http://www.inkscape.org/) -->

<svg
   version="1.1"
   id="svg2"
   width="161.86583"
   height="131.45229"
   viewBox="0 0 161.86583 131.45229"
   sodipodi:docname="1.svg"
   inkscape:version="1.1 (c4e8f9ed74, 2021-05-24)"
   xmlns:inkscape="http://www.inkscape.org/namespaces/inkscape"
   xmlns:sodipodi="http://sodipodi.sourceforge.net/DTD/sodipodi-0.dtd"
   xmlns="http://www.w3.org/2000/svg"
   xmlns:svg="http://www.w3.org/2000/svg">
  <sodipodi:namedview
     id="namedview64"
     pagecolor="#ffffff"
     bordercolor="#666666"
     borderopacity="1.0"
     inkscape:pageshadow="2"
     inkscape:pageopacity="0.0"
     inkscape:pagecheckerboard="0"
     showgrid="false"
     inkscape:zoom="0.38385417"
     inkscape:cx="883.14789"
     inkscape:cy="280.05427"
     inkscape:window-width="1920"
     inkscape:window-height="1080"
     inkscape:window-x="1920"
     inkscape:window-y="0"
     inkscape:window-maximized="1"
     inkscape:current-layer="svg2"
     fit-margin-top="0"
     fit-margin-left="0"
     fit-margin-right="0"
     fit-margin-bottom="0" />
  <defs
     id="defs6">
    <clipPath
       clipPathUnits="userSpaceOnUse"
       id="clipPath2748">
      <rect
         style="fill:none;stroke:#fd0000;stroke-width:6.29354;stroke-linecap:round;stroke-opacity:1"
         id="rect2750"
         width="181.78069"
         height="160.40302"
         x="319.67203"
         y="-1.6533943" />
    </clipPath>
    <clipPath
       clipPathUnits="userSpaceOnUse"
       id="clipPath2829">
      <rect
         style="fill:none;stroke:#fd0000;stroke-width:5.85576;stroke-linecap:round;stroke-opacity:1"
         id="rect2831"
         width="172.34521"
         height="169.41031"
         x="166.89822"
         y="149.70647" />
    </clipPath>
    <clipPath
       clipPathUnits="userSpaceOnUse"
       id="clipPath4462">
      <rect
         style="fill:none;fill-opacity:1;stroke:#fd0000;stroke-width:6;stroke-linecap:round;stroke-opacity:1"
         id="rect4464"
         width="154.82426"
         height="154.94003"
         x="163.68083"
         y="328.92615" />
    </clipPath>
    <clipPath
       clipPathUnits="userSpaceOnUse"
       id="clipPath5140">
      <rect
         style="fill:none;stroke:#fd0000;stroke-width:6;stroke-linecap:round;stroke-opacity:1"
         id="rect5142"
         width="143.4304"
         height="153.41002"
         x="492.91498"
         y="328.1218" />
    </clipPath>
    <clipPath
       clipPathUnits="userSpaceOnUse"
       id="clipPath6275">
      <rect
         style="fill:none;fill-opacity:1;stroke:#fd0000;stroke-width:6;stroke-linecap:round;stroke-opacity:1"
         id="rect6277"
         width="135.50941"
         height="155.53391"
         x="337.29059"
         y="492.97705" />
    </clipPath>
  </defs>
  <g
     id="g873"
     transform="translate(404.92995,280.6856)">
    <path
       style="fill:#fad4ad;stroke-width:0.32"
       d="m -300.98619,-155.5214 c -0.3981,-0.50754 -0.3868,-0.51886 0.1208,-0.12082 0.533,0.41804 0.7025,0.68082 0.4392,0.68082 -0.066,0 -0.3185,-0.252 -0.56,-0.56 z m -71.6992,0.0214 c 0.231,-0.0924 0.507,-0.0811 0.6133,0.0252 0.1064,0.10633 -0.083,0.18196 -0.42,0.16807 -0.3728,-0.0154 -0.4486,-0.0912 -0.1933,-0.19333 z m 102.54,-0.002 c 0.308,-0.0805 0.812,-0.0805 1.12,0 0.308,0.0805 0.056,0.14634 -0.56,0.14634 -0.616,0 -0.868,-0.0659 -0.56,-0.14634 z m -113.7208,-2.8994 c -0.3981,-0.50754 -0.3868,-0.51886 0.1208,-0.12082 0.533,0.41804 0.7025,0.68082 0.4392,0.68082 -0.066,0 -0.3185,-0.252 -0.56,-0.56 z m 80,0 c -0.3981,-0.50754 -0.3868,-0.51886 0.1208,-0.12082 0.533,0.41804 0.7025,0.68082 0.4392,0.68082 -0.066,0 -0.3185,-0.252 -0.56,-0.56 z m 42.4408,-1.04 c 0.3185,-0.352 0.6512,-0.64 0.7392,-0.64 0.088,0 -0.1007,0.288 -0.4192,0.64 -0.3186,0.352 -0.6512,0.64 -0.7392,0.64 -0.088,0 0.1006,-0.288 0.4192,-0.64 z m 1.12,-1.08082 c 0,-0.0665 0.252,-0.31845 0.56,-0.56 0.5075,-0.39804 0.5188,-0.38672 0.1208,0.12082 -0.418,0.53304 -0.6808,0.70255 -0.6808,0.43918 z m -68.96,-3.72014 c -13.0736,-1.38894 -24.6561,-7.88279 -32.382,-18.15524 -5.102,-6.78376 -8.5226,-15.69802 -8.9651,-23.36373 l -0.1893,-3.28 1.8882,-0.005 c 5.6187,-0.0141 12.4064,-3.39667 18.0831,-9.01151 2.2191,-2.19488 5.4104,-6.01537 6.836,-8.18376 0.4918,-0.748 0.9317,-1.36 0.9776,-1.36 0.046,0 -0.2812,1.116 -0.7269,2.48 -1.1104,3.39787 -1.3229,7.48335 -0.4701,9.04 0.7439,1.35796 2.2937,2.46719 3.8643,2.76571 3.3326,0.63345 10.7985,-2.37264 15.1668,-6.10681 4.1539,-3.55097 7.6188,-8.26108 8.7826,-11.9389 0.4789,-1.51344 1.0548,-2.23799 1.0548,-1.32715 0,0.78523 2.6187,5.86773 4.2159,8.1824 4.1898,6.07207 9.629,10.07915 16.4892,12.14769 2.5238,0.76101 3.3608,0.85231 8.0949,0.88292 2.904,0.0188 5.8418,-0.0845 6.5284,-0.22944 l 1.2484,-0.26359 -0.1983,4.42359 c -0.5177,11.54742 -4.9661,21.52935 -13.3184,29.88548 -4.0067,4.00867 -8.212,7.04537 -12.6601,9.14228 -1.408,0.66375 -2.6083,1.32224 -2.6673,1.46331 -0.059,0.14108 -0.2138,0.19071 -0.3439,0.1103 -0.1301,-0.0804 -1.5218,0.26458 -3.0927,0.76664 -5.3014,1.69437 -12.8905,2.50033 -18.2161,1.93454 z m 4.9087,-10.25787 c 1.9785,-0.42432 3.8903,-2.00807 4.8255,-3.99765 0.7241,-1.54055 0.6645,-2.51268 -0.1739,-2.8344 -0.7549,-0.2897 -1.3303,0.17834 -2.1207,1.72514 -1.0504,2.0556 -2.1327,2.72581 -4.4021,2.72581 -1.6218,0 -2.0031,-0.12221 -2.8185,-0.90343 -0.5186,-0.49689 -1.1941,-1.4604 -1.5011,-2.14115 -0.6307,-1.39878 -1.2038,-1.74324 -2.1011,-1.26301 -2.3516,1.25856 2.4051,6.96518 5.8474,7.01507 0.4754,0.007 1.5754,-0.13999 2.4445,-0.32638 z m -27.4139,-7.8707 c 0.7261,-0.65714 0.7439,-1.3246 0.056,-2.0852 -0.6499,-0.7182 -1.4994,-0.75047 -2.1675,-0.0823 -0.9386,0.93855 -0.2769,2.69714 1.0148,2.69714 0.2815,0 0.7753,-0.23832 1.0971,-0.5296 z m 53.7433,-0.0769 c 0.6438,-0.52136 0.7042,-0.73475 0.4295,-1.52 -0.5722,-1.63626 -3.0276,-1.32196 -3.0276,0.38755 0,0.64838 1.0258,1.73896 1.6357,1.73896 0.1174,0 0.5504,-0.27293 0.9624,-0.60651 z m -56.8916,-4.53419 c 0.9553,-1.36397 -0.5181,-3.02657 -1.986,-2.24096 -0.7605,0.40699 -0.934,1.88019 -0.2965,2.51766 0.596,0.59598 1.771,0.45354 2.2825,-0.2767 z m 6.746,-0.36961 c 0.2406,-0.68833 0.1813,-1.00616 -0.2837,-1.52 -0.7132,-0.78802 -1.3652,-0.82455 -2.1436,-0.12009 -0.7242,0.6554 -0.7494,1.50054 -0.065,2.18492 0.7892,0.78923 2.1282,0.49652 2.4922,-0.54483 z m 47.0969,0.23024 c 0.4856,-0.74108 0.4856,-0.85892 0,-1.6 -0.9434,-1.43979 -2.7494,-0.88269 -2.7494,0.8481 0,1.57363 1.875,2.0864 2.7494,0.7519 z m 6.3477,0.29714 c 0.9705,-0.97046 0.2681,-2.69714 -1.0971,-2.69714 -0.7296,0 -1.6,0.82566 -1.6,1.51766 0,0.70835 0.9418,1.68234 1.6267,1.68234 0.3122,0 0.7939,-0.22628 1.0704,-0.50286 z m -49.6345,-5.36657 c 5.5385,-3.24578 4.2124,-11.83481 -2.0595,-13.33942 -7.2833,-1.74724 -12.1508,7.70829 -6.4373,12.50507 0.7051,0.59192 1.7662,1.2602 2.3581,1.48507 1.6199,0.61547 4.4988,0.3103 6.1387,-0.65072 z m 43.1427,-0.26195 c 2.7696,-0.82979 5.0536,-3.81859 5.0676,-6.63149 0.032,-6.44692 -7.0447,-9.98142 -11.8131,-5.89987 -6.1086,5.22877 -0.9385,14.83354 6.7455,12.53136 z m -86.0446,23.57137 c 0,-0.704 0.069,-0.95432 0.1456,-0.55627 0.077,0.39805 0.074,0.97405 -0.01,1.28 -0.08,0.30595 -0.1427,-0.0197 -0.1391,-0.72373 z m -6.7207,-0.0606 c 0.308,-0.0805 0.812,-0.0805 1.12,0 0.308,0.0805 0.056,0.14635 -0.56,0.14635 -0.616,0 -0.868,-0.0659 -0.56,-0.14635 z m -7.3104,-3.37941 -0.6096,-0.72 0.72,0.6096 c 0.6766,0.57287 0.8657,0.8304 0.6096,0.8304 -0.061,0 -0.3847,-0.324 -0.72,-0.72 z m 157.9759,-18.34666 c 0.015,-0.37278 0.091,-0.4486 0.1934,-0.19333 0.092,0.231 0.081,0.507 -0.025,0.61333 -0.1064,0.10634 -0.182,-0.0827 -0.1681,-0.42 z m 0,-4.16 c 0.015,-0.37278 0.091,-0.4486 0.1934,-0.19333 0.092,0.231 0.081,0.507 -0.025,0.61333 -0.1064,0.10634 -0.182,-0.0827 -0.1681,-0.42 z m -154.88,-5.12 c 0.015,-0.37278 0.091,-0.4486 0.1934,-0.19333 0.092,0.231 0.081,0.507 -0.025,0.61333 -0.1064,0.10634 -0.182,-0.0827 -0.1681,-0.42 z m 141.9948,-7.71192 c 0.231,-0.0924 0.507,-0.0811 0.6133,0.0253 0.1064,0.10633 -0.083,0.18196 -0.42,0.16807 -0.3728,-0.0154 -0.4486,-0.0912 -0.1933,-0.19334 z m -7.3242,-3.54141 -0.7758,-0.88 0.88,0.77578 c 0.484,0.42668 0.88,0.82268 0.88,0.88 0,0.25097 -0.2592,0.0467 -0.9842,-0.77578 z m -124.4053,-12.88 c 0,-0.44 0.073,-0.62 0.1614,-0.4 0.089,0.22 0.089,0.58 0,0.8 -0.089,0.22 -0.1614,0.04 -0.1614,-0.4 z m 0,-4.8 c 0,-0.44 0.073,-0.62 0.1614,-0.4 0.089,0.22 0.089,0.58 0,0.8 -0.089,0.22 -0.1614,0.04 -0.1614,-0.4 z m 118.3747,-2.74667 c 0.015,-0.37278 0.091,-0.4486 0.1934,-0.19333 0.092,0.231 0.081,0.507 -0.025,0.61333 -0.1064,0.10634 -0.182,-0.0827 -0.1681,-0.42 z m -105.7852,-23.49333 c 0.3185,-0.352 0.6512,-0.64 0.7392,-0.64 0.088,0 -0.1007,0.288 -0.4192,0.64 -0.3186,0.352 -0.6512,0.64 -0.7392,0.64 -0.088,0 0.1006,-0.288 0.4192,-0.64 z m 5.76,-5.76 c 0.3185,-0.352 0.6512,-0.64 0.7392,-0.64 0.088,0 -0.1007,0.288 -0.4192,0.64 -0.3186,0.352 -0.6512,0.64 -0.7392,0.64 -0.088,0 0.1006,-0.288 0.4192,-0.64 z m 93.6,-0.8 c 0.4133,-0.44 0.8235,-0.8 0.9115,-0.8 0.088,0 -0.1782,0.36 -0.5915,0.8 -0.4134,0.44 -0.8236,0.8 -0.9116,0.8 -0.088,0 0.1782,-0.36 0.5916,-0.8 z m 1.9942,-4.64003 c 0,-0.616 0.066,-0.868 0.1464,-0.56 0.081,0.308 0.081,0.812 0,1.12 -0.081,0.308 -0.1464,0.056 -0.1464,-0.56 z m -21.3846,-2 -0.6096,-0.72 0.72,0.6096 c 0.6766,0.57287 0.8656,0.8304 0.6096,0.8304 -0.061,0 -0.3848,-0.324 -0.72,-0.72 z m -8.8104,-3.68 c -0.3981,-0.50754 -0.3868,-0.51886 0.1208,-0.12082 0.308,0.24155 0.56,0.49355 0.56,0.56 0,0.26337 -0.2628,0.0939 -0.6808,-0.43918 z m 22.3808,-0.6186 c 0.231,-0.0924 0.507,-0.0811 0.6133,0.0253 0.1064,0.10633 -0.083,0.18197 -0.42,0.16807 -0.3728,-0.0154 -0.4486,-0.0912 -0.1933,-0.19333 z m -62.72,-0.32 c 0.231,-0.0924 0.507,-0.0811 0.6133,0.0253 0.1064,0.10633 -0.083,0.18197 -0.42,0.16807 -0.3728,-0.0154 -0.4486,-0.0912 -0.1933,-0.19333 z m 11.84,0 c 0.231,-0.0924 0.507,-0.0811 0.6133,0.0253 0.1064,0.10633 -0.083,0.18197 -0.42,0.16807 -0.3728,-0.0154 -0.4486,-0.0912 -0.1933,-0.19333 z m -8.4956,-0.33103 c 0.4864,-0.0736 1.2064,-0.0716 1.6,0.004 0.3936,0.076 0,0.13614 -0.8844,0.13373 -0.88,-0.002 -1.202,-0.0645 -0.7156,-0.1381 z m 3.84,0 c 0.4864,-0.0736 1.2064,-0.0716 1.6,0.004 0.3936,0.076 0,0.13614 -0.8844,0.13373 -0.88,-0.002 -1.202,-0.0645 -0.7156,-0.1381 z m 13.7628,-2.33037 c 0,-0.792 0.062,-1.116 0.1386,-0.72 0.076,0.396 0.076,1.044 0,1.44 -0.076,0.396 -0.1386,0.072 -0.1386,-0.72 z m 15.872,0.08 c -0.3981,-0.50754 -0.3868,-0.51886 0.1208,-0.12082 0.308,0.24155 0.56,0.49355 0.56,0.56 0,0.26337 -0.2628,0.0939 -0.6808,-0.43918 z m -11.0792,-5.1092 c 0.484,-0.0733 1.276,-0.0733 1.76,0 0.484,0.0733 0.088,0.13331 -0.88,0.13331 -0.968,0 -1.364,-0.06 -0.88,-0.13331 z"
       id="path849-6" />
    <path
       style="fill:#d08e60;stroke-width:0.32"
       d="m -327.26529,-174.38723 c 0.396,-0.0763 1.044,-0.0763 1.44,0 0.396,0.0763 0.072,0.13867 -0.72,0.13867 -0.792,0 -1.116,-0.0624 -0.72,-0.13867 z m -2.2008,-3.53417 c -0.3981,-0.50754 -0.3868,-0.51886 0.1208,-0.12082 0.533,0.41804 0.7025,0.68082 0.4392,0.68082 -0.066,0 -0.3185,-0.252 -0.56,-0.56 z m 10.306,-2.18667 c 0.015,-0.37278 0.091,-0.4486 0.1934,-0.19333 0.092,0.231 0.081,0.507 -0.025,0.61333 -0.1064,0.10634 -0.182,-0.0827 -0.1681,-0.42 z m -34.6956,-2.31853 c -0.7025,-0.7762 -0.6683,-1.43012 0.1117,-2.13598 0.5299,-0.47954 0.78,-0.51714 1.44,-0.21645 1.4209,0.64742 0.8513,2.93763 -0.7307,2.93763 -0.1603,0 -0.5298,-0.26334 -0.821,-0.5852 z m 53.5616,-0.35376 c -0.45,-0.84092 -0.418,-1.16851 0.1716,-1.75818 0.7302,-0.73021 1.6477,-0.61692 2.2325,0.27568 0.3969,0.60562 0.4315,0.92546 0.1562,1.44 -0.4684,0.87525 -2.1001,0.90233 -2.5603,0.0425 z m -56.7312,-3.88013 c -0.8099,-0.4812 -0.7026,-1.79275 0.1949,-2.38079 0.9473,-0.6207 1.7497,-0.3321 2.015,0.72471 0.3714,1.48006 -0.9011,2.43369 -2.2099,1.65608 z m 6.3201,-0.41582 c -0.562,-0.85767 -0.3653,-1.67275 0.5175,-2.14524 1.3585,-0.72701 2.7437,1.1316 1.7016,2.28308 -0.7523,0.83131 -1.6194,0.77745 -2.2191,-0.13784 z m 47.5071,0.1689 c -1.4128,-1.14401 -0.01,-3.16182 1.6007,-2.30046 0.8664,0.46366 0.8875,2.09794 0.033,2.55521 -0.8015,0.42892 -0.7867,0.43123 -1.6338,-0.25475 z m 6.4128,-0.054 c -0.7704,-0.7704 -0.7829,-0.93355 -0.1419,-1.8488 0.605,-0.86364 1.4599,-0.91323 2.1723,-0.126 0.7258,0.80202 0.6638,1.52448 -0.1816,2.11666 -0.9153,0.64106 -1.0784,0.62854 -1.8488,-0.14186 z m 17.92,-72.10052 c 0,-0.0551 0.468,-0.52307 1.04,-1.04 l 1.04,-0.93987 -0.9399,1.04 c -0.8761,0.96943 -1.1401,1.18709 -1.1401,0.93987 z m -24.3608,-11.65987 c -0.3981,-0.50754 -0.3868,-0.51886 0.1208,-0.12082 0.308,0.24155 0.56,0.49355 0.56,0.56 0,0.26337 -0.2628,0.0939 -0.6808,-0.43918 z m -2.6943,-3.0397 -1.2649,-1.36 1.36,1.26494 c 0.748,0.69572 1.36,1.30772 1.36,1.36 0,0.24211 -0.2787,-1.5e-4 -1.4551,-1.26494 z m 25.2151,1.13942 c 0.308,-0.0805 0.812,-0.0805 1.12,0 0.308,0.0805 0.056,0.14634 -0.56,0.14634 -0.616,0 -0.868,-0.0659 -0.56,-0.14634 z m -42,-6.30028 c 0,-0.0665 0.252,-0.31845 0.56,-0.56 0.5075,-0.39804 0.5188,-0.38672 0.1208,0.12082 -0.418,0.53304 -0.6808,0.70255 -0.6808,0.43918 z"
       id="path843-3" />
    <path
       style="fill:#ed7b15;stroke-width:0.32"
       d="m -357.42529,-149.50062 c -1.5803,-0.38473 -2.9599,-1.23732 -3.7869,-2.34044 -1.1144,-1.48628 -2.0435,-3.4369 -2.3075,-4.84467 -0.2611,-1.39156 -0.014,-1.39138 -4.3056,-0.003 -2.393,0.77409 -3.2394,0.88274 -7.04,0.90367 -3.9427,0.0217 -4.4458,-0.0421 -5.76,-0.73013 -3.9941,-2.09115 -5.8799,-5.52364 -6.2895,-11.44822 l -0.2021,-2.92214 -1.7942,0.81779 c -1.422,0.64812 -2.3253,0.82284 -4.3542,0.84214 -3.3378,0.0318 -5.4319,-0.93731 -7.9854,-3.69527 -2.5382,-2.74159 -3.445,-4.6666 -3.6269,-7.69954 -0.1346,-2.24361 -0.061,-2.64437 0.8412,-4.57203 1.1405,-2.43719 3.742,-5.32384 6.4047,-7.10665 0.9935,-0.6652 1.8495,-1.23143 1.9022,-1.25828 0.053,-0.0268 -0.2602,-0.57339 -0.6952,-1.21451 -0.7923,-1.16741 -1.4806,-3.61192 -1.4806,-5.25788 0,-1.49753 0.95,-4.63369 1.7899,-5.90859 1.1192,-1.69891 3.1441,-2.87816 6.4343,-3.74713 3.5781,-0.94499 5.8102,-1.92576 6.7782,-2.97833 l 0.7625,-0.82901 -1.5103,-1.67978 c -5.5835,-6.21013 -5.3737,-15.83581 0.6057,-27.78864 2.8586,-5.71445 5.3069,-9.19553 9.7589,-13.87587 8.296,-8.7216 17.9935,-14.10522 28.3408,-15.73357 2.7232,-0.42855 4.5703,-0.51036 8.16,-0.3614 5.0166,0.20816 7.851,0.67659 12.2829,2.02992 2.5763,0.78673 2.8839,0.9662 3.28,1.91424 0.8878,2.1249 0.4295,3.53131 -2.1204,6.50668 -1.8333,2.13924 -2.2425,2.88309 -2.2425,4.07631 0,0.95262 1.3623,3.35662 2.4433,4.31148 3.1001,2.73852 10.7978,1.68193 16.5427,-2.27066 l 1.3991,-0.96262 0.7112,0.96187 c 1.0165,1.37495 2.5358,2.20104 4.0505,2.20242 1.2256,0.001 1.3833,0.11221 2.5369,1.78717 1.7064,2.47774 5.2824,5.64979 7.9485,7.05079 4.0575,2.13217 7.8636,1.77745 9.2695,-0.8639 0.4964,-0.93255 0.5622,-1.66952 0.4487,-5.02406 -0.073,-2.16216 -0.036,-3.99134 0.083,-4.06484 0.3344,-0.20667 2.4224,2.4334 4.2354,5.35508 4.4155,7.11597 7.1647,18.01404 6.3418,25.13934 -0.2734,2.36782 -0.2355,2.84001 0.3473,4.32 2.1827,5.54339 5.8244,10.33655 9.0168,11.86783 0.9158,0.43926 3.0111,1.02497 4.6562,1.30157 3.5665,0.59964 5.8461,1.61252 8.012,3.55978 3.1551,2.83678 4.3992,6.67445 4.0887,12.61244 -0.5316,10.16222 -4.4257,15.86814 -11.0931,16.2541 l -2.4258,0.14043 0.3695,2.17492 c 0.9582,5.64104 -1.7065,11.1369 -7.2418,14.93621 -4.3331,2.97415 -9.1024,2.47605 -13.4146,-1.40102 -0.897,-0.8065 -1.6703,-1.41198 -1.7183,-1.3455 -0.048,0.0665 -0.6057,0.84277 -1.2392,1.7251 -1.8172,2.53101 -4.8158,5.19288 -7.0297,6.24018 -2.942,1.39182 -5.3835,1.3454 -8.5292,-0.16217 -2.8142,-1.34864 -5.5592,-3.4115 -7.5599,-5.68105 -1.5504,-1.75881 -3.8392,-6.08449 -4.1297,-7.80506 -0.1675,-0.99183 -0.1331,-1.02149 2.874,-2.47531 4.6143,-2.2308 8.5175,-5.04664 12.4588,-8.98799 8.3801,-8.38018 12.9285,-18.77768 13.5011,-30.86351 l 0.1881,-3.97066 -0.771,0.22106 c -2.2722,0.65148 -6.8145,0.91645 -9.8116,0.57235 -6.7804,-0.77851 -11.3594,-2.66121 -16.2442,-6.67907 -3.6566,-3.00774 -7.9257,-9.02939 -9.4863,-13.38071 -0.4088,-1.13977 -0.8241,-2.0723 -0.9231,-2.0723 -0.099,0 -0.4944,0.972 -0.8788,2.16 -1.3297,4.10939 -5.6937,9.76173 -10.086,13.06344 -3.9941,3.00246 -9.6442,5.11885 -13.0148,4.87505 -2.3245,-0.16814 -3.3903,-0.85073 -4.4302,-2.83722 -0.6418,-1.2261 -0.7182,-1.71922 -0.5568,-3.59102 0.1029,-1.19336 0.612,-3.49104 1.1313,-5.10596 0.5193,-1.61491 0.8995,-2.98097 0.8448,-3.03567 -0.055,-0.0547 -1.2276,1.43803 -2.6064,3.31718 -4.7654,6.49455 -11.0081,11.87674 -16.1746,13.94504 -2.3962,0.95928 -6.3813,1.84916 -8.2808,1.84916 h -1.2935 v 1.55855 c 0,2.43923 1.166,8.54614 2.2692,11.88481 2.3122,6.99747 5.8154,12.60296 11.31,18.09728 5.3992,5.39902 10.5248,8.68501 17.1802,11.01438 1.4688,0.51405 2.7169,1.07407 2.7737,1.24448 0.1547,0.46387 -1.4268,3.46268 -2.9865,5.66304 -2.2651,3.19548 -6.5461,6.82678 -10.2965,8.73378 -1.1333,0.57621 -4.9995,1.69914 -5.5301,1.60619 -0.088,-0.0154 -0.592,-0.13319 -1.12,-0.26173 z m 30.6461,-27.12254 c 0.3113,-0.0811 0.7433,-0.0758 0.96,0.0119 0.2166,0.0877 -0.038,0.15403 -0.5661,0.14751 -0.528,-0.007 -0.7053,-0.0782 -0.3939,-0.15937 z"
       id="path839-6" />
    <path
       style="fill:#03a1cd;stroke-width:0.32"
       d="m -350.30239,-191.57672 c -1.6631,-0.59358 -2.6306,-1.27678 -3.5374,-2.49808 -3.1809,-4.28387 -0.9351,-10.30373 4.2595,-11.41778 4.6174,-0.99025 8.635,2.34743 8.635,7.17366 0,4.86649 -4.8404,8.35421 -9.3571,6.7422 z m 44.3679,-1.00069 c -4.6819,-1.72887 -6.1856,-8.15751 -2.7539,-11.77328 3.4906,-3.67778 9.6501,-2.73091 11.7635,1.80838 2.2185,4.76488 -0.8068,9.91686 -6.0612,10.32198 -0.979,0.0755 -2.1666,-0.0684 -2.9484,-0.35708 z"
       id="path837-2" />
    <path
       style="fill:#975122;stroke-width:0.32"
       d="m -328.95619,-174.92941 c -2.4543,-1.06923 -4.9891,-5.29619 -3.6663,-6.11376 0.5828,-0.36016 1.5297,0.16933 1.73,0.96737 0.2953,1.1768 1.999,2.94906 3.2232,3.3531 2.3231,0.76668 4.8378,-0.41958 6.0781,-2.86716 0.8292,-1.63622 0.999,-1.76294 1.8997,-1.4173 1.8332,0.70345 -1.4218,5.41142 -4.2938,6.21055 -1.5522,0.43189 -3.8134,0.37148 -4.9709,-0.1328 z m 41.4044,-69.30285 c -3.1933,-0.9652 -7.9742,-4.74602 -10.4319,-8.24971 l -1.355,-1.93171 0.7908,-0.19848 c 1.228,-0.3082 3.0001,-2.04739 3.9131,-3.84043 1.0297,-2.0221 1.3543,-5.53742 0.6664,-7.21646 l -0.4537,-1.10765 2.0633,-1.41278 c 6.8871,-4.71574 15.2675,-5.65408 17.453,-1.95421 0.3221,0.54521 0.6629,1.84335 0.7573,2.88474 0.2455,2.70706 -0.4702,4.38063 -2.6807,6.26915 -0.9643,0.82387 -2.1347,2.14864 -2.6008,2.94395 -0.8227,1.40398 -0.8453,1.58144 -0.7763,6.10523 0.081,5.32723 -0.236,6.41158 -2.174,7.43208 -1.1643,0.61308 -3.6227,0.74442 -5.1715,0.27628 z m -34.0335,-8.93395 c -2.0188,-0.93173 -3.9965,-3.53136 -3.9988,-5.25623 0,-1.17483 0.4129,-1.92544 2.2413,-4.05896 1.7647,-2.05913 2.5575,-3.49052 2.5575,-4.61752 0,-0.44511 -0.5916,-2.27652 -1.3146,-4.0698 -1.1386,-2.82411 -1.2966,-3.50866 -1.1804,-5.1146 0.2118,-2.92826 1.7608,-4.11808 5.3613,-4.11808 3.8312,0 7.2046,1.97503 12.2566,7.17573 1.8936,1.94935 3.6216,3.74746 3.84,3.9958 0.326,0.37073 0.1335,0.71966 -1.0758,1.95008 -3.1038,3.15782 -3.4687,8.35245 -0.8106,11.53727 0.3759,0.45038 0.177,0.28957 -0.4422,-0.35738 l -1.1256,-1.17625 -1.1144,0.7895 c -1.7039,1.20723 -5.3768,2.88914 -7.5015,3.43514 -2.6397,0.67832 -6.0859,0.62693 -7.6928,-0.1147 z m 26.0558,-14.99519 -0.7758,-0.88 0.88,0.77578 c 0.484,0.42668 0.88,0.82268 0.88,0.88 0,0.25097 -0.2592,0.0467 -0.9842,-0.77578 z"
       id="path833-1" />
    <path
       style="fill:#692308;stroke-width:0.32"
       d="m -301.90519,-254.5212 c -2.1758,-0.86764 -3.5201,-3.20888 -3.5201,-6.13075 0,-2.64908 0.7076,-4.65296 2.2699,-6.42778 4.1852,-4.75458 9.9791,-1.80469 9.5005,4.83698 -0.378,5.24496 -4.5856,9.18286 -8.2503,7.72155 z"
       id="path831-2" />
  </g>
</svg>
