<?xml version="1.0" encoding="UTF-8" standalone="no"?>
<!-- Created with Inkscape (http://www.inkscape.org/) -->

<svg
   version="1.1"
   id="svg2"
   width="161.86583"
   height="131.45229"
   viewBox="0 0 161.86583 131.45229"
   sodipodi:docname="1.svg"
   inkscape:version="1.1 (c4e8f9ed74, 2021-05-24)"
   xmlns:inkscape="http://www.inkscape.org/namespaces/inkscape"
   xmlns:sodipodi="http://sodipodi.sourceforge.net/DTD/sodipodi-0.dtd"
   xmlns="http://www.w3.org/2000/svg"
   xmlns:svg="http://www.w3.org/2000/svg">
  <sodipodi:namedview
     id="namedview64"
     pagecolor="#ffffff"
     bordercolor="#666666"
     borderopacity="1.0"
     inkscape:pageshadow="2"
     inkscape:pageopacity="0.0"
     inkscape:pagecheckerboard="0"
     showgrid="false"
     inkscape:zoom="3.0708334"
     inkscape:cx="49.497964"
     inkscape:cy="37.937585"
     inkscape:window-width="1920"
     inkscape:window-height="1080"
     inkscape:window-x="1920"
     inkscape:window-y="0"
     inkscape:window-maximized="1"
     inkscape:current-layer="svg2"
     fit-margin-top="0"
     fit-margin-left="0"
     fit-margin-right="0"
     fit-margin-bottom="0" />
  <defs
     id="defs6">
    <clipPath
       clipPathUnits="userSpaceOnUse"
       id="clipPath2748">
      <rect
         style="fill:none;stroke:#fd0000;stroke-width:6.29354;stroke-linecap:round;stroke-opacity:1"
         id="rect2750"
         width="181.78069"
         height="160.40302"
         x="319.67203"
         y="-1.6533943" />
    </clipPath>
    <clipPath
       clipPathUnits="userSpaceOnUse"
       id="clipPath2829">
      <rect
         style="fill:none;stroke:#fd0000;stroke-width:5.85576;stroke-linecap:round;stroke-opacity:1"
         id="rect2831"
         width="172.34521"
         height="169.41031"
         x="166.89822"
         y="149.70647" />
    </clipPath>
    <clipPath
       clipPathUnits="userSpaceOnUse"
       id="clipPath4462">
      <rect
         style="fill:none;fill-opacity:1;stroke:#fd0000;stroke-width:6;stroke-linecap:round;stroke-opacity:1"
         id="rect4464"
         width="154.82426"
         height="154.94003"
         x="163.68083"
         y="328.92615" />
    </clipPath>
    <clipPath
       clipPathUnits="userSpaceOnUse"
       id="clipPath5140">
      <rect
         style="fill:none;stroke:#fd0000;stroke-width:6;stroke-linecap:round;stroke-opacity:1"
         id="rect5142"
         width="143.4304"
         height="153.41002"
         x="492.91498"
         y="328.1218" />
    </clipPath>
    <clipPath
       clipPathUnits="userSpaceOnUse"
       id="clipPath6275">
      <rect
         style="fill:none;fill-opacity:1;stroke:#fd0000;stroke-width:6;stroke-linecap:round;stroke-opacity:1"
         id="rect6277"
         width="135.50941"
         height="155.53391"
         x="337.29059"
         y="492.97705" />
    </clipPath>
  </defs>
  <path
     id="path849-6"
     style="fill:#fad4ad;stroke-width:0.32"
     d="m 89.367188,47.408203 c -0.746645,0.49923 -0.851505,1.547484 -1.191449,2.321912 -1.522347,3.955332 -4.245333,7.293914 -7.266035,10.212985 -3.440417,3.294785 -7.781375,5.601005 -12.356718,6.870549 -1.929865,0.507474 -4.144512,0.785665 -5.853767,-0.42693 -1.299245,-0.805713 -2.231,-2.138511 -2.258367,-3.704761 -0.260936,-3.099694 0.574015,-6.091589 1.539864,-9.009578 0.119015,-0.256338 0.291593,-1.370258 -0.09284,-0.852611 -1.104501,1.331318 -1.954575,2.857294 -3.087408,4.175782 -3.492866,4.431734 -7.524642,8.564703 -12.493919,11.332189 -3.492724,1.986847 -7.435341,3.309217 -11.49482,3.115448 -0.714656,-0.135936 -1.092931,0.04415 -0.847432,0.812063 0.121854,3.338538 0.449264,6.681897 1.343233,9.910707 2.441035,9.251581 7.699615,17.783535 15.089057,23.897852 7.694931,6.44108 17.538209,10.24925 27.557263,10.73213 5.853514,0.14769 11.738175,-0.67112 17.305587,-2.49087 0.658649,-0.18858 1.348234,-0.38387 2.014005,-0.36366 1.241493,-1.0215 2.854258,-1.52971 4.256678,-2.32128 6.18103,-3.27322 11.4865,-8.06416 15.74141,-13.586892 4.98575,-6.489047 8.02486,-14.413206 8.73128,-22.561469 0.2034,-2.329269 0.24802,-4.668727 0.37024,-7.003019 -2.52517,0.657644 -5.15977,0.484203 -7.74375,0.540352 -2.87701,-0.01184 -5.82814,0.04718 -8.56908,-0.966541 -5.99761,-1.802964 -11.344954,-5.589615 -15.091213,-10.602153 -2.041926,-2.695594 -3.631173,-5.678691 -4.983773,-8.766763 -0.300845,-0.354153 0.007,-1.292305 -0.618042,-1.265442 z m 11.972652,26.751953 c 3.16299,-0.130098 6.14518,2.194318 6.94336,5.230469 0.54749,1.807759 0.3353,3.961216 -0.77079,5.575863 -1.26757,2.105753 -3.66228,3.468743 -6.09912,3.415614 -3.260405,0.07553 -6.208636,-2.51897 -6.792022,-5.682956 -0.657132,-2.858698 0.838371,-5.909629 3.251788,-7.427025 1.025556,-0.678102 2.236204,-1.075055 3.466784,-1.111965 z m -44.794918,0.984375 c 2.918625,-0.118494 5.810042,1.724885 6.802381,4.494999 1.193484,2.912208 0.256511,6.60217 -2.401991,8.378048 -1.756841,1.174554 -4.077717,1.50626 -6.152343,1.039063 -2.399911,-0.915266 -4.54887,-2.965493 -4.943662,-5.592259 -0.66845,-4.020737 2.539649,-8.2437 6.695615,-8.319851 z m 46.201168,16.222657 c 0.64831,0.179563 1.20713,0.840796 1.25586,1.501953 -0.24824,0.904967 -1.37884,1.686466 -2.22094,0.998427 -0.95968,-0.740231 -0.38998,-2.784041 0.96508,-2.50038 z m 6.58008,0.01562 c 1.26486,0.163229 1.53418,2.117436 0.35533,2.602575 -0.86549,0.552295 -1.86743,-0.462478 -1.97642,-1.305699 0.0718,-0.72527 0.89115,-1.41418 1.62109,-1.296876 z m -53.818358,0.02148 c 0.832808,0.224682 1.530477,1.219651 0.986329,2.035156 -0.483718,1.010816 -2.068998,0.835912 -2.431641,-0.189453 -0.403766,-0.865278 0.596086,-1.904665 1.445312,-1.845703 z m -6.453124,0.08203 c 1.152315,0.186895 1.432154,1.892363 0.41597,2.448744 -0.716408,0.502079 -1.931285,0.109298 -1.920802,-0.862624 -0.132676,-0.901054 0.511933,-1.801505 1.504832,-1.58612 z m 57.031252,4.38086 c 0.79595,0.119959 1.46742,1.173989 1.04492,1.890624 -0.40502,0.327366 -0.83616,0.881414 -1.38281,0.845704 -0.79591,-0.374976 -1.67149,-1.424199 -0.9818,-2.276775 0.30129,-0.39389 0.84392,-0.542097 1.31969,-0.459553 z m -53.96094,0 c 0.899671,0.06689 1.845234,1.278258 1.121094,2.070312 -0.481834,0.645724 -1.555908,1.034751 -2.108065,0.244722 -0.740146,-0.840903 -0.158035,-2.311638 0.986971,-2.315034 z m 32.802734,3.613281 c 0.927823,0.104231 0.877233,1.255661 0.579177,1.900551 -0.884083,2.6012 -3.303669,4.58114 -6.048731,4.79903 -1.38794,0.33194 -2.74997,0.006 -3.915211,-0.7738 -1.586077,-1.07426 -3.120063,-2.52566 -3.645427,-4.42445 -0.356968,-0.87179 0.737443,-1.881186 1.528239,-1.319691 0.776331,0.783441 1.000484,1.950801 1.768591,2.756071 0.661575,0.93106 1.694289,1.66842 2.886744,1.57496 1.568815,0.10582 3.375956,-0.13806 4.372009,-1.50095 0.824164,-0.91149 1.033968,-2.36186 2.156,-2.982734 0.100798,-0.03808 0.212592,-0.04348 0.318609,-0.02899 z"
     sodipodi:nodetypes="sccccccccccccccccccccccccssccccccccccccccccccccccccccccccccccccccscccccccccss" />
  <path
     id="path843-3"
     style="fill:#d08e60;stroke-width:0.32"
     d="m 108.88281,91.011719 c -0.80042,0.190081 -1.3375,0.996685 -1.53711,1.746093 0.0617,0.751916 0.7974,1.258864 1.35434,1.677053 0.72776,0.304379 1.43259,-0.396104 1.9061,-0.871359 0.74073,-0.96024 -0.23366,-2.299651 -1.24481,-2.545928 -0.15773,-0.02904 -0.32031,-0.03371 -0.47852,-0.0059 z m -6.44922,0.0625 c -1.25503,0.03168 -1.98043,1.726084 -1.07226,2.625 0.4738,0.45398 1.14684,1.141968 1.83203,0.65039 1.47112,-0.507681 1.27407,-3.054202 -0.31016,-3.240092 -0.14482,-0.04301 -0.30112,-0.03199 -0.44961,-0.0353 z m -47.224606,0.03711 c -1.046403,0.100049 -1.876767,1.296387 -1.335937,2.275391 0.316088,0.876271 1.423881,1.5224 2.255859,0.896484 0.977939,-0.530232 1.180363,-1.971727 0.335938,-2.716797 C 56.136283,91.24252 55.6717,91.056265 55.208984,91.111329 Z M 48.931641,91.125 c -1.295183,0.05851 -2.332719,1.724688 -1.445313,2.804688 0.767036,0.894959 2.499497,0.720863 2.814453,-0.509766 0.276303,-0.922511 -0.205615,-2.38853 -1.36914,-2.294922 z m 56.884769,4.34375 c -1.02497,0.04026 -2.11008,1.225237 -1.50391,2.234375 0.47102,1.499945 3.03655,1.313695 3.24589,-0.260588 0.0651,-0.907416 -0.78966,-1.987867 -1.74198,-1.973787 z m -53.804691,0.04883 c -0.803573,0.06689 -1.520585,0.836245 -1.636719,1.623047 0.008,0.856542 0.732426,1.644366 1.511719,1.904297 1.541754,0.07963 2.389182,-2.172223 1.161068,-3.109162 -0.2959,-0.221916 -0.665955,-0.38318 -1.036068,-0.418182 z"
     sodipodi:nodetypes="cccccccscccsscccccccccccccccccc" />
  <path
     id="path839-6"
     style="fill:#ed7b15;stroke-width:0.32"
     d="M 64.703125,7.4902344 C 57.643805,7.6829903 50.722603,9.890759 44.597358,13.345739 37.532263,17.353326 31.496561,23.030115 26.587891,29.46875 23.5401,33.675808 21.1426,38.336676 19.282728,43.180096 c -1.856366,5.05367 -3.012326,10.660118 -1.632005,15.980146 0.704459,2.878317 2.35481,5.430693 4.416032,7.527443 0.731157,0.426016 0.165372,0.855212 -0.256606,1.269744 -1.642955,1.467353 -3.864221,2.022249 -5.921425,2.65642 -2.670101,0.708343 -5.625177,1.612689 -7.2441928,4.030682 -1.0073303,1.769173 -1.6084412,3.784203 -1.8118599,5.806978 0.00924,2.271177 0.7138295,4.550458 2.0306099,6.40396 0.140101,0.498313 -0.9053926,0.694669 -1.2330965,1.073837 -2.8849943,1.892765 -5.4237767,4.456462 -6.95885729,7.56985 -0.67730416,1.259263 -1.01086377,2.684398 -0.84150986,4.11295 0.0156353,2.435634 0.81898241,4.854854 2.37803855,6.739814 1.8520097,2.32412 4.1491902,4.68115 7.2268894,5.14394 2.3205075,0.31268 4.8181775,0.28579 6.9398435,-0.82136 0.46767,-0.0863 1.443004,-1.02542 1.29298,-0.0741 0.205524,3.63282 0.490833,7.53545 2.735378,10.56345 1.302472,1.72596 3.144389,3.10478 5.218147,3.7405 2.286605,0.34971 4.61772,0.16213 6.922107,0.14866 2.756499,0.0202 5.27274,-1.20361 7.889231,-1.85567 0.508836,-0.23181 0.756523,0.24906 0.752547,0.68763 0.429298,2.05169 1.443039,3.98397 2.798566,5.57373 1.253425,1.3081 3.046858,1.94499 4.801611,2.19174 1.934857,-0.3442 3.852663,-0.90523 5.639483,-1.72866 3.789174,-2.04835 7.193775,-4.86288 9.858506,-8.25234 1.306087,-1.84103 2.577811,-3.76647 3.332089,-5.90572 0.197348,-0.71573 -0.775627,-0.84895 -1.233696,-1.11209 -2.732665,-1.05544 -5.538083,-2.02546 -8.086399,-3.45882 -5.718727,-3.0926 -10.58278,-7.59129 -14.665418,-12.612675 -4.493445,-5.596327 -7.444296,-12.357295 -8.722616,-19.389198 -0.4625,-2.420909 -0.898217,-4.871728 -0.803589,-7.347137 3.058735,0.0826 6.073727,-0.701001 8.947687,-1.678712 4.282738,-1.625699 7.921233,-4.576026 11.175268,-7.736674 2.770553,-2.659195 5.070889,-5.741621 7.360525,-8.808807 0.545251,-0.819157 0.125169,0.240104 0.01901,0.658105 -0.826574,2.702947 -1.725934,5.491943 -1.554616,8.352673 0.262156,1.382271 1.012399,2.704562 2.061653,3.643689 1.569066,1.21267 3.731041,1.15703 5.596676,0.872368 4.216392,-0.779247 8.187437,-2.742592 11.52661,-5.412017 3.56638,-3.004798 6.644731,-6.675006 8.683594,-10.886719 0.538133,-1.122435 0.82144,-2.343064 1.335937,-3.474609 0.802529,1.8347 1.425744,3.756901 2.468725,5.480085 2.598748,4.508949 5.919278,8.736651 10.301395,11.632851 4.44842,3.144896 9.87389,4.607997 15.25788,4.958482 3.008,0.08976 6.08322,0.01309 8.98958,-0.833137 -0.15591,4.423787 -0.42092,8.876392 -1.52951,13.180479 -1.95853,8.18377 -6.41065,15.745405 -12.44649,21.595523 -3.76804,3.7679 -8.19376,6.86818 -13.04158,9.08337 -0.697756,0.44152 -1.788516,0.65672 -2.035156,1.55274 0.05776,1.69144 0.99963,3.20181 1.710725,4.6909 1.133641,2.17798 2.556541,4.22842 4.463841,5.80046 2.38326,2.054 5.09633,3.8589 8.15265,4.71189 3.12592,0.85941 6.40279,-0.44745 8.81938,-2.42635 2.23816,-1.72223 4.083,-3.89226 5.65418,-6.22807 1.6366,1.2725 3.11538,2.80298 5.05259,3.6348 2.80263,1.38597 6.24813,1.27884 8.96473,-0.26501 4.27253,-2.44298 7.80984,-6.63149 8.53932,-11.60417 0.342,-2.06975 -9.3e-4,-4.15727 -0.38671,-6.19336 2.28296,-0.0889 4.67803,-0.19041 6.69779,-1.39011 3.36159,-1.8821 5.13855,-5.608651 5.97851,-9.223063 0.79741,-3.621926 1.1079,-7.395983 0.61325,-11.083011 -0.41793,-3.156684 -1.99785,-6.167955 -4.53087,-8.132864 -2.31463,-1.974697 -5.32487,-2.799993 -8.27057,-3.25809 -2.11105,-0.444248 -4.35792,-1.020717 -5.97255,-2.576575 -3.24919,-2.906497 -5.45449,-6.811469 -7.0097,-10.842145 -0.70771,-1.923804 0.0744,-3.955136 -0.003,-5.932028 0.0361,-5.897144 -1.39714,-11.729918 -3.56454,-17.183764 -1.59084,-3.905062 -3.75583,-7.604345 -6.53636,-10.783705 -0.22269,-0.293031 -0.90379,-0.882682 -1.0542,-0.248941 -0.27336,2.647759 0.22154,5.324452 -0.1243,7.964568 -0.37505,1.971927 -2.41914,3.149491 -4.32433,3.088973 -3.11125,-0.0029 -5.90331,-1.645095 -8.22715,-3.534009 -2.0738,-1.660425 -3.92112,-3.605154 -5.39453,-5.81836 -0.44418,-0.70507 -1.28006,-0.948239 -2.07259,-0.870834 -1.87493,-0.041 -3.38026,-1.335454 -4.33229,-2.846482 -0.323346,-0.797956 -0.949191,0.220432 -1.435693,0.400823 -3.562161,2.502775 -7.871677,4.134034 -12.27466,4.03329 -2.024119,-0.0605 -4.245955,-0.728403 -5.364048,-2.549062 -0.641736,-0.999567 -1.401374,-2.038718 -1.436462,-3.283498 0.120934,-1.691566 1.547613,-2.860037 2.510226,-4.124974 1.196107,-1.46455 2.627262,-3.234219 2.170331,-5.261042 C 84.023162,11.684342 83.562581,10.56081 82.471272,10.262533 78.198216,8.7039334 73.694396,7.7631391 69.14246,7.6054456 67.664253,7.5242215 66.183698,7.4761447 64.703125,7.4902344 Z"
     sodipodi:nodetypes="cccccccccccccccccccccccccccccccccccccccccccccccccccccccccccccccccccccccccccccccccccccc" />
  <path
     id="path837-2"
     style="fill:#03a1cd;stroke-width:0.32"
     d="m 100.92969,73.894531 c -3.289325,0.197932 -6.285171,2.85453 -6.676974,6.160845 -0.566379,3.545491 1.632957,7.477096 5.196842,8.396776 3.268512,0.853565 7.085102,-0.619699 8.647122,-3.680418 1.93391,-3.494149 0.39559,-8.405787 -3.22913,-10.115129 -1.21078,-0.607215 -2.58856,-0.864412 -3.93786,-0.762074 z m -44.302737,0.931641 c -3.081351,0.07956 -5.995707,2.22458 -6.865309,5.20156 -1.177714,3.52527 0.765551,7.804687 4.294533,9.076649 2.76546,1.269687 6.237143,0.453608 8.228799,-1.821555 2.829854,-2.984537 2.414734,-8.265809 -0.763492,-10.839467 -1.352923,-1.137082 -3.134913,-1.700263 -4.894531,-1.617187 z" />
  <path
     id="path833-1"
     style="fill:#975122;stroke-width:0.32"
     d="m 86.355469,0.09960937 c -1.724438,0.03352054 -3.750757,0.59492558 -4.46875,2.34179683 -0.747618,1.8782187 -0.550624,4.0200995 0.249029,5.8493051 0.641749,1.7516587 1.463606,3.4658187 1.807611,5.3088977 -0.1496,1.804746 -1.504518,3.19952 -2.574123,4.555054 -1.063426,1.296817 -2.506966,2.741026 -2.1787,4.576393 0.46253,2.05152 1.987639,3.77331 3.773441,4.818491 1.912685,0.931665 4.141381,0.824085 6.207168,0.630991 3.029199,-0.372912 5.835542,-1.736368 8.482742,-3.187363 0.693746,-0.385037 1.325875,-0.865685 1.975019,-1.319347 0.719194,0.676737 1.288724,1.540127 2.177734,2.011719 -0.28116,-0.97603 -1.15673,-1.594958 -1.47136,-2.546853 -1.50617,-3.386507 -0.463875,-7.560695 2.25261,-10.019553 0.39858,-0.464588 1.21741,-1.164496 0.66406,-1.802735 C 99.941044,7.9490502 96.853446,4.2285439 92.777344,1.7460938 90.841854,0.59113448 88.618088,-0.04368056 86.355469,0.09960937 Z M 124.24023,8.078125 c -4.8283,0.2163355 -9.33754,2.406371 -13.18593,5.214297 -0.66819,0.292979 -0.95389,0.700547 -0.4669,1.339799 0.87492,1.985515 0.56165,4.26233 0.0181,6.275982 -0.63637,1.989756 -2.02453,3.79313 -3.83399,4.806641 -0.47684,0.222958 -1.00694,0.289374 -1.50976,0.433594 1.50796,2.266107 3.15689,4.462268 5.24265,6.232871 2.14117,1.827246 4.47553,3.614013 7.23015,4.368078 1.74413,0.306807 3.69531,0.313768 5.26939,-0.597043 1.398,-0.717569 1.80922,-2.366704 1.86371,-3.814824 0.21573,-2.715183 -0.16619,-5.455677 0.17138,-8.159808 0.59538,-2.046251 2.29815,-3.505987 3.81446,-4.89685 1.45512,-1.298702 2.31295,-3.230958 2.16648,-5.190146 -0.11126,-1.657114 -0.33304,-3.577691 -1.72372,-4.6874644 -1.40201,-1.1326821 -3.31181,-1.3662832 -5.05599,-1.3251266 z M 84.673828,99.324219 c -0.910441,0.02476 -1.148989,1.142191 -1.562401,1.767011 -1.014802,2.11111 -3.611955,3.51573 -5.892024,2.64179 -1.326856,-0.63642 -2.481848,-1.79231 -2.990887,-3.18419 -0.195648,-0.947852 -1.612006,-1.716239 -2.298828,-0.814455 -0.511783,1.022755 0.185853,2.169315 0.680925,3.062695 1.098552,1.75166 2.78336,3.44972 4.978457,3.53077 1.945315,0.18115 4.07474,-0.0833 5.572382,-1.45495 1.269902,-1.11429 2.546065,-2.50709 2.805345,-4.23812 0.106638,-0.796912 -0.573122,-1.261976 -1.292969,-1.310551 z"
     sodipodi:nodetypes="ccccccccccccccccscccccccccccccsscccccccccc" />
  <path
     id="path831-2"
     style="fill:#692308;stroke-width:0.32"
     d="m 105.92383,11.083984 c -2.70107,0.250301 -4.80278,2.464715 -5.85816,4.83165 -0.914793,2.290118 -1.07096,4.968526 -0.164151,7.285309 0.825421,2.205158 3.208731,3.8962 5.604341,3.384995 2.88413,-0.623773 4.85162,-3.310478 5.60195,-6.028692 0.75232,-2.739866 0.54412,-6.088954 -1.59936,-8.169625 -0.94402,-0.914301 -2.27114,-1.406747 -3.58462,-1.303637 z" />
</svg>
