<?xml version="1.0" encoding="UTF-8" standalone="no"?>
<!-- Created with Inkscape (http://www.inkscape.org/) -->

<svg
   version="1.1"
   id="svg2"
   width="150.0376"
   height="142.26842"
   viewBox="0 0 150.0376 142.26842"
   sodipodi:docname="2.svg"
   inkscape:version="1.1 (c4e8f9ed74, 2021-05-24)"
   xmlns:inkscape="http://www.inkscape.org/namespaces/inkscape"
   xmlns:sodipodi="http://sodipodi.sourceforge.net/DTD/sodipodi-0.dtd"
   xmlns="http://www.w3.org/2000/svg"
   xmlns:svg="http://www.w3.org/2000/svg">
  <sodipodi:namedview
     id="namedview64"
     pagecolor="#ffffff"
     bordercolor="#666666"
     borderopacity="1.0"
     inkscape:pageshadow="2"
     inkscape:pageopacity="0.0"
     inkscape:pagecheckerboard="0"
     showgrid="false"
     inkscape:zoom="0.54285177"
     inkscape:cx="156.5805"
     inkscape:cy="562.76872"
     inkscape:window-width="1920"
     inkscape:window-height="1080"
     inkscape:window-x="1920"
     inkscape:window-y="0"
     inkscape:window-maximized="1"
     inkscape:current-layer="svg2"
     fit-margin-top="0"
     fit-margin-left="0"
     fit-margin-right="0"
     fit-margin-bottom="0" />
  <defs
     id="defs6">
    <clipPath
       clipPathUnits="userSpaceOnUse"
       id="clipPath2748">
      <rect
         style="fill:none;stroke:#fd0000;stroke-width:6.29354;stroke-linecap:round;stroke-opacity:1"
         id="rect2750"
         width="181.78069"
         height="160.40302"
         x="319.67203"
         y="-1.6533943" />
    </clipPath>
    <clipPath
       clipPathUnits="userSpaceOnUse"
       id="clipPath2829">
      <rect
         style="fill:none;stroke:#fd0000;stroke-width:5.85576;stroke-linecap:round;stroke-opacity:1"
         id="rect2831"
         width="172.34521"
         height="169.41031"
         x="166.89822"
         y="149.70647" />
    </clipPath>
    <clipPath
       clipPathUnits="userSpaceOnUse"
       id="clipPath4462">
      <rect
         style="fill:none;fill-opacity:1;stroke:#fd0000;stroke-width:6;stroke-linecap:round;stroke-opacity:1"
         id="rect4464"
         width="154.82426"
         height="154.94003"
         x="163.68083"
         y="328.92615" />
    </clipPath>
    <clipPath
       clipPathUnits="userSpaceOnUse"
       id="clipPath5140">
      <rect
         style="fill:none;stroke:#fd0000;stroke-width:6;stroke-linecap:round;stroke-opacity:1"
         id="rect5142"
         width="143.4304"
         height="153.41002"
         x="492.91498"
         y="328.1218" />
    </clipPath>
    <clipPath
       clipPathUnits="userSpaceOnUse"
       id="clipPath6275">
      <rect
         style="fill:none;fill-opacity:1;stroke:#fd0000;stroke-width:6;stroke-linecap:round;stroke-opacity:1"
         id="rect6277"
         width="135.50941"
         height="155.53391"
         x="337.29059"
         y="492.97705" />
    </clipPath>
  </defs>
  <g
     id="g866"
     transform="translate(137.99931,319.48414)">
    <path
       style="fill:#fad4ad;stroke-width:0.32"
       d="m -80.534206,-177.45042 c -14.2183,-2.24069 -26.135704,-10.1839 -33.378804,-22.24771 -3.0248,-5.03804 -5.4971,-12.09307 -6.0782,-17.34487 -0.1919,-1.73421 -0.3115,-2.00595 -0.8999,-2.04478 -0.3733,-0.0246 0.6893,-0.16169 2.3613,-0.30459 7.5166,-0.64242 14.871,-3.78621 22.314404,-9.53884 3.5958,-2.77904 7.9061,-6.86165 10.6434,-10.08118 1.1428,-1.34412 2.1266,-2.29752 2.1862,-2.11866 0.1741,0.52236 -0.8966,3.49341 -2.1939,6.08805 -1.5241,3.04791 -3.7025,6.01748 -6.2668,8.54264 l -2.0133,1.98264 1.4705,0.22052 c 0.8088,0.12128 2.998,0.14175 4.865,0.0455 10.4064,-0.53662 20.8654,-7.2259 29.586,-18.92234 l 1.6485,-2.21106 0.2145,1.25106 c 0.1179,0.68809 0.3666,2.27836 0.5526,3.53393 0.9745,6.57915 4.8148,12.95437 10.3448,17.17297 4.1566,3.17092 10.1559,5.84602 15.8549,7.06967 1.1842,0.25428 1.9114,0.47406 1.6159,0.48841 -0.391,0.019 -0.6397,0.52731 -0.9133,1.86609 -3.6237,17.7362 -17.901,32.11044 -35.6801,35.92233 -3.6056,0.77305 -13.0106,1.13819 -16.2337,0.63025 z m 7.5988,-12.6124 c 1.6494,-0.96659 2.8297,-2.57814 3.3537,-4.57884 0.4333,-1.6545 0.01,-2.73385 -1.0171,-2.58076 -0.7255,0.10835 -0.8419,0.28578 -1.742,2.654 -0.4673,1.2298 -0.8968,1.75931 -1.8775,2.31473 -3.1467,1.78223 -7.2797,0.18397 -8.1523,-3.15253 -0.4385,-1.67654 -1.1097,-2.31002 -1.9634,-1.85312 -1.4041,0.75144 -0.2537,4.59262 1.9129,6.38731 2.5124,2.08112 6.7051,2.43878 9.4857,0.80921 z m 23.8017,-18.65011 c 0.8738,-0.54025 1.8586,-1.54038 2.4354,-2.47344 0.8211,-1.32802 0.9685,-1.88685 0.9685,-3.67154 0,-3.59058 -2.083,-6.19318 -5.6677,-7.08131 -2.4458,-0.60599 -4.4845,0.0467 -6.5276,2.08983 -1.3862,1.38612 -1.7173,1.94911 -2.0288,3.44971 -0.7829,3.7711 1.3369,7.38651 5.0286,8.57669 1.5548,0.50126 4.1984,0.095 5.7916,-0.88994 z m -47.7058,0.37371 c 3.949,-1.64707 5.6291,-6.17208 3.7166,-10.0099 -1.3945,-2.79834 -3.6639,-4.04886 -6.966404,-3.83857 -2.451,0.15607 -4.2129,1.17181 -5.5578,3.20405 -0.7705,1.16432 -0.8827,1.64518 -0.8827,3.78236 0,2.16491 0.1117,2.62922 0.9649,4.00922 1.7698,2.86248 5.655904,4.13309 8.725404,2.85284 z m 59.9097,22.13569 c 0,-0.0664 0.252,-0.31845 0.56,-0.56 0.5075,-0.39804 0.5189,-0.38672 0.1208,0.12082 -0.418,0.53304 -0.6808,0.70255 -0.6808,0.43918 z m -77.464504,-0.59947 c -0.2043,-0.66755 -0.1761,-1.164 0.058,-1.01941 0.1634,0.101 0.2219,0.30538 0.1299,0.45419 -0.092,0.14881 0.014,0.34349 0.2348,0.43262 0.3195,0.1288 0.3199,0.16726 0,0.18734 -0.22,0.0139 -0.411,-0.0107 -0.4245,-0.0547 z m 80.824504,-1.52 c 0.3185,-0.352 0.6512,-0.64 0.7392,-0.64 0.088,0 -0.1007,0.288 -0.4192,0.64 -0.3186,0.352 -0.6512,0.64 -0.7392,0.64 -0.088,0 0.1006,-0.288 0.4192,-0.64 z m -84.812004,-2 -1.588,-1.68 1.68,1.58797 c 1.5611,1.47557 1.8267,1.77203 1.588,1.77203 -0.051,0 -0.8067,-0.756 -1.68,-1.68 z m 89.292004,-2.48 c 0.3185,-0.352 0.6512,-0.64 0.7392,-0.64 0.088,0 -0.1007,0.288 -0.4192,0.64 -0.3186,0.352 -0.6512,0.64 -0.7392,0.64 -0.088,0 0.1006,-0.288 0.4192,-0.64 z m -91.949504,-15.36 c 0,-0.44 0.073,-0.62 0.1614,-0.4 0.089,0.22 0.089,0.58 0,0.8 -0.089,0.22 -0.1614,0.04 -0.1614,-0.4 z m -0.2963,-3.52 c 0,-0.616 0.066,-0.868 0.1464,-0.56 0.081,0.308 0.081,0.812 0,1.12 -0.081,0.308 -0.1464,0.056 -0.1464,-0.56 z m 96.271104,-0.18667 c 0.015,-0.37278 0.091,-0.4486 0.1933,-0.19333 0.092,0.231 0.081,0.507 -0.025,0.61333 -0.1063,0.10634 -0.182,-0.0827 -0.1681,-0.42 z m 0.32,-3.2 c 0.015,-0.37278 0.091,-0.4486 0.1933,-0.19333 0.092,0.231 0.081,0.507 -0.025,0.61333 -0.1063,0.10634 -0.182,-0.0827 -0.1681,-0.42 z m 8.32,-4.48 c 0.015,-0.37278 0.091,-0.4486 0.1933,-0.19333 0.092,0.231 0.081,0.507 -0.025,0.61333 -0.1063,0.10634 -0.182,-0.0827 -0.1681,-0.42 z m 0.32,-2.24 c 0.015,-0.37278 0.091,-0.4486 0.1933,-0.19333 0.092,0.231 0.081,0.507 -0.025,0.61333 -0.1063,0.10634 -0.182,-0.0827 -0.1681,-0.42 z m -115.840004,-3.2 c 0.015,-0.37278 0.091,-0.4486 0.1933,-0.19333 0.092,0.231 0.081,0.507 -0.025,0.61333 -0.1063,0.10634 -0.182,-0.0827 -0.1681,-0.42 z m 116.215404,-0.93333 c 0,-0.704 0.069,-0.95432 0.1456,-0.55627 0.077,0.39805 0.074,0.97405 -0.01,1.28 -0.08,0.30595 -0.1427,-0.0197 -0.1391,-0.72373 z m -122.270204,-2.4 c 0,-0.44 0.073,-0.62 0.1614,-0.4 0.089,0.22 0.089,0.58 0,0.8 -0.089,0.22 -0.1614,0.04 -0.1614,-0.4 z m 5.8119,-1.6 c 0,-1.144 0.058,-1.612 0.1291,-1.04 0.071,0.572 0.071,1.508 0,2.08 -0.071,0.572 -0.1291,0.104 -0.1291,-1.04 z m 116.458304,-1.44 c 0,-0.704 0.069,-0.95432 0.1456,-0.55627 0.077,0.39805 0.074,0.97405 -0.01,1.28 -0.08,0.30595 -0.1427,-0.0197 -0.1391,-0.72373 z m -116.215404,-3.86667 c 0.015,-0.37278 0.091,-0.4486 0.1933,-0.19333 0.092,0.231 0.081,0.507 -0.025,0.61333 -0.1063,0.10634 -0.182,-0.0827 -0.1681,-0.42 z m -6.0548,-0.45333 c 0,-0.44 0.073,-0.62 0.1614,-0.4 0.089,0.22 0.089,0.58 0,0.8 -0.089,0.22 -0.1614,0.04 -0.1614,-0.4 z m 121.894804,-0.18667 c 0.015,-0.37278 0.091,-0.4486 0.1933,-0.19333 0.092,0.231 0.081,0.507 -0.025,0.61333 -0.1063,0.10634 -0.182,-0.0827 -0.1681,-0.42 z M -131.48981,-239.523 c 0.1088,-0.176 0.2613,-0.32 0.3389,-0.32 0.078,0 0.1411,0.144 0.1411,0.32 0,0.176 -0.1525,0.32 -0.3389,0.32 -0.1864,0 -0.2499,-0.144 -0.1411,-0.32 z m 121.6800038,-9.50583 c 0.396,-0.0763 1.044,-0.0763 1.44,0 0.396,0.0763 0.072,0.13867 -0.72,0.13867 -0.792,0 -1.1159998,-0.0624 -0.72,-0.13867 z m 17.2,-6.81417 c 0.6874,-0.704 1.3219,-1.28 1.4099,-1.28 0.088,0 -0.4025,0.576 -1.0899,1.28 -0.6874,0.704 -1.3219,1.28 -1.4099,1.28 -0.088,0 0.4025,-0.576 1.0899,-1.28 z m -10.88,-8.32 c -0.5591,-0.61775 -0.5589,-0.64 0,-0.64 0.3206,0 0.4882,0.0948 0.3724,0.21056 -0.1159,0.1158 -0.05,0.4038 0.1458,0.64 0.5627,0.67806 0.1209,0.49984 -0.522,-0.21056 z m 2.34,-0.5386 c 0.23100001,-0.0924 0.50700001,-0.0811 0.61330001,0.0252 0.1064,0.10634 -0.083,0.18197 -0.42,0.16807 -0.37280001,-0.0154 -0.44860001,-0.0912 -0.19330001,-0.19333 z m 8.06,-4.1014 c 0.4133,-0.44 0.8235,-0.8 0.9115,-0.8 0.088,0 -0.1782,0.36 -0.5915,0.8 -0.4134,0.44 -0.8236,0.8 -0.9116,0.8 -0.088,0 0.1782,-0.36 0.5916,-0.8 z m 0.086,-1.66176 c 0.3113,-0.0811 0.7433,-0.0758 0.96,0.0119 0.2167,0.0876 -0.038,0.15403 -0.5661,0.14751 -0.528,-0.007 -0.7052,-0.0782 -0.3939,-0.15937 z m -127.7661038,-2.77906 c 0,-0.0664 0.252,-0.31845 0.56,-0.56 0.5075,-0.39804 0.5188,-0.38672 0.1208,0.12082 -0.418,0.53304 -0.6808,0.70255 -0.6808,0.43918 z M -3.6499062,-275.523 c -0.7773,-0.792 -1.3413,-1.44 -1.2533,-1.44 0.088,0 0.796,0.648 1.5733,1.44 0.7773,0.792 1.3413,1.44 1.2532,1.44 -0.088,0 -0.7959,-0.648 -1.5732,-1.44 z m -113.2800038,-1.88082 c 0,-0.0665 0.252,-0.31845 0.56,-0.56 0.5075,-0.39804 0.5189,-0.38672 0.1208,0.12082 -0.418,0.53304 -0.6808,0.70255 -0.6808,0.43918 z m 31.766104,-15.46094 c 0.3113,-0.0811 0.7433,-0.0758 0.96,0.0119 0.2166,0.0877 -0.038,0.15403 -0.5661,0.14751 -0.528,-0.007 -0.7053,-0.0782 -0.3939,-0.15937 z m 7.36,0 c 0.3113,-0.0811 0.7433,-0.0758 0.96,0.0119 0.2166,0.0877 -0.038,0.15403 -0.5661,0.14751 -0.528,-0.007 -0.7053,-0.0782 -0.3939,-0.15937 z m 14.733,-10.17824 c 0,-1.056 0.062,-1.44942 0.1328,-0.87427 0.071,0.57515 0.07,1.43915 0,1.92 -0.073,0.48085 -0.1313,0.0103 -0.1295,-1.04573 z m 42.1001,-5.52 c -0.3981,-0.50754 -0.3868,-0.51886 0.1208,-0.12082 0.533,0.41804 0.7026,0.68082 0.4392,0.68082 -0.066,0 -0.3185,-0.252 -0.56,-0.56 z m -2.3793,-2.72 -0.9399,-1.04 1.04,0.93987 c 0.9694,0.87609 1.1871,1.14013 0.9399,1.14013 -0.055,0 -0.5231,-0.468 -1.04,-1.04 z m -2.7407,-2.4 c -0.3981,-0.50754 -0.3868,-0.51886 0.1208,-0.12082 0.308,0.24155 0.56,0.49355 0.56,0.56 0,0.26337 -0.2628,0.0939 -0.6808,-0.43918 z m -20.8192,-5.7386 c 0.231,-0.0924 0.507,-0.0811 0.6133,0.0252 0.1064,0.10634 -0.083,0.18197 -0.42,0.16807 -0.3728,-0.0154 -0.4486,-0.0912 -0.1933,-0.19333 z m 7.04,0 c 0.231,-0.0924 0.507,-0.0811 0.6133,0.0252 0.1064,0.10634 -0.083,0.18197 -0.42,0.16807 -0.3728,-0.0154 -0.4486,-0.0912 -0.1933,-0.19333 z"
       id="path849-9" />
    <path
       style="fill:#d08e60;stroke-width:0.32"
       d="m -35.969806,-187.16382 c 0,-0.0664 0.252,-0.31845 0.56,-0.56 0.5075,-0.39804 0.5188,-0.38672 0.1208,0.12082 -0.418,0.53304 -0.6808,0.70255 -0.6808,0.43918 z m 0.96,0 c 0,-0.0664 0.252,-0.31845 0.56,-0.56 0.5075,-0.39804 0.5188,-0.38672 0.1208,0.12082 -0.418,0.53304 -0.6808,0.70255 -0.6808,0.43918 z m -81.320804,-1.39918 c -0.3981,-0.50754 -0.3867,-0.51886 0.1208,-0.12082 0.308,0.24155 0.56,0.49355 0.56,0.56 0,0.26337 -0.2628,0.0939 -0.6808,-0.43918 z m 38.060804,-0.6186 c 0.231,-0.0924 0.507,-0.0811 0.6133,0.0253 0.1064,0.10634 -0.083,0.18197 -0.42,0.16807 -0.3728,-0.0154 -0.4486,-0.0912 -0.1933,-0.19333 z m 2.24,0 c 0.231,-0.0924 0.507,-0.0811 0.6133,0.0253 0.1064,0.10634 -0.083,0.18197 -0.42,0.16807 -0.3728,-0.0154 -0.4486,-0.0912 -0.1933,-0.19333 z m 44.7,-1.3814 c 0.8668,-0.88 1.6479,-1.6 1.7359,-1.6 0.088,0 -0.5491,0.72 -1.4159,1.6 -0.8668,0.88 -1.648,1.6 -1.7359,1.6 -0.088,0 0.5491,-0.72 1.4159,-1.6 z m -51.7042,-0.88 -0.7758,-0.88 0.88,0.77578 c 0.484,0.42668 0.88,0.82268 0.88,0.88 0,0.25097 -0.2591,0.0467 -0.9842,-0.77578 z m 11.3842,0.24 c 0.3185,-0.352 0.6512,-0.64 0.7392,-0.64 0.088,0 -0.1006,0.288 -0.4192,0.64 -0.3186,0.352 -0.6512,0.64 -0.7392,0.64 -0.088,0 0.1006,-0.288 0.4192,-0.64 z m -48.520804,-1.2 c -0.3981,-0.50754 -0.3867,-0.51886 0.1208,-0.12082 0.308,0.24155 0.56,0.49355 0.56,0.56 0,0.26337 -0.2628,0.0939 -0.6808,-0.43918 z m 91.560804,-1.16082 c 0,-0.0665 0.252,-0.31845 0.56,-0.56 0.5075,-0.39804 0.5188,-0.38672 0.1208,0.12082 -0.418,0.53304 -0.6808,0.70255 -0.6808,0.43918 z m -40.9347,-2.30585 c 0.015,-0.37278 0.091,-0.4486 0.1933,-0.19333 0.092,0.231 0.081,0.507 -0.025,0.61333 -0.1063,0.10634 -0.182,-0.0827 -0.1681,-0.42 z m -51.520004,-11.2 c 0.015,-0.37278 0.091,-0.4486 0.1933,-0.19333 0.092,0.231 0.081,0.507 -0.025,0.61333 -0.1063,0.10634 -0.182,-0.0827 -0.1681,-0.42 z m 67.114704,-0.67193 c 0.231,-0.0924 0.507,-0.0811 0.6133,0.0253 0.1064,0.10634 -0.083,0.18197 -0.42,0.16807 -0.3728,-0.0154 -0.4486,-0.0912 -0.1933,-0.19333 z m -4.1408,-1.9414 c -0.3981,-0.50754 -0.3868,-0.51886 0.1208,-0.12082 0.533,0.41804 0.7025,0.68082 0.4392,0.68082 -0.066,0 -0.3185,-0.252 -0.56,-0.56 z m 10.1208,-0.08 c 0.3185,-0.352 0.6512,-0.64 0.7392,-0.64 0.088,0 -0.1007,0.288 -0.4192,0.64 -0.3186,0.352 -0.6512,0.64 -0.7392,0.64 -0.088,0 0.1006,-0.288 0.4192,-0.64 z m -73.389504,-0.32 c 0,-0.44 0.073,-0.62 0.1614,-0.4 0.089,0.22 0.089,0.58 0,0.8 -0.089,0.22 -0.1614,0.04 -0.1614,-0.4 z m 16.5487,0.08 c -0.3981,-0.50754 -0.3867,-0.51886 0.1208,-0.12082 0.308,0.24155 0.56,0.49355 0.56,0.56 0,0.26337 -0.2628,0.0939 -0.6808,-0.43918 z m 80.091304,-3.92 c 0,-0.44 0.073,-0.62 0.1614,-0.4 0.089,0.22 0.089,0.58 0,0.8 -0.089,0.22 -0.1614,0.04 -0.1614,-0.4 z m -35.5081,-0.8 c 0.01,-0.528 0.078,-0.70526 0.1593,-0.39391 0.081,0.31135 0.076,0.74335 -0.012,0.96 -0.088,0.21665 -0.154,-0.0381 -0.1475,-0.56609 z m -61.403304,-2.56 c 0,-1.056 0.061,-1.44942 0.1328,-0.87427 0.071,0.57515 0.07,1.43915 0,1.92 -0.073,0.48085 -0.1313,0.0103 -0.1295,-1.04573 z m 96.160904,1.5414 c 0.231,-0.0924 0.507,-0.0811 0.6133,0.0253 0.1064,0.10634 -0.083,0.18197 -0.42,0.16807 -0.3728,-0.0154 -0.4486,-0.0912 -0.1933,-0.19333 z m -105.194704,-2.84807 c 0.015,-0.37278 0.091,-0.4486 0.1933,-0.19333 0.092,0.231 0.081,0.507 -0.025,0.61333 -0.1063,0.10634 -0.182,-0.0827 -0.1681,-0.42 z m 12.6947,-0.98526 c 0.22,-0.0888 0.58,-0.0888 0.8,0 0.22,0.0888 0.04,0.16141 -0.4,0.16141 -0.44,0 -0.62,-0.0726 -0.4,-0.16141 z m 13.2,-0.58807 c 0.4133,-0.44 0.8236,-0.8 0.9116,-0.8 0.088,0 -0.1783,0.36 -0.5916,0.8 -0.4134,0.44 -0.8236,0.8 -0.9116,0.8 -0.088,0 0.1782,-0.36 0.5916,-0.8 z m 56.769604,0.08 -0.6096,-0.72 0.72,0.6096 c 0.6766,0.57287 0.8657,0.8304 0.6096,0.8304 -0.061,0 -0.3847,-0.324 -0.72,-0.72 z m -46.72,-0.32 -0.6096,-0.72 0.72,0.6096 c 0.6766,0.57287 0.8657,0.8304 0.6096,0.8304 -0.061,0 -0.3847,-0.324 -0.72,-0.72 z m 41.2304,-1.7406 c 0.308,-0.0805 0.812,-0.0805 1.12,0 0.308,0.0805 0.056,0.14635 -0.56,0.14635 -0.616,0 -0.868,-0.0659 -0.56,-0.14635 z m 37.4105,-1.0594 c 0,-0.44 0.073,-0.62 0.1614,-0.4 0.089,0.22 0.089,0.58 0,0.8 -0.089,0.22 -0.1614,0.04 -0.1614,-0.4 z m -70.1905,-1.1786 c 0.231,-0.0924 0.507,-0.0811 0.6133,0.0252 0.1064,0.10634 -0.083,0.18197 -0.42,0.16807 -0.3728,-0.0154 -0.4486,-0.0912 -0.1933,-0.19333 z m 38.1228,-1.6214 -1.1028,-1.2 1.2,1.10277 c 1.1169,1.02644 1.3471,1.29723 1.1028,1.29723 -0.053,0 -0.5935,-0.54 -1.2,-1.2 z m -83.797504,0.0533 c 0.015,-0.37278 0.091,-0.4486 0.1933,-0.19333 0.092,0.231 0.081,0.507 -0.025,0.61333 -0.1063,0.10634 -0.182,-0.0827 -0.1681,-0.42 z m 116.230604,-2.6933 c 0,-0.968 0.06,-1.364 0.1333,-0.88 0.073,0.484 0.073,1.276 0,1.76 -0.073,0.484 -0.1333,0.088 -0.1333,-0.88 z m -74.6559,0.51918 c 0,-0.0665 0.252,-0.31845 0.56,-0.56 0.5075,-0.39804 0.5188,-0.38672 0.1208,0.12082 -0.418,0.53304 -0.6808,0.70255 -0.6808,0.43918 z m -47.617604,-1.63918 c 0.01,-0.528 0.078,-0.70526 0.1593,-0.39391 0.081,0.31135 0.076,0.74335 -0.012,0.96 -0.088,0.21665 -0.1541,-0.0381 -0.1476,-0.56609 z m 43.457604,-0.6012 c 0,-0.0665 0.252,-0.31845 0.56,-0.56 0.5075,-0.39804 0.5189,-0.38672 0.1208,0.12082 -0.418,0.53304 -0.6808,0.70255 -0.6808,0.43918 z m 4.96,-4.6788 c 1.3997,-1.408 2.617,-2.56 2.705,-2.56 0.088,0 -0.9853,1.152 -2.385,2.56 -1.3998,1.408 -2.617,2.56 -2.705,2.56 -0.088,0 0.9852,-1.152 2.385,-2.56 z m 21.6,2.43918 c 0,-0.0665 0.252,-0.31845 0.56,-0.56 0.5075,-0.39804 0.5188,-0.38672 0.1208,0.12082 -0.418,0.53304 -0.6808,0.70255 -0.6808,0.43918 z m -70.017604,-1.63918 c 0.01,-0.528 0.078,-0.70526 0.1593,-0.39391 0.081,0.31135 0.076,0.74335 -0.012,0.96 -0.088,0.21665 -0.154,-0.0381 -0.1475,-0.56609 z m 6.0429,-0.0267 c 0.015,-0.37278 0.091,-0.4486 0.1933,-0.19333 0.092,0.231 0.081,0.507 -0.025,0.61333 -0.1063,0.10634 -0.182,-0.0827 -0.1681,-0.42 z m 115.877104,-0.2933 c 0.01,-0.528 0.078,-0.70526 0.1594,-0.39391 0.081,0.31135 0.076,0.74335 -0.012,0.96 -0.088,0.21665 -0.154,-0.0381 -0.1475,-0.56609 z m -48.0624,-1.6 c 0.597,-0.616 1.1575,-1.12 1.2455,-1.12 0.088,0 -0.3285,0.504 -0.9255,1.12 -0.5971,0.616 -1.1575,1.12 -1.2456,1.12 -0.088,0 0.3285,-0.504 0.9256,-1.12 z m -67.494704,-0.66667 c 0.015,-0.37278 0.091,-0.4486 0.1933,-0.19333 0.092,0.231 0.081,0.507 -0.025,0.61333 -0.1063,0.10634 -0.182,-0.0827 -0.1681,-0.42 z m 115.200004,-0.64 c 0.015,-0.37278 0.091,-0.4486 0.1933,-0.19333 0.092,0.231 0.081,0.507 -0.025,0.61333 -0.1063,0.10634 -0.182,-0.0827 -0.1681,-0.42 z m -44.6653,-2.05333 c 0.3185,-0.352 0.6512,-0.64 0.7392,-0.64 0.088,0 -0.1007,0.288 -0.4192,0.64 -0.3186,0.352 -0.6512,0.64 -0.7392,0.64 -0.088,0 0.1006,-0.288 0.4192,-0.64 z m -24,-0.32 c 0.3185,-0.352 0.6512,-0.64 0.7392,-0.64 0.088,0 -0.1007,0.288 -0.4192,0.64 -0.3186,0.352 -0.6512,0.64 -0.7392,0.64 -0.088,0 0.1006,-0.288 0.4192,-0.64 z m 68.0253,-1.46667 c 0.015,-0.37278 0.091,-0.4486 0.1933,-0.19333 0.092,0.231 0.081,0.507 -0.025,0.61333 -0.1063,0.10634 -0.182,-0.0827 -0.1681,-0.42 z m -66.4253,-0.13333 c -0.1088,-0.176 -0.045,-0.32 0.1411,-0.32 0.1864,0 0.3389,0.144 0.3389,0.32 0,0.176 -0.063,0.32 -0.1411,0.32 -0.078,0 -0.2301,-0.144 -0.3389,-0.32 z m 71.14,-7.8986 c 0.231,-0.0924 0.507,-0.0811 0.6133,0.0252 0.1064,0.10634 -0.083,0.18197 -0.42,0.16807 -0.3728,-0.0154 -0.4486,-0.0912 -0.1933,-0.19333 z m 6.0799998,0 c 0.231,-0.0924 0.507,-0.0811 0.6133,0.0252 0.1064,0.10634 -0.083,0.18197 -0.42,0.16807 -0.3728,-0.0154 -0.4486,-0.0912 -0.1933,-0.19333 z m -8.3199998,-0.31998 c 0.231,-0.0924 0.507,-0.0811 0.6133,0.0252 0.1064,0.10634 -0.083,0.18197 -0.42,0.16807 -0.3728,-0.0154 -0.4486,-0.0912 -0.1933,-0.19333 z M 8.5101938,-257.244 c 0,-0.0664 0.252,-0.31845 0.56,-0.56 0.5075,-0.39804 0.5188,-0.38672 0.1208,0.12082 -0.418,0.53304 -0.6808,0.70255 -0.6808,0.43918 z m -3.6,-3.30517 c 0.396,-0.0763 1.044,-0.0763 1.44,0 0.396,0.0763 0.072,0.13867 -0.72,0.13867 -0.792,0 -1.116,-0.0624 -0.72,-0.13867 z m -7.5139,-4.15593 c 0.3113,-0.0811 0.7433,-0.0758 0.96,0.0119 0.2166,0.0876 -0.038,0.15403 -0.5661,0.14751 -0.528,-0.007 -0.7053,-0.0782 -0.3939,-0.15937 z m 8.4939,-5.7565 c 0.231,-0.0924 0.507,-0.0811 0.6133,0.0252 0.1064,0.10634 -0.083,0.18197 -0.42,0.16807 -0.3728,-0.0154 -0.4486,-0.0912 -0.1933,-0.19333 z m -46.4999998,-2.3414 c 0.3185,-0.352 0.6512,-0.64 0.7392,-0.64 0.088,0 -0.1007,0.288 -0.4192,0.64 -0.3186,0.352 -0.6512,0.64 -0.7392,0.64 -0.088,0 0.1006,-0.288 0.4192,-0.64 z m -77.280004,-3.68 c 0.4134,-0.44 0.8236,-0.8 0.9116,-0.8 0.088,0 -0.1782,0.36 -0.5916,0.8 -0.4134,0.44 -0.8236,0.8 -0.9116,0.8 -0.088,0 0.1782,-0.36 0.5916,-0.8 z m 2.24,-1.88082 c 0,-0.0665 0.252,-0.31845 0.56,-0.56 0.5075,-0.39804 0.5188,-0.38672 0.1208,0.12082 -0.418,0.53304 -0.6808,0.70255 -0.6808,0.43918 z m 55.440004,-0.73977 c 0.308,-0.0805 0.812,-0.0805 1.12,0 0.308,0.0805 0.056,0.14635 -0.56,0.14635 -0.616,0 -0.868,-0.0659 -0.56,-0.14635 z m 19.5696,-5.93941 -0.6096,-0.72 0.72,0.6096 c 0.6766,0.57287 0.8657,0.8304 0.6096,0.8304 -0.061,0 -0.3847,-0.324 -0.72,-0.72 z m -41.9696,-7.83521 c 0.836,-0.0659 2.204,-0.0659 3.04,0 0.836,0.0659 0.152,0.11985 -1.52,0.11985 -1.672,0 -2.356,-0.0539 -1.52,-0.11985 z m 60.5296,-16.80479 -0.6096,-0.72 0.72,0.6096 c 0.6766,0.57287 0.8657,0.8304 0.6096,0.8304 -0.061,0 -0.3847,-0.324 -0.72,-0.72 z m -3.0504,-3.04 c -0.3981,-0.50754 -0.3868,-0.51886 0.1208,-0.12082 0.308,0.24155 0.56,0.49355 0.56,0.56 0,0.26337 -0.2628,0.0939 -0.6808,-0.43918 z m -32.9326,-1.12 c 0.7847,-0.836 1.4687,-1.52 1.52,-1.52 0.2403,0 -0.014,0.28731 -1.4266,1.61337 l -1.52,1.42663 z m 12.2595,-5.58176 c 0.3113,-0.0811 0.7433,-0.0758 0.96,0.0119 0.2166,0.0876 -0.038,0.15403 -0.5661,0.14751 -0.528,-0.007 -0.7053,-0.0782 -0.3939,-0.15937 z m 4.6339,0.01 c 0.22,-0.0888 0.58,-0.0888 0.8,0 0.22,0.0888 0.04,0.1614 -0.4,0.1614 -0.44,0 -0.62,-0.0726 -0.4,-0.1614 z"
       id="path843-0" />
    <path
       style="fill:#dc8829;stroke-width:0.32"
       d="m -35.697906,-187.21169 c 5.0617,-5.78656 9.2143,-14.86691 10.6476,-23.28211 0.8916,-5.2355 0.9433,-5.08807 -1.9538,-5.57171 -8.5792,-1.43215 -16.4486,-5.28065 -21.351,-10.44156 -4.6267,-4.87073 -7.155,-10.94589 -7.5387,-18.11494 l -0.076,-1.41901 -2.2677,3.01901 c -5.7995,7.72119 -12.5222,13.3793 -19.3476,16.28377 -4.5926,1.95432 -10.2517,2.92549 -14.1841,2.43416 l -1.824,-0.22789 2.5148,-2.65666 c 2.8848,-3.04763 4.4212,-5.24597 6.0217,-8.61622 1.0867,-2.28826 2.1608,-5.6309 1.8948,-5.89687 -0.071,-0.0707 -0.595,0.42663 -1.1651,1.10512 -2.3904,2.84474 -9.9148,10.08153 -12.3443,11.87255 -7.790704,5.7431 -14.684304,8.63327 -22.009904,9.22766 -1.7168,0.1393 -2.8419,0.3762 -2.9347,0.61791 -0.3029,0.78949 0.5344,11.61656 1.1617,15.02164 1.0772,5.84696 2.8896,11.10369 5.1499,14.93716 1.0393,1.76264 0.8787,1.74295 -1.4448,-0.17709 -5.3638,-4.43245 -10.1414,-13.57351 -12.6411,-24.18623 -2.3464,-9.96182 -2.9713,-16.70477 -2.1165,-22.83712 0.2911,-2.08841 0.4651,-3.86135 0.3866,-3.93986 -0.1984,-0.19839 -3.2389,4.88638 -4.2746,7.14873 -0.4692,1.02487 -1.1637,2.78561 -1.5433,3.91275 l -0.6902,2.04934 -0.2004,-2.68692 c -0.7193,-9.64511 3.2282,-22.05426 10.895,-34.24842 6.329,-10.06637 10.1703,-14.17165 18.4838,-19.75375 9.101904,-6.11151 17.812804,-9.00475 27.111504,-9.00475 4.796,0 6.7472,0.23782 10.8437,1.32165 l 2.4353,0.64431 -0.022,2.61702 c -0.018,2.1376 0.114,2.88082 0.7199,4.05702 1.6589,3.22003 4.3236,4.91667 7.7115,4.90997 1.1965,-0.002 2.5896,-0.22352 3.28,-0.52071 l 1.2,-0.5166 v 1.04559 c 0,1.97381 0.9496,4.36478 2.327,5.85911 1.9897,2.15859 3.4423,2.80635 6.313,2.81522 2.103,0.006 2.6177,-0.11579 4.16,-0.98841 5.9057,-3.34155 5.9057,-11.62679 0,-14.96834 -1.5415,-0.87217 -2.0581,-0.99504 -4.16,-0.98948 -1.6339,0.004 -2.7184,0.17868 -3.3974,0.54614 l -0.9972,0.53979 -0.1649,-2.05341 c -0.3577,-4.45696 -3.9154,-7.81489 -8.2976,-7.83184 l -1.817,-0.007 -0.7246,-1.84 c -0.5762,-1.46327 -0.7283,-2.50013 -0.743,-5.06412 -0.018,-3.16396 0.01,-3.27523 1.3383,-5.96203 1.12,-2.26023 1.8287,-3.18464 4.0618,-5.29852 3.0592,-2.89577 4.4349,-3.66854 7.8615,-4.41615 5.3623,-1.16989 11.9757,-0.59457 17.0049,1.4793 8.3035,3.42412 16.0748,12.92711 19.12,23.38079 2.4949,8.56465 5.8651998,14.79615 10.2284998,18.91234 2.65980001,2.50907 5.4853,3.98192 8.7252,4.54816 l 2.3614,0.4127 -1.5685,1.48763 c -2.3145,2.19501 -5.1717,3.4946 -8.1501,3.707 l -2.4244,0.1729 1.2159,1.00004 c 2.66990001,2.19574 6.9358,3.57817 9.7653,3.16458 0.815,-0.11912 2.3117,-0.54891 3.3260002,-0.95508 l 1.8441,-0.73849 -0.6983,1.16447 c -3.5219002,5.87305 -9.1355002,9.9744 -15.4302002,11.2735 -4.3543,0.89862 -7.6303998,0.75845 -12.9409998,-0.5537 -1.1117,-0.27468 -2.0743,-0.4464 -2.1391,-0.38161 -0.065,0.0648 0.2907,1.58336 0.7899,3.3746 1.8553,6.65588 2.3873,10.76772 2.3926,18.49169 0,6.0277 -0.098,7.55242 -0.7114,10.60358 -1.7764,8.83938 -5.4364,16.74121 -10.8908,23.51345 -2.0215,2.51001 -6.6027,7.02315 -8.4529,8.32744 -0.9771,0.68886 -0.9541,0.63189 0.3449,-0.85316 z m -41.6319,-4.20324 c 0.22,-0.0888 0.58,-0.0888 0.8,0 0.22,0.0888 0.04,0.16141 -0.4,0.16141 -0.44,0 -0.62,-0.0726 -0.4,-0.16141 z"
       id="path841-6" />
    <path
       style="fill:#3a53b6;stroke-width:0.32"
       d="m -48.082806,-270.60807 c -3.9246,-0.71241 -6.767,-4.10919 -6.767,-8.0867 v -1.75228 l -1.4824,0.65572 c -1.1505,0.50895 -1.9563,0.62681 -3.6,0.52657 -4.714,-0.28749 -7.6884,-3.26184 -7.9759,-7.97591 -0.2969,-4.86823 3.3575,-8.73533 8.2583,-8.73896 4.7195,-0.003 8.384,3.48788 8.4542,8.05466 0.014,0.92294 0.1162,1.67894 0.2267,1.68 0.1105,9.6e-4 0.7179,-0.21407 1.3497,-0.47807 1.7684,-0.73888 4.8678,-0.6142 6.7717,0.27242 1.7684,0.82348 3.4924,2.58545 4.2507,4.34431 0.6416,1.48837 0.6368,4.96913 -0.01,6.46793 -1.5665,3.63546 -5.5407,5.74488 -9.4771,5.03031 z"
       id="path835-1" />
    <path
       style="fill:#975122;stroke-width:0.32"
       d="m -80.115606,-189.78776 c -1.914,-0.83028 -3.257,-2.08443 -4.0455,-3.77779 -0.8923,-1.91628 -0.9629,-2.83795 -0.2619,-3.41971 0.7654,-0.63524 1.5206,0.0187 1.8304,1.58499 0.7777,3.93291 6.5557,5.49509 9.4861,2.56474 0.5373,-0.53731 1.0489,-1.32579 1.1368,-1.75219 0.088,-0.42641 0.2369,-1.14436 0.3311,-1.59546 0.1401,-0.67158 0.3285,-0.80202 1.04,-0.72 0.8005,0.0923 0.8643,0.20463 0.8113,1.42876 -0.1124,2.59958 -1.954,4.95797 -4.5503,5.82723 -1.5092,0.50532 -4.4543,0.43367 -5.778,-0.14057 z m 27.1258,-17.95384 c 0.231,-0.0924 0.507,-0.0811 0.6133,0.0253 0.1064,0.10634 -0.083,0.18197 -0.42,0.16807 -0.3728,-0.0154 -0.4486,-0.0912 -0.1933,-0.19333 z m -47.680004,-0.32 c 0.231,-0.0924 0.507,-0.0811 0.6133,0.0253 0.106404,0.10634 -0.083,0.18197 -0.42,0.16807 -0.3728,-0.0154 -0.4486,-0.0912 -0.1933,-0.19333 z m 1.600004,0 c 0.231,-0.0924 0.507,-0.0811 0.6133,0.0253 0.1064,0.10634 -0.083,0.18197 -0.42,0.16807 -0.3728,-0.0154 -0.4486,-0.0912 -0.1933,-0.19333 z m 53.2305,-6.8214 c 0,-0.44 0.073,-0.62 0.1614,-0.4 0.089,0.22 0.089,0.58 0,0.8 -0.089,0.22 -0.1614,0.04 -0.1614,-0.4 z m -0.1105,-55.5786 c 0.231,-0.0924 0.507,-0.0811 0.6133,0.0252 0.1064,0.10634 -0.083,0.18197 -0.42,0.16807 -0.3728,-0.0154 -0.4486,-0.0912 -0.1933,-0.19333 z m -9.1458,-8.4214 c 0,-0.616 0.066,-0.868 0.1464,-0.56 0.081,0.308 0.081,0.812 0,1.12 -0.081,0.308 -0.1464,0.056 -0.1464,-0.56 z m -13.1689,-8.82667 c 0.015,-0.37278 0.091,-0.4486 0.1933,-0.19333 0.092,0.231 0.081,0.507 -0.025,0.61333 -0.1063,0.10634 -0.182,-0.0827 -0.1681,-0.42 z m 21.3384,0.28035 c 0.3981,-0.0765 0.9741,-0.0736 1.28,0.006 0.306,0.0801 -0.02,0.14272 -0.7237,0.13917 -0.704,-0.004 -0.9543,-0.0691 -0.5563,-0.14563 z"
       id="path833-8" />
    <path
       style="fill:#692308;stroke-width:0.32"
       d="m -101.26941,-208.29693 c -5.6233,-1.45035 -7.1669,-8.58103 -2.6615,-12.29477 3.3555,-2.76588 8.709304,-1.66807 10.673904,2.1887 1.7899,3.51394 0.4148,7.96652 -2.9441,9.53267 -1.8403,0.85808 -3.3169,1.02513 -5.068304,0.5734 z m 45.789204,0.0979 c -2.5149,-1.00368 -4.4834,-3.93832 -4.4834,-6.68397 0,-1.57178 1.1121,-4.29289 2.1201,-5.18778 0.3394,-0.30128 1.3207,-0.85902 2.1807,-1.23943 4.4263,-1.95797 9.3651,1.00472 9.7139,5.82718 0.2377,3.28554 -1.3699,5.97271 -4.3074,7.20006 -1.2058,0.50382 -4.0571,0.54964 -5.2239,0.0839 z"
       id="path831-7" />
  </g>
</svg>
