<?xml version="1.0" encoding="UTF-8" standalone="no"?>
<!-- Created with Inkscape (http://www.inkscape.org/) -->

<svg
   version="1.1"
   id="svg2"
   width="122.40752"
   height="132.58446"
   viewBox="0 0 122.40752 132.58446"
   sodipodi:docname="2.svg"
   inkscape:version="1.1 (c4e8f9ed74, 2021-05-24)"
   xmlns:inkscape="http://www.inkscape.org/namespaces/inkscape"
   xmlns:sodipodi="http://sodipodi.sourceforge.net/DTD/sodipodi-0.dtd"
   xmlns="http://www.w3.org/2000/svg"
   xmlns:svg="http://www.w3.org/2000/svg">
  <sodipodi:namedview
     id="namedview64"
     pagecolor="#ffffff"
     bordercolor="#666666"
     borderopacity="1.0"
     inkscape:pageshadow="2"
     inkscape:pageopacity="0.0"
     inkscape:pagecheckerboard="0"
     showgrid="false"
     inkscape:zoom="6.1416667"
     inkscape:cx="45.101764"
     inkscape:cy="58.534599"
     inkscape:window-width="1920"
     inkscape:window-height="1080"
     inkscape:window-x="1920"
     inkscape:window-y="0"
     inkscape:window-maximized="1"
     inkscape:current-layer="svg2"
     fit-margin-top="0"
     fit-margin-left="0"
     fit-margin-right="0"
     fit-margin-bottom="0" />
  <defs
     id="defs6">
    <clipPath
       clipPathUnits="userSpaceOnUse"
       id="clipPath2748">
      <rect
         style="fill:none;stroke:#fd0000;stroke-width:6.29354;stroke-linecap:round;stroke-opacity:1"
         id="rect2750"
         width="181.78069"
         height="160.40302"
         x="319.67203"
         y="-1.6533943" />
    </clipPath>
    <clipPath
       clipPathUnits="userSpaceOnUse"
       id="clipPath2829">
      <rect
         style="fill:none;stroke:#fd0000;stroke-width:5.85576;stroke-linecap:round;stroke-opacity:1"
         id="rect2831"
         width="172.34521"
         height="169.41031"
         x="166.89822"
         y="149.70647" />
    </clipPath>
    <clipPath
       clipPathUnits="userSpaceOnUse"
       id="clipPath4462">
      <rect
         style="fill:none;fill-opacity:1;stroke:#fd0000;stroke-width:6;stroke-linecap:round;stroke-opacity:1"
         id="rect4464"
         width="154.82426"
         height="154.94003"
         x="163.68083"
         y="328.92615" />
    </clipPath>
    <clipPath
       clipPathUnits="userSpaceOnUse"
       id="clipPath5140">
      <rect
         style="fill:none;stroke:#fd0000;stroke-width:6;stroke-linecap:round;stroke-opacity:1"
         id="rect5142"
         width="143.4304"
         height="153.41002"
         x="492.91498"
         y="328.1218" />
    </clipPath>
    <clipPath
       clipPathUnits="userSpaceOnUse"
       id="clipPath6275">
      <rect
         style="fill:none;fill-opacity:1;stroke:#fd0000;stroke-width:6;stroke-linecap:round;stroke-opacity:1"
         id="rect6277"
         width="135.50941"
         height="155.53391"
         x="337.29059"
         y="492.97705" />
    </clipPath>
  </defs>
  <path
     id="path833-4"
     style="fill:#975122;stroke-width:0.32"
     d="m 67.947266,110.85547 c -1.115427,0.19127 -1.328646,1.53964 -1.793818,2.37348 -1.723719,3.32409 -6.776635,3.87192 -9.355416,1.26244 -1.051574,-0.86468 -1.15326,-2.42399 -2.239438,-3.23748 -0.908636,-0.53432 -1.881162,0.64227 -1.589844,1.5332 0.405583,1.75371 1.665371,3.2158 3.060699,4.2927 1.600269,1.08817 3.601842,1.65175 5.534229,1.49685 1.675413,-0.249 3.436999,-0.60666 4.723065,-1.79847 1.318214,-1.16385 2.624531,-2.64294 2.848828,-4.4523 0.08551,-0.70478 -0.450196,-1.46058 -1.188305,-1.47042 z"
     sodipodi:nodetypes="cccccccccc" />
  <path
     id="path849-1"
     style="fill:#fad4ad;stroke-width:0.32"
     d="m 62.634766,55.728516 c -1.421854,3.685459 -2.507643,7.681886 -5.220704,10.642578 -1.489795,1.558675 -3.78638,2.380372 -5.919554,2.006171 -2.048755,-0.464467 -3.121193,-2.590663 -3.845255,-4.405301 -0.440405,-0.945471 -0.571398,-2.098625 -1.299644,-2.878214 -0.547635,-0.06107 -0.441549,0.78372 -0.668606,1.122239 -1.214043,3.444206 -2.443011,7.018771 -4.828005,9.851603 -1.056176,1.206404 -2.515306,2.155678 -4.106904,2.416783 -1.893096,-0.211612 -3.597721,-1.443393 -4.549762,-3.075634 -0.694906,-1.131413 -1.404951,-2.275736 -1.452191,-3.645069 -0.160193,-0.558247 -0.761109,-0.131234 -0.800444,0.271477 -0.448041,1.468753 -0.548161,3.025194 -0.955791,4.509361 -0.919292,4.026358 -2.170055,8.179404 -5.013297,11.297287 -1.682866,1.873781 -4.32083,2.968225 -6.826332,2.365536 -2.211468,-0.399722 -3.748392,-2.360636 -4.344739,-4.426692 -0.413207,-1.148144 -0.456937,-2.405461 -0.912913,-3.534547 -0.475871,-0.107221 -0.354757,0.600949 -0.642629,0.870503 -0.590347,1.178525 -1.3915974,2.278105 -1.966746,3.440044 0.2412164,2.179477 0.5199071,4.391908 0.826172,6.541015 -1.1554001,0.367889 -2.4533111,0.167801 -3.5702706,0.727866 -2.4977386,0.968432 -3.8600689,3.710952 -3.7939631,6.293723 -0.071386,3.424015 1.8815664,6.500035 4.254306,8.813005 2.7080048,2.73207 6.1909447,5.1043 10.1655467,5.1993 0.571769,0.13069 1.348654,-0.10808 1.783426,0.26938 2.174446,3.15618 4.797526,5.98184 7.560527,8.62642 9.323543,8.731 21.997052,13.8495 34.798064,13.75465 6.058184,-0.0322 12.117088,-1.15522 17.780928,-3.29641 4.102458,-1.70697 8.082958,-3.77151 11.718101,-6.33338 3.654937,-2.77823 6.963548,-5.98988 10.002963,-9.42478 0.98807,-1.03492 1.65073,-2.34922 2.6949,-3.32509 0.86093,-0.44704 1.89989,-0.0949 2.81674,-0.3715 3.12073,-0.65047 5.81212,-2.57339 8.13986,-4.6716 2.68676,-2.51581 4.88672,-6.018756 4.63129,-9.829943 -0.18583,-2.929484 -2.39521,-5.778 -5.402,-6.144886 -0.5361,-0.06263 -1.07467,-0.10319 -1.61167,-0.157849 0.35342,-2.053267 0.68862,-4.133073 0.69336,-6.21875 -0.18888,-1.232691 -1.2177,-2.106245 -1.92471,-3.064844 -0.33801,-0.293717 -0.62709,-0.970811 -1.13193,-0.82578 -0.48302,0.731245 -0.13886,1.717308 -0.50451,2.480696 -0.54622,1.595548 -1.589,3.323218 -3.32361,3.771257 -2.03132,0.318923 -4.19192,-0.164853 -5.77431,-1.513166 -2.470819,-1.95358 -4.64489,-4.415159 -5.700695,-7.428018 -0.852437,-2.125412 -1.279254,-4.400714 -2.157812,-6.511941 -0.30967,-0.438658 -0.664169,0.301562 -0.873882,0.549985 -0.900833,1.623788 -2.349298,2.943958 -4.169077,3.380065 -2.727084,0.723314 -5.936023,-0.352106 -7.320446,-2.88091 -1.376496,-2.154099 -2.033554,-4.696835 -2.09491,-7.239696 -0.07001,-0.488383 0.01986,-1.678262 -0.390733,-0.644301 -0.930766,1.589532 -1.736316,3.5227 -3.617749,4.192279 -1.999374,0.713337 -4.321927,-0.156068 -5.885063,-1.533528 -2.765039,-2.356919 -4.227398,-5.844055 -4.762558,-9.372844 -0.13401,-0.290336 -0.167816,-1.820766 -0.394603,-0.933004 -0.03606,0.09815 -0.07211,0.196302 -0.108166,0.294454 z M 37.121094,80.408203 c 5.12232,0.04606 10.317782,1.939584 13.972146,5.601336 1.514474,1.448532 2.392331,3.39341 3.248557,5.291242 1.525858,-0.787506 3.047104,-1.824785 4.844418,-1.745019 1.989313,-0.02725 4.117759,-0.214893 5.910793,0.82812 0.781448,0.284767 1.516387,0.933014 2.379554,0.868071 0.536113,-0.328186 0.444971,-1.133061 0.78574,-1.626093 1.823376,-4.037943 5.709425,-6.75103 9.777133,-8.120627 2.122569,-0.824383 4.474059,-0.922364 6.746112,-0.893746 2.122556,-0.03734 4.294642,0.02487 6.285973,0.846645 3.756506,1.224837 7.331904,3.501297 9.33668,6.99304 0.78213,1.19473 1.24242,2.582758 1.17908,4.020939 -0.0394,2.007323 0.31138,4.194741 -0.80623,5.993512 -2.126716,4.292627 -6.609667,7.040597 -11.144843,8.125127 -6.509003,1.60241 -13.835046,0.0662 -18.650972,-4.70494 -1.829585,-1.80163 -3.091914,-4.10584 -3.560058,-6.632216 -0.288563,-1.498017 -1.821414,-2.166221 -3.026353,-2.814697 -2.392515,-1.22367 -5.364069,-1.209878 -7.703058,0.138025 -1.181457,0.527473 -2.231119,1.54437 -2.356514,2.891428 -0.682914,4.424301 -4.218703,7.81071 -8.10544,9.70329 -4.260127,2.03731 -9.231471,2.52686 -13.829515,1.49633 -3.417518,-0.84964 -6.727538,-2.49186 -9.193921,-5.04106 -1.364987,-1.53765 -2.512912,-3.481041 -2.983701,-5.544059 -0.193382,-1.654998 -0.262683,-3.374997 0.106629,-5.009401 1.478171,-4.694463 5.70328,-7.989676 10.249166,-9.548113 2.089527,-0.730556 4.310145,-1.108756 6.538624,-1.117134 z m -0.9375,2.222656 c -4.399626,0.370549 -8.981974,1.969657 -11.861328,5.470703 -1.996766,2.37191 -2.696635,5.775034 -1.643886,8.711722 0.647372,2.060111 2.371738,3.521516 3.962034,4.873736 3.904472,3.06475 9.204687,3.84147 14.005666,3.02203 4.12561,-0.70205 8.145585,-2.87928 10.443764,-6.45905 1.166908,-1.939235 1.053816,-4.314753 0.895601,-6.4873 -0.321827,-1.88749 -1.627735,-3.443571 -2.956826,-4.748218 -3.416628,-3.192673 -8.244462,-4.542261 -12.845025,-4.383623 z m 47.867187,0.138672 c -3.273124,0.0024 -6.589054,0.812421 -9.298261,2.700024 -2.681498,1.680971 -4.879968,4.43823 -5.141192,7.678883 -0.29108,3.630082 2.004378,6.975002 4.905249,8.945032 4.510191,3.14051 10.460007,3.53409 15.65108,2.10601 3.899169,-1.06004 7.660706,-3.71147 8.994452,-7.662371 1.074191,-3.095544 0.124718,-6.648784 -2.097466,-9.000781 -2.795649,-3.000892 -6.876861,-4.641084 -10.949727,-4.737392 -0.687573,-0.03239 -1.375939,-0.03729 -2.064135,-0.0294 z m -46.886719,5.160157 c 1.289999,-0.05537 2.649992,0.106962 3.676251,0.96527 1.697645,1.059264 2.793183,2.985758 2.909668,5.008373 0.163029,1.529586 0.144745,3.161312 -0.713324,4.50161 -0.569301,1.273561 -1.563641,2.345409 -2.875643,2.863199 -2.322837,1.24103 -5.239974,0.9412 -7.244998,-0.7447 -1.554427,-1.28133 -2.621475,-3.371995 -2.406279,-5.467115 -0.02048,-2.088962 0.591658,-4.338038 2.318143,-5.661141 1.01481,-0.893236 2.287541,-1.548444 3.674073,-1.459637 0.220703,-0.0019 0.441406,-0.0039 0.662109,-0.0059 z m 47.679688,0 c 1.289992,-0.05545 2.649993,0.107015 3.67625,0.96527 1.738127,1.088748 2.810532,3.034715 2.9175,5.069886 0.17041,1.59323 0.07899,3.312707 -0.799329,4.672303 -1.192805,2.159553 -3.565144,3.520853 -6.032303,3.410983 -2.94528,0.009 -5.542173,-2.27381 -6.285556,-5.059849 -0.255169,-1.536806 -0.17248,-3.294078 0.291983,-4.842715 0.612343,-1.909471 2.257347,-3.374683 4.090801,-4.043205 0.696839,-0.179923 1.42635,-0.163011 2.140654,-0.172673 z M 68.277344,111.19531 c 0.754578,0.098 0.8871,0.97753 0.579676,1.55118 -0.877444,3.00034 -3.626564,5.30863 -6.735705,5.63955 -3.681421,0.51533 -7.702351,-1.68091 -8.817208,-5.31599 -0.287718,-0.6309 -0.202766,-1.60753 0.611909,-1.75755 0.80184,-0.0931 1.161417,0.92449 1.527767,1.42821 0.817734,1.76128 2.439584,3.20797 4.420104,3.42315 2.054533,0.30436 4.408604,-0.1502 5.731274,-1.88364 0.770912,-0.80696 1.089149,-1.93461 1.787651,-2.73334 0.239168,-0.22233 0.557672,-0.3961 0.894532,-0.35157 z"
     sodipodi:nodetypes="ccccccccccccccccccccccccccccccccccccccccccccccccccccccccccccccccccccccccccccccccccccccccscccccccsscccccccccccccccccccccccccccccc" />
  <path
     id="path847-0"
     style="fill:#f6c556;stroke-width:0.32"
     d="M 68.914062,5.796875 C 66.329845,6.0171286 64.28775,7.7931601 62.488092,9.4980652 60.790784,11.034359 59.235873,12.719893 57.619141,14.339844 54.111737,11.784811 50.320886,9.2720435 45.947266,8.59375 c -1.758293,-0.3013133 -3.656205,0.2491106 -4.840858,1.616442 -1.074947,1.119619 -1.868349,3.043916 -0.862863,4.444889 1.256709,1.291175 2.965346,1.994544 4.529893,2.831247 -3.865967,0.254394 -7.770908,0.792431 -11.351707,2.345577 C 29.112702,21.685848 25.147241,24.278928 21.5,27.214844 16.15534,31.636698 12.000208,37.316521 8.5789949,43.306591 3.2037923,52.811182 0.64617574,63.697355 0.0516488,74.547226 c -0.08928891,3.076123 -0.18302187,6.283903 0.93548132,9.202892 0.43398308,1.192486 1.55973778,2.33672 2.93137608,2.06306 2.5229798,-0.413938 4.6039522,-2.184331 6.1889158,-4.100287 0.700391,-0.861642 1.21345,-1.848345 1.728516,-2.826172 0.20132,2.395573 0.88985,4.959309 2.831478,6.540723 1.523288,1.377019 3.7699,1.804199 5.697603,1.105948 3.494111,-1.211151 5.938482,-4.411666 7.196218,-7.779815 1.205852,-3.274947 2.058465,-6.675883 2.610341,-10.118973 0.108964,-0.527929 0.270917,-0.719584 0.254203,-0.07796 0.437934,1.689702 1.412586,3.221303 2.558594,4.521484 1.083394,0.972553 2.481734,1.80945 3.976755,1.791301 1.302216,-0.275449 2.514873,-0.962278 3.557346,-1.779187 1.476064,-1.309202 2.287737,-3.176649 3.186131,-4.893514 1.019957,-2.119042 1.852284,-4.32373 2.588362,-6.5561 0.908647,1.963257 1.386286,4.204496 2.917438,5.824202 1.168914,1.370021 3.1355,1.677618 4.809124,1.226579 2.479912,-0.454579 4.335938,-2.406314 5.510724,-4.529466 1.397984,-2.395457 2.271936,-5.039791 3.233417,-7.628737 0.579517,3.812815 2.299792,7.638989 5.470639,9.975253 1.859278,1.406338 4.641359,2.02971 6.675511,0.631141 1.163258,-0.786842 1.823752,-2.066203 2.496428,-3.254831 0.07767,3.047554 1.048569,6.131039 3.025013,8.483494 2.493185,2.701927 7.219538,2.803764 9.837286,0.217857 0.723571,-0.6353 1.141595,-1.553992 1.729498,-2.271664 1.267671,3.518066 1.894043,7.403927 4.328747,10.376388 1.456967,1.716951 3.072788,3.389914 5.076056,4.463336 1.5353,0.745815 3.36321,0.892028 5.00922,0.482787 1.7812,-0.76578 2.8614,-2.625953 3.31645,-4.439698 0.14766,-0.548099 0.0575,-1.126995 0.20117,-1.673828 1.13183,1.256465 2.09159,2.674317 3.39326,3.77613 1.17329,0.992964 2.38296,2.262661 4.00517,2.382073 1.67863,0.06754 2.71449,-1.532821 3.36938,-2.860542 1.77332,-3.357337 1.60007,-7.275052 1.61161,-10.959684 -0.15498,-6.754249 -1.1593,-13.522645 -3.26732,-19.948657 -2.63062,-7.505813 -6.94077,-14.365055 -12.15312,-20.338539 -3.57039,-4.006735 -7.54287,-7.722341 -12.085433,-10.602752 -5.280553,-3.195773 -11.203645,-5.436842 -17.344253,-6.198029 -2.377022,-0.217087 -4.820249,-0.287165 -7.160156,0.248046 -0.571144,0.193244 0.545211,-0.44777 0.724888,-0.66828 1.505489,-1.25105 3.113053,-2.942419 2.993862,-5.0485165 C 73.755639,6.9425316 71.115064,5.5245511 68.914062,5.796875 Z" />
  <path
     id="path835-5"
     style="fill:#3a53b6;stroke-width:0.32"
     d="m 83.666016,80.166016 c -5.319363,0.198457 -10.814242,2.361234 -14.087177,6.702641 -0.992751,1.298807 -1.622747,2.817088 -2.360089,4.264155 -2.153349,-1.424716 -4.729589,-2.320234 -7.335938,-2.044921 -1.873137,0.170798 -3.677538,0.835296 -5.330078,1.689453 -0.864214,-1.334098 -1.343216,-2.906447 -2.438456,-4.097259 -2.869471,-3.515608 -7.163945,-5.736468 -11.657162,-6.245637 -5.108807,-0.632948 -10.643837,0.0709 -14.884401,3.184982 -2.585666,1.948156 -5.066211,4.517957 -5.634793,7.830764 -0.256344,1.79068 -0.403195,3.673256 0.0777,5.438478 1.644877,4.739908 5.943519,8.196358 10.643319,9.652868 1.713848,0.45715 3.462253,0.86512 5.233634,1.00143 4.480409,0.11031 9.118501,-0.80938 12.837138,-3.41912 2.992871,-2.0403 5.441463,-5.154261 5.977315,-8.81135 0.652736,-2.39899 3.3856,-3.418831 5.68787,-3.382725 2.16465,0.01516 4.260344,0.832743 5.991818,2.162022 1.110245,0.956672 0.816215,2.543587 1.416283,3.764509 1.566937,3.903434 5.160558,6.635154 8.949407,8.208124 2.132413,0.89536 4.428882,1.38215 6.747591,1.33205 2.548383,0.01 5.189082,0.16867 7.599651,-0.82116 3.729286,-1.21693 7.353229,-3.38875 9.370939,-6.859008 0.93425,-1.477462 1.59894,-3.166067 1.52189,-4.940984 0.0255,-1.920203 0.12426,-3.958236 -0.87085,-5.684103 -2.122802,-4.377851 -6.615826,-7.127199 -11.216814,-8.267935 -2.033248,-0.520431 -4.141791,-0.728495 -6.2388,-0.657274 z m -46.351563,2.847656 c 4.470538,0.05064 9.196244,1.511752 12.222674,4.947537 1.427969,1.69455 2.543551,3.874331 2.25113,6.151484 -0.106955,1.868051 -0.567113,3.777433 -1.883722,5.193057 -2.354063,2.72167 -5.848303,4.54548 -9.434762,5.08629 -2.7515,0.31356 -5.614376,0.36453 -8.285604,-0.35495 -3.372832,-1.01949 -6.66325,-2.95744 -8.576709,-5.993521 -1.62018,-2.622821 -1.400946,-6.104522 0.285387,-8.640786 2.818072,-4.444295 8.331376,-6.423536 13.421606,-6.389111 z m 47.564453,0.0293 c 3.584379,0.04732 7.168464,1.045842 10.136719,3.15625 2.417022,1.655131 4.252026,4.349317 4.287302,7.348591 0.187114,3.443616 -2.118765,6.60788 -4.973696,8.4058 -2.912905,1.91341 -6.401083,2.72055 -9.864923,2.65268 -2.673925,0.0396 -5.318191,-0.41507 -7.706438,-1.62956 -3.315304,-1.59894 -6.355444,-4.509369 -6.81595,-8.310676 -0.416695,-3.805404 2.114236,-7.320716 5.350923,-9.159867 2.872367,-1.712317 6.200592,-2.469065 9.586063,-2.463218 z M 36.59375,87.539062 c -2.058724,0.0094 -3.925836,1.304582 -5.122847,2.904816 -2.459822,3.363004 -1.54204,8.706616 2.054658,10.896032 2.128444,1.37494 5.073642,1.51229 7.173922,0.004 2.540113,-1.621902 4.077376,-4.796044 3.424391,-7.789861 -0.51245,-2.746474 -2.538654,-5.390428 -5.407046,-5.876642 -0.697741,-0.143751 -1.412991,-0.158659 -2.123078,-0.138375 z m 47.679688,0 c -2.057234,0.0097 -3.923123,1.302939 -5.121074,2.900787 -2.461277,3.336253 -1.541941,8.601391 1.96287,10.847261 1.910958,1.32217 4.486867,1.35956 6.592451,0.51214 3.213727,-1.48249 4.842111,-5.405415 3.980084,-8.776967 -0.578168,-2.60267 -2.722251,-4.809897 -5.326441,-5.397283 -0.689917,-0.10963 -1.391631,-0.09633 -2.08789,-0.08594 z" />
</svg>
