<?xml version="1.0" encoding="UTF-8" standalone="no"?>
<!-- Created with Inkscape (http://www.inkscape.org/) -->

<svg
   version="1.1"
   id="svg2"
   width="125.32445"
   height="120.85429"
   viewBox="0 0 125.32445 120.85429"
   sodipodi:docname="3.svg"
   inkscape:version="1.1 (c4e8f9ed74, 2021-05-24)"
   xmlns:inkscape="http://www.inkscape.org/namespaces/inkscape"
   xmlns:sodipodi="http://sodipodi.sourceforge.net/DTD/sodipodi-0.dtd"
   xmlns="http://www.w3.org/2000/svg"
   xmlns:svg="http://www.w3.org/2000/svg">
  <sodipodi:namedview
     id="namedview64"
     pagecolor="#ffffff"
     bordercolor="#666666"
     borderopacity="1.0"
     inkscape:pageshadow="2"
     inkscape:pageopacity="0.0"
     inkscape:pagecheckerboard="0"
     showgrid="false"
     inkscape:zoom="4"
     inkscape:cx="41"
     inkscape:cy="75.875"
     inkscape:window-width="1920"
     inkscape:window-height="1080"
     inkscape:window-x="1920"
     inkscape:window-y="0"
     inkscape:window-maximized="1"
     inkscape:current-layer="svg2"
     fit-margin-top="0"
     fit-margin-left="0"
     fit-margin-right="0"
     fit-margin-bottom="0" />
  <defs
     id="defs6">
    <clipPath
       clipPathUnits="userSpaceOnUse"
       id="clipPath2748">
      <rect
         style="fill:none;stroke:#fd0000;stroke-width:6.29354;stroke-linecap:round;stroke-opacity:1"
         id="rect2750"
         width="181.78069"
         height="160.40302"
         x="319.67203"
         y="-1.6533943" />
    </clipPath>
    <clipPath
       clipPathUnits="userSpaceOnUse"
       id="clipPath2829">
      <rect
         style="fill:none;stroke:#fd0000;stroke-width:5.85576;stroke-linecap:round;stroke-opacity:1"
         id="rect2831"
         width="172.34521"
         height="169.41031"
         x="166.89822"
         y="149.70647" />
    </clipPath>
    <clipPath
       clipPathUnits="userSpaceOnUse"
       id="clipPath4462">
      <rect
         style="fill:none;fill-opacity:1;stroke:#fd0000;stroke-width:6;stroke-linecap:round;stroke-opacity:1"
         id="rect4464"
         width="154.82426"
         height="154.94003"
         x="163.68083"
         y="328.92615" />
    </clipPath>
    <clipPath
       clipPathUnits="userSpaceOnUse"
       id="clipPath5140">
      <rect
         style="fill:none;stroke:#fd0000;stroke-width:6;stroke-linecap:round;stroke-opacity:1"
         id="rect5142"
         width="143.4304"
         height="153.41002"
         x="492.91498"
         y="328.1218" />
    </clipPath>
    <clipPath
       clipPathUnits="userSpaceOnUse"
       id="clipPath6275">
      <rect
         style="fill:none;fill-opacity:1;stroke:#fd0000;stroke-width:6;stroke-linecap:round;stroke-opacity:1"
         id="rect6277"
         width="135.50941"
         height="155.53391"
         x="337.29059"
         y="492.97705" />
    </clipPath>
  </defs>
  <path
     id="path849-0"
     style="fill:#fad4ad;stroke-width:0.32"
     d="m 74.453125,47.640625 c -0.271953,0.529883 -0.11965,1.272343 -0.340764,1.819205 -0.768254,3.140421 -2.320648,6.407026 -5.310652,7.969592 -2.618009,1.439414 -5.945877,0.984117 -8.375928,-0.693094 -1.702752,-1.179191 -3.436919,-2.642798 -4.283654,-4.643034 -0.110452,-0.339794 -0.603645,-0.757402 -0.792518,-0.245638 -0.554257,1.382692 -0.727882,2.932761 -1.6672,4.146609 -2.258938,3.278618 -6.249735,5.100181 -10.09045,5.414035 -3.088468,0.240153 -6.593177,-0.633825 -8.441568,-3.306738 -1.009524,-1.292181 -1.405303,-2.911017 -1.526512,-4.516594 -0.01439,-0.981905 -0.438448,0.480427 -0.663923,0.761618 -2.523361,5.171021 -5.277504,10.432767 -9.469722,14.450289 -2.02692,1.891075 -4.551713,3.604704 -7.447265,3.558594 -1.028833,-0.02174 -2.002818,-0.384057 -2.988281,-0.638672 0.19114,1.901627 0.452169,3.804062 0.716796,5.689453 -0.980097,0.252063 -2.090482,-0.01829 -3.070312,0.382812 -1.5328488,0.57947 -2.7315879,1.850144 -3.5781508,3.219179 -0.9328817,1.741987 -0.7425727,3.846123 -0.3576107,5.712605 1.0438976,3.784673 3.8138845,6.876582 6.9611515,9.107279 2.331116,1.620315 5.115369,2.752845 7.998003,2.57776 0.73237,-0.220721 1.007514,0.486181 1.401957,0.951048 2.836443,3.786597 6.030727,7.326637 9.75227,10.263707 8.210876,6.58918 18.445833,10.67303 28.975483,11.28822 3.393653,0.35948 6.804669,-0.083 10.169279,-0.51229 9.043214,-1.27752 17.723832,-5.05326 24.735132,-10.918 3.222158,-2.68151 6.140024,-5.72562 8.811134,-8.94915 0.65651,-0.710874 1.02427,-1.920642 2.09034,-2.093873 1.77687,0.02801 3.54345,-0.362591 5.13501,-1.156418 3.45737,-1.696442 6.53738,-4.33869 8.45684,-7.701415 1.18175,-2.230164 1.78025,-4.892643 1.21479,-7.388261 -0.82336,-2.442143 -3.03568,-4.685755 -5.75196,-4.669922 -0.24972,-0.08411 -0.92124,0.117247 -0.97265,-0.201172 0.40694,-1.553322 0.27789,-3.199811 0.76172,-4.697265 0.11384,-0.260075 0.87966,-0.463049 0.3125,-0.689453 -1.15953,-0.127592 -2.36019,-0.153201 -3.43688,-0.674928 -3.11257,-1.326379 -5.84663,-3.654743 -7.54113,-6.593363 -0.49767,-0.980119 -0.9738,-2.002105 -1.14699,-3.089131 -0.4946,-0.358507 -0.83568,0.487849 -1.12247,0.769445 -1.09202,1.635364 -3.00014,2.978125 -5.049409,2.574305 -2.310552,-0.435453 -3.97996,-2.338302 -5.274508,-4.170645 -1.194386,-1.835204 -2.146534,-3.952129 -2.022526,-6.189895 -0.0083,-1.285394 -0.0016,-2.570841 -0.0037,-3.856257 -1.673459,1.939949 -3.204774,4.265834 -5.591797,5.316406 -2.404259,1.085924 -5.335874,0.276541 -7.080082,-1.630442 -1.824715,-1.83721 -2.797354,-4.243997 -3.732418,-6.621511 -0.04679,-0.10356 -0.268635,-0.285638 -0.361328,-0.125 z M 40.935547,75.027344 c 2.865594,0.07112 5.460415,2.166652 6.292689,4.840008 1.167928,3.126684 -0.429249,6.799761 -3.15004,8.556949 -1.991412,1.179764 -4.726702,1.232174 -6.691273,-0.11605 -2.763272,-1.639757 -4.017799,-5.262385 -2.997955,-8.286494 0.758056,-2.647845 3.128918,-4.893262 5.960989,-4.986506 0.194472,-0.0184 0.390564,-0.0028 0.58559,-0.0079 z m 47.558594,0.04687 c 3.179241,-0.104242 5.901062,2.389023 6.591797,5.396484 0.764196,3.042311 -0.729506,6.414094 -3.435889,7.972118 -2.409111,1.471784 -5.773231,1.003235 -7.736813,-1.016503 -2.860101,-2.611762 -2.841708,-7.479486 -0.258523,-10.272934 1.206057,-1.382035 3.014601,-2.119832 4.839428,-2.079165 z M 87.375,92.025391 c 1.174061,0.110478 1.296241,1.864093 0.474609,2.466797 -0.696165,0.469106 -1.857402,0.200818 -1.93594,-0.74095 -0.208119,-0.826162 0.334422,-1.917324 1.308874,-1.741211 l 0.0995,0.01003 z m 6.507812,0.05078 c 1.033812,0.08236 1.542338,1.470064 0.751954,2.171875 -0.405974,0.492843 -1.148049,0.75096 -1.641917,0.22966 -0.928285,-0.545801 -0.795849,-2.28527 0.384104,-2.393723 0.169071,-0.01982 0.336265,-0.02572 0.505859,-0.0078 z m -53.851562,0.02539 c 0.770787,0.239899 1.660664,1.12016 1.08803,1.953417 -0.483586,0.925121 -2.160826,1.033904 -2.445452,-0.109667 -0.491531,-0.89714 0.483863,-1.654916 1.251953,-1.859374 l 0.09892,0.01465 z m -6.757812,0.0039 c 1.29512,-0.136513 1.850665,1.818924 0.835937,2.490234 -0.757508,0.485113 -1.948175,0.08485 -1.962891,-0.90625 -0.154446,-0.755394 0.286422,-1.595979 1.126954,-1.583984 z M 90.503906,96.4375 c 0.878953,0.08669 1.829962,1.213005 1.044922,1.988281 -0.399233,0.503024 -1.142207,1.183416 -1.751953,0.5625 -0.801447,-0.546006 -0.958726,-1.907078 -0.0099,-2.391692 0.212015,-0.131785 0.471304,-0.169321 0.716929,-0.159089 z m -53.693359,0.0957 c 0.633827,0.165853 1.179454,0.81151 1.210937,1.458985 -0.255154,0.89772 -1.384288,1.697957 -2.219476,0.982947 -0.968009,-0.796606 -0.379917,-2.73544 1.008539,-2.441932 z m 34.998047,2.867188 c 0.873951,0.1386 0.94058,1.212962 0.653055,1.838422 -0.856738,2.19939 -2.681971,4.05984 -4.892419,4.9062 -3.433984,1.2143 -7.811523,0.15321 -9.776214,-3.06179 -0.511611,-0.88679 -1.243341,-2.09653 -0.775438,-3.173067 0.432268,-0.610715 1.270019,-0.29179 1.574384,0.272827 0.732631,1.14428 1.251845,2.50566 2.458819,3.26233 1.869782,1.27996 4.422724,1.32315 6.467664,0.45499 1.59206,-0.69151 2.440261,-2.29213 3.181972,-3.76057 0.249883,-0.363266 0.626917,-0.77062 1.108177,-0.739342 z"
     sodipodi:nodetypes="cccccccccccccccccccccccccccccccccccccccccccccccscccccssccccccccccccscccssccccccccccscccsscccccccccccccc" />
  <path
     id="path843-7"
     style="fill:#d08e60;stroke-width:0.32"
     d="m 93.664062,91.599609 c -0.864786,0.194485 -1.629718,1.009879 -1.78125,1.882813 0.306131,0.760662 0.991736,1.445309 1.771485,1.71289 0.759449,-0.163731 1.336973,-0.858808 1.761719,-1.478515 0.237561,-0.739385 -0.503811,-1.398266 -1.022459,-1.821603 -0.210529,-0.155801 -0.460019,-0.300133 -0.729495,-0.295585 z m -6.488281,0.07813 c -1.318538,-0.06526 -2.120354,1.67846 -1.27106,2.6652 0.389735,0.509966 1.145054,1.188379 1.77692,0.631675 1.11453,-0.579547 1.393997,-2.393843 0.273437,-3.097656 -0.238471,-0.128398 -0.509663,-0.191665 -0.779297,-0.199219 z M 39.898438,91.875 c -1.074787,-0.02443 -2.075542,1.262416 -1.529297,2.25 0.488886,0.926098 1.829685,1.310363 2.613281,0.523438 0.982101,-0.818982 0.499286,-2.734987 -0.857422,-2.767579 -0.07505,0.001 -0.152028,-0.0086 -0.226562,-0.0059 z m -6.550782,0.04492 c -1.342863,-0.05938 -2.240897,1.859445 -1.169922,2.759766 0.558872,0.483833 1.3836,0.664112 2.016241,0.208322 1.213342,-0.49505 0.998139,-2.3594 -0.134478,-2.812517 -0.218029,-0.114463 -0.468786,-0.150686 -0.711841,-0.155571 z m 56.84961,4.248047 c -1.353269,0.08777 -2.027074,2.165704 -0.824219,2.90625 0.680206,0.32727 1.618414,0.350774 2.232422,-0.117188 0.533484,-0.838482 0.44967,-2.367158 -0.632813,-2.738281 -0.24888,-0.08589 -0.517189,-0.08497 -0.77539,-0.05078 z m -53.335938,0.06641 c -1.032579,5.25e-4 -2.294027,1.042848 -1.789062,2.148437 0.365149,0.928294 1.597999,1.659466 2.483817,0.947179 1.056711,-0.772183 0.831667,-3.066675 -0.694755,-3.095616 z"
     sodipodi:nodetypes="ccccccccccccccccccccccccccccccc" />
  <path
     id="path841-5"
     style="fill:#dc8829;stroke-width:0.32"
     d="m 71.751953,99.021484 c -1.152985,0.159046 -1.528714,1.472276 -1.97852,2.364606 -1.20586,2.38281 -4.220972,3.43165 -6.720699,2.68032 -1.737356,-0.4599 -3.277369,-1.85102 -3.935546,-3.57032 -0.305342,-0.705072 -1.09546,-1.576304 -1.921876,-1.078121 -0.722969,0.377282 -0.901975,1.278911 -0.568265,1.981601 1.178131,3.41844 4.796105,5.79103 8.406156,5.47934 2.068558,-0.055 4.12455,-0.84719 5.553202,-2.37417 1.118908,-1.17067 2.279182,-2.62466 2.255392,-4.32505 -0.04412,-0.559338 -0.489808,-1.159194 -1.089844,-1.158206 z"
     sodipodi:nodetypes="cccccccccc" />
  <path
     id="path839-9"
     style="fill:#ed7b15;stroke-width:0.32"
     d="m 48.136719,0.24804688 c -2.207066,-0.003638 -4.359722,0.86022502 -5.977708,2.35547452 -3.10256,2.5719771 -5.384203,6.4688746 -5.142865,10.5947006 0.0306,0.943563 0.298931,1.855003 0.503385,2.770528 -1.375997,-2.289299 -2.772356,-4.923556 -5.416639,-5.93381 -2.395251,-0.8842356 -5.032685,-0.7584126 -7.528673,-0.4646275 -3.549785,0.4624575 -7.049868,2.2740545 -8.955078,5.3886715 -1.440771,2.220517 -2.001392,4.909104 -1.806666,7.531956 0.188409,3.227486 1.124874,6.466298 3.068384,9.085232 -2.448925,0.113501 -4.91656,-0.110174 -7.3536602,0.184917 -2.8587688,0.694761 -5.19925,2.765159 -6.8952768,5.097058 -1.1190121,1.614731 -2.11155832,3.39806 -2.48934388,5.343025 -0.32915206,3.000611 0.0973802,6.367817 2.32184958,8.599558 1.5230466,1.514296 3.6045814,2.636299 5.8070567,2.488332 0.7893077,-0.122637 0.5779395,0.314469 0.2033435,0.756276 -1.8358837,2.392958 -3.1694093,5.328433 -3.0152955,8.40223 0.049581,2.305164 1.125231,4.496904 2.8014605,6.057079 2.1107701,2.021096 4.7637781,3.822643 7.7780691,3.936759 3.457163,0.09502 6.461829,-2.092079 8.711436,-4.517188 3.755818,-4.046631 6.202812,-9.056268 8.640127,-13.953515 0.375274,2.235605 1.176527,4.600088 3.123047,5.949219 2.464411,1.804408 5.691963,1.828554 8.597503,1.455949 4.161074,-0.494765 8.062626,-3.23858 9.740387,-7.10634 0.381018,-0.901049 0.531899,-1.872201 0.640626,-2.83789 1.105125,2.369132 2.827244,4.489069 5.128557,5.777257 2.430383,1.441872 5.651973,1.951232 8.178151,0.443207 3.393042,-1.919078 5.19648,-5.740994 5.808476,-9.460145 0.08281,-1.018261 0.256925,0.194815 0.418533,0.547853 0.967997,2.831063 2.604793,5.63508 5.216891,7.225211 1.936463,1.143213 4.489584,1.064241 6.332408,-0.237573 1.811648,-1.160512 3.135703,-2.886925 4.510734,-4.504795 0.08597,2.154059 -0.228494,4.372509 0.353609,6.476261 1.00302,2.699134 2.634372,5.384096 5.220609,6.812802 1.797646,1.026981 4.185334,0.811753 5.734324,-0.576575 0.88993,-0.749092 1.5898,-1.699134 2.25591,-2.644128 -0.0293,2.597283 1.67367,4.794468 3.38766,6.576022 2.05436,2.001722 4.56108,3.810918 7.47177,4.195807 2.00237,0.297791 4.07273,-0.595295 5.25816,-2.228347 2.21965,-2.841557 3.13257,-6.709526 2.1527,-10.209395 -0.67324,-2.727141 -2.31597,-5.068459 -4.05155,-7.22516 -0.13264,-0.318898 -1.06221,-1.058525 -0.26352,-1.030115 3.15322,-0.162133 5.82113,-2.767499 6.42418,-5.809349 1.04438,-4.442485 -1.34323,-9.499262 -5.60401,-11.271417 -2.40865,-0.932773 -5.12197,-1.20895 -7.63377,-0.537886 -0.54905,0.06441 0.15936,-0.844866 0.21088,-1.220784 1.36689,-3.37923 3.11076,-6.856233 2.80335,-10.606144 -0.17299,-2.439057 -1.67255,-4.593341 -3.6452,-5.961863 -2.55774,-1.859886 -5.82958,-3.297358 -9.035,-2.484998 -2.661158,0.639315 -4.492343,2.883495 -5.87604,5.100738 -0.518738,0.925218 -0.264124,-0.0097 -0.178912,-0.500697 0.407234,-2.613723 1.293699,-5.332317 0.5461,-7.9661 C 95.680441,7.4563158 93.091598,5.7771283 90.527264,4.9243902 88.322008,4.0996482 85.914957,4.8236332 83.958677,5.9465827 81.871291,7.1357018 79.894755,8.8426783 79.125534,11.191632 78.862763,11.813846 78.838152,10.520772 78.757603,10.276765 78.329301,6.5753516 75.413832,3.1574719 71.701815,2.4739417 68.550458,1.9145824 64.934504,2.3905871 62.607422,4.7753906 60.930125,6.4400417 60.229667,8.7881718 59.90625,11.066406 58.787683,8.0442397 57.494031,4.9523681 55.07673,2.7216841 53.791837,1.3732604 52.080394,0.36252994 50.181519,0.29345406 c -0.67981,-0.0576523 -1.363142,-0.0584577 -2.0448,-0.0454072 z" />
  <path
     id="path835-8"
     style="fill:#3a53b6;stroke-width:0.32"
     d="m 88.345703,74.689453 c -4.228944,0.117347 -7.782087,4.512084 -6.87539,8.676694 0.55764,3.30365 3.472581,6.285694 6.934754,6.268452 2.856979,0.03835 5.464731,-1.911971 6.592092,-4.479711 0.729924,-1.491143 0.397336,-3.215895 0.312447,-4.806272 -0.25522,-2.078316 -1.788773,-3.825393 -3.552969,-4.842338 -1.037111,-0.569258 -2.226925,-0.862026 -3.410934,-0.816825 z m -47.701172,0.0098 c -3.565311,0.127957 -6.726167,3.184975 -6.951901,6.749665 -0.190996,2.073362 0.484407,4.211089 1.943245,5.714727 1.19611,1.385433 2.871619,2.473566 4.759505,2.45597 2.862689,0.180074 5.620644,-1.656616 6.746842,-4.262751 0.923787,-1.636298 0.647386,-3.590966 0.435903,-5.370502 -0.443244,-2.008002 -1.9508,-3.708821 -3.758032,-4.635254 -0.982523,-0.481059 -2.083243,-0.701212 -3.175562,-0.651855 z" />
</svg>
