<?xml version="1.0" encoding="UTF-8" standalone="no"?>
<!-- Created with Inkscape (http://www.inkscape.org/) -->

<svg
   version="1.1"
   id="svg2"
   width="125.32445"
   height="120.85429"
   viewBox="0 0 125.32445 120.85429"
   sodipodi:docname="3.svg"
   inkscape:version="1.1 (c4e8f9ed74, 2021-05-24)"
   xmlns:inkscape="http://www.inkscape.org/namespaces/inkscape"
   xmlns:sodipodi="http://sodipodi.sourceforge.net/DTD/sodipodi-0.dtd"
   xmlns="http://www.w3.org/2000/svg"
   xmlns:svg="http://www.w3.org/2000/svg">
  <sodipodi:namedview
     id="namedview64"
     pagecolor="#ffffff"
     bordercolor="#666666"
     borderopacity="1.0"
     inkscape:pageshadow="2"
     inkscape:pageopacity="0.0"
     inkscape:pagecheckerboard="0"
     showgrid="false"
     inkscape:zoom="0.54285177"
     inkscape:cx="-20.263358"
     inkscape:cy="630.92729"
     inkscape:window-width="1920"
     inkscape:window-height="1080"
     inkscape:window-x="1920"
     inkscape:window-y="0"
     inkscape:window-maximized="1"
     inkscape:current-layer="svg2"
     fit-margin-top="0"
     fit-margin-left="0"
     fit-margin-right="0"
     fit-margin-bottom="0" />
  <defs
     id="defs6">
    <clipPath
       clipPathUnits="userSpaceOnUse"
       id="clipPath2748">
      <rect
         style="fill:none;stroke:#fd0000;stroke-width:6.29354;stroke-linecap:round;stroke-opacity:1"
         id="rect2750"
         width="181.78069"
         height="160.40302"
         x="319.67203"
         y="-1.6533943" />
    </clipPath>
    <clipPath
       clipPathUnits="userSpaceOnUse"
       id="clipPath2829">
      <rect
         style="fill:none;stroke:#fd0000;stroke-width:5.85576;stroke-linecap:round;stroke-opacity:1"
         id="rect2831"
         width="172.34521"
         height="169.41031"
         x="166.89822"
         y="149.70647" />
    </clipPath>
    <clipPath
       clipPathUnits="userSpaceOnUse"
       id="clipPath4462">
      <rect
         style="fill:none;fill-opacity:1;stroke:#fd0000;stroke-width:6;stroke-linecap:round;stroke-opacity:1"
         id="rect4464"
         width="154.82426"
         height="154.94003"
         x="163.68083"
         y="328.92615" />
    </clipPath>
    <clipPath
       clipPathUnits="userSpaceOnUse"
       id="clipPath5140">
      <rect
         style="fill:none;stroke:#fd0000;stroke-width:6;stroke-linecap:round;stroke-opacity:1"
         id="rect5142"
         width="143.4304"
         height="153.41002"
         x="492.91498"
         y="328.1218" />
    </clipPath>
    <clipPath
       clipPathUnits="userSpaceOnUse"
       id="clipPath6275">
      <rect
         style="fill:none;fill-opacity:1;stroke:#fd0000;stroke-width:6;stroke-linecap:round;stroke-opacity:1"
         id="rect6277"
         width="135.50941"
         height="155.53391"
         x="337.29059"
         y="492.97705" />
    </clipPath>
  </defs>
  <g
     id="g865"
     transform="translate(-71.866094,287.66571)">
    <path
       style="fill:#fad4ad;stroke-width:0.32"
       d="m 132.04409,-167.09819 c -13.5919,-1.21142 -26.7861,-8.42297 -35.292396,-19.28969 l -2.4,-3.06579 -1.76,-0.0144 c -5.9157,-0.0482 -13.4661,-6.96854 -13.9976,-12.82956 -0.2401,-2.64877 0.1118,-3.98852 1.4316,-5.44938 1.4995,-1.65978 2.5877,-2.20019 4.4301,-2.20019 1.4611,0 1.4918,-0.0205 1.3204,-0.88 -0.097,-0.484 -0.2764,-1.77331 -0.3997,-2.86515 l -0.2241,-1.98516 1.2096,0.33399 c 5.3671,1.48195 11.7451,-4.10416 17.256796,-15.11424 l 1.7009,-3.39786 0.1655,1.23411 c 0.2487,1.85351 1.6792,4.03501 3.3345,5.08474 6.0533,3.83891 16.5156,-0.0461 18.1013,-6.72163 0.2102,-0.88483 0.4746,-1.6088 0.5876,-1.6088 0.113,0 0.378,0.41654 0.5889,0.92563 0.6145,1.48358 3.2155,3.87811 5.2942,4.87402 4.4267,2.1208 9.0081,0.41049 11.386,-4.25063 0.8061,-1.58003 1.5574,-3.97056 1.5931,-5.06902 0.023,-0.7033 0.076,-0.66352 0.4422,0.32921 1.9794,5.37063 4.8367,8.1258 8.3945,8.09453 2.1735,-0.0192 4.0953,-1.14438 6.13,-3.58925 l 1.5475,-1.85955 v 2.7713 c 0,2.46083 0.1187,3.0288 1.0594,5.06966 1.2219,2.65091 3.6421,5.17552 5.5722,5.81251 2.2857,0.75437 4.3382,-0.0472 6.002,-2.34396 0.7027,-0.97012 0.9131,-1.11376 0.9131,-0.62359 0,0.35031 0.4325,1.50253 0.9612,2.56048 1.8709,3.744 6.9278,7.44477 10.2965,7.5353 0.7603,0.0205 1.1482,0.0907 0.8621,0.15606 -0.3921,0.0896 -0.575,0.67491 -0.7426,2.37581 -0.1223,1.24131 -0.2997,2.45821 -0.394,2.70422 -0.1301,0.33882 0.1508,0.44727 1.1585,0.44727 2.1636,0 4.0619,1.36758 5.3001,3.81827 0.8634,1.7088 0.5322,5.07962 -0.7468,7.60186 -2.3472,4.6286 -8.5027,9.02118 -12.695,9.05916 -1.5792,0.0144 -1.6167,0.0383 -2.88,1.84522 -0.704,1.00691 -3.008,3.56816 -5.12,5.69171 -8.7569,8.80471 -19.3674,13.74861 -31.8847,14.85655 -4.0092,0.35484 -4.2659,0.35414 -8.5029,-0.0234 z m 8.0854,-14.48883 c 2.8183,-1.31235 5.3753,-5.14733 4.2978,-6.44569 -0.7011,-0.8448 -1.6974,-0.43492 -2.3464,0.96528 -1.2161,2.62396 -2.8492,3.68 -5.6908,3.68 -2.2914,0 -4.1436,-1.10896 -5.0788,-3.0409 -0.8356,-1.72598 -1.5842,-2.23488 -2.405,-1.63472 -1.1004,0.80458 0.2961,4.02554 2.4289,5.6024 2.409,1.78106 6.0655,2.14429 8.7943,0.87363 z m -30.3884,-7.40015 c 0.4856,-0.74109 0.4856,-0.85891 0,-1.6 -0.89,-1.3584 -2.7494,-0.82051 -2.7494,0.79536 0,1.62342 1.8569,2.16685 2.7494,0.80464 z m 53.5706,0.16 c 0.7705,-0.77046 0.8113,-1.38298 0.1371,-2.05715 -1.5432,-1.54323 -3.6328,0.49277 -2.1675,2.11197 0.683,0.75465 1.2358,0.73974 2.0304,-0.0548 z m -57.024,-4.224 c 0.6826,-0.68256 0.4648,-2.1529 -0.3755,-2.53578 -1.0894,-0.49635 -2.1205,0.11978 -2.1205,1.26704 0,1.05543 0.5204,1.65274 1.44,1.65274 0.3696,0 0.8448,-0.1728 1.056,-0.384 z m 6.6011,-0.11885 c 0.7358,-0.73574 0.615,-1.64896 -0.2971,-2.24659 -0.7411,-0.48557 -0.8589,-0.48557 -1.6,0 -0.8622,0.56496 -0.9917,1.15334 -0.4688,2.13046 0.4009,0.74893 1.6708,0.81127 2.3659,0.11613 z m 46.9239,0.17159 c 0.7015,-0.37543 0.8435,-1.87626 0.235,-2.48474 -0.2112,-0.2112 -0.6864,-0.384 -1.056,-0.384 -0.9184,0 -1.44,0.59699 -1.44,1.6481 0,1.26716 1.0823,1.85145 2.261,1.22064 z m 6.8473,-0.29584 c 1.1273,-1.24564 -0.098,-2.93687 -1.7476,-2.41312 -0.9121,0.2895 -1.1736,1.63462 -0.469,2.41312 0.3121,0.34489 0.8108,0.6271 1.1083,0.6271 0.2974,0 0.7962,-0.28221 1.1083,-0.6271 z m -51.8654,-5.20644 c 2.9868,-0.89244 5.3558,-4.82944 4.8249,-8.01827 -1.1692,-7.02201 -9.8848,-8.68704 -13.0278,-2.48883 -2.0039,3.95171 -0.4851,8.49885 3.44,10.29942 1.5033,0.6896 2.9403,0.75226 4.7629,0.20768 z m 47.68,0 c 0.7588,-0.22672 1.8868,-0.96243 2.661,-1.73555 3.0719,-3.06729 2.9176,-8.04918 -0.3376,-10.90733 -1.4651,-1.2864 -3.0899,-1.78908 -5.2134,-1.61299 -5.7675,0.47831 -8.3129,8.30103 -4.0787,12.5352 1.9077,1.90775 4.336,2.5073 6.9687,1.72067 z m 32.6162,-26.64646 c 0,-1.056 0.062,-1.44941 0.1328,-0.87427 0.071,0.57517 0.07,1.43917 0,1.92 -0.073,0.48086 -0.1313,0.0102 -0.1295,-1.04573 z m -120.763296,-11.6 -0.7758,-0.88 0.88,0.77578 c 0.484,0.42668 0.88,0.82268 0.88,0.88 0,0.25097 -0.2591,0.0467 -0.9842,-0.77578 z m 120.303396,-14.08 c -0.3981,-0.50755 -0.3868,-0.51885 0.1208,-0.12083 0.533,0.41805 0.7025,0.68083 0.4392,0.68083 -0.066,0 -0.3185,-0.252 -0.56,-0.56 z m -1.28,-1.28 c -0.3981,-0.50755 -0.3868,-0.51885 0.1208,-0.12083 0.533,0.41805 0.7025,0.68083 0.4392,0.68083 -0.066,0 -0.3185,-0.252 -0.56,-0.56 z m -7.2348,-2.22963 c 0.4864,-0.0735 1.2064,-0.0716 1.6,0.004 0.3936,0.0759 0,0.13613 -0.8844,0.13373 -0.88,-0.003 -1.202,-0.0645 -0.7156,-0.13812 z m -103.184396,-1.90896 c 0.231,-0.0924 0.507,-0.0811 0.6133,0.0253 0.1064,0.10633 -0.083,0.18198 -0.42,0.16809 -0.3728,-0.0154 -0.4486,-0.0912 -0.1933,-0.19334 z m 3.2,0 c 0.231,-0.0924 0.507,-0.0811 0.6133,0.0253 0.1064,0.10633 -0.083,0.18198 -0.42,0.16809 -0.3728,-0.0154 -0.4486,-0.0912 -0.1933,-0.19334 z m -0.5547,-7.32807 c 0.015,-0.3728 0.091,-0.4486 0.1933,-0.19334 0.092,0.23101 0.081,0.50701 -0.025,0.61334 -0.1063,0.10634 -0.182,-0.0827 -0.1681,-0.42 z m 81.894696,-4.93334 c 0,-0.176 0.1525,-0.32 0.3389,-0.32 0.1864,0 0.2499,0.144 0.1411,0.32 -0.1088,0.176 -0.2613,0.32 -0.3389,0.32 -0.078,0 -0.1411,-0.144 -0.1411,-0.32 z m 0.4668,-0.98128 c -0.116,-0.18771 -0.1423,-0.40992 -0.058,-0.49382 0.084,-0.0839 0.2378,0.0697 0.342,0.34131 0.2164,0.56387 0.032,0.66304 -0.2836,0.15251 z m 2.0932,-2.37872 c 0.4133,-0.44 0.8235,-0.8 0.9115,-0.8 0.088,0 -0.1782,0.36 -0.5915,0.8 -0.4134,0.44 -0.8236,0.8 -0.9116,0.8 -0.088,0 0.1782,-0.36 0.5916,-0.8 z m 4.74,-2.61859 c 0.231,-0.0925 0.507,-0.0811 0.6133,0.0253 0.1064,0.10633 -0.083,0.18198 -0.42,0.16809 -0.3728,-0.0154 -0.4486,-0.0912 -0.1933,-0.19334 z m 1.92,0 c 0.231,-0.0925 0.507,-0.0811 0.6133,0.0253 0.1064,0.10633 -0.083,0.18198 -0.42,0.16809 -0.3728,-0.0154 -0.4486,-0.0912 -0.1933,-0.19334 z m -70.3808,-1.62141 c -0.3981,-0.50755 -0.3867,-0.51885 0.1208,-0.12083 0.533,0.41805 0.7025,0.68083 0.4392,0.68083 -0.066,0 -0.3185,-0.252 -0.56,-0.56 z m -8.979196,-2.21859 c 0.231,-0.0924 0.507,-0.0811 0.6133,0.0253 0.1064,0.10633 -0.083,0.18198 -0.42,0.16809 -0.3727,-0.0154 -0.4486,-0.0912 -0.1933,-0.19334 z m 4.159996,0 c 0.231,-0.0924 0.507,-0.0811 0.6133,0.0253 0.1064,0.10633 -0.083,0.18198 -0.42,0.16809 -0.3728,-0.0154 -0.4486,-0.0912 -0.1933,-0.19334 z m 50.62,-0.52154 c 0,-0.0551 0.468,-0.52307 1.04,-1.04 l 1.04,-0.93987 -0.9399,1.04 c -0.8761,0.96944 -1.1401,1.1871 -1.1401,0.93987 z m -17.92,-3.89987 c 0.4134,-0.44 0.8236,-0.8 0.9116,-0.8 0.088,0 -0.1783,0.36 -0.5916,0.8 -0.4134,0.44 -0.8236,0.8 -0.9116,0.8 -0.088,0 0.1782,-0.36 0.5916,-0.8 z m 13.7358,-0.08 -0.7758,-0.88 0.88,0.77578 c 0.484,0.42668 0.88,0.82268 0.88,0.88 0,0.25097 -0.2591,0.0467 -0.9842,-0.77578 z m -20.9662,-2.08 -0.6096,-0.72 0.72,0.6096 c 0.6766,0.57286 0.8657,0.8304 0.6096,0.8304 -0.061,0 -0.3847,-0.324 -0.72,-0.72 z"
       id="path849-0" />
    <path
       style="fill:#d08e60;stroke-width:0.32"
       d="m 134.77189,-181.04576 c 0.231,-0.0925 0.507,-0.0811 0.6133,0.0253 0.1064,0.10633 -0.083,0.18198 -0.42,0.16809 -0.3728,-0.0154 -0.4486,-0.0912 -0.1933,-0.19334 z m 3.2,0 c 0.231,-0.0925 0.507,-0.0811 0.6133,0.0253 0.1064,0.10633 -0.083,0.18198 -0.42,0.16809 -0.3728,-0.0154 -0.4486,-0.0912 -0.1933,-0.19334 z m 3.26,-1.18227 c 0,-0.0664 0.252,-0.31843 0.56,-0.56 0.5075,-0.39802 0.5188,-0.38672 0.1208,0.12083 -0.418,0.53302 -0.6808,0.70256 -0.6808,0.43917 z m -10.9208,-1.07914 c -0.3981,-0.50755 -0.3868,-0.51885 0.1208,-0.12083 0.308,0.24157 0.56,0.49357 0.56,0.56 0,0.26339 -0.2628,0.0938 -0.6808,-0.43917 z m 5.7245,0.0138 c 0.3981,-0.0765 0.9741,-0.0736 1.28,0.006 0.306,0.0801 -0.02,0.14272 -0.7237,0.13917 -0.704,-0.004 -0.9543,-0.0691 -0.5563,-0.14563 z m 4.7163,-1.6938 c 0.3185,-0.352 0.6512,-0.64 0.7392,-0.64 0.088,0 -0.1007,0.288 -0.4192,0.64 -0.3186,0.352 -0.6512,0.64 -0.7392,0.64 -0.088,0 0.1006,-0.288 0.4192,-0.64 z m -33.2304,-3.78518 c -0.744,-0.82212 -0.6591,-1.5552 0.2489,-2.15018 1.0788,-0.70682 2.1015,-0.15427 2.1015,1.13536 0,1.45242 -1.4053,2.05917 -2.3504,1.01482 z m 53.5674,-0.19431 c -0.6118,-0.73718 -0.1569,-2.05321 0.792,-2.29136 1.1065,-0.27773 1.806,0.38707 1.6873,1.60359 -0.082,0.84355 -0.24,1.00128 -1.0836,1.08361 -0.5979,0.0583 -1.1483,-0.0977 -1.3957,-0.39584 z m -56.737,-4.0461 c -1.1391,-0.66346 -0.4895,-2.53437 0.88,-2.53437 1.4057,0 2.02,1.90707 0.821,2.54874 -0.7562,0.40473 -0.9848,0.40281 -1.701,-0.0144 z m 6.3316,-0.28157 c -0.4918,-0.54342 -0.531,-0.79187 -0.2292,-1.45411 0.4943,-1.08499 2.1873,-1.13629 2.5975,-0.0787 0.6081,1.56794 -1.2489,2.76979 -2.3683,1.5328 z m 47.3601,1e-4 c -1.0756,-1.18848 0.068,-2.95213 1.546,-2.38487 0.8173,0.31363 1.014,1.65181 0.3506,2.38487 -0.3121,0.34489 -0.7389,0.6271 -0.9483,0.6271 -0.2095,0 -0.6362,-0.28221 -0.9483,-0.6271 z m 6.5483,-0.0129 c -0.352,-0.352 -0.64,-0.75197 -0.64,-0.8888 0,-0.58093 1.0438,-1.6712 1.6,-1.6712 0.5562,0 1.6,1.09027 1.6,1.6712 0,0.36022 -1.223,1.5288 -1.6,1.5288 -0.176,0 -0.608,-0.288 -0.96,-0.64 z m -65.193896,-85.02178 c 0.3113,-0.0811 0.743296,-0.0758 0.959996,0.0118 0.2166,0.0876 -0.038,0.15402 -0.566096,0.14752 -0.528,-0.006 -0.7053,-0.0782 -0.3939,-0.15939 z"
       id="path843-7" />
    <path
       style="fill:#dc8829;stroke-width:0.32"
       d="m 134.13449,-181.25597 c -2.4637,-0.69235 -4.6169,-2.67728 -5.428,-5.00374 -0.2552,-0.73216 -0.2423,-1.1008 0.051,-1.45415 0.7291,-0.87859 1.532,-0.54675 2.1707,0.89725 2.1324,4.82054 9.176,4.88211 11.1396,0.0974 0.6688,-1.62951 1.6033,-2.18362 2.2323,-1.32356 0.956,1.30746 -1.3474,4.888 -4.0225,6.25274 -1.6291,0.83107 -4.2694,1.06061 -6.1431,0.53408 z m 45.8002,-38.5312 -1.1028,-1.2 1.2,1.10278 c 0.66,0.60653 1.2,1.14653 1.2,1.2 0,0.24436 -0.2708,0.0141 -1.2972,-1.10278 z m -9.0028,-2.85859 c 0.231,-0.0924 0.507,-0.0811 0.6133,0.0253 0.1064,0.10633 -0.083,0.18198 -0.42,0.16809 -0.3728,-0.0154 -0.4486,-0.0912 -0.1933,-0.19334 z m 3.26,-1.18224 c 0,-0.0664 0.252,-0.31843 0.56,-0.56 0.5075,-0.39802 0.5188,-0.38672 0.1208,0.12083 -0.418,0.53302 -0.6808,0.70256 -0.6808,0.43917 z m -96.879296,-1.95917 c 0,-0.704 0.069,-0.95434 0.1456,-0.55626 0.076,0.39805 0.074,0.97405 -0.01,1.28 -0.08,0.30592 -0.1427,-0.0198 -0.1391,-0.72374 z m 99.169796,-0.48 c 0,-0.44 0.073,-0.62 0.1614,-0.4 0.089,0.22 0.089,0.58 0,0.8 -0.089,0.22 -0.1614,0.04 -0.1614,-0.4 z m -62.1905,0.10141 c 0.231,-0.0925 0.507,-0.0811 0.6133,0.0253 0.1064,0.10633 -0.083,0.18198 -0.42,0.16809 -0.3728,-0.0154 -0.4486,-0.0912 -0.1933,-0.19334 z m 35.8592,-7.06141 c -0.3981,-0.50755 -0.3868,-0.51885 0.1208,-0.12083 0.533,0.41805 0.7025,0.68083 0.4392,0.68083 -0.066,0 -0.3185,-0.252 -0.56,-0.56 z m -69.603196,-0.64877 c 0.1296,-0.20969 -0.1365,-0.4008 -0.6706,-0.4815 -0.8308,-0.12557 -0.8212,-0.1368 0.1546,-0.18179 1.0354,-0.0477 1.3742,0.34774 0.6705,0.78262 -0.2206,0.13635 -0.2828,0.0883 -0.1545,-0.11933 z m 109.923196,-1.27123 c -0.3981,-0.50755 -0.3868,-0.51885 0.1208,-0.12083 0.533,0.41805 0.7025,0.68083 0.4392,0.68083 -0.066,0 -0.3185,-0.252 -0.56,-0.56 z m -118.604996,-8.4 c 0,-0.616 0.066,-0.868 0.1464,-0.56 0.081,0.308 0.081,0.812 0,1.12 -0.08,0.308 -0.1464,0.056 -0.1464,-0.56 z m 125.096296,-0.64 c 0,-0.44 0.073,-0.62 0.1614,-0.4 0.089,0.22 0.089,0.58 0,0.8 -0.089,0.22 -0.1614,0.04 -0.1614,-0.4 z m -111.348096,-21.6 c 0.01,-0.528 0.078,-0.70525 0.1593,-0.39392 0.081,0.31136 0.076,0.74336 -0.012,0.96 -0.088,0.21667 -0.154,-0.0381 -0.1475,-0.56608 z m 74.417596,-17.33194 c 0.22,-0.0888 0.58,-0.0888 0.8,0 0.22,0.0888 0.04,0.16141 -0.4,0.16141 -0.44,0 -0.62,-0.0726 -0.4,-0.16141 z m -19.82,-2.24665 c 0.231,-0.0925 0.507,-0.0811 0.6133,0.0253 0.1064,0.10633 -0.083,0.18198 -0.42,0.16809 -0.3728,-0.0154 -0.4486,-0.0912 -0.1933,-0.19334 z m 1.6,0 c 0.231,-0.0925 0.507,-0.0811 0.6133,0.0253 0.1064,0.10633 -0.083,0.18198 -0.42,0.16809 -0.3728,-0.0154 -0.4486,-0.0912 -0.1933,-0.19334 z m -21.46,-2.23335 c 0.22,-0.0888 0.58,-0.0888 0.8,0 0.22,0.0888 0.04,0.16141 -0.4,0.16141 -0.44,0 -0.62,-0.0726 -0.4,-0.16141 z"
       id="path841-5" />
    <path
       style="fill:#ed7b15;stroke-width:0.32"
       d="m 84.338194,-216.36445 c -2.6423,-1.32035 -5.1146,-3.60586 -6.0322,-5.57622 -1.4784,-3.17485 -0.8605,-7.28061 1.6141,-10.72509 0.6334,-0.8816 1.1516,-1.67456 1.1516,-1.76215 0,-0.0876 -0.684,-0.1606 -1.52,-0.16227 -1.095,-0.003 -1.9816,-0.26774 -3.1711,-0.94992 -2.8353,-1.62617 -4.251,-4.28893 -4.2619,-8.01609 -0.01,-2.10004 0.1358,-2.70701 1.1063,-4.73207 1.3771,-2.87366 3.7337,-5.41494 6.1617,-6.64454 1.7461,-0.88429 2.0551,-0.93367 5.765,-0.92144 2.156,0.007 3.92,-0.0224 3.92,-0.0658 0,-0.0433 -0.3537,-0.59991 -0.786,-1.23693 -2.1949,-3.2344 -3.0897,-9.14253 -1.9203,-12.67933 1.7845,-5.3968 6.3424,-8.27088 13.1165,-8.27088 4.585796,0 6.578896,1.16518 8.962196,5.23933 0.677,1.15725 1.2625,2.07181 1.3011,2.03238 0.039,-0.0394 -0.1455,-0.91705 -0.4091,-1.95024 -0.9229,-3.61779 0.4887,-7.89136 3.6446,-11.03366 2.6269,-2.61571 4.396,-3.40781 7.611,-3.40781 3.036,0 4.3134,0.52394 6.4245,2.63501 1.694,1.69401 2.7904,3.49347 3.9596,6.49859 l 0.864,2.22064 0.3616,-1.94458 c 0.871,-4.68313 4.0696,-7.34476 8.8747,-7.3847 1.0584,-0.009 2.5054,0.15811 3.2155,0.37088 3.1505,0.9439 5.7259,4.03891 6.1184,7.35267 0.1049,0.88631 0.2858,1.61149 0.402,1.61149 0.1161,0 0.4008,-0.52454 0.6326,-1.16563 1.0098,-2.79245 5.655,-5.87363 8.856,-5.87411 2.0551,-3.2e-4 5.059,1.43532 6.6212,3.16451 1.7611,1.94931 2.0307,3.71401 1.2173,7.96585 -0.3671,1.9186 -0.6674,3.61789 -0.6674,3.7762 0,0.1583 0.5963,-0.62474 1.3251,-1.74013 2.1864,-3.34631 4.6757,-4.73882 7.9416,-4.44269 2.9877,0.27091 7.1398,2.74704 8.6185,5.13978 1.7649,2.85555 1.5358,6.25862 -0.7871,11.69513 -0.78,1.82541 -1.4181,3.43383 -1.4181,3.57421 0,0.14042 0.54,0.10614 1.2,-0.0761 1.9211,-0.53053 5.2455,-0.14637 7.2594,0.83891 6.6653,3.26106 7.2095,13.40045 0.8615,16.05316 -0.5935,0.24803 -1.4215,0.45094 -1.84,0.45094 -0.4185,0 -0.7609,0.12042 -0.7609,0.26755 0,0.14717 0.6925,1.1305 1.539,2.18519 3.6137,4.50275 4.5144,9.31193 2.5483,13.6064 -1.6319,3.56454 -3.683,4.99158 -6.6664,4.63824 -4.4829,-0.53092 -10.4964,-6.29418 -10.5597,-10.1202 -0.017,-1.01036 -0.061,-1.06921 -0.4,-0.5278 -0.2097,0.33516 -0.7986,1.09852 -1.3087,1.69635 -3.3119,3.88125 -8.1437,2.1304 -11.0123,-3.99037 -0.7539,-1.60851 -0.8602,-2.23085 -0.8602,-5.03536 v -3.20002 l -1.6217,1.92 c -3.0701,3.63494 -5.6145,4.68419 -8.5968,3.54522 -2.4046,-0.91831 -4.8715,-4.15844 -5.9747,-7.8472 l -0.4253,-1.42199 -0.4122,2.06199 c -0.9037,4.51952 -3.5309,8.01305 -6.8568,9.11776 -3.7569,1.2478 -8.8136,-1.28256 -11.1095,-5.55911 l -0.9144,-1.70333 -0.2072,1.5624 c -0.4373,3.29616 -3.4214,6.64781 -7.2414,8.13319 -2.4725,0.96137 -6.7417,1.16787 -8.9539,0.43312 -2.9063,-0.96535 -4.4806,-2.77258 -5.1552,-5.91811 l -0.3491,-1.62804 -1.9777,3.93207 c -6.227696,12.38201 -12.705496,17.14893 -19.017596,13.99475 z"
       id="path839-9" />
    <path
       style="fill:#3a53b6;stroke-width:0.32"
       d="m 110.69009,-198.49155 c -1.801,-0.49895 -4.0954,-2.88586 -4.6384,-4.82538 -2.2413,-8.00515 7.8424,-13.10467 12.3736,-6.25757 0.7064,1.06743 0.9009,1.77418 0.9901,3.59728 0.098,2.00125 0,2.47587 -0.8106,4.02394 -1.5391,2.93158 -4.7536,4.33753 -7.9147,3.46173 z m 47.7347,-0.025 c -1.8125,-0.58855 -3.41,-2.03949 -4.2634,-3.8722 -1.3316,-2.85993 -0.8964,-5.78224 1.1998,-8.05638 3.1682,-3.43706 8.1629,-3.02995 10.7478,0.876 0.7342,1.10944 0.8985,1.74163 0.9769,3.75728 0.086,2.2095 0.01,2.57037 -0.8781,4.08883 -1.6236,2.78071 -4.9164,4.13728 -7.783,3.20647 z"
       id="path835-8" />
  </g>
</svg>
