<?xml version="1.0" encoding="UTF-8" standalone="no"?>
<!-- Created with Inkscape (http://www.inkscape.org/) -->

<svg
   version="1.1"
   id="svg2"
   width="118.53719"
   height="127.21613"
   viewBox="0 0 118.53719 127.21613"
   sodipodi:docname="4.svg"
   inkscape:version="1.1 (c4e8f9ed74, 2021-05-24)"
   xmlns:inkscape="http://www.inkscape.org/namespaces/inkscape"
   xmlns:sodipodi="http://sodipodi.sourceforge.net/DTD/sodipodi-0.dtd"
   xmlns="http://www.w3.org/2000/svg"
   xmlns:svg="http://www.w3.org/2000/svg">
  <sodipodi:namedview
     id="namedview64"
     pagecolor="#ffffff"
     bordercolor="#666666"
     borderopacity="1.0"
     inkscape:pageshadow="2"
     inkscape:pageopacity="0.0"
     inkscape:pagecheckerboard="0"
     showgrid="false"
     inkscape:zoom="0.38385417"
     inkscape:cx="-174.54545"
     inkscape:cy="689.06377"
     inkscape:window-width="1920"
     inkscape:window-height="1080"
     inkscape:window-x="1920"
     inkscape:window-y="0"
     inkscape:window-maximized="1"
     inkscape:current-layer="svg2"
     fit-margin-top="0"
     fit-margin-left="0"
     fit-margin-right="0"
     fit-margin-bottom="0" />
  <defs
     id="defs6">
    <clipPath
       clipPathUnits="userSpaceOnUse"
       id="clipPath2748">
      <rect
         style="fill:none;stroke:#fd0000;stroke-width:6.29354;stroke-linecap:round;stroke-opacity:1"
         id="rect2750"
         width="181.78069"
         height="160.40302"
         x="319.67203"
         y="-1.6533943" />
    </clipPath>
    <clipPath
       clipPathUnits="userSpaceOnUse"
       id="clipPath2829">
      <rect
         style="fill:none;stroke:#fd0000;stroke-width:5.85576;stroke-linecap:round;stroke-opacity:1"
         id="rect2831"
         width="172.34521"
         height="169.41031"
         x="166.89822"
         y="149.70647" />
    </clipPath>
    <clipPath
       clipPathUnits="userSpaceOnUse"
       id="clipPath4462">
      <rect
         style="fill:none;fill-opacity:1;stroke:#fd0000;stroke-width:6;stroke-linecap:round;stroke-opacity:1"
         id="rect4464"
         width="154.82426"
         height="154.94003"
         x="163.68083"
         y="328.92615" />
    </clipPath>
    <clipPath
       clipPathUnits="userSpaceOnUse"
       id="clipPath5140">
      <rect
         style="fill:none;stroke:#fd0000;stroke-width:6;stroke-linecap:round;stroke-opacity:1"
         id="rect5142"
         width="143.4304"
         height="153.41002"
         x="492.91498"
         y="328.1218" />
    </clipPath>
    <clipPath
       clipPathUnits="userSpaceOnUse"
       id="clipPath6275">
      <rect
         style="fill:none;fill-opacity:1;stroke:#fd0000;stroke-width:6;stroke-linecap:round;stroke-opacity:1"
         id="rect6277"
         width="135.50941"
         height="155.53391"
         x="337.29059"
         y="492.97705" />
    </clipPath>
  </defs>
  <path
     style="fill:#fad4ad;stroke-width:0.32"
     d="m 54.250948,127.00388 c -13.5715,-1.7145 -25.8393,-8.74528 -34.1304,-19.56048 l -1.8689,-2.43773 -1.7034,-0.0154 c -2.2038,-0.0198 -4.5296,-0.92013 -7.0820003,-2.74147 -4.0508,-2.890619 -6.5202,-6.546879 -6.8456,-10.135899 -0.2069,-2.28093 0.3011,-3.86832 1.7514,-5.47364 1.019,-1.12793 2.0041,-1.61404 2.0041,-0.98892 0,0.13708 0.8879,1.61308 1.9731,3.28 l 1.9731003,3.03075 0.5756,-2.88 c 1.1814,-5.91091 3.6425,-11.54608 7.2545,-16.61072 1.7245,-2.41799 10.571,-11.86861 10.8494,-11.59021 0.2463,0.24627 -0.879,4.0217 -1.969,6.60637 -1.3048,3.09363 -3.4174,6.54729 -5.4702,8.94262 -0.8894,1.03783 -1.3422,1.80003 -1.1144,1.876 0.7401,0.24666 6.5901,-0.6576 9.2605,-1.43145 2.8579,-0.8282 6.2711,-2.41149 8.4625,-3.92557 4.498,-3.10768 15.29,-13.26592 20.9365,-19.70704 1.8515,-2.112 3.4354,-3.912 3.5198,-4 0.3123,-0.32551 -0.3112,2.34601 -1.1051,4.73533 -1.0771,3.2416 -3.2388,7.39388 -5.2149,10.01724 -2.3969,3.18199 -7.2271,7.62128 -11.1083,10.20932 -1.9047,1.27011 -3.5351,2.38528 -3.6231,2.47814 -0.2977,0.31405 9.0974,-0.23786 12.3082,-0.72307 12.1851,-1.84138 18.8272,-6.66227 24.3644,-17.68397 l 1.6513,-3.28701 0.2168,2.16701 c 1.0199,10.19389 7.0786,17.55853 16.4079,19.94454 1.3385,0.34237 3.1829,0.62247 4.098502,0.62247 h 1.6649 l -0.593,-2.48 c -0.8976,-3.75357 -1.3594,-8.82397 -1.0939,-12.01063 l 0.2332,-2.79996 2.1747,4.24528 c 1.196,2.33491 3.4579,6.53571 5.0264,9.3351 l 2.8517,5.08976 -0.3986,2.43024 c -0.5539,3.37712 -0.5876,3.23021 0.7394,3.23021 1.7116,0 3.7635,1.33197 4.8196,3.12851 2.2745,3.86931 0.1347,9.69619 -5.0163,13.659779 -2.6674,2.05254 -5.7118,3.42374 -7.734,3.48348 l -1.6318,0.0482 -2.005102,2.56 c -7.6316,9.74365 -18.1378,16.24237 -30.2828,18.73181 -3.7488,0.76838 -11.4844,1.09104 -15.1267,0.63091 z m 9.2452,-13.24538 c 1.947,-0.92048 3.1131,-2.11654 3.9844,-4.08707 0.7177,-1.62304 0.6196,-2.37699 -0.3493,-2.68454 -0.7359,-0.23354 -1.446,0.27389 -1.7399,1.24317 -0.8416,2.7759 -4.0617,4.48332 -6.9756,3.69868 -1.8926,-0.50963 -3.0217,-1.43216 -3.8234,-3.12384 -0.7577,-1.59891 -1.7159,-2.05577 -2.4518,-1.16902 -0.5757,0.69357 -0.01,2.51808 1.266,4.05642 2.269,2.74352 6.7261,3.65628 10.0896,2.0662 z m -24.1875,-16.503319 c 4.3224,-2.20509 5.2323,-8.25888 1.7635,-11.73284 -5.569,-5.5774 -14.2696,1.13239 -10.8873,8.39626 0.7507,1.61226 2.1693,2.98733 3.7209,3.60653 1.3651,0.54486 4.0707,0.40966 5.4029,-0.26995 z m 47.0493,-0.005 c 4.7446,-2.42052 5.1464,-9.572 0.7106,-12.6473 -1.234,-0.85555 -1.647,-0.96198 -3.7324,-0.96198 -2.0915,0 -2.4933,0.10432 -3.7186,0.96547 -4.5562,3.20224 -3.9757,10.60669 1.0009,12.76477 1.6042,0.69571 4.2479,0.64 5.7395,-0.12096 z M 0.00134767,65.694501 c 0.015,-0.3728 0.091,-0.4486 0.1934,-0.19334 0.092,0.23101 0.081,0.50701 -0.025,0.61334 -0.1064,0.10634 -0.182,-0.0827 -0.1681,-0.42 z M 15.976148,23.481161 c 0.597,-0.616 1.1575,-1.12 1.2455,-1.12 0.088,0 -0.3285,0.504 -0.9255,1.12 -0.5971,0.616 -1.1576,1.12 -1.2456,1.12 -0.088,0 0.3285,-0.504 0.9256,-1.12 z m 85.719102,-0.08 c -0.398,-0.50755 -0.3867,-0.51885 0.1209,-0.12083 0.308,0.24157 0.56,0.49357 0.56,0.56 0,0.26339 -0.2628,0.0938 -0.6809,-0.43917 z M 85.416148,10.720331 c 0,-0.0664 0.252,-0.31843 0.56,-0.56 0.5075,-0.3980195 0.5188,-0.3867195 0.1208,0.12083 -0.418,0.53302 -0.6808,0.70256 -0.6808,0.43917 z m -9.76,-1.1591695 c 0.3185,-0.352 0.6512,-0.64 0.7392,-0.64 0.088,0 -0.1007,0.288 -0.4192,0.64 -0.3186,0.352 -0.6512,0.6399995 -0.7392,0.6399995 -0.088,0 0.1006,-0.2879995 0.4192,-0.6399995 z m -30.94,0.10141 c 0.231,-0.0924 0.507,-0.0811 0.6133,0.0253 0.1064,0.10633 -0.083,0.18198 -0.42,0.16809 -0.3728,-0.0154 -0.4486,-0.0912 -0.1933,-0.19334 z m 14.08,0 c 0.231,-0.0924 0.507,-0.0811 0.6133,0.0253 0.1064,0.10633 -0.083,0.18198 -0.42,0.16809 -0.3728,-0.0154 -0.4486,-0.0912 -0.1933,-0.19334 z m -10.58,-0.31335 c 0.22,-0.0888 0.58,-0.0888 0.8,0 0.22,0.0888 0.04,0.16141 -0.4,0.16141 -0.44,0 -0.62,-0.0726 -0.4,-0.16141 z m 6.5661,-0.01 c 0.3113,-0.0811 0.7433,-0.0758 0.96,0.0118 0.2166,0.0876 -0.038,0.15402 -0.5661,0.14752 -0.528,-0.006 -0.7053,-0.0782 -0.3939,-0.15939 z m 15.0835,-5.61806 -0.6096,-0.72 0.72,0.6096 c 0.6766,0.57286 0.8656,0.8304 0.6096,0.8304 -0.061,0 -0.3848,-0.324 -0.72,-0.72 z m -9.1496,-3.65859002 c 0.231,-0.0925 0.507,-0.0811 0.6133,0.0253 0.1064,0.10633 -0.083,0.18198 -0.42,0.16809 -0.3728,-0.0154 -0.4486,-0.0912 -0.1933,-0.19334 z"
     id="path849-2" />
  <path
     style="fill:#dc8829;stroke-width:0.32"
     d="m 57.574248,114.24135 c -2.3727,-0.77849 -4.4365,-2.61715 -5.3253,-4.74422 -0.8551,-2.04643 0.7037,-3.24141 1.7423,-1.33565 1.6054,2.94605 3.6796,4.27069 6.3417,4.04995 2.3277,-0.19305 4.0313,-1.36998 4.9817,-3.44169 0.5723,-1.24749 0.9022,-1.60858 1.4698,-1.60858 1.0157,0 1.2008,0.74538 0.5854,2.3568 -0.6304,1.65075 -2.0978,3.21894 -3.8472,4.11139 -1.3965,0.71245 -4.6288,1.04499 -5.9484,0.612 z"
     id="path841-9" />
  <path
     style="fill:#03a1cd;stroke-width:0.32"
     d="m 33.256148,97.167691 c -5.108,-2.70711 -4.998,-10.37715 0.1852,-12.91303 3.4643,-1.69494 7.0075,-0.48128 8.8409,3.02836 1.7229,3.29801 0.7576,7.38854 -2.2327,9.46124 -1.9265,1.3354 -4.7416,1.51085 -6.7934,0.42343 z m 47.04,0 c -5.0361,-2.66903 -5.0206,-10.3249 0.026,-12.83971 2.214,-1.1033 3.8512,-1.0944 6.0751,0.033 3.5165,1.78278 4.8233,6.05293 2.9617,9.67802 -1.2589,2.45136 -2.9938,3.61395 -5.6294,3.77216 -1.6342,0.0981 -2.2529,-0.0179 -3.4334,-0.64349 z"
     id="path837-7" />
  <path
     style="fill:#692308;stroke-width:0.32"
     d="M 8.6325477,89.069171 C 1.7061477,78.101971 -0.98885233,66.176821 0.93334767,55.000821 4.5450477,34.001651 16.947348,18.250801 34.536148,12.325401 c 6.2775,-2.11482 9.4842,-2.5903695 17.44,-2.5864395 5.9486,0.003 7.6295,0.11504 10.8429,0.7230795 2.0917,0.39574 3.851,0.67155 3.9096,0.61289 0.2326,-0.23251 -2.1446,-4.5273295 -3.2576,-5.8856595 -0.6508,-0.79418 -2.2547,-2.18749 -3.5642,-3.09619 l -2.3809,-1.65226002 1.7023,-0.0994 c 2.2681,-0.13245 5.5001,0.44941 7.4679,1.34438002 2.092,0.95152 4.4714,3.41888 6.362,6.59719 0.8369,1.40681 1.5893,2.5578195 1.6721,2.5578195 0.083,0 0.757,-0.58291 1.4982,-1.2953295 3.0526,-2.93411 7.4834,-3.89507 12.4487,-2.69993 1.2864,0.30966 2.4673,0.63632 2.6242,0.72595 0.1569,0.0896 -0.5203,0.41219 -1.5047,0.7168 -2.6817,0.82969 -4.5134,2.0410895 -5.6258,3.7205395 -0.5471,0.82592 -0.9947,1.66515 -0.9947,1.86496 0,0.19981 1.0071,0.60499 2.238,0.90042 11.4336,2.74403 22.106202,12.11609 28.620202,25.13251 2.6976,5.39046 3.8167,9.18589 4.3361,14.70566 0.5324,5.65821 -0.2251,12.86797 -2.0581,19.58842 -0.663,2.43075 -2.8601,8.64061 -3.0559,8.63722 -0.2164,-0.004 -10.3159,-18.54938 -11.3883,-20.91223 -0.6093,-1.34253 -0.9293,-1.75145 -1.1266,-1.44 -0.5595,0.88311 -0.3183,9.35223 0.3676,12.90666 0.3592,1.86128 0.7359,3.59981 0.837,3.86339 0.1555,0.40499 -0.1069,0.4489 -1.693,0.28336 -11.423202,-1.19216 -19.092102,-9.25174 -19.923502,-20.9384 l -0.1935,-2.72 -1.6729,3.46634 c -5.4364,11.26425 -11.89,16.22454 -23.7671,18.26774 -3.0668,0.52758 -12.16,1.0823 -12.16,0.74182 0,-0.10102 0.54,-0.50944 1.2,-0.90758 4.7527,-2.86704 11.0613,-8.6904 13.6873,-12.63469 2.6126,-3.92409 4.7979,-9.19715 5.5589,-13.41363 0.2806,-1.55437 0.2738,-1.57725 -0.2387,-0.80202 -2.0605,3.1169 -12.3646,13.76132 -18.4475,19.0569 -8.6707,7.54832 -12.758,9.4297 -22.8145,10.5016 l -1.3745,0.1465 1.2308,-1.3352 c 1.8779,-2.03728 3.8518,-5.09949 5.3687,-8.32855 1.3763,-2.9296 2.9164,-7.77894 2.5781,-8.11728 -0.2522,-0.25219 -6.5474,5.97395 -8.9765,8.87805 -5.098,6.09475 -8.8426,13.81162 -9.6479,19.88234 -0.1147,0.8646 -0.3204,1.64118 -0.4572,1.72566 -0.1367,0.0845 -0.8435003,-0.78832 -1.5706003,-1.93965 z"
     id="path831-0" />
</svg>
