<?xml version="1.0" encoding="UTF-8" standalone="no"?>
<!-- Created with Inkscape (http://www.inkscape.org/) -->

<svg
   version="1.1"
   id="svg2"
   width="118.53719"
   height="127.21613"
   viewBox="0 0 118.53719 127.21613"
   sodipodi:docname="4.svg"
   inkscape:version="1.1 (c4e8f9ed74, 2021-05-24)"
   xmlns:inkscape="http://www.inkscape.org/namespaces/inkscape"
   xmlns:sodipodi="http://sodipodi.sourceforge.net/DTD/sodipodi-0.dtd"
   xmlns="http://www.w3.org/2000/svg"
   xmlns:svg="http://www.w3.org/2000/svg">
  <sodipodi:namedview
     id="namedview64"
     pagecolor="#ffffff"
     bordercolor="#666666"
     borderopacity="1.0"
     inkscape:pageshadow="2"
     inkscape:pageopacity="0.0"
     inkscape:pagecheckerboard="0"
     showgrid="false"
     inkscape:zoom="8.6856284"
     inkscape:cx="59.523615"
     inkscape:cy="96.308519"
     inkscape:window-width="1920"
     inkscape:window-height="1080"
     inkscape:window-x="1920"
     inkscape:window-y="0"
     inkscape:window-maximized="1"
     inkscape:current-layer="svg2"
     fit-margin-top="0"
     fit-margin-left="0"
     fit-margin-right="0"
     fit-margin-bottom="0" />
  <defs
     id="defs6">
    <clipPath
       clipPathUnits="userSpaceOnUse"
       id="clipPath2748">
      <rect
         style="fill:none;stroke:#fd0000;stroke-width:6.29354;stroke-linecap:round;stroke-opacity:1"
         id="rect2750"
         width="181.78069"
         height="160.40302"
         x="319.67203"
         y="-1.6533943" />
    </clipPath>
    <clipPath
       clipPathUnits="userSpaceOnUse"
       id="clipPath2829">
      <rect
         style="fill:none;stroke:#fd0000;stroke-width:5.85576;stroke-linecap:round;stroke-opacity:1"
         id="rect2831"
         width="172.34521"
         height="169.41031"
         x="166.89822"
         y="149.70647" />
    </clipPath>
    <clipPath
       clipPathUnits="userSpaceOnUse"
       id="clipPath4462">
      <rect
         style="fill:none;fill-opacity:1;stroke:#fd0000;stroke-width:6;stroke-linecap:round;stroke-opacity:1"
         id="rect4464"
         width="154.82426"
         height="154.94003"
         x="163.68083"
         y="328.92615" />
    </clipPath>
    <clipPath
       clipPathUnits="userSpaceOnUse"
       id="clipPath5140">
      <rect
         style="fill:none;stroke:#fd0000;stroke-width:6;stroke-linecap:round;stroke-opacity:1"
         id="rect5142"
         width="143.4304"
         height="153.41002"
         x="492.91498"
         y="328.1218" />
    </clipPath>
    <clipPath
       clipPathUnits="userSpaceOnUse"
       id="clipPath6275">
      <rect
         style="fill:none;fill-opacity:1;stroke:#fd0000;stroke-width:6;stroke-linecap:round;stroke-opacity:1"
         id="rect6277"
         width="135.50941"
         height="155.53391"
         x="337.29059"
         y="492.97705" />
    </clipPath>
  </defs>
  <path
     id="path849-2"
     style="fill:#fad4ad;stroke-width:0.32"
     d="m 62.583984,49.037109 c -2.440424,2.639633 -4.737907,5.441052 -7.261718,8.009766 -4.970736,5.085921 -10.09455,10.04861 -15.634165,14.516978 -3.251667,2.610808 -7.142101,4.372139 -11.164663,5.410756 -2.597001,0.54697 -5.205816,1.092653 -7.853516,1.164063 -0.0058,-0.37019 0.491007,-0.843948 0.738281,-1.210938 3.792108,-4.455085 6.524843,-9.832718 7.796875,-15.544922 0.124418,-0.352617 -0.0398,-0.967561 -0.476562,-0.601562 -2.399091,2.092725 -4.499536,4.51008 -6.674231,6.828314 -2.152326,2.357451 -4.301681,4.747798 -5.900513,7.530778 -2.914331,4.754669 -4.84118,10.078136 -5.784566,15.569509 -0.02337,1.111201 -0.3981687,0.392017 -0.7466892,-0.190308 -1.0303258,-1.627614 -2.1589711,-3.204519 -3.048298,-4.914074 -0.085671,-0.72489 -0.98443,-0.355926 -1.3219102,-0.03924 -1.8368817,1.3636 -3.0465293,3.610701 -2.8685961,5.928581 0.1296,4.067481 2.7673862,7.577212 5.8242734,10.04323 2.5495201,2.06236 5.6520821,3.83048 9.0388561,3.65823 0.672239,-0.13522 1.158908,0.10132 1.453413,0.72281 3.289875,4.50141 7.186617,8.58441 11.720148,11.84973 7.328981,5.34165 16.103431,8.72724 25.142782,9.55507 4.371541,0.21463 8.775226,0.0273 13.104784,-0.6149 10.658474,-1.96395 20.652439,-7.39044 28.043341,-15.32553 1.82391,-1.91575 3.42463,-4.0245 5.05627,-6.10415 1.65125,0.042 3.31419,-0.1864 4.8243,-0.88128 4.29598,-1.87878 8.2241,-5.179755 9.92179,-9.649971 1.00066,-2.583847 0.92163,-5.805613 -1.00976,-7.949219 -1.20635,-1.389438 -2.99275,-2.381533 -4.87305,-2.246094 -0.5547,-0.105288 -0.20722,-0.878583 -0.21843,-1.27006 0.18501,-1.426028 0.52715,-2.869303 0.64812,-4.278768 -3.60005,-6.350401 -7.09155,-12.761077 -10.36719,-19.289062 -0.27311,2.903792 -0.52915,5.826142 -0.22373,8.739364 0.217,3.067114 0.79527,6.093504 1.56553,9.067276 -4.189209,0.115662 -8.302497,-1.144222 -11.849159,-3.338182 -4.657374,-2.893485 -7.915554,-7.789893 -9.186177,-13.104449 -0.584309,-2.222621 -0.732475,-4.506706 -0.968574,-6.797603 -2.162446,4.353086 -4.303784,8.85099 -7.580078,12.472656 -3.233947,3.708639 -7.654475,6.292322 -12.322266,7.640625 -5.320418,1.616111 -10.908694,1.898546 -16.446062,2.150987 -0.537219,0.01709 -1.075064,0.04152 -1.612532,0.02089 2.881068,-1.946468 5.799666,-3.854038 8.375042,-6.202475 3.161407,-2.789899 6.170162,-5.863072 8.190258,-9.605584 1.998192,-3.523189 3.587006,-7.332842 4.269063,-11.338621 0.03724,-0.180222 -0.09731,-0.600623 -0.320691,-0.382617 z M 0.01367188,65.167969 c -0.30101859,0.222634 -0.34141592,1.039658 0.08203124,1.171875 0.56165185,9.5e-4 0.41996056,-1.290656 -0.08203124,-1.171875 z M 36.535156,83.658203 c 3.276199,0.09768 6.046943,2.946276 6.402344,6.119141 0.450067,3.102846 -1.359953,6.530864 -4.351746,7.547918 -1.945455,0.519827 -4.289941,0.585527 -5.96466,-0.751043 -2.950886,-2.10719 -3.946948,-6.569069 -1.922938,-9.6352 1.225739,-1.982214 3.480929,-3.337246 5.837,-3.280816 z m 46.800782,0.181641 c 1.267985,-0.04877 2.615347,0.07252 3.621093,0.929687 3.328795,2.232691 3.971321,7.320958 1.538965,10.437427 -1.162129,1.595686 -3.105403,2.51852 -5.074512,2.451245 -1.686548,0.04711 -3.299922,-0.471164 -4.557385,-1.684553 -2.995326,-2.821534 -2.80733,-8.166025 0.327863,-10.777362 0.937183,-0.860689 2.144556,-1.443163 3.442804,-1.350585 0.233724,-0.0019 0.467447,-0.0039 0.701172,-0.0059 z M 66.746094,107.13086 c 0.714529,-0.0561 1.219295,0.67266 0.94759,1.3282 -0.588329,2.26787 -2.192198,4.26514 -4.380546,5.16213 -3.674272,1.66802 -8.668981,0.37212 -10.598263,-3.30329 -0.362818,-0.76173 -0.968383,-1.9008 -0.300813,-2.68509 0.67295,-0.65522 1.467814,0.22081 1.766632,0.82303 0.636856,1.46183 1.71577,2.81905 3.269895,3.36174 2.83969,1.28882 6.574382,-0.005 7.875568,-2.86929 0.305518,-0.69468 0.485253,-1.74706 1.419937,-1.81743 z"
     sodipodi:nodetypes="scccccccccccccccccccccccccccccccccccccccccssccccccccccccccccccccccccccc" />
  <path
     id="path841-9"
     style="fill:#dc8829;stroke-width:0.32"
     d="m 66.767578,106.96289 c -1.124045,0.0625 -1.389572,1.39209 -1.869871,2.18451 -1.588749,3.14592 -6.339328,3.87395 -8.84148,1.42454 -1.027994,-0.84964 -1.555156,-2.09913 -2.341383,-3.13444 -0.472568,-0.62903 -1.56049,-0.54367 -1.787688,0.25551 -0.439827,1.39873 0.515349,2.75633 1.322844,3.82066 1.296881,1.51862 3.076558,2.76886 5.079691,3.07628 1.843239,0.11134 3.78749,-0.0582 5.463761,-0.87977 2.092718,-1.15404 3.878994,-3.21274 4.128423,-5.65549 0.0535,-0.68231 -0.492015,-1.1455 -1.154297,-1.0918 z" />
  <path
     id="path837-7"
     style="fill:#03a1cd;stroke-width:0.32"
     d="m 36.341797,83.302734 c -3.178324,0.08662 -6.143928,2.458832 -6.82533,5.585256 -0.828603,3.163527 0.590014,6.836 3.523196,8.386413 2.899469,1.617361 6.909293,0.726853 8.815039,-2.006397 2.043305,-2.688055 1.922887,-6.692969 -0.178921,-9.312928 -1.228505,-1.663368 -3.24406,-2.748741 -5.333984,-2.652344 z m 46.646484,0.01758 c -2.877972,0.257355 -5.572874,2.314968 -6.333688,5.146978 -1.05029,3.334365 0.44455,7.364681 3.641713,8.923468 1.607034,0.92914 3.587259,0.733431 5.315022,0.298695 2.671123,-0.8075 4.363503,-3.512079 4.735653,-6.167748 0.438886,-3.044647 -1.298971,-6.244806 -4.132458,-7.471136 -1.00015,-0.484811 -2.105074,-0.80953 -3.226242,-0.730257 z" />
  <path
     id="path831-0"
     style="fill:#692308;stroke-width:0.32"
     d="m 59.220703,0.14257812 c -0.76173,0.0438448 -1.523384,0.0894963 -2.285156,0.1328125 C 59.329939,1.9995843 62.008358,3.511196 63.777344,5.9375 64.783071,7.4854097 65.798908,9.1319182 66.509766,10.869141 63.302042,10.43014 60.136869,9.6086237 56.879808,9.6008649 52.086016,9.5312477 47.257116,9.3799096 42.496999,10.057065 38.354479,10.721898 34.337659,12.04346 30.486328,13.68451 21.340981,17.684765 13.69293,24.769591 8.5962941,33.319463 4.2123726,40.608387 1.5138407,48.866242 0.40641477,57.282845 c -1.18852898,10.18451 1.51737503,20.55264 6.55997793,29.38576 0.925119,1.523508 1.7309099,3.179756 2.9964198,4.453895 0.4935385,0.331598 0.6371945,-0.487829 0.7162465,-0.833159 0.384495,-2.515461 0.938921,-5.015283 1.883307,-7.386978 2.356671,-6.139899 6.079555,-11.767627 10.699943,-16.443524 1.902195,-1.935794 3.771887,-3.9408 5.866597,-5.63462 -0.499602,2.714714 -1.536583,5.309326 -2.64948,7.826122 -1.663343,3.52391 -3.833462,6.822349 -6.586393,9.592991 -0.731678,0.598618 0.678518,0.121495 1.031372,0.175827 4.940255,-0.499183 9.996499,-1.307038 14.36285,-3.814463 4.332176,-2.462785 8.074818,-5.813951 11.745418,-9.151591 5.004104,-4.713017 9.879999,-9.585954 14.367441,-14.79909 0.524684,-0.618555 1.029536,-1.253614 1.492464,-1.91964 -0.856205,4.986461 -2.904075,9.732641 -5.636719,13.972656 -2.731683,3.861148 -6.261967,7.089254 -9.950763,10.01747 -1.480742,1.210583 -3.144681,2.162735 -4.698975,3.262911 -0.356569,0.167848 -0.349162,0.670517 0.110439,0.633151 3.03815,0.106167 6.078888,-0.202862 9.105213,-0.450949 4.945957,-0.482447 9.900537,-1.686045 14.279789,-4.089536 4.9582,-2.705979 8.637325,-7.241716 11.266275,-12.159305 0.945017,-1.722494 1.759443,-3.513177 2.622397,-5.278195 0.163344,3.892252 0.818251,7.830492 2.594256,11.334656 2.431028,5.047924 7.023358,8.943345 12.351596,10.638737 2.212064,0.698434 4.527441,1.187483 6.852974,1.192623 0.71772,-0.121414 0.20984,-0.915103 0.16051,-1.351231 -0.64835,-2.730259 -1.07246,-5.470925 -1.19252,-8.272496 -0.0849,-2.465198 -0.29069,-4.96247 0.0867,-7.411429 0.18576,-0.33636 0.47524,0.559511 0.6194,0.776144 2.76886,5.560978 5.80713,10.9855 8.78317,16.439144 0.97907,1.683231 1.82655,3.457858 2.9311,5.059163 0.34577,0.114254 0.48904,-0.676486 0.65481,-0.957247 1.82895,-4.700459 3.36197,-9.53958 4.12069,-14.53738 1.25443,-7.647162 1.18025,-15.727265 -1.63651,-23.033731 C 112.50408,34.942599 106.22049,26.173619 97.725338,20.221378 93.801113,17.468142 89.365822,15.452661 84.692993,14.369731 84.250948,14.22323 83.76149,14.102895 83.390625,13.824219 84.246784,11.762074 85.850675,10.107735 87.890794,9.2301253 89.016148,8.6300533 90.350087,8.4892719 91.425781,7.8046875 91.792765,7.3097731 90.876778,7.2598422 90.580265,7.1324553 87.246949,6.1259893 83.578262,5.6714435 80.227914,6.8659367 78.267174,7.5060724 76.631749,8.8064825 75.184273,10.236024 74.82283,10.819771 74.556394,10.401907 74.345703,9.9824219 72.635959,7.152134 70.853082,4.2202646 68.100334,2.2744969 66.026967,0.84149708 63.446027,0.40770555 60.986047,0.16523316 60.397892,0.13308723 59.80942,0.10354434 59.220703,0.14257812 Z" />
</svg>
