<?xml version="1.0" encoding="UTF-8" standalone="no"?>
<!-- Created with Inkscape (http://www.inkscape.org/) -->

<svg
   version="1.1"
   id="svg2"
   width="150.0376"
   height="142.26842"
   viewBox="0 0 150.0376 142.26842"
   sodipodi:docname="5.svg"
   inkscape:version="1.1 (c4e8f9ed74, 2021-05-24)"
   xmlns:inkscape="http://www.inkscape.org/namespaces/inkscape"
   xmlns:sodipodi="http://sodipodi.sourceforge.net/DTD/sodipodi-0.dtd"
   xmlns="http://www.w3.org/2000/svg"
   xmlns:svg="http://www.w3.org/2000/svg">
  <sodipodi:namedview
     id="namedview64"
     pagecolor="#ffffff"
     bordercolor="#666666"
     borderopacity="1.0"
     inkscape:pageshadow="2"
     inkscape:pageopacity="0.0"
     inkscape:pagecheckerboard="0"
     showgrid="false"
     inkscape:zoom="8"
     inkscape:cx="37.125"
     inkscape:cy="117.3125"
     inkscape:window-width="1920"
     inkscape:window-height="1080"
     inkscape:window-x="1920"
     inkscape:window-y="0"
     inkscape:window-maximized="1"
     inkscape:current-layer="svg2"
     fit-margin-top="0"
     fit-margin-left="0"
     fit-margin-right="0"
     fit-margin-bottom="0" />
  <defs
     id="defs6">
    <clipPath
       clipPathUnits="userSpaceOnUse"
       id="clipPath2748">
      <rect
         style="fill:none;stroke:#fd0000;stroke-width:6.29354;stroke-linecap:round;stroke-opacity:1"
         id="rect2750"
         width="181.78069"
         height="160.40302"
         x="319.67203"
         y="-1.6533943" />
    </clipPath>
    <clipPath
       clipPathUnits="userSpaceOnUse"
       id="clipPath2829">
      <rect
         style="fill:none;stroke:#fd0000;stroke-width:5.85576;stroke-linecap:round;stroke-opacity:1"
         id="rect2831"
         width="172.34521"
         height="169.41031"
         x="166.89822"
         y="149.70647" />
    </clipPath>
    <clipPath
       clipPathUnits="userSpaceOnUse"
       id="clipPath4462">
      <rect
         style="fill:none;fill-opacity:1;stroke:#fd0000;stroke-width:6;stroke-linecap:round;stroke-opacity:1"
         id="rect4464"
         width="154.82426"
         height="154.94003"
         x="163.68083"
         y="328.92615" />
    </clipPath>
    <clipPath
       clipPathUnits="userSpaceOnUse"
       id="clipPath5140">
      <rect
         style="fill:none;stroke:#fd0000;stroke-width:6;stroke-linecap:round;stroke-opacity:1"
         id="rect5142"
         width="143.4304"
         height="153.41002"
         x="492.91498"
         y="328.1218" />
    </clipPath>
    <clipPath
       clipPathUnits="userSpaceOnUse"
       id="clipPath6275">
      <rect
         style="fill:none;fill-opacity:1;stroke:#fd0000;stroke-width:6;stroke-linecap:round;stroke-opacity:1"
         id="rect6277"
         width="135.50941"
         height="155.53391"
         x="337.29059"
         y="492.97705" />
    </clipPath>
  </defs>
  <path
     id="path849-9"
     style="fill:#fad4ad;stroke-width:0.32"
     d="m 81.548828,73.980467 c -3.589232,4.986019 -7.579224,9.69448 -12.45922,13.467009 -5.491019,4.306405 -12.158606,7.412821 -19.228288,7.60714 -1.766638,0.05334 -3.551625,0.102708 -5.296867,-0.226493 3.022387,-2.830188 5.79279,-5.992046 7.711913,-9.684813 1.040554,-2.068866 2.073794,-4.197314 2.5459,-6.477296 0.14945,-0.447369 -0.322355,-0.719289 -0.616938,-0.339611 -1.792101,1.655582 -3.233976,3.654772 -5.008587,5.334131 C 43.013873,89.879815 35.843829,95.45014 27.429546,98.239 c -3.146662,1.079996 -6.405987,1.557343 -9.707306,1.82522 -0.478613,0.0232 -0.929357,0.16191 -1.345287,0.40062 0.484886,0.11749 1.245631,0.0367 1.249056,0.74045 0.331017,2.65507 0.799105,5.29926 1.60101,7.85698 1.81014,6.05982 4.740735,11.80543 8.816086,16.65939 6.630446,8.10157 16.107548,13.72509 26.319149,15.92587 2.478,0.6001 5.021907,0.86712 7.57134,0.81927 4.01148,-0.0503 8.056762,-0.15625 12.005632,-0.91126 12.958421,-2.80128 24.432485,-11.5071 30.829914,-23.09796 2.39478,-4.25257 4.01948,-8.9081 4.98219,-13.68737 0.0955,-0.51586 0.36038,-1.06145 0.95765,-1.05341 -0.47978,-0.67797 -1.46509,-0.56773 -2.18322,-0.82987 C 102.88678,101.59351 97.404441,99.263257 92.783995,95.773108 87.18031,91.431882 83.314378,84.846245 82.507453,77.766171 82.299142,76.376998 82.06861,74.991369 81.828125,73.607422 l -0.279297,0.373047 z M 38.521484,97.472656 c 2.228003,-0.09078 4.519423,0.932932 5.681873,2.887554 1.759288,2.54102 1.682581,6.18205 -0.333972,8.54258 -1.732123,2.16158 -4.758258,3.10044 -7.402819,2.20572 -2.28398,-0.69506 -4.264559,-2.62887 -4.718519,-5.00695 -0.07291,-1.48791 -0.241426,-3.05121 0.217261,-4.49224 0.914343,-2.075195 2.909232,-3.754931 5.095239,-4.01557 0.444568,-0.07687 0.979123,-0.109952 1.460937,-0.121094 z m 46.322266,0.05469 c 3.01465,0.01693 6.162313,1.907922 6.932702,4.947024 0.372058,1.54275 0.489579,3.26635 -0.119275,4.7634 -0.993667,2.14975 -2.962835,3.90724 -5.350536,4.272 -1.674744,0.38353 -3.487753,0.13394 -4.913017,-0.85715 -2.262827,-1.36585 -3.658202,-4.25632 -3.248866,-6.94501 0.128447,-1.40406 0.751079,-2.73212 1.815148,-3.66999 1.287542,-1.379207 2.968952,-2.509641 4.883844,-2.510274 z M 54.246094,122.28516 c 0.931022,0.2941 1.015962,1.4787 1.32148,2.26187 1.01252,2.96632 4.737157,4.39398 7.564162,3.21062 1.277289,-0.44671 2.324839,-1.45732 2.712014,-2.76742 0.387557,-0.80298 0.526097,-1.7969 1.197266,-2.42187 0.609684,-0.37016 1.370531,0.10359 1.326874,0.81039 0.05479,1.94324 -0.976102,3.85607 -2.371674,5.12173 -2.69027,2.31618 -6.919076,2.23197 -9.806763,0.32179 -1.675244,-1.19703 -2.84004,-3.19055 -2.935086,-5.25811 -0.03338,-0.60675 0.283714,-1.32353 0.991727,-1.279 z"
     sodipodi:nodetypes="sccccccccccccccccccccccccscccccccccccccccccccccccccc" />
  <path
     id="path841-6"
     style="fill:#dc8829;stroke-width:0.32"
     d="m 92.792969,-0.01367188 c -2.860026,0.21380056 -5.811278,0.61845367 -8.373047,1.98437498 -2.219691,1.3246447 -4.051781,3.2001999 -5.816406,5.0644531 -1.430451,1.6940497 -2.397751,3.7326628 -3.200354,5.7826698 -0.45774,1.74926 -0.239384,3.591416 -0.226033,5.37957 0.0136,1.880614 0.796084,3.610495 1.481074,5.322135 2.0285,-0.04814 4.14969,-0.03093 5.922255,1.060022 2.414499,1.322569 4.063613,4.096292 4.154448,6.901129 0.05429,0.684842 0.111074,1.369489 0.163532,2.054474 1.030961,-0.627986 2.146843,-1.162311 3.380792,-1.166926 1.718559,-0.08619 3.581479,-0.174613 5.07739,0.827945 2.980978,1.537484 4.83236,4.882422 4.457719,8.229519 -0.272265,3.362619 -2.806692,6.237068 -5.987344,7.255136 -1.654364,0.302594 -3.405221,0.284851 -5.041839,-0.126142 -1.912331,-0.604467 -3.409547,-2.10964 -4.456078,-3.758577 -1.059757,-1.746099 -1.427385,-3.72373 -1.299781,-5.747283 -1.407379,0.715878 -2.94764,1.160233 -4.536254,1.139507 -2.746196,0.119527 -5.462281,-1.281108 -6.95465,-3.590532 -0.930997,-1.279964 -1.501814,-2.819892 -1.420712,-4.418204 -0.0031,-1.175775 0.01447,-2.351519 0.02294,-3.527255 C 66.564428,27.680842 62.944697,26.683948 59.208828,26.678541 53.45303,26.418283 47.638655,27.17333 42.210349,29.121687 35.396695,31.528807 29.217869,35.466226 23.609882,39.976203 17.743845,44.7259 13.556462,51.121976 9.6716971,57.498505 5.1465466,65.172083 1.5182006,73.541862 0.25384728,82.414626 -0.2634291,85.98628 -0.19390332,89.628728 0.28710938,93.197266 1.1229171,91.170842 1.67929,89.067248 2.603847,87.076703 c 1.1514284,-2.501459 2.5515542,-4.89876 4.0777936,-7.1685 -0.2776839,3.06761 -0.8477069,6.11759 -0.7480468,9.210938 0.089481,6.572618 1.4492719,13.051179 3.0582847,19.398029 1.8530245,6.66075 4.5446125,13.22774 8.8754445,18.67822 1.487788,1.84585 3.229447,3.5148 5.208849,4.82023 0.517862,0.22647 0.491906,-0.46721 0.245472,-0.73305 -3.009404,-5.0307 -4.738657,-10.73725 -5.712708,-16.50852 -0.57509,-4.44116 -0.987089,-8.94589 -1.089405,-13.43811 -0.145847,-0.55198 0.183803,-0.86221 0.719278,-0.87151 2.390796,-0.37915 4.831723,-0.4593 7.183907,-1.081132 6.545259,-1.544467 12.484597,-4.987854 17.775026,-9.0572 3.932088,-3.379197 7.669916,-6.989938 11.184263,-10.800012 0.420628,-0.47116 0.809262,-0.973498 1.280104,-1.39718 -0.708081,3.240442 -2.14638,6.301548 -3.906309,9.101401 -1.87582,2.929831 -4.409495,5.342518 -6.767519,7.873209 2.568208,0.40166 5.186369,0.557098 7.767558,0.173789 5.727501,-0.704307 11.196392,-3.007146 15.851969,-6.396651 5.445022,-3.860922 9.920437,-8.914663 13.815277,-14.297714 0.436256,-0.80819 0.508466,-0.416945 0.483165,0.29206 0.288682,6.110287 2.401259,12.199911 6.394419,16.88427 4.313843,5.185689 10.47932,8.5101 16.850321,10.48334 2.38812,0.77863 4.87201,1.17943 7.32628,1.67238 1.01551,0.1778 0.83247,1.39842 0.73794,2.14506 -1.03967,8.07434 -3.89541,15.93524 -8.45732,22.68941 -1.08286,1.67469 -2.44373,3.13826 -3.67586,4.6939 -0.0724,0.65767 0.74836,0.0429 0.99024,-0.1543 2.85615,-2.24166 5.39709,-4.86544 7.81528,-7.56656 6.462,-7.62417 10.59918,-17.1357 12.04302,-27.005822 0.40395,-3.844243 0.27162,-7.72207 0.22882,-11.580822 -0.0798,-5.061012 -0.92313,-10.082407 -2.33029,-14.938189 -0.28433,-1.056297 -0.58544,-2.110288 -0.78808,-3.185948 2.78521,0.521397 5.52821,1.350371 8.37782,1.468741 5.59844,0.299377 11.32211,-1.342379 15.76593,-4.79269 3.02874,-2.273955 5.4006,-5.315715 7.22943,-8.615099 0.0385,-0.297312 -1.05359,0.370387 -1.47241,0.463373 -2.16537,0.894486 -4.52643,1.700576 -6.89315,1.18379 -2.83073,-0.49083 -5.51063,-1.794066 -7.64825,-3.713975 2.28685,-0.09286 4.62373,-0.362171 6.68079,-1.440939 2.09857,-0.972231 3.72759,-2.644286 5.3739,-4.219217 -2.581,-0.426157 -5.26572,-0.821554 -7.54101,-2.152871 -4.44934,-2.487682 -7.61253,-6.743605 -9.93566,-11.18723 -2.00288,-3.791186 -3.31889,-7.914097 -4.566,-12.015759 C 121.96535,16.871366 117.60659,10.335185 111.69803,5.6285434 108.39622,2.9671061 104.42045,1.1839336 100.24168,0.47322466 97.78946,0.01955964 95.283679,-0.13624629 92.792969,-0.01367188 Z"
     sodipodi:nodetypes="cccccccccccccccccccccccccccccccccccccccccccccccccccccccccccccccccccccccc" />
  <path
     id="path835-1"
     style="fill:#3a53b6;stroke-width:0.32"
     d="m 77.888672,23.316406 c -3.398406,0.09812 -6.623272,2.449295 -7.605329,5.730334 -0.869014,2.85102 -0.340246,6.184724 1.561121,8.511532 2.014289,2.425404 5.42637,3.191208 8.442061,2.786306 0.94409,-0.162152 1.791239,-0.633519 2.664647,-1.000828 -0.100414,1.975766 0.103988,4.045946 1.186866,5.753324 1.800905,3.132853 5.733995,4.750702 9.228785,3.900443 3.049178,-0.659067 5.826063,-3.044455 6.519896,-6.144001 0.283751,-1.866653 0.339871,-3.864242 -0.344846,-5.651248 -1.281433,-2.69935 -3.947988,-4.822426 -6.983157,-5.048323 -1.774349,-0.227735 -3.595106,0.02623 -5.216281,0.791146 -0.490554,0.129694 -0.219419,-0.913632 -0.33446,-1.25323 0.05442,-3.316981 -2.085597,-6.51377 -5.18065,-7.715239 -1.241454,-0.513271 -2.598477,-0.723175 -3.938653,-0.660216 z" />
  <path
     id="path833-8"
     style="fill:#975122;stroke-width:0.32"
     d="m 54.117188,122.05859 c -1.04478,0.10735 -1.445838,1.3604 -1.105536,2.24074 0.586367,2.28085 2.10957,4.3403 4.275963,5.33237 1.717535,0.88343 3.757084,0.83205 5.624358,0.59235 3.297883,-0.56555 5.91889,-3.88982 5.46498,-7.24749 -0.188266,-0.6782 -1.106259,-0.65978 -1.666015,-0.56054 -0.718304,0.36747 -0.545217,1.36624 -0.788625,2.01874 -0.360948,1.86002 -2.196599,3.21171 -3.969635,3.45759 -2.641601,0.44792 -5.795287,-1.07664 -6.353069,-3.85719 -0.178281,-0.77662 -0.502893,-1.95 -1.482421,-1.97657 z"
     sodipodi:nodetypes="cccccccccc" />
  <path
     id="path831-7"
     style="fill:#692308;stroke-width:0.32"
     d="m 38.011719,97.166016 c -3.545361,0.119526 -6.611273,3.254494 -6.757966,6.779464 -0.247334,3.20268 1.902185,6.40585 5.000352,7.30942 2.510685,0.87417 5.442765,0.13516 7.361129,-1.6631 2.8583,-2.75173 2.8133,-7.88529 -0.169922,-10.531253 C 41.98948,97.7248 39.977621,97.05141 38.011719,97.166016 Z m 46.832031,0.207031 c -1.789943,0.08986 -3.493841,0.896266 -4.899201,1.968781 -1.178939,1.315752 -1.818453,3.070002 -2.080175,4.798322 -0.19798,3.06439 1.777161,6.13734 4.588751,7.33446 1.648149,0.48954 3.45675,0.42287 5.113281,0.004 2.605833,-0.89708 4.531876,-3.41438 4.678741,-6.17289 0.309319,-2.85256 -1.188792,-5.829878 -3.774444,-7.129849 -1.108958,-0.584102 -2.373276,-0.86761 -3.626953,-0.802734 z" />
</svg>
