<?xml version="1.0" encoding="UTF-8" standalone="no"?>
<!-- Created with Inkscape (http://www.inkscape.org/) -->

<svg
   version="1.1"
   id="svg2"
   width="163.20166"
   height="145.13354"
   viewBox="0 0 163.20166 145.13354"
   sodipodi:docname="5.svg"
   inkscape:version="1.1 (c4e8f9ed74, 2021-05-24)"
   xmlns:inkscape="http://www.inkscape.org/namespaces/inkscape"
   xmlns:sodipodi="http://sodipodi.sourceforge.net/DTD/sodipodi-0.dtd"
   xmlns="http://www.w3.org/2000/svg"
   xmlns:svg="http://www.w3.org/2000/svg">
  <sodipodi:namedview
     id="namedview64"
     pagecolor="#ffffff"
     bordercolor="#666666"
     borderopacity="1.0"
     inkscape:pageshadow="2"
     inkscape:pageopacity="0.0"
     inkscape:pagecheckerboard="0"
     showgrid="false"
     inkscape:zoom="0.38385417"
     inkscape:cx="341.27544"
     inkscape:cy="590.06784"
     inkscape:window-width="1920"
     inkscape:window-height="1080"
     inkscape:window-x="1920"
     inkscape:window-y="0"
     inkscape:window-maximized="1"
     inkscape:current-layer="svg2"
     fit-margin-top="0"
     fit-margin-left="0"
     fit-margin-right="0"
     fit-margin-bottom="0" />
  <defs
     id="defs6">
    <clipPath
       clipPathUnits="userSpaceOnUse"
       id="clipPath2748">
      <rect
         style="fill:none;stroke:#fd0000;stroke-width:6.29354;stroke-linecap:round;stroke-opacity:1"
         id="rect2750"
         width="181.78069"
         height="160.40302"
         x="319.67203"
         y="-1.6533943" />
    </clipPath>
    <clipPath
       clipPathUnits="userSpaceOnUse"
       id="clipPath2829">
      <rect
         style="fill:none;stroke:#fd0000;stroke-width:5.85576;stroke-linecap:round;stroke-opacity:1"
         id="rect2831"
         width="172.34521"
         height="169.41031"
         x="166.89822"
         y="149.70647" />
    </clipPath>
    <clipPath
       clipPathUnits="userSpaceOnUse"
       id="clipPath4462">
      <rect
         style="fill:none;fill-opacity:1;stroke:#fd0000;stroke-width:6;stroke-linecap:round;stroke-opacity:1"
         id="rect4464"
         width="154.82426"
         height="154.94003"
         x="163.68083"
         y="328.92615" />
    </clipPath>
    <clipPath
       clipPathUnits="userSpaceOnUse"
       id="clipPath5140">
      <rect
         style="fill:none;stroke:#fd0000;stroke-width:6;stroke-linecap:round;stroke-opacity:1"
         id="rect5142"
         width="143.4304"
         height="153.41002"
         x="492.91498"
         y="328.1218" />
    </clipPath>
    <clipPath
       clipPathUnits="userSpaceOnUse"
       id="clipPath6275">
      <rect
         style="fill:none;fill-opacity:1;stroke:#fd0000;stroke-width:6;stroke-linecap:round;stroke-opacity:1"
         id="rect6277"
         width="135.50941"
         height="155.53391"
         x="337.29059"
         y="492.97705" />
    </clipPath>
  </defs>
  <path
     style="fill:#fad4ad;stroke-width:0.32"
     d="m 9.8346635,145.00801 c 0.5680995,-0.0707 1.5760995,-0.0719 2.2399995,-0.003 0.664,0.0693 0.1992,0.1271 -1.0328,0.12854 -1.2319995,0 -1.7751995,-0.0553 -1.2071995,-0.12595 z m 140.1671965,-0.621 c 0.22,-0.0888 0.58,-0.0888 0.8,0 0.22,0.0888 0.04,0.16141 -0.4,0.16141 -0.44,0 -0.62,-0.0726 -0.4,-0.16141 z m 3.84,0 c 0.22,-0.0888 0.58,-0.0888 0.8,0 0.22,0.0888 0.04,0.16141 -0.4,0.16141 -0.44,0 -0.62,-0.0726 -0.4,-0.16141 z M 0.2809635,141.79895 c -0.398,-0.50755 -0.3867,-0.51885 0.1209,-0.12083 0.533,0.41805 0.7025,0.68083 0.4391,0.68083 -0.066,0 -0.3184,-0.252 -0.56,-0.56 z m 22.4408995,-1.52 c 0.4133,-0.44 0.8235,-0.8 0.9115,-0.8 0.088,0 -0.1782,0.36 -0.5915,0.8 -0.4134,0.44 -0.8236,0.8 -0.9116,0.8 -0.088,0 0.1782,-0.36 0.5916,-0.8 z m 138.479997,0.58806 c 0.22,-0.0888 0.58,-0.0888 0.8,0 0.22,0.0888 0.04,0.16141 -0.4,0.16141 -0.44,0 -0.62,-0.0726 -0.4,-0.16141 z M 6.4018635,139.99812 c 0,-0.0664 0.252,-0.31843 0.56,-0.56 0.5075,-0.39802 0.5188,-0.38672 0.1208,0.12083 -0.418,0.53302 -0.6808,0.70256 -0.6808,0.43917 z M 140.12096,139.55895 c -0.398,-0.50755 -0.3867,-0.51885 0.1209,-0.12083 0.308,0.24157 0.56,0.49357 0.56,0.56 0,0.26339 -0.2628,0.0938 -0.6809,-0.43917 z m 14.1461,-5.38666 c 0.015,-0.3728 0.091,-0.4486 0.1934,-0.19334 0.092,0.23101 0.081,0.50701 -0.025,0.61334 -0.1064,0.10634 -0.182,-0.0827 -0.1681,-0.42 z m -145.2799965,-0.96 c 0.015,-0.3728 0.091,-0.4486 0.1934,-0.19334 0.092,0.23101 0.081,0.50701 -0.025,0.61334 -0.1064,0.10634 -0.182,-0.0827 -0.1681,-0.42 z m 18.5599995,-1.92 c 0.015,-0.3728 0.091,-0.4486 0.1934,-0.19334 0.092,0.23101 0.081,0.50701 -0.025,0.61334 -0.1064,0.10634 -0.182,-0.0827 -0.1681,-0.42 z m 107.910697,-2.05334 c 0,-0.968 0.06,-1.364 0.1333,-0.88 0.073,0.484 0.073,1.276 0,1.76 -0.073,0.484 -0.1333,0.088 -0.1333,-0.88 z M 11.841863,127.51812 c 0,-0.0664 0.252,-0.31843 0.56,-0.56 0.5075,-0.39802 0.5188,-0.38672 0.1208,0.12083 -0.418,0.53302 -0.6808,0.70256 -0.6808,0.43917 z m 8.3705,-4.35917 c 0,-0.44 0.073,-0.62 0.1614,-0.4 0.089,0.22 0.089,0.58 0,0.8 -0.089,0.22 -0.1614,0.04 -0.1614,-0.4 z m 125.329497,-0.21859 c 0.231,-0.0924 0.507,-0.0811 0.6133,0.0253 0.1064,0.10633 -0.083,0.18198 -0.42,0.16809 -0.3728,-0.0154 -0.4486,-0.0912 -0.1933,-0.19334 z m -18.2209,-3.22141 c -0.398,-0.50755 -0.3867,-0.51885 0.1209,-0.12083 0.533,0.41805 0.7025,0.68083 0.4391,0.68083 -0.066,0 -0.3184,-0.252 -0.56,-0.56 z m 11.9616,-4.08 c 0,-0.704 0.069,-0.95434 0.1456,-0.55626 0.077,0.39805 0.074,0.97405 -0.01,1.28 -0.08,0.30592 -0.1427,-0.0198 -0.1392,-0.72374 z m -65.040697,0.45187 c -8.9185,-1.14473 -18.2849,-5.1864 -25.3202,-10.92579 -1.6964,-1.38394 -1.8337,-1.43795 -2.3825,-0.93734 -0.5459,0.49808 -0.5559,0.49628 -0.1606,-0.0288 0.3743,-0.49706 0.084,-0.91216 -2.5775,-3.69156 -1.6496,-1.722303 -3.5032,-3.870723 -4.1192,-4.774203 l -1.12,-1.64272 -2.1774,-0.10576 c -1.1976,-0.0581 -2.3221,0.0383 -2.499,0.21427 -0.2149,0.21389 -0.261,0.16077 -0.1389,-0.16023 0.1297,-0.34124 -0.2772,-0.6911 -1.4064,-1.20915 -2.0972,-0.96211 -5.7536,-3.89974 -6.965,-5.59597 -1.8774,-2.6286 -2.4393,-4.09081 -2.6313,-6.848 -0.1001,-1.43734 -0.1277,-2.559 -0.061,-2.4926 0.1481,0.14806 3.5186,-2.41687 5.4773,-4.16826 0.791,-0.70717 1.2413,-1.03379 1.0009,-0.72579 -0.3879,0.49677 -0.3564,0.56 0.2792,0.56 0.5524,0 0.6792,-0.14269 0.5537,-0.62279 -0.1245,-0.47612 0.6338,-1.3615 3.2206,-3.76 4.1836,-3.87897 12.9381,-13.1256 19.5442,-20.64278 2.7384,-3.11606 5.0242,-5.62026 5.0796,-5.56486 0.1867,0.18665 -1.7883,5.2312 -2.9757,7.60057 -2.6471,5.28215 -7.2392,11.40698 -11.0141,14.69034 -1.0627,0.92425 -1.887,1.7256 -1.8318,1.7808 0.231,0.23097 9.6745,-1.86381 13.1459,-2.91607 12.8063,-3.88176 23.524,-10.33801 29.3665,-17.6902 1.4861,-1.87015 1.8565,-2.19559 1.6808,-1.47687 -1.1176,4.57146 -3.948,9.03536 -8.6513,13.64448 -2.1541,2.11088 -6.6311,5.65431 -8.628,6.82877 -0.4571,0.26886 0.04,0.32269 2.117,0.22918 11.6535,-0.52464 21.0658,-2.87462 28.2504,-7.05331 5.875897,-3.4175 10.668697,-8.63821 12.844197,-13.99078 l 0.7222,-1.77696 0.1938,3.76025 c 0.6146,11.9202 6.5074,21.23879 16.2374,25.67687 0.9605,0.43814 1.8185,0.87014 1.9065,0.96 0.088,0.0899 0.376,0.19401 0.64,0.23152 2.175,0.30883 3.7345,0.97366 4.6888,1.99881 1.401,1.50512 1.807,2.83556 1.6485,5.40224 -0.2421,3.92055 -2.895,7.74954 -7.5443,10.8889 -2.4307,1.64131 -4.1477,2.28189 -6.1165,2.28189 -1.4541,0 -1.5155,0.0422 -3.139,2.16 -1.7934,2.33933 -5.5375,6.621313 -5.5375,6.333093 0,-0.0976 -1.044,0.70358 -2.32,1.78044 -7.5863,6.40237 -16.114997,10.27239 -25.679997,11.6529 -3.4398,0.49645 -10.2221,0.55901 -13.6,0.12544 z m 9.7783,-11.95891 c 1.6296,-0.68086 3.5251,-2.59869 4.2623,-4.312353 0.7351,-1.70874 0.648,-2.44589 -0.3256,-2.75488 -0.8118,-0.25763 -1.4351,0.28125 -1.8782,1.62387 -0.6527,1.977733 -3.3251,3.677543 -5.7568,3.661603 -1.0945,-0.007 -3.2104,-1.024 -4.0648,-1.95334 -0.3875,-0.421643 -0.9295,-1.304643 -1.2042,-1.962213 -0.3844,-0.91984 -0.6806,-1.19565 -1.284,-1.19565 -0.4585,0 -0.9277,0.26752 -1.1291,0.64381 -0.6831,1.27651 1.5947,4.754053 3.8922,5.942113 2.1631,1.11859 5.2436,1.2449 7.4882,0.30704 z m -25.2708,-16.003263 c 2.9483,-0.87556 4.9325,-3.7114 4.9325,-7.0497 0,-4.19882 -2.8678,-7.2 -6.88,-7.2 -4.0442,0 -6.8892,3.00925 -6.873,7.26973 0.01,2.3647 0.8032,4.11833 2.5378,5.60304 2.0241,1.73257 3.7853,2.11856 6.2827,1.37693 z m 47.593497,0.17161 c 3.1448,-0.72992 5.4633,-3.79731 5.4534,-7.21485 -0.01,-2.30086 -0.8069,-4.06432 -2.5311,-5.5782 -1.5098,-1.32554 -2.3458,-1.62826 -4.4969,-1.62826 -4.817897,0 -7.912097,4.62918 -6.497997,9.72182 0.4633,1.6688 2.972297,4.16084 4.629997,4.59876 1.632,0.43113 1.9758,0.44121 3.4426,0.10073 z m 16.8842,21.232033 c 0.015,-0.3728 0.091,-0.4486 0.1934,-0.19334 0.092,0.23101 0.081,0.50701 -0.025,0.61334 -0.1064,0.10634 -0.182,-0.0827 -0.1681,-0.42 z m -96.825197,-0.45334 c 0.3185,-0.352 0.6512,-0.64 0.7392,-0.64 0.088,0 -0.1007,0.288 -0.4192,0.64 -0.3186,0.352 -0.6512,0.64 -0.7392,0.64 -0.088,0 0.1006,-0.288 0.4192,-0.64 z m 110.199097,-0.56 c -0.398,-0.50755 -0.3867,-0.51885 0.1209,-0.12083 0.533,0.41805 0.7025,0.68083 0.4391,0.68083 -0.066,0 -0.3184,-0.252 -0.56,-0.56 z m -15.7191,0.0282 c 0.22,-0.0888 0.58,-0.0888 0.8,0 0.22,0.0888 0.04,0.16141 -0.4,0.16141 -0.44,0 -0.62,-0.0726 -0.4,-0.16141 z m -1.0532,-0.44934 c -0.116,-0.18772 -0.1423,-0.40992 -0.058,-0.49383 0.084,-0.0839 0.2378,0.0697 0.342,0.34131 0.2164,0.56388 0.032,0.66304 -0.2835,0.15252 z m 2.7332,-0.29882 c 0.1884,-0.352 0.4145,-0.64 0.5025,-0.64 0.088,0 0.01,0.288 -0.1825,0.64 -0.1884,0.352 -0.4146,0.64 -0.5026,0.64 -0.088,0 -0.01,-0.288 0.1826,-0.64 z m -94.559997,-0.32 c 0.3185,-0.352 0.6512,-0.64 0.7392,-0.64 0.088,0 -0.1007,0.288 -0.4192,0.64 -0.3186,0.352 -0.6512,0.64 -0.7392,0.64 -0.088,0 0.1006,-0.288 0.4192,-0.64 z m 106.849597,-0.72 -0.6096,-0.72 0.72,0.6096 c 0.6766,0.57286 0.8656,0.8304 0.6096,0.8304 -0.061,0 -0.3848,-0.324 -0.72,-0.72 z m -15.5305,-0.80004 c -0.398,-0.50755 -0.3867,-0.51885 0.1209,-0.12083 0.533,0.41805 0.7025,0.68083 0.4391,0.68083 -0.066,0 -0.3184,-0.252 -0.56,-0.56 z m -74.839097,0.11917 c 0,-0.0664 0.252,-0.31843 0.56,-0.56 0.5075,-0.39802 0.5188,-0.38672 0.1208,0.12083 -0.418,0.53302 -0.6808,0.70256 -0.6808,0.43917 z m 73.559097,-1.07917 c -0.398,-0.50755 -0.3867,-0.51885 0.1209,-0.12083 0.533,0.41805 0.7025,0.68083 0.4391,0.68083 -0.066,0 -0.3184,-0.252 -0.56,-0.56 z m -1.28,-1.28 c -0.398,-0.50755 -0.3867,-0.51885 0.1209,-0.12083 0.533,0.41805 0.7025,0.68083 0.4391,0.68083 -0.066,0 -0.3184,-0.252 -0.56,-0.56 z m 13.3231,0.24368 c -0.1121,-0.18141 0.016,-0.23507 0.3012,-0.12579 0.5543,0.21273 0.6557,0.44211 0.1955,0.44211 -0.1656,0 -0.3891,-0.14234 -0.4967,-0.31632 z m -97.711697,-2.88368 c 0,-0.44 0.073,-0.62 0.1614,-0.4 0.089,0.22 0.089,0.58 0,0.8 -0.089,0.22 -0.1614,0.04 -0.1614,-0.4 z m 98.214697,0.13334 c 0.015,-0.3728 0.091,-0.4486 0.1934,-0.19334 0.092,0.23101 0.081,0.50701 -0.025,0.61334 -0.1064,0.10634 -0.182,-0.0827 -0.1681,-0.42 z M 32.372363,98.198947 c 0,-0.44 0.073,-0.62 0.1614,-0.4 0.089,0.22 0.089,0.58 0,0.8 -0.089,0.22 -0.1614,0.04 -0.1614,-0.4 z m -10.2653,-21.62666 c 0.015,-0.3728 0.091,-0.4486 0.1934,-0.19334 0.092,0.23101 0.081,0.50701 -0.025,0.61334 -0.1064,0.10634 -0.182,-0.0827 -0.1681,-0.42 z m -0.6147,-3.97334 c 0,-0.44 0.073,-0.62 0.1614,-0.4 0.089,0.22 0.089,0.58 0,0.8 -0.089,0.22 -0.1614,0.04 -0.1614,-0.4 z m 114.534697,-0.50666 c 0.015,-0.3728 0.091,-0.4486 0.1934,-0.19334 0.092,0.23101 0.081,0.50701 -0.025,0.61334 -0.1064,0.10634 -0.182,-0.0827 -0.1681,-0.42 z m 0.32,-1.92 c 0.015,-0.3728 0.091,-0.4486 0.1934,-0.19334 0.092,0.23101 0.081,0.50701 -0.025,0.61334 -0.1064,0.10634 -0.182,-0.0827 -0.1681,-0.42 z M 21.196063,69.398947 c 0,-0.616 0.066,-0.868 0.1464,-0.56 0.081,0.308 0.081,0.812 0,1.12 -0.081,0.308 -0.1464,0.056 -0.1464,-0.56 z m 115.496297,-1.28 c 0,-0.44 0.073,-0.62 0.1614,-0.4 0.089,0.22 0.089,0.58 0,0.8 -0.089,0.22 -0.1614,0.04 -0.1614,-0.4 z m 0.3318,-2.72 c 0.01,-0.528 0.078,-0.70525 0.1594,-0.39392 0.081,0.31136 0.076,0.74336 -0.012,0.96 -0.088,0.21667 -0.154,-0.0381 -0.1475,-0.56608 z m -116.112597,-2.56 c 0,-1.408 0.057,-1.94419 0.125,-1.19155 0.068,0.75267 0.067,1.90467 0,2.56 -0.069,0.65536 -0.1241,0.0395 -0.1229,-1.36845 z m 116.466197,-1.76 c 0,-0.968 0.06,-1.364 0.1333,-0.88 0.073,0.484 0.073,1.276 0,1.76 -0.073,0.484 -0.1333,0.088 -0.1333,-0.88 z m -116.193597,-4.96 c 0.01,-0.528 0.078,-0.70525 0.1594,-0.39392 0.081,0.31136 0.076,0.74336 -0.012,0.96 -0.088,0.21667 -0.154,-0.0381 -0.1475,-0.56608 z m 116.193597,-2.08 c 0,-0.968 0.06,-1.364 0.1333,-0.88 0.073,0.484 0.073,1.276 0,1.76 -0.073,0.484 -0.1333,0.088 -0.1333,-0.88 z m -115.885397,-0.96 c 0,-0.44 0.073,-0.62 0.1614,-0.4 0.089,0.22 0.089,0.58 0,0.8 -0.089,0.22 -0.1614,0.04 -0.1614,-0.4 z m 0.2947,-2.42666 c 0.015,-0.3728 0.091,-0.4486 0.1934,-0.19334 0.092,0.23101 0.081,0.50701 -0.025,0.61334 -0.1064,0.10634 -0.182,-0.0827 -0.1681,-0.42 z m 115.225297,-1.09334 c 0,-0.44 0.073,-0.62 0.1614,-0.4 0.089,0.22 0.089,0.58 0,0.8 -0.089,0.22 -0.1614,0.04 -0.1614,-0.4 z m -0.3453,-2.74666 c 0.015,-0.3728 0.091,-0.4486 0.1934,-0.19334 0.092,0.23101 0.081,0.50701 -0.025,0.61334 -0.1064,0.10634 -0.182,-0.0827 -0.1681,-0.42 z m -0.64,-3.84 c 0.015,-0.3728 0.091,-0.4486 0.1934,-0.19334 0.092,0.23101 0.081,0.50701 -0.025,0.61334 -0.1064,0.10634 -0.182,-0.0827 -0.1681,-0.42 z m -9.9861,-22.133342 c -0.398,-0.50755 -0.3867,-0.51885 0.1209,-0.12083 0.533,0.41805 0.7025,0.68083 0.4391,0.68083 -0.066,0 -0.3184,-0.252 -0.56,-0.56 z m -90.839097,-1.16083 c 0,-0.0664 0.252,-0.31843 0.56,-0.56 0.5075,-0.39802 0.5188,-0.38672 0.1208,0.12083 -0.418,0.53302 -0.6808,0.70256 -0.6808,0.43917 z m 88.779797,-1.23917 -0.9398,-1.04 1.04,0.93987 c 0.572,0.51693 1.04,0.98493 1.04,1.04 0,0.24723 -0.2641,0.0294 -1.1402,-0.93987 z m -87.179797,-0.66013 c 0,-0.0551 0.468,-0.52307 1.04,-1.04 l 1.04,-0.93987 -0.9399,1.04 c -0.8761,0.96944 -1.1401,1.1871 -1.1401,0.93987 z m 83.339797,-3.17987 -0.9398,-1.04 1.04,0.93987 c 0.9694,0.8761 1.1871,1.14013 0.9398,1.14013 -0.055,0 -0.523,-0.468 -1.04,-1.04 z m -78.859797,-1.36 c 0.4133,-0.44 0.8235,-0.8 0.9115,-0.8 0.088,0 -0.1782,0.36 -0.5915,0.8 -0.4134,0.44 -0.8236,0.8 -0.9116,0.8 -0.088,0 0.1782,-0.36 0.5916,-0.8 z m 76.439097,-0.72 c -0.398,-0.50755 -0.3867,-0.51885 0.1209,-0.12083 0.533,0.41805 0.7025,0.68083 0.4391,0.68083 -0.066,0 -0.3184,-0.252 -0.56,-0.56 z m -74.839097,-0.52083 c 0,-0.0664 0.252,-0.31843 0.56,-0.56 0.5075,-0.39802 0.5188,-0.38672 0.1208,0.12083 -0.418,0.53302 -0.6808,0.70256 -0.6808,0.43917 z m 49.86,-10.6577601 c 0.231,-0.0925 0.507,-0.0811 0.6133,0.0253 0.1064,0.10633 -0.083,0.18198 -0.42,0.16809 -0.3728,-0.0154 -0.4486,-0.0912 -0.1933,-0.19334 z m -24.32,-0.32 c 0.231,-0.0924 0.507,-0.0811 0.6133,0.0253 0.1064,0.10633 -0.083,0.18198 -0.42,0.16809 -0.3728,-0.0154 -0.4486,-0.0912 -0.1933,-0.19334 z m 22.4,0 c 0.231,-0.0924 0.507,-0.0811 0.6133,0.0253 0.1064,0.10633 -0.083,0.18198 -0.42,0.16809 -0.3728,-0.0154 -0.4486,-0.0912 -0.1933,-0.19334 z m -20.16,-0.31999997 c 0.231,-0.0924 0.507,-0.0811 0.6133,0.0253 0.1064,0.10633 -0.083,0.18198 -0.42,0.16809 -0.3728,-0.0154 -0.4486,-0.0912 -0.1933,-0.19334 z m 17.9,0.007 c 0.22,-0.0888 0.58,-0.0888 0.8,0 0.22,0.0888 0.04,0.16141 -0.4,0.16141 -0.44,0 -0.62,-0.0726 -0.4,-0.16141 z m -15.1939,-0.32983 c 0.3113,-0.0811 0.7433,-0.0758 0.96,0.0118 0.2166,0.0876 -0.038,0.15402 -0.5661,0.14752 -0.528,-0.006 -0.7053,-0.0782 -0.3939,-0.15939 z m 12.16,0 c 0.3113,-0.0811 0.7433,-0.0758 0.96,0.0118 0.2166,0.0876 -0.038,0.15402 -0.5661,0.14752 -0.528,-0.006 -0.7053,-0.0782 -0.3939,-0.15939 z m -6.08,-0.32 c 0.3113,-0.0811 0.7433,-0.0758 0.96,0.0118 0.2166,0.0877 -0.038,0.15402 -0.5661,0.14752 -0.528,-0.006 -0.7053,-0.0782 -0.3939,-0.15939 z"
     id="path849-93" />
  <path
     style="fill:#f6c556;stroke-width:0.32"
     d="m 5.7616635,144.23894 c -2.2231,-0.59376 -4.8583,-1.83785 -5.2561,-2.4815 -0.093,-0.15056 0.8354,-0.34563 2.0631,-0.43347 4.008,-0.28676 5.5095,-1.95392 6.5027,-7.22007 0.5655,-2.99833 1.9063995,-5.5175 4.1844995,-7.86147 1.7492,-1.79981 3.0088,-2.45101 5.1731,-2.67437 1.6007,-0.16521 1.7351,-0.12473 2.0132,0.60663 0.6579,1.7304 3.8494,3.84854 5.879,3.90176 1.516,0.0397 1.7367,0.64316 1.2487,3.41398 -1.044,5.92643 -6.5883,11.71213 -12.5371,13.08291 -2.3101,0.53232 -6.6060995,0.37735 -9.2710995,-0.3344 z m 143.9242965,0.0459 c -5.5846,-1.00166 -9.8548,-4.17488 -12.5733,-9.34332 -1.0628,-2.02052 -1.2508,-2.69501 -1.3665,-4.90282 l -0.1342,-2.56 1.4335,-0.007 c 1.1123,-0.006 1.835,-0.27382 3.2249,-1.19667 0.9853,-0.65418 2.0066,-1.60547 2.2696,-2.11399 0.6006,-1.1616 1.2145,-1.3984 2.9503,-1.13811 1.9939,0.29901 4.0419,1.74256 5.7366,4.04355 2.0655,2.80436 2.62,4.00896 3.009,6.53636 0.1858,1.20787 0.7316,2.97974 1.2128,3.93753 1.1211,2.23191 2.9125,3.25712 5.8077,3.32365 1.0699,0.0246 1.9453,0.068 1.9453,0.0965 0,0.0285 -0.684,0.48928 -1.52,1.0241 -2.8038,1.7936 -8.6117,2.90742 -11.9957,2.30048 z M 29.121663,122.54538 c -3.6303,-0.75206 -5.3599,-3.25005 -5.0368,-7.27443 0.3129,-3.8983 2.9618,-7.52134 7.1142,-9.73046 1.5388,-0.81863 2.028,-1.23741 1.9049,-1.63056 -0.9152,-2.92112 -0.6954,-7.190603 0.4688,-9.108043 0.543,-0.89427 0.6292,-0.91964 2.7746,-0.81721 l 2.2143,0.10576 1.12,1.64272 c 0.616,0.90349 2.4641,3.04617 4.107,4.761533 2.8274,2.9521 2.9619,3.15482 2.5159,3.79152 -0.7569,1.08068 -2.9492,2.54628 -4.7654,3.18589 l -1.6824,0.59248 -0.015,3.3072 c -0.012,2.68983 -0.144,3.58999 -0.7074,4.82224 -0.9122,1.99523 -3.3529,4.39725 -5.5371,5.44944 -2.1315,1.02679 -3.0145,1.20471 -4.4759,0.90192 z M 130.56496,121.5169 c -3.7201,-1.64899 -6.0447,-4.32233 -7.0293,-8.08365 -0.433,-1.65449 -0.4512,-2.24742 -0.1183,-3.86502 0.3058,-1.48586 0.3077,-1.96573 0.01,-2.15811 -0.2313,-0.14877 -0.5595,0.007 -0.8235,0.39072 -0.9045,1.31465 -3.3624,0.33008 -2.8047,-1.12343 0.095,-0.24739 -0.3384,-0.81561 -1.0153,-1.33145 -1.3147,-1.00179 -2.5954,-2.36381 -2.6109,-2.77667 -0.01,-0.14832 0.7938,-1.15632 1.7764,-2.24 0.9825,-1.083683 2.529,-2.942343 3.4367,-4.130343 1.6186,-2.11856 1.6787,-2.16 3.1333,-2.16 0.8157,0 2.0953,-0.216 2.8435,-0.48 0.7483,-0.264 1.4686,-0.48 1.6008,-0.48 0.4723,0 1.6741,3.35814 1.8264,5.10317 0.088,1.00569 -0.046,2.634693 -0.3078,3.753443 l -0.4629,1.97661 2.0021,1.01622 c 2.4613,1.24931 5.0219,3.70336 6.1319,5.87686 0.9949,1.94832 1.3856,5.96973 0.733,7.54538 -0.5524,1.3335 -2.5976,3.09894 -4.0608,3.50525 -1.6954,0.47075 -2.594,0.39923 -4.2594,-0.33898 z M 22.578863,77.660677 c -0.7774,-2.35181 -1.4572,-9.39533 -1.4572,-15.0976 0,-22.3489 9.9846,-43.012612 25.76,-53.3117521 15.4922,-10.11423997 39.5058,-11.84204 58.239997,-4.19046 14.1536,5.7807701 26.0293,18.8176601 29.7491,32.6580801 2.9436,10.952162 3.3438,23.594622 1.1017,34.800002 -0.3943,1.9705 -0.5733,2.02042 -3.5695,0.99533 -11.6944,-4.00077 -18.6637,-13.69728 -19.3452,-26.91555 l -0.1939,-3.76026 -0.7222,1.77696 c -2.1754,5.35258 -6.9682,10.57328 -12.844097,13.99078 -7.1846,4.17869 -16.5969,6.52868 -28.2504,7.05332 -2.0768,0.0935 -2.5741,0.0397 -2.117,-0.22919 1.9969,-1.17446 6.4739,-4.71789 8.628,-6.82877 4.7033,-4.60912 7.5337,-9.07302 8.6513,-13.64448 0.1757,-0.71872 -0.1947,-0.39328 -1.6808,1.47687 -5.8425,7.35219 -16.5602,13.80845 -29.3665,17.69021 -3.4714,1.05225 -12.915,3.14704 -13.1459,2.91606 -0.055,-0.0552 0.7691,-0.85654 1.8317,-1.7808 3.775,-3.28336 8.3671,-9.40819 11.0142,-14.69034 1.1965,-2.38755 3.1619,-7.41443 2.9728,-7.60352 -0.057,-0.057 -2.2162,2.30986 -4.7982,5.25968 -6.9464,7.9361 -16.1704,17.60541 -21.0517,22.06804 -5.4578,4.98969 -9.2185,7.93526 -9.4062,7.36739 z"
     id="path847-7" />
  <path
     style="fill:#03a1cd;stroke-width:0.32"
     d="m 23.954063,127.31367 c -0.6423,-0.33933 -1.6863,-1.10598 -2.32,-1.70365 -0.9835,-0.92745 -1.1519,-1.29206 -1.1501,-2.48886 0,-1.61722 0.6815,-2.81239 2.2646,-3.98541 1.025,-0.75958 1.1132,-0.77424 1.4133,-0.23472 1.2039,2.16499 3.957,3.93056 6.1376,3.93613 0.6123,0 0.6662,0.11181 0.4399,0.90048 -1.0872,3.79123 -3.7359,5.18713 -6.7853,3.57603 z M 134.63296,126.6777 c -0.8644,-0.67993 -2.1511,-3.03654 -2.1511,-3.93977 0,-0.39332 0.2811,-0.54087 1.04,-0.54602 2.0885,-0.0141 4.3553,-1.52077 5.4122,-3.59722 l 0.4501,-0.88425 1.3153,0.96726 c 1.5118,1.11181 2.4813,3.12023 2.1764,4.50867 -0.212,0.9649 -2.0751,2.82576 -3.639,3.63447 -1.3765,0.71184 -3.6051,0.64253 -4.6039,-0.14314 z M 55.681863,88.270047 c -5.344,-0.93846 -7.6235,-7.68816 -4.0574,-12.01443 2.5944,-3.14749 7.6819,-3.1824 10.3056,-0.0707 0.4888,0.57972 1.0829,1.51738 1.3203,2.08375 0.5793,1.38259 0.5461,4.31635 -0.065,5.78054 -1.234,2.95402 -4.4416,4.75843 -7.5031,4.22083 z m 47.999997,0.0211 c -4.722797,-0.91916 -7.132797,-6.15052 -4.879997,-10.59302 1.231997,-2.4296 2.969397,-3.58886 5.632897,-3.75846 2.2762,-0.14496 3.8684,0.46646 5.3901,2.06979 1.809,1.90605 2.4181,5.50294 1.3614,8.03958 -1.2509,3.00269 -4.4836,4.83008 -7.5044,4.24211 z"
     id="path837-4" />
  <path
     style="fill:#975122;stroke-width:0.32"
     d="m 77.281863,103.84433 c -1.8995,-0.88845 -3.3906,-2.33911 -4.1615,-4.048683 -0.6685,-1.48236 -0.4639,-2.2367 0.6066,-2.2367 0.6108,0 0.8658,0.24413 1.1479,1.09888 0.4775,1.446723 2.549,3.288703 4.0059,3.562023 3.3314,0.62499 6.0051,-0.59447 7.3015,-3.330153 0.4862,-1.02605 0.9303,-1.52269 1.4244,-1.59318 1.6271,-0.23216 1.0792,2.41462 -0.957,4.623683 -2.3582,2.5583 -6.2868,3.36521 -9.3678,1.92413 z"
     id="path833-44" />
</svg>
