<?xml version="1.0" encoding="UTF-8" standalone="no"?>
<!-- Created with Inkscape (http://www.inkscape.org/) -->

<svg
   version="1.1"
   id="svg2"
   width="163.20166"
   height="145.13354"
   viewBox="0 0 163.20166 145.13354"
   sodipodi:docname="6.svg"
   inkscape:version="1.1 (c4e8f9ed74, 2021-05-24)"
   xmlns:inkscape="http://www.inkscape.org/namespaces/inkscape"
   xmlns:sodipodi="http://sodipodi.sourceforge.net/DTD/sodipodi-0.dtd"
   xmlns="http://www.w3.org/2000/svg"
   xmlns:svg="http://www.w3.org/2000/svg">
  <sodipodi:namedview
     id="namedview64"
     pagecolor="#ffffff"
     bordercolor="#666666"
     borderopacity="1.0"
     inkscape:pageshadow="2"
     inkscape:pageopacity="0.0"
     inkscape:pagecheckerboard="0"
     showgrid="false"
     inkscape:zoom="8"
     inkscape:cx="71.25"
     inkscape:cy="56.0625"
     inkscape:window-width="1920"
     inkscape:window-height="1080"
     inkscape:window-x="1920"
     inkscape:window-y="0"
     inkscape:window-maximized="1"
     inkscape:current-layer="svg2"
     fit-margin-top="0"
     fit-margin-left="0"
     fit-margin-right="0"
     fit-margin-bottom="0" />
  <defs
     id="defs6">
    <clipPath
       clipPathUnits="userSpaceOnUse"
       id="clipPath2748">
      <rect
         style="fill:none;stroke:#fd0000;stroke-width:6.29354;stroke-linecap:round;stroke-opacity:1"
         id="rect2750"
         width="181.78069"
         height="160.40302"
         x="319.67203"
         y="-1.6533943" />
    </clipPath>
    <clipPath
       clipPathUnits="userSpaceOnUse"
       id="clipPath2829">
      <rect
         style="fill:none;stroke:#fd0000;stroke-width:5.85576;stroke-linecap:round;stroke-opacity:1"
         id="rect2831"
         width="172.34521"
         height="169.41031"
         x="166.89822"
         y="149.70647" />
    </clipPath>
    <clipPath
       clipPathUnits="userSpaceOnUse"
       id="clipPath4462">
      <rect
         style="fill:none;fill-opacity:1;stroke:#fd0000;stroke-width:6;stroke-linecap:round;stroke-opacity:1"
         id="rect4464"
         width="154.82426"
         height="154.94003"
         x="163.68083"
         y="328.92615" />
    </clipPath>
    <clipPath
       clipPathUnits="userSpaceOnUse"
       id="clipPath5140">
      <rect
         style="fill:none;stroke:#fd0000;stroke-width:6;stroke-linecap:round;stroke-opacity:1"
         id="rect5142"
         width="143.4304"
         height="153.41002"
         x="492.91498"
         y="328.1218" />
    </clipPath>
    <clipPath
       clipPathUnits="userSpaceOnUse"
       id="clipPath6275">
      <rect
         style="fill:none;fill-opacity:1;stroke:#fd0000;stroke-width:6;stroke-linecap:round;stroke-opacity:1"
         id="rect6277"
         width="135.50941"
         height="155.53391"
         x="337.29059"
         y="492.97705" />
    </clipPath>
  </defs>
  <path
     id="path849-93"
     style="fill:#fad4ad;stroke-width:0.32"
     d="m 112.67969,42.761719 c -1.11413,3.042284 -2.68443,5.923615 -4.80067,8.387679 -4.07216,4.893948 -9.612466,8.350351 -15.586657,10.482734 -7.309753,2.638931 -15.085975,3.651487 -22.820875,3.868413 -0.55398,0.03439 0.345891,-0.325271 0.51275,-0.507152 5.419059,-3.82161 10.591841,-8.288675 13.984538,-14.066975 1.110509,-1.964989 2.084607,-4.071936 2.47849,-6.301418 -0.267629,-0.560697 -0.797656,0.156865 -1.036743,0.421894 -2.188682,2.814396 -4.678484,5.392479 -7.504351,7.557503 -6.809318,5.274122 -14.782899,8.896272 -22.997169,11.38324 -4.077422,1.124499 -8.254771,2.115479 -12.432441,2.838535 0.955383,-1.020883 2.239605,-1.986489 3.243257,-3.072361 3.782325,-3.95848 6.989321,-8.479924 9.452418,-13.370235 1.092601,-2.369602 2.165321,-4.773538 2.874638,-7.287873 0.05441,-0.652068 -0.434787,-0.278643 -0.684122,0.04092 -4.230495,4.556809 -8.24922,9.308861 -12.512567,13.832562 -4.378252,4.707171 -8.837091,9.354717 -13.53143,13.741778 -2.545313,3.151955 -2.23865,2.234405 -5.838286,4.984348 -0.930246,0.682361 -1.809485,1.493805 -2.841797,2.001954 -0.361497,0.193586 -0.12856,0.813219 -0.175132,1.186463 0.05042,2.359713 0.333058,4.819018 1.671268,6.83305 1.471598,2.666655 3.916112,4.589351 6.376802,6.29275 0.919586,0.717007 2.099246,1.010635 2.986437,1.758049 -0.139057,1.304849 1.97637,0.453512 3.182466,0.430433 0.593858,0.08297 1.30602,-0.04536 1.82696,0.167837 7.208277,10.267863 6.578756,9.241993 15.318095,14.531993 6.505907,3.98663 13.858537,6.71945 21.469417,7.502 4.251113,0.28047 8.54421,0.2701 12.773813,-0.26795 9.23681,-1.31172 18.019711,-5.32339 25.153231,-11.31711 3.86869,-2.67246 6.87925,-6.746562 9.55448,-10.015562 0.75937,-0.907443 2.04966,-0.393214 3.05595,-0.663452 2.71949,-0.474628 5.01399,-2.193879 7.11924,-3.880908 2.96164,-2.469668 5.44167,-5.986195 5.44788,-9.979503 0.13997,-1.798186 -0.40509,-3.66715 -1.71989,-4.941372 -1.3286,-1.423819 -3.33281,-1.817822 -5.16407,-2.154296 -2.04252,-1.127778 -4.25722,-1.970882 -6.16185,-3.352168 -5.47368,-3.660455 -9.31216,-9.528494 -10.95533,-15.85877 -1.01629,-3.601087 -1.16927,-7.406532 -1.33399,-11.140625 -0.088,-0.747239 -0.0159,-0.859052 -0.38476,-0.06641 z M 56.804688,74.078125 c 2.623881,-0.07022 5.208285,1.571017 6.129064,4.052049 1.335877,3.266093 0.214271,7.557929 -2.994827,9.279191 -1.959533,1.062104 -4.553544,1.280982 -6.419361,-0.10688 -1.889872,-1.198864 -3.296382,-3.235118 -3.36612,-5.517582 -0.242358,-2.631814 0.852987,-5.510593 3.251779,-6.842631 1.020265,-0.585608 2.188577,-0.860274 3.399465,-0.864147 z m 30.740234,23.125 c 0.665428,-0.05098 1.22292,0.586862 0.988281,1.238281 -0.573022,2.377574 -2.332264,4.355864 -4.480602,5.456464 -2.351243,0.97672 -5.193901,0.87894 -7.508347,-0.29747 -1.723535,-1.02363 -3.139927,-2.70091 -3.740409,-4.580688 -0.314462,-0.688374 0.115966,-1.584048 0.918892,-1.57641 1.011669,-0.02659 1.081198,1.240485 1.554709,1.875937 0.858786,1.757051 2.736114,2.735031 4.560445,3.180761 2.246736,0.23064 4.56737,-0.90937 5.89705,-2.710302 0.680337,-0.773645 0.608145,-2.380375 1.809981,-2.586573 z"
     sodipodi:nodetypes="scccccccccccccccccccccccccccccccccccccssccccccccccccccccc" />
  <path
     id="path847-7"
     style="fill:#f6c556;stroke-width:0.32"
     d="M 78.65625,0.12109375 C 68.542572,0.3309764 58.322559,2.5382517 49.436502,7.4753592 40.080123,12.686285 32.887643,21.20851 28.184615,30.743992 22.438862,42.344007 20.187696,55.527504 21.126669,68.40519 c 0.243164,3.130434 0.433656,6.302124 1.267862,9.340904 0.410939,0.479954 1.05051,-0.172269 1.462891,-0.373047 3.443221,-2.475039 6.557219,-5.369343 9.664646,-8.246145 7.765815,-7.498485 15.036814,-15.485253 22.164905,-23.586606 0.600499,-0.674057 1.21251,-1.337575 1.828652,-1.997327 -1.493861,4.489295 -3.535423,8.787843 -6.237258,12.668521 -2.452329,3.614451 -5.259565,6.991832 -8.600982,9.836003 -0.327914,0.35402 -0.804016,0.632364 -0.921526,1.128288 0.908408,0.21176 1.8432,-0.196621 2.747565,-0.306232 5.813905,-1.182964 11.619206,-2.549713 17.130963,-4.780946 7.60742,-3.021585 14.95969,-7.095201 20.764042,-12.947573 1.303257,-1.281983 2.37888,-2.766278 3.589852,-4.129311 -1.477942,5.775653 -5.385606,10.532049 -9.699585,14.493381 -2.410228,2.129436 -4.967171,4.154995 -7.644165,5.897244 -0.27504,0.528193 0.559578,0.508873 0.899217,0.496998 8.316254,-0.244261 16.725403,-1.390304 24.484753,-4.508278 6.964089,-2.748339 13.292569,-7.562539 17.042389,-14.127863 0.65339,-1.119226 1.16187,-2.314644 1.64005,-3.517107 0.13717,4.019667 0.4774,8.077764 1.75405,11.916503 1.93134,6.187368 6.06057,11.695135 11.6089,15.085146 2.62229,1.612853 5.48736,2.868311 8.47837,3.599362 0.71693,0.210504 1.36338,-0.355883 1.448,-1.055035 1.82823,-8.564062 2.03661,-17.450912 0.93156,-26.127483 -0.83757,-6.238597 -2.25744,-12.499076 -5.2532,-18.085742 C 126.642,19.500607 118.54712,11.575449 108.94807,6.6039167 101.31325,2.7477564 92.810638,0.78847367 84.300252,0.24582179 82.420949,0.13211198 80.538717,0.09647113 78.65625,0.12109375 Z M 128.92383,92.882812 c -1.51314,0.414508 -3.00463,1.015892 -4.61014,0.959461 -0.92503,-0.123853 -1.74171,0.415545 -2.24185,1.155306 -1.74018,2.315094 -3.65757,4.488269 -5.54254,6.684061 -0.29711,0.37446 -0.81151,0.89585 -0.35855,1.35813 0.84099,1.29876 2.21767,2.09244 3.25503,3.20046 0.37046,0.41159 -0.13097,1.00728 0.25086,1.45846 0.62726,1.13444 2.52459,1.26155 3.18664,0.0904 0.3447,-0.51931 0.75641,0.0234 0.57031,0.46875 -0.24378,1.56525 -0.71957,3.178 -0.21027,4.74745 0.68806,3.28828 2.77415,6.26078 5.72105,7.90433 1.64593,0.9541 3.59242,1.85221 5.5231,1.24112 1.81569,-0.43138 3.34818,-1.74345 4.36799,-3.26838 0.81933,-1.49711 0.5813,-3.30616 0.408,-4.93554 -0.22195,-1.96005 -0.99939,-3.84732 -2.33213,-5.31537 -1.68997,-2.04064 -3.9123,-3.56757 -6.31637,-4.64995 -0.6949,-0.22195 0.0218,-1.10125 -0.003,-1.6353 0.53135,-2.16407 0.62767,-4.483284 -0.1331,-6.607889 -0.37264,-0.957591 -0.5691,-2.105951 -1.3496,-2.824219 -0.054,-0.0266 -0.12581,-0.04597 -0.18555,-0.03125 z m -94.263674,0.88086 c -1.097871,0.05927 -1.468767,1.318854 -1.795845,2.17393 -0.771696,2.640226 -0.654044,5.504348 0.04975,8.138568 -0.732421,0.95402 -2.033537,1.27271 -3.005016,1.99625 -3.453804,2.15671 -6.133579,5.95313 -6.056094,10.13927 -0.07587,2.27645 0.946909,4.72525 3.075378,5.76429 1.679933,0.88987 3.768444,1.25554 5.537601,0.39257 2.804366,-1.08913 5.225592,-3.1787 6.70379,-5.79588 1.19461,-2.24075 0.774311,-4.86633 0.881665,-7.30155 -0.06935,-0.67292 -0.06889,-1.29614 0.75991,-1.3296 2.116509,-0.71393 4.23062,-1.79512 5.663313,-3.5509 0.610803,-0.73747 -0.245602,-1.53367 -0.707621,-2.07402 -2.481213,-2.703538 -5.145852,-5.285648 -7.095113,-8.422069 -1.33633,-0.03631 -2.674825,-0.18401 -4.011719,-0.130859 z M 144.15039,122.73828 c -0.96638,-0.008 -1.56003,0.83248 -1.96716,1.5934 -1.11553,1.25592 -2.53799,2.33103 -4.15406,2.83185 -0.86293,0.18562 -1.75316,0.0863 -2.62878,0.11577 0.19158,2.36996 -0.0459,4.90725 1.17578,7.05468 1.92447,4.04409 5.23761,7.5218 9.47233,9.12568 2.54366,1.04536 5.34183,1.43363 8.06979,1.04962 3.36734,-0.40339 6.78441,-1.38381 9.44139,-3.58044 0.16201,-0.22659 -0.73798,-0.17827 -1.0229,-0.22132 -2.03386,-0.009 -4.35198,-0.12054 -5.83637,-1.71419 -1.36464,-1.44483 -1.91251,-3.57567 -2.28406,-5.52347 -0.24666,-2.20078 -1.28904,-4.20241 -2.61271,-5.94405 -1.72922,-2.54399 -4.36767,-4.95373 -7.65325,-4.78753 z m -125.201171,0.58008 c -1.848268,0.0739 -3.70033,0.70017 -5.036552,2.01668 -2.658117,2.36178 -4.5678255,5.58899 -5.1160316,9.12127 -0.4486611,2.04697 -0.9698234,4.47648 -2.8730925,5.73815 -1.6082876,1.08679 -3.6415717,0.73498 -5.41377728,1.27429 -0.54200382,0.31031 0.19387857,0.78564 0.48934768,0.98393 3.1452954,1.92651 6.8730838,2.67422 10.5301057,2.63203 2.717447,0.0971 5.430627,-0.61593 7.753062,-2.02633 4.188968,-2.50682 7.555511,-6.68198 8.485297,-11.5369 0.101969,-1.04428 0.557705,-2.29386 -0.123047,-3.22851 -0.745487,-0.65691 -1.849326,-0.26242 -2.698233,-0.70756 -1.662061,-0.64701 -3.293313,-1.67717 -4.216791,-3.26602 -0.157395,-0.5635 -0.564496,-1.147 -1.232226,-1.02694 -0.183122,-0.009 -0.365362,0.0185 -0.548062,0.0259 z" />
  <path
     id="path837-4"
     style="fill:#03a1cd;stroke-width:0.32"
     d="m 56.400391,73.685547 c -2.712967,0.09766 -5.200883,1.955948 -6.142562,4.490687 -1.506763,3.573898 0.136277,8.235889 3.759589,9.791287 3.023128,1.429268 6.870463,0.158596 8.673618,-2.597447 1.302903,-1.846176 1.345322,-4.271698 0.973934,-6.419117 -0.387069,-1.476313 -1.338147,-2.793824 -2.48997,-3.778013 -1.330055,-1.073325 -3.073449,-1.588613 -4.774609,-1.487397 z m 48.027339,0.05469 c -2.12496,0.05585 -4.21159,1.146981 -5.306636,2.998047 -1.813167,2.646622 -1.859468,6.427883 0.121849,8.998418 1.849297,2.568695 5.557367,3.647998 8.432837,2.220332 2.62913,-1.187662 4.39904,-4.022941 4.22231,-6.915602 -0.028,-2.559425 -1.25968,-5.172417 -3.52576,-6.476104 -1.17419,-0.72171 -2.58827,-0.918072 -3.9446,-0.825091 z m 34.7793,43.878906 c -0.89841,2.20399 -2.87089,4.0904 -5.30469,4.35352 -0.57828,0.0216 -1.62862,-0.0527 -1.61914,0.78125 0.20891,1.42512 1.03031,2.71326 1.93438,3.80662 1.11058,1.10421 2.89422,1.09926 4.32172,0.74133 1.65588,-0.54166 3.00351,-1.79824 4.06422,-3.14366 1.03821,-1.30948 0.35787,-3.1373 -0.50977,-4.34375 -0.7051,-1.03009 -1.81152,-1.65619 -2.7793,-2.40429 -0.0358,0.0697 -0.0716,0.13932 -0.10742,0.20898 z m -115.42578,0.70898 c -0.865783,0.25414 -1.546466,0.96501 -2.203125,1.56446 -1.195535,1.18937 -1.619555,3.08829 -1.0625,4.67187 0.782396,1.28512 2.099825,2.15073 3.353516,2.93164 1.548158,0.88833 3.67444,0.97771 5.054599,-0.27778 1.18607,-1.04472 1.89592,-2.58876 2.13876,-4.13042 -0.146131,-0.70672 -1.061875,-0.33711 -1.558594,-0.52734 -2.301107,-0.48718 -4.232549,-2.05719 -5.388672,-4.08203 -0.08432,-0.0895 -0.208081,-0.15721 -0.333984,-0.1504 z" />
  <path
     id="path833-44"
     style="fill:#975122;stroke-width:0.32"
     d="m 87.587891,97.097656 c -1.291734,0.320946 -1.472966,1.89573 -2.235845,2.784541 -1.506994,2.179153 -4.607465,2.745523 -6.959468,1.981083 -1.567926,-0.70777 -2.985741,-2.052167 -3.523047,-3.762655 -0.330059,-1.098344 -2.358772,-0.972518 -2.32931,0.25903 0.149272,1.711485 1.275875,3.201375 2.53214,4.303015 2.200271,1.95904 5.444678,2.63052 8.225931,1.63334 2.544816,-0.8376 4.699971,-2.9704 5.400927,-5.573354 0.221971,-0.668374 -0.05271,-1.700284 -0.910537,-1.638168 -0.06729,-0.0041 -0.133891,0.0079 -0.200791,0.01317 z" />
</svg>
