<?xml version="1.0" encoding="UTF-8" standalone="no"?>
<!-- Created with Inkscape (http://www.inkscape.org/) -->

<svg
   version="1.1"
   id="svg2"
   width="122.40752"
   height="132.58446"
   viewBox="0 0 122.40752 132.58446"
   sodipodi:docname="6.svg"
   inkscape:version="1.1 (c4e8f9ed74, 2021-05-24)"
   xmlns:inkscape="http://www.inkscape.org/namespaces/inkscape"
   xmlns:sodipodi="http://sodipodi.sourceforge.net/DTD/sodipodi-0.dtd"
   xmlns="http://www.w3.org/2000/svg"
   xmlns:svg="http://www.w3.org/2000/svg">
  <sodipodi:namedview
     id="namedview64"
     pagecolor="#ffffff"
     bordercolor="#666666"
     borderopacity="1.0"
     inkscape:pageshadow="2"
     inkscape:pageopacity="0.0"
     inkscape:pagecheckerboard="0"
     showgrid="false"
     inkscape:zoom="0.38385417"
     inkscape:cx="119.83718"
     inkscape:cy="613.51424"
     inkscape:window-width="1920"
     inkscape:window-height="1080"
     inkscape:window-x="1920"
     inkscape:window-y="0"
     inkscape:window-maximized="1"
     inkscape:current-layer="svg2"
     fit-margin-top="0"
     fit-margin-left="0"
     fit-margin-right="0"
     fit-margin-bottom="0" />
  <defs
     id="defs6">
    <clipPath
       clipPathUnits="userSpaceOnUse"
       id="clipPath2748">
      <rect
         style="fill:none;stroke:#fd0000;stroke-width:6.29354;stroke-linecap:round;stroke-opacity:1"
         id="rect2750"
         width="181.78069"
         height="160.40302"
         x="319.67203"
         y="-1.6533943" />
    </clipPath>
    <clipPath
       clipPathUnits="userSpaceOnUse"
       id="clipPath2829">
      <rect
         style="fill:none;stroke:#fd0000;stroke-width:5.85576;stroke-linecap:round;stroke-opacity:1"
         id="rect2831"
         width="172.34521"
         height="169.41031"
         x="166.89822"
         y="149.70647" />
    </clipPath>
    <clipPath
       clipPathUnits="userSpaceOnUse"
       id="clipPath4462">
      <rect
         style="fill:none;fill-opacity:1;stroke:#fd0000;stroke-width:6;stroke-linecap:round;stroke-opacity:1"
         id="rect4464"
         width="154.82426"
         height="154.94003"
         x="163.68083"
         y="328.92615" />
    </clipPath>
    <clipPath
       clipPathUnits="userSpaceOnUse"
       id="clipPath5140">
      <rect
         style="fill:none;stroke:#fd0000;stroke-width:6;stroke-linecap:round;stroke-opacity:1"
         id="rect5142"
         width="143.4304"
         height="153.41002"
         x="492.91498"
         y="328.1218" />
    </clipPath>
    <clipPath
       clipPathUnits="userSpaceOnUse"
       id="clipPath6275">
      <rect
         style="fill:none;fill-opacity:1;stroke:#fd0000;stroke-width:6;stroke-linecap:round;stroke-opacity:1"
         id="rect6277"
         width="135.50941"
         height="155.53391"
         x="337.29059"
         y="492.97705" />
    </clipPath>
  </defs>
  <path
     style="fill:#fad4ad;stroke-width:0.32"
     d="m 56.2836,132.34724 c -11.9424,-1.15475 -23.3444,-6.74029 -31.7628,-15.55984 -1.6707,-1.75034 -3.6103,-3.98352 -4.3101,-4.96266 l -1.2724,-1.78019 -2.2613,-0.14512 c -3.0955,-0.19866 -6.2087,-1.83594 -9.3461,-4.91523 -2.9925,-2.93709 -4.3653,-5.677445 -4.3907,-8.764425 -0.031,-3.77424 2.2197,-6.42489 5.667,-6.67424 1.5257,-0.11037 1.8276,-0.2264 1.7042,-0.65501 -0.082,-0.28646 -0.3032,-1.83427 -0.4906,-3.43958 l -0.3407,-2.91869 1.1215,-1.86246 c 0.6168,-1.02435 1.135,-2.01495 1.1516,-2.20131 0.017,-0.18634 0.2245,0.63932 0.4623,1.83481 0.7871,3.95763 2.7247,6.01418 5.8818,6.24253 4.7821,0.34592 8.6374,-4.10077 10.7022,-12.34381 0.453,-1.80819 0.9186,-4.00419 1.0348,-4.88 0.1997,-1.50521 0.7688,-2.25673 0.7688,-1.01517 0,1.00759 1.6024,3.83866 2.7362,4.83412 0.6013,0.5279 1.6641,1.13088 2.3619,1.33993 1.1537,0.34567 1.4298,0.30128 3.0465,-0.48969 2.774,-1.35719 5.0007,-5.1466 7.4402,-12.661542 0.086,-0.264 0.4837,0.48122 0.8846,1.656 1.7147,5.025922 3.7747,6.471462 7.5924,5.327682 2.8329,-0.84877 4.868,-3.569792 6.9928,-9.349922 l 1.1639,-3.16624 0.3712,1.88624 c 1.101,5.59478 5.1051,10.048352 9.0313,10.045062 1.9055,-0.003 3.2645,-0.89085 4.4001,-2.879202 l 0.9291,-1.62682 0.1703,2.122142 c 0.2326,2.89716 2.016,6.54925 3.7627,7.70516 3.3088,2.18966 7.6816,1.34505 9.6594,-1.86576 0.4055,-0.6584 0.8103,-1.201 0.8995,-1.20573 0.089,-0.005 0.5875,1.46739 1.1075,3.27139 1.3175,4.57059 2.4134,6.59574 4.8896,9.03571 2.6017,2.56359 4.1623,3.36429 6.5573,3.36429 1.484,0 1.9725,-0.14992 2.8245,-0.86675 1.2127,-1.02051 2.2021,-3.03011 2.212,-4.49325 0,-0.572 0.115,-1.03197 0.247,-1.02214 0.132,0.01 0.818,0.76582 1.5245,1.68 1.2701,1.64352 1.2823,1.68544 1.0914,3.74214 -0.1063,1.144 -0.2977,2.67277 -0.4255,3.39728 l -0.2322,1.31728 1.6335,0.15696 c 3.1007,0.29792 5.4556,3.17024 5.4407,6.63629 -0.016,3.63664 -2.3547,7.491045 -6.3927,10.533735 -2.8584,2.15382 -5.4103,3.23846 -7.6195,3.23846 -1.4932,0 -1.537,0.0298 -2.9479,2 -2.136,2.98256 -8.0631,8.74918 -11.5123,11.20048 -3.5343,2.51178 -9.6134,5.62746 -13.28,6.80637 -7.0862,2.2784 -13.8692,3.04857 -20.8795,2.37072 z m 8.4018,-14.48999 c 1.9177,-0.89305 3.396,-2.48848 4.1605,-4.4904 0.4634,-1.21347 0.4891,-1.55721 0.1473,-1.96908 -0.6319,-0.76144 -1.6896,-0.42922 -2.2586,0.70944 -1.4472,2.896 -2.9935,3.94592 -5.7988,3.93718 -2.3273,-0.007 -4.0056,-0.99571 -5.0917,-2.99888 -0.9143,-1.68637 -1.427,-2.1472 -2.1009,-1.88858 -0.9527,0.3656 -1.0396,1.22711 -0.2875,2.8505 1.8659,4.02726 7.0397,5.80099 11.2297,3.84982 z M 41.7366,106.90631 c 6.6269,-1.35242 11.9767,-6.06419 12.7681,-11.245345 0.2385,-1.56138 0.8485,-2.24826 2.8184,-3.17354 2.6258,-1.23334 5.432,-0.95658 8.2186,0.81062 1.3137,0.83316 1.5162,1.12135 1.8364,2.61431 1.3872,6.468255 8.8028,11.470305 17.0368,11.491745 7.072,0.0186 13.5473,-3.31072 16.2946,-8.377605 1.0375,-1.91337 1.0936,-2.18099 1.0933,-5.21683 -2e-4,-2.85024 -0.093,-3.37488 -0.8515,-4.8 -1.9218,-3.6119 -4.9274,-6.02192 -9.5341,-7.64493 -2.4911,-0.87769 -3.0896,-0.9623 -6.7341,-0.95206 -3.4473,0.01 -4.3572,0.12857 -6.5851,0.86067 -5.2704,1.73187 -9.2232,5.32566 -10.4872,9.53466 -0.1342,0.44684 -0.4336,0.3806 -2.1699,-0.48 -1.809,-0.89664 -2.3087,-0.99805 -4.906,-0.9954 -2.503,0.003 -3.1076,0.11648 -4.4969,0.84743 l -1.6051,0.84448 -0.8911,-1.89661 c -2.4002,-5.10902 -9.4139,-8.91824 -16.4203,-8.91824 -6.9008,0 -13.6373,3.71168 -16.2058,8.92906 -0.9034,1.8351 -1.0326,2.41859 -1.0323,4.66422 2e-4,2.11555 0.1511,2.88883 0.8588,4.39914 1.2169,2.597245 2.6498,4.247875 5.0535,5.821505 4.7237,3.09248 10.126,4.06941 15.9409,2.88272 z m -8.7737,-2.53386 c -3.0781,-0.6695 -5.506,-1.98371 -7.6951,-4.16544 -1.6118,-1.606365 -2.0751,-2.312255 -2.5182,-3.836415 -1.7119,-5.88877 2.7955,-11.46752 10.6015,-13.12122 2.8008,-0.59334 4.579,-0.59769 7.6052,-0.0186 4.3364,0.82967 8.1625,3.31677 10.055,6.53603 0.7548,1.28391 0.871,1.82653 0.8663,4.04295 -0.01,3.02733 -0.594,4.38809 -2.8577,6.619775 -3.7116,3.6592 -10.1231,5.23364 -16.057,3.94301 z m 6.9144,-2.74739 c 1.8895,-0.85709 2.4764,-1.42275 3.4327,-3.308485 0.679,-1.33907 0.7804,-1.91462 0.6818,-3.86886 -0.1374,-2.71981 -1.0736,-4.42282 -3.2081,-5.83533 -1.1437,-0.75683 -1.66,-0.88272 -3.6206,-0.88272 -1.9607,0 -2.477,0.12589 -3.6207,0.88272 -2.1462,1.42035 -3.0704,3.11226 -3.21,5.87638 -0.097,1.91994 0.01,2.59856 0.5921,3.80375 1.6479,3.404135 5.5735,4.865375 8.9528,3.332545 z m 40.4573,2.74976 c -7.169,-1.55981 -11.8143,-7.339075 -10.2432,-12.743525 0.6856,-2.35849 2.1641,-4.24406 4.627,-5.90089 3.0069,-2.02282 5.8192,-2.79098 10.1247,-2.76544 3.7954,0.0224 6.2566,0.63731 9.0095,2.25062 7.6102,4.4599 7.3595,13.22947 -0.5007,17.507495 -3.5117,1.91129 -8.7623,2.57757 -13.0173,1.65174 z m 6.6133,-2.4504 c 1.7222,-0.516 3.2975,-1.92416 4.1273,-3.689415 0.578,-1.22972 0.6897,-1.94172 0.596,-3.79824 -0.1367,-2.708 -1.0762,-4.41398 -3.2075,-5.82438 -1.1437,-0.75683 -1.66,-0.88272 -3.6206,-0.88272 -1.9606,0 -2.477,0.12589 -3.6206,0.88272 -2.1463,1.42035 -3.0706,3.11226 -3.2101,5.87638 -0.096,1.8906 0.011,2.60397 0.5591,3.73575 1.5858,3.275745 4.9025,4.740735 8.3764,3.699905 z M 0,76.849625 c 0,-1.76 0.055,-2.43917 0.1194,-1.50928 0.065,0.92992 0.064,2.36992 0,3.2 -0.066,0.83011 -0.1188,0.0693 -0.1179,-1.69072 z m 121.8283,1.89334 c 0.015,-0.3728 0.091,-0.4486 0.1934,-0.19334 0.092,0.23101 0.081,0.50701 -0.025,0.61334 -0.1064,0.10634 -0.182,-0.0827 -0.1681,-0.42 z m 0.4145,-5.41334 c 0,-1.936 0.053,-2.68675 0.1171,-1.66832 0.064,1.01843 0.063,2.60243 0,3.52 -0.064,0.91757 -0.1165,0.0843 -0.1158,-1.85168 z m -121.9892,-2.08 c 0,-0.44 0.073,-0.62 0.1614,-0.4 0.089,0.22 0.089,0.58 0,0.8 -0.089,0.22 -0.1614,0.04 -0.1614,-0.4 z m 0.32,-2.56 c 0,-0.44 0.073,-0.62 0.1614,-0.4 0.089,0.22 0.089,0.58 0,0.8 -0.089,0.22 -0.1614,0.04 -0.1614,-0.4 z m 121.2547,-2.10666 c 0.015,-0.3728 0.091,-0.4486 0.1934,-0.19334 0.092,0.23101 0.081,0.50701 -0.025,0.61334 -0.1064,0.10634 -0.182,-0.0827 -0.1681,-0.42 z m -120.96,-0.32 c 0.015,-0.3728 0.091,-0.4486 0.1934,-0.19334 0.093,0.23101 0.081,0.50701 -0.025,0.61334 -0.1064,0.10634 -0.182,-0.0827 -0.1681,-0.42 z m 120.64,-1.920002 c 0.015,-0.3728 0.091,-0.4486 0.1934,-0.19334 0.092,0.23101 0.081,0.50701 -0.025,0.61334 -0.1064,0.10634 -0.182,-0.0827 -0.1681,-0.42 z m -0.32,-2.24 c 0.015,-0.3728 0.091,-0.4486 0.1934,-0.19334 0.092,0.23101 0.081,0.50701 -0.025,0.61334 -0.1064,0.10634 -0.182,-0.0827 -0.1681,-0.42 z m -0.32,-1.92 c 0.015,-0.3728 0.091,-0.4486 0.1934,-0.19334 0.093,0.23101 0.081,0.50701 -0.025,0.61334 -0.1064,0.10634 -0.182,-0.0827 -0.1681,-0.42 z m -0.32,-1.92 c 0.015,-0.3728 0.091,-0.4486 0.1934,-0.19334 0.092,0.23101 0.081,0.50701 -0.025,0.61334 -0.1064,0.10634 -0.182,-0.0827 -0.1681,-0.42 z M 14.2831,34.648793 c 0,-0.0664 0.252,-0.31843 0.56,-0.56 0.5075,-0.39802 0.5188,-0.38672 0.1208,0.12083 -0.418,0.53302 -0.6808,0.70256 -0.6808,0.43917 z m 2.08,-2.43917 c 0.3185,-0.352 0.6512,-0.64 0.7392,-0.64 0.088,0 -0.1006,0.288 -0.4192,0.64 -0.3186,0.352 -0.6512,0.64 -0.7392,0.64 -0.088,0 0.1006,-0.288 0.4192,-0.64 z m 4.16,-4.16 c 0.3185,-0.352 0.6512,-0.64 0.7392,-0.64 0.088,0 -0.1007,0.288 -0.4192,0.64 -0.3186,0.352 -0.6512,0.64 -0.7392,0.64 -0.088,0 0.1006,-0.288 0.4192,-0.64 z m 18.02,-9.81859 c 0.231,-0.0925 0.507,-0.0811 0.6133,0.0253 0.1064,0.10633 -0.083,0.18198 -0.42,0.16809 -0.3728,-0.0154 -0.4486,-0.0912 -0.1933,-0.19334 z m 2.24,-0.32 c 0.231,-0.0925 0.507,-0.0811 0.6133,0.0253 0.1064,0.10633 -0.083,0.18198 -0.42,0.16809 -0.3728,-0.0154 -0.4486,-0.0912 -0.1933,-0.19334 z m 27.9,-2.20062 c 0,-0.0653 0.288,-0.27293 0.64,-0.46131 0.3536,-0.18922 0.64,-0.21098 0.64,-0.0486 0,0.16167 -0.288,0.36925 -0.64,0.46128 -0.352,0.0921 -0.64,0.11392 -0.64,0.0486 z m -28.2008,-0.70079 c -0.3981,-0.50755 -0.3868,-0.51885 0.1208,-0.12083 0.308,0.24157 0.56,0.49357 0.56,0.56 0,0.26339 -0.2628,0.0938 -0.6808,-0.43917 z m 31.2408,-1.36 c 0.3186,-0.352 0.6512,-0.64 0.7392,-0.64 0.088,0 -0.1007,0.288 -0.4192,0.64 -0.3186,0.352 -0.6512,0.64 -0.7392,0.64 -0.088,0 0.1006,-0.288 0.4192,-0.64 z m -12.32,-1.06013 c 0,-0.0551 0.468,-0.52307 1.04,-1.04 l 1.04,-0.93987 -0.9399,1.04 c -0.8761,0.96944 -1.1401,1.1871 -1.1401,0.93987 z m -18.56,-2.26098 c 0,-0.0664 0.252,-0.31843 0.56,-0.5599995 0.5075,-0.39802 0.5188,-0.38672 0.1208,0.12083 -0.418,0.5330195 -0.6808,0.7025595 -0.6808,0.4391695 z M 73.8655,9.6496235 c 0.01,-0.528 0.078,-0.70525 0.1593,-0.39392 0.081,0.31136 0.076,0.74336 -0.012,0.9599995 -0.088,0.21667 -0.154,-0.0381 -0.1475,-0.5660795 z m -10.9424,-0.64 c 0.4133,-0.44 0.8235,-0.8 0.9115,-0.8 0.088,0 -0.1782,0.36 -0.5915,0.8 -0.4134,0.44 -0.8236,0.8 -0.9116,0.8 -0.088,0 0.1783,-0.36 0.5916,-0.8 z m -19.26,-0.37859 c 0.231,-0.0924 0.507,-0.0811 0.6133,0.0253 0.1064,0.10633 -0.083,0.18198 -0.42,0.16809 -0.3728,-0.0154 -0.4486,-0.0912 -0.1933,-0.19334 z m 2.24,0 c 0.231,-0.0924 0.507,-0.0811 0.6133,0.0253 0.1064,0.10633 -0.083,0.18198 -0.42,0.16809 -0.3728,-0.0154 -0.4486,-0.0912 -0.1933,-0.19334 z m 23.1861,-2.88317 c 0.3113,-0.0811 0.7433,-0.0758 0.96,0.0118 0.2166,0.0876 -0.038,0.15402 -0.5661,0.14752 -0.528,-0.006 -0.7053,-0.0782 -0.3939,-0.15939 z"
     id="path849-1" />
  <path
     style="fill:#f6c556;stroke-width:0.32"
     d="m 16.0429,86.106395 c -2.1845,-1.1361 -3.4852,-3.20771 -3.8679,-6.1601 l -0.2207,-1.70333 -0.9142,1.70333 c -1.6242,3.02643 -5.1334,5.67971 -7.534,5.69629 -3.1109,0.0214 -4.1159,-6.62758 -2.6558,-17.57091 1.6876,-12.648612 5.7213,-22.750792 12.91,-32.332742 3.9709,-5.2928 7.9413,-8.92909 13.6426,-12.49449 5.5044,-3.44231 9.57,-4.87818 15.2,-5.36836 l 2.88,-0.25072 -2.3129,-1.18835 c -1.2721,-0.65357 -2.5483,-1.54745 -2.8359,-1.98643 -1.158,-1.76739 0.6627,-4.8669095 3.2717,-5.5694395 2.5904,-0.6975 7.3683,0.99997 11.9571,4.2480995 l 2.08,1.47232 3.0181,-3.0713 c 1.66,-1.6892195 3.7714,-3.5713895 4.692,-4.1826595 2.7339,-1.81526 5.6116,-1.83699 7.4331,-0.0562 2.2301,2.18032 0.8285,5.3175695 -3.657,8.1858295 -0.3334,0.21321 0.042,0.15139 0.8338,-0.13741 0.9944,-0.36259 2.4797,-0.52454 4.8,-0.52333 6.8249,0.004 16.2688,3.38957 22.4962,8.06586 9.0503,6.79603 16.7032,16.73069 20.8533,27.07081 2.4322,6.05988 4.0083,15.06532 4.0097,22.909192 0,5.47347 -0.3859,7.64733 -1.8343,10.30845 -1.0841,1.99193 -2.2549,2.65715 -3.7866,2.15161 -1.2578,-0.4151 -3.9992,-2.81872 -5.4183,-4.75075 -0.528,-0.71882 -1.068,-1.31037 -1.2,-1.31453 -0.132,-0.004 -0.2432,0.46045 -0.247,1.03245 -0.01,1.46314 -0.9993,3.47274 -2.212,4.49325 -0.852,0.71683 -1.3405,0.86675 -2.8245,0.86675 -2.395,0 -3.9556,-0.8007 -6.5573,-3.36429 -2.4762,-2.43997 -3.5721,-4.46512 -4.8896,-9.03571 -0.52,-1.804 -1.0184,-3.27613 -1.1075,-3.27139 -0.089,0.005 -0.494,0.54733 -0.8995,1.20573 -1.9778,3.21081 -6.3506,4.05542 -9.6594,1.86576 -1.7467,-1.15591 -3.5301,-4.808 -3.7627,-7.70516 l -0.1703,-2.122142 -0.9291,1.62682 c -1.1356,1.988352 -2.4946,2.877562 -4.4001,2.879202 -3.9262,0.003 -7.9303,-4.450282 -9.0313,-10.045062 l -0.3712,-1.88624 -1.1639,3.16624 c -2.1248,5.78013 -4.1599,8.501152 -6.9928,9.349922 -3.8176,1.14378 -5.8777,-0.30176 -7.5924,-5.327682 -0.4009,-1.17478 -0.7989,-1.92 -0.8846,-1.656 -1.4401,4.436452 -3.0515,7.986662 -4.7457,10.455872 -0.6149,0.896 -1.502,1.62224 -2.6945,2.20567 -1.6167,0.79097 -1.8928,0.83536 -3.0465,0.48969 -0.6978,-0.20905 -1.7606,-0.81203 -2.3619,-1.33993 -1.1338,-0.99546 -2.7362,-3.82653 -2.7362,-4.83412 0,-1.24156 -0.5691,-0.49004 -0.7688,1.01517 -0.3836,2.89181 -1.8414,8.13079 -2.9096,10.45671 -2.4412,5.31507 -7.3454,8.16688 -10.8816,6.32771 z"
     id="path847-0" />
  <path
     style="fill:#dc8829;stroke-width:0.32"
     d="m 66.4433,116.56912 c 0,-0.0664 0.252,-0.31843 0.56,-0.56 0.5076,-0.39802 0.5189,-0.38672 0.1209,0.12083 -0.4181,0.53302 -0.6809,0.70256 -0.6809,0.43917 z"
     id="path841-0" />
  <path
     style="fill:#3a53b6;stroke-width:0.32"
     d="m 34.6031,107.20937 c -0.352,-0.0693 -1.432,-0.28416 -2.4,-0.47744 -4.7708,-0.95254 -9.3361,-4.28764 -11.2832,-8.242785 -0.894,-1.81603 -1.0253,-2.40451 -1.0049,-4.50422 0.035,-3.56036 0.9654,-5.7114 3.6188,-8.36368 3.5121,-3.51056 7.9368,-5.19815 13.6293,-5.19815 5.556,0 9.9993,1.62675 13.4231,4.9144 1.3813,1.3264 2.2971,2.55299 2.8861,3.86551 0.4746,1.05744 0.9591,1.87116 1.0768,1.80828 4.2583,-2.27516 8.0865,-2.35132 11.678,-0.23228 l 1.0764,0.6351 1.1784,-2.38435 c 3.9712,-8.03501 15.9524,-11.12698 25.4054,-6.55626 3.179,1.53706 5.6688,3.88007 6.9964,6.58368 0.8057,1.64096 0.9194,2.22851 0.9194,4.75245 0,2.48541 -0.1191,3.1225 -0.8692,4.64973 -1.8149,3.695525 -4.7846,6.128035 -9.5167,7.795205 -2.4911,0.87769 -3.0896,0.9623 -6.7341,0.95206 -3.4473,-0.01 -4.3572,-0.12857 -6.5851,-0.86067 -5.6349,-1.85165 -9.9376,-6.0553 -10.5941,-10.350145 -0.248,-1.62269 -0.8411,-2.25546 -3.1408,-3.35101 -4.2642,-2.03139 -9.3463,-0.52215 -9.9174,2.94518 -0.8883,5.392775 -6.3817,10.140395 -13.123,11.341315 -2.4319,0.43325 -5.3238,0.55293 -6.7196,0.27808 z m 7.1233,-2.84153 c 4.1554,-0.97971 8.087,-3.75703 9.5105,-6.718215 0.3444,-0.71638 0.6726,-2.22026 0.7455,-3.41539 0.1087,-1.78317 0,-2.42823 -0.6825,-3.91053 -3.9467,-8.62067 -19.3392,-10.2136 -26.2775,-2.71942 -2.8184,3.04419 -3.5048,6.82307 -1.8342,10.09776 1.4752,2.891745 5.2192,5.555325 9.3349,6.641125 2.3003,0.60688 6.6841,0.61865 9.2033,0.0246 z m -6.7445,-2.54183 c -5.5678,-1.985765 -6.393,-10.013445 -1.3498,-13.131455 1.2936,-0.79975 1.898,-0.96493 3.531,-0.96493 2.7086,0 4.724,1.22605 5.9858,3.64147 1.6572,3.17223 1.0396,6.68362 -1.5931,9.057255 -1.9695,1.77565 -4.1902,2.24778 -6.5739,1.39766 z m 54.1045,2.54183 c 6.203,-1.4625 10.4515,-5.750795 10.4265,-10.524105 -0.018,-3.32989 -1.691,-6.08857 -4.9849,-8.21757 -9.2851,-6.00128 -23.7062,-1.72112 -24.7812,7.35495 -0.5754,4.85875 3.7149,9.667935 10.1363,11.362055 2.3003,0.60688 6.6841,0.61865 9.2033,0.0246 z m -6.4245,-2.52352 c -5.5785,-2.073195 -6.3953,-10.030345 -1.3497,-13.149765 1.2936,-0.79975 1.8979,-0.96493 3.5309,-0.96493 1.633,0 2.2373,0.16518 3.5309,0.96493 4.7006,2.90617 4.3666,10.28317 -0.5815,12.841895 -1.3337,0.68969 -3.7182,0.83276 -5.1306,0.30787 z"
     id="path835-5" />
  <path
     style="fill:#975122;stroke-width:0.32"
     d="m 59.4886,118.26422 c -2.0526,-0.39302 -3.5106,-1.20198 -4.7266,-2.62262 -1.4688,-1.71591 -2.0076,-3.32045 -1.3394,-3.98861 0.7186,-0.71862 1.3712,-0.308 2.0888,1.31437 2.0463,4.62605 9.3024,4.45206 11.1043,-0.26627 0.6017,-1.5754 1.3031,-2.03293 2.019,-1.317 1.3289,1.32893 -1.9282,5.78608 -4.7527,6.50381 -2.344,0.59559 -2.9688,0.64912 -4.3934,0.37632 z M 120.8683,0.34296349 c 0.015,-0.3728 0.091,-0.4486 0.1934,-0.19334 0.093,0.23101 0.081,0.50701 -0.025,0.61334 -0.1064,0.10634 -0.182,-0.0827 -0.1681,-0.42 z"
     id="path833-4" />
</svg>
