<?xml version="1.0" encoding="UTF-8" standalone="no"?>
<!-- Created with Inkscape (http://www.inkscape.org/) -->

<svg
   version="1.1"
   id="svg2"
   width="131.26059"
   height="141.65883"
   viewBox="0 0 131.26059 141.65883"
   sodipodi:docname="kids_faces_classroom_clipart.png"
   inkscape:version="1.1 (c4e8f9ed74, 2021-05-24)"
   xmlns:inkscape="http://www.inkscape.org/namespaces/inkscape"
   xmlns:sodipodi="http://sodipodi.sourceforge.net/DTD/sodipodi-0.dtd"
   xmlns="http://www.w3.org/2000/svg"
   xmlns:svg="http://www.w3.org/2000/svg">
  <defs
     id="defs6" />
  <sodipodi:namedview
     id="namedview4"
     pagecolor="#ffffff"
     bordercolor="#666666"
     borderopacity="1.0"
     inkscape:pageshadow="2"
     inkscape:pageopacity="0.0"
     inkscape:pagecheckerboard="0"
     showgrid="false"
     fit-margin-top="0"
     fit-margin-left="0"
     fit-margin-right="0"
     fit-margin-bottom="0"
     inkscape:zoom="2.8284271"
     inkscape:cx="86.62058"
     inkscape:cy="85.736697"
     inkscape:window-width="1920"
     inkscape:window-height="1080"
     inkscape:window-x="1920"
     inkscape:window-y="0"
     inkscape:window-maximized="1"
     inkscape:current-layer="g8" />
  <g
     inkscape:groupmode="layer"
     inkscape:label="Image"
     id="g8"
     transform="translate(-661.88665,-320.42711)">
    <path
       id="path1165"
       style="fill:#fad4ad;stroke-width:0.32"
       d="m 700.81836,389.94727 c -0.76808,0.51301 -0.6546,1.59515 -0.99542,2.36631 -1.49512,5.25568 -3.90922,10.21269 -7.27558,14.52907 -3.48965,4.60167 -7.76003,8.62274 -12.25325,12.24955 -0.27041,0.18851 -1.13806,0.97363 -0.58903,0.26522 2.00324,-3.21739 3.23708,-6.83364 4.28711,-10.45508 -3.27222,3.26349 -6.74836,6.44078 -9.15675,10.43074 -1.92698,3.25656 -2.85689,7.06915 -2.66023,10.84855 0.0667,2.77783 0.64713,5.51381 1.25448,8.20899 0.39822,0.67793 1.12896,1.0807 1.5312,1.76913 4.55493,5.89391 10.0868,11.10084 16.55762,14.84272 6.17473,3.58917 13.1135,5.89375 20.22771,6.58593 4.18548,0.26714 8.40238,0.16404 12.56937,-0.31569 6.84497,-0.87713 13.42638,-3.41846 19.29739,-7.00954 6.64088,-4.05913 12.26474,-9.66892 16.61695,-16.10497 0.81105,-1.14689 1.59938,-2.31393 2.48145,-3.39864 0.34153,-0.85553 0.23369,-1.83343 0.34073,-2.74171 0.0342,-1.71816 0.38062,-3.41755 0.20717,-5.13674 -0.16222,-2.82162 -0.42273,-5.67098 -1.18911,-8.39851 -0.68805,-2.06722 -1.88074,-4.23695 -3.97837,-5.12713 -2.17623,-0.72062 -4.43803,0.12795 -6.65372,0.11392 -9.12472,0.59874 -18.43222,-0.62971 -26.88512,-4.15722 -6.59873,-2.71044 -12.84407,-6.50524 -17.81969,-11.64018 -2.00012,-2.09489 -3.61763,-4.54852 -4.88171,-7.14855 -0.20674,-0.35891 -0.5881,-0.73116 -1.0332,-0.57617 z m -6.79883,30.61914 c 4.05423,-0.0411 7.35061,4.38521 6.25195,8.29492 -0.53367,2.45795 -2.448,4.74695 -5.03986,5.08389 -2.49157,0.53284 -5.222,-0.65453 -6.48285,-2.88099 -1.52558,-2.4318 -1.3385,-5.79242 0.49382,-7.98477 1.14216,-1.45516 2.8969,-2.49621 4.77694,-2.51305 z m 47.38281,0.66797 c 3.73076,0.02 6.78792,4.04289 5.89258,7.69531 -0.51697,2.38934 -2.48296,4.83987 -5.10969,5.16576 -2.51727,0.47761 -5.21844,-0.87726 -6.31817,-3.19676 -1.29085,-2.59905 -0.96241,-6.12286 1.18958,-8.17213 1.17553,-1.06521 2.77725,-1.54328 4.3457,-1.49218 z m -17.42968,23.07226 c 0.7662,0.0324 0.74646,1.01215 0.45324,1.51815 -0.86139,2.71179 -3.23122,5.07335 -6.18957,5.15568 -2.40589,0.21235 -4.91359,-0.90299 -6.28073,-2.94938 -0.6641,-0.87879 -1.41751,-2.00464 -1.11576,-3.14632 0.51253,-0.44432 1.12295,0.12965 1.2164,0.6574 0.82449,1.80689 2.30633,3.41865 4.29923,3.88361 2.04422,0.59419 4.44033,-0.11146 5.65231,-1.90871 0.73184,-1.00068 1.04491,-2.26286 1.86331,-3.20262 l 0.0937,-0.008 z" />
    <path
       id="path1155"
       style="fill:#ed7b15;stroke-width:0.32"
       d="m 727.61523,344.82422 c -1.1217,0.004 -1.60154,1.27349 -1.60156,2.20703 -0.69068,0.52352 -1.66834,0.41298 -2.37043,0.94676 -0.89159,0.47957 -1.36942,1.72404 -0.67449,2.56887 0.59852,1.03444 2.08924,1.34386 2.37989,2.5687 0.004,1.79052 1.5127,3.60738 3.40235,3.43974 0.77128,0.0438 1.66265,-0.30771 2.35031,0.0878 0.55649,1.15686 1.42281,2.15858 2.46706,2.90374 1.36164,0.99325 3.0664,0.21621 4.58789,0.36718 0.56692,0.11014 0.8622,0.78015 1.40625,1.02539 1.17312,0.80013 2.81726,0.99758 4.00883,0.1196 0.55974,-0.3274 1.0219,-0.84092 1.48336,-1.25046 0.40919,0.31716 0.64758,0.82591 1.15648,1.03534 0.73791,0.58868 1.9724,1.18839 2.74781,0.33576 1.14946,-1.21019 0.69161,-3.13127 1.72852,-4.42188 0.56646,-0.76388 0.80722,-1.91112 0.0865,-2.6632 -1.08729,-1.14687 -2.84237,-0.86803 -4.25843,-0.72938 -0.67784,0.1537 -0.68613,-0.67735 -0.98567,-1.07591 -0.61334,-1.31955 -1.92706,-2.64976 -3.50902,-2.32323 -0.88515,0.17046 -1.64032,0.71118 -2.33538,1.25657 -0.77765,-1.66252 -2.3997,-3.30402 -4.38602,-3.0304 -0.88778,0.10563 -1.64616,0.62894 -2.36203,1.1261 -1.36543,-1.738 -2.7083,-3.84451 -4.96796,-4.46457 -0.11626,-0.0236 -0.23673,-0.0265 -0.35431,-0.0296 z" />
    <path
       id="path1145"
       style="fill:#803300;stroke-width:0.32"
       d="m 741.61719,320.4707 c -4.4751,0.20799 -8.88662,2.39179 -11.49969,6.07943 -3.27546,4.38728 -4.2327,10.17558 -3.44205,15.51285 0.26443,1.20649 0.48621,2.52747 1.28549,3.50733 0.90109,0.89777 2.05466,1.52334 2.7929,2.58662 0.69443,0.81538 1.31699,1.68861 1.97077,2.53643 1.05523,-0.90855 2.51741,-1.93477 3.94904,-1.24829 1.34986,0.54799 2.04759,1.94139 2.63104,3.18774 1.1403,-0.57837 2.06064,-1.75671 3.41992,-1.78711 1.39914,0.38709 1.98144,1.87574 2.41601,3.10938 0.57312,0.65858 1.53071,0.21017 2.27211,0.4069 1.84193,0.15359 3.68169,-0.0867 5.50078,-0.31676 4.49197,-0.15264 8.86756,1.01747 13.23809,1.86825 4.84504,0.82938 9.90942,0.59469 14.59835,-0.91297 2.1659,-0.67828 3.98504,-2.08136 5.64899,-3.58199 3.01128,-2.67183 5.76261,-6.0137 6.53856,-10.06695 0.65841,-4.377 -0.21936,-9.04542 -2.83042,-12.66919 -1.42151,-2.12513 -3.1996,-3.97109 -4.96841,-5.80542 -0.67677,0.0715 -0.65989,0.85292 -0.39258,1.3125 1.17113,2.94937 1.99891,6.26154 1.01563,9.40039 -0.74544,2.57483 -2.91975,5.20258 -5.8253,5.23193 -3.25728,0.0416 -6.12727,-1.7775 -8.81991,-3.39642 -6.53601,-4.19542 -12.304,-9.59632 -19.33067,-13.00172 -2.96332,-1.42099 -6.25659,-2.14806 -9.54666,-1.97006 -0.20733,0.006 -0.41466,0.0114 -0.62199,0.0171 z m -24.51758,28.56836 c -5.96221,0.29624 -12.06162,0.61622 -17.67646,2.82724 -9.23448,3.36178 -17.35794,9.3812 -23.90521,16.64848 -4.64963,5.2295 -8.54824,11.26172 -10.69279,17.95798 -2.14808,6.99697 -2.86945,14.3573 -2.9385,21.65302 0.0334,7.73157 0.98993,15.46867 2.90535,22.95768 1.96391,7.32902 4.96821,14.41989 9.16698,20.75248 2.63454,3.71891 5.94585,6.89413 9.33399,9.91601 0.67338,0.41218 1.38904,-0.65594 0.741,-1.12555 -2.54485,-3.24467 -4.29341,-7.03659 -5.88532,-10.78807 -2.51068,-6.18063 -4.33444,-12.70289 -4.91024,-19.36644 -0.24236,-3.27008 0.32508,-6.60777 1.82485,-9.5378 1.59493,-3.24186 4.25382,-5.90762 6.72034,-8.54972 0.2328,-0.11641 -0.30448,0.90399 -0.40274,1.26602 -0.91901,2.29703 -2.12245,4.43643 -3.33372,6.57614 -0.31397,0.51475 0.0855,1.39075 0.74581,1.12339 1.08075,-0.44342 1.88635,-1.34797 2.83681,-2.00439 7.9401,-6.30607 14.77975,-14.37613 18.30383,-23.97639 0.4802,-1.33491 0.89597,-2.6931 1.21875,-4.07422 2.65284,5.52817 7.34281,9.74998 12.25659,13.25536 10.47765,7.21802 23.4143,10.52147 36.0743,10.0091 2.36092,-0.0822 4.71361,-0.36749 7.05549,-0.62154 2.21825,0.31745 3.70035,2.34854 4.39292,4.3356 1.2022,3.31099 1.26697,6.89648 1.2625,10.37916 -0.17924,7.16882 -1.72891,14.22523 -3.76634,21.05568 -1.10705,3.72342 -2.56532,7.33381 -4.19664,10.85309 -0.15486,0.46633 -0.49732,1.40099 0.23173,1.52457 0.74103,-0.2272 0.99473,-1.13056 1.50533,-1.64924 4.2898,-5.99172 7.945,-12.43248 11.02884,-19.12398 3.79799,-8.31772 6.63179,-17.14239 7.81544,-26.22874 1.33045,-11.23066 -0.71342,-22.72141 -5.15355,-33.07298 -3.34485,-7.71414 -8.13644,-14.90959 -14.55815,-20.39785 -1.80728,-1.57982 -3.73246,-3.02603 -5.70432,-4.39635 -0.53353,1.07074 -0.32581,2.54442 -1.36132,3.32422 -1.2367,0.0577 -1.80347,-1.258 -2.64063,-1.92188 -0.80753,-0.29402 -1.20059,0.77403 -1.77082,1.11786 -0.92838,0.89145 -2.53278,1.20918 -3.5279,0.245 -0.71069,-0.63439 -1.58822,-1.5452 -2.6402,-1.11808 -1.16524,0.31867 -2.54227,0.52519 -3.55249,-0.30611 -0.98198,-0.64126 -1.55582,-1.7083 -2.18828,-2.64765 -1.34322,-0.82546 -3.0612,0.0667 -4.41211,-0.71289 -1.15434,-0.95228 -0.57169,-2.96817 -1.95977,-3.75292 -1.22743,-0.60105 -1.84278,-2.26212 -3.37327,-2.2748 -1.61493,-0.19737 -3.24692,-0.16843 -4.87008,-0.13049 z m -23.57422,70.66406 c -3.17085,0.0744 -5.79094,2.70016 -6.54064,5.67011 -1.01478,3.78646 1.15061,8.33886 5.02933,9.43565 3.45411,1.05043 7.54753,-0.86035 8.8472,-4.25642 1.67543,-3.72577 -0.0218,-8.77194 -3.91753,-10.30771 -1.07805,-0.44257 -2.25807,-0.6026 -3.41836,-0.54163 z m 47.41211,0.41407 c -3.92935,0.11933 -7.16417,3.95214 -6.87713,7.82576 0.0352,3.55239 2.89412,7.03 6.53338,7.25041 3.75819,0.28781 7.37571,-2.81301 7.6875,-6.56641 0.43524,-3.49594 -1.73074,-7.31436 -5.22477,-8.24497 -0.68459,-0.20364 -1.40526,-0.28628 -2.11898,-0.26479 z" />
    <path
       id="path1145-3"
       style="fill:#0000ff;stroke-width:0.32"
       d="m 693.52539,419.70312 c -3.17085,0.0744 -5.79094,2.70016 -6.54064,5.67011 -1.01478,3.78646 1.15061,8.33886 5.02933,9.43565 3.45411,1.05043 7.54753,-0.86035 8.8472,-4.25642 1.67543,-3.72577 -0.0218,-8.77194 -3.91753,-10.30771 -1.07805,-0.44257 -2.25807,-0.6026 -3.41836,-0.54163 z m 47.41211,0.41407 c -3.92935,0.11933 -7.16417,3.95214 -6.87713,7.82576 0.0352,3.55239 2.89412,7.03 6.53338,7.25041 3.75819,0.28781 7.37571,-2.81301 7.6875,-6.56641 0.43524,-3.49594 -1.73074,-7.31436 -5.22477,-8.24497 -0.68459,-0.20364 -1.40526,-0.28628 -2.11898,-0.26479 z"
       sodipodi:nodetypes="cccccccccccc" />
    <path
       id="path2095"
       style="fill:#c87137;stroke:none;stroke-width:0.375;stroke-linecap:round"
       d="m 723.92578,443.97461 c -0.79523,0.27071 -0.97752,1.26963 -1.40977,1.89518 -0.6482,1.51332 -1.84164,2.92611 -3.52901,3.25239 -2.41918,0.53834 -4.96006,-0.71416 -6.12842,-2.88168 -0.48654,-0.63961 -0.65979,-1.88171 -1.66717,-1.86355 -0.79679,7.8e-4 -0.93221,0.98832 -0.71305,1.58358 0.45738,1.6422 1.6331,3.0194 2.94276,4.0678 1.53132,1.07004 3.44846,1.49984 5.29704,1.25983 2.45296,-0.188 4.46081,-2.07012 5.55918,-4.16316 0.30685,-0.83569 1.00152,-1.79983 0.52344,-2.69336 -0.18253,-0.29611 -0.52163,-0.50099 -0.875,-0.45703 z" />
  </g>
</svg>
