<?xml version="1.0" encoding="UTF-8" standalone="no"?>
<!-- Created with Inkscape (http://www.inkscape.org/) -->

<svg
   version="1.1"
   id="svg2"
   width="451.75687"
   height="609.72021"
   viewBox="0 0 451.75687 609.72021"
   sodipodi:docname="java.svg"
   inkscape:version="1.1.1 (3bf5ae0d25, 2021-09-20)"
   xmlns:inkscape="http://www.inkscape.org/namespaces/inkscape"
   xmlns:sodipodi="http://sodipodi.sourceforge.net/DTD/sodipodi-0.dtd"
   xmlns="http://www.w3.org/2000/svg"
   xmlns:svg="http://www.w3.org/2000/svg">
  <defs
     id="defs6" />
  <sodipodi:namedview
     id="namedview4"
     pagecolor="#ffffff"
     bordercolor="#666666"
     borderopacity="1.0"
     inkscape:pageshadow="2"
     inkscape:pageopacity="0.0"
     inkscape:pagecheckerboard="0"
     showgrid="false"
     fit-margin-top="0"
     fit-margin-left="0"
     fit-margin-right="0"
     fit-margin-bottom="0"
     inkscape:zoom="0.51833333"
     inkscape:cx="3.8585209"
     inkscape:cy="304.82315"
     inkscape:window-width="1914"
     inkscape:window-height="1049"
     inkscape:window-x="1920"
     inkscape:window-y="0"
     inkscape:window-maximized="1"
     inkscape:current-layer="g8" />
  <g
     inkscape:groupmode="layer"
     inkscape:label="Image"
     id="g8"
     transform="translate(-415.32641,98.501003)">
    <g
       id="g1116">
      <path
         style="fill:#72a0fa"
         d="m 618.30483,510.27894 c -28.91718,-1.53089 -60.95093,-5.15844 -91.44281,-10.35512 -21.74616,-3.70617 -24.55719,-4.74357 -24.55719,-9.06278 0,-4.72999 -0.25417,-4.71306 51.20221,-3.40921 58.05871,1.47115 149.30475,0.72394 177.32703,-1.45213 29.74262,-2.30966 51.71245,-6.51757 74.47076,-14.26347 19.05529,-6.48555 35.69064,-14.85797 45.74942,-23.02526 5.26608,-4.27582 9.11529,-4.27009 10.53448,0.0157 0.78184,2.36104 0.33643,4.05055 -2.67337,10.14046 -7.98924,16.16513 -25.51085,28.56978 -51.55209,36.49695 -38.77786,11.80428 -122.72267,18.42672 -189.05844,14.91486 z m -71,-29.90548 c -52.67521,-1.95035 -92.28294,-8.01195 -112,-17.14057 -12.99539,-6.01662 -19.92427,-14.00198 -19.97804,-23.02421 -0.0654,-10.97121 8.29675,-17.88586 28.03131,-23.17908 13.29805,-3.56682 18.48476,-4.35153 43.85869,-6.63549 20.91378,-1.8825 22.53483,-1.90616 24.25,-0.35396 2.11248,1.91177 2.4197,5.63496 0.58804,7.12628 -0.6875,0.55976 -4.85,1.74896 -9.25,2.64268 -23.7539,4.82483 -45.42153,13.09504 -41.27363,15.75353 3.29101,2.10929 19.18616,6.10795 34.92135,8.78498 20.63827,3.51119 39.40257,5.45564 73.85228,7.65293 38.58044,2.46077 95.1227,0.98515 141,-3.67977 44.27093,-4.50158 98.12181,-15.60537 107.26822,-22.11819 2.69959,-1.92228 2.8687,-2.41028 2.25451,-6.50601 -0.78081,-5.2068 0.48315,-7.303 4.40355,-7.303 4.8975,0 12.07372,9.79444 12.07372,16.47878 0,4.64016 -3.9885,11.34389 -8.85702,14.88654 -22.55816,16.41481 -81.35503,29.77578 -154.63592,35.13939 -24.83362,1.81763 -95.1216,2.63724 -126.50706,1.47517 z m 74,-56.66545 c -14.73182,-0.53753 -33.72727,-2.46804 -47.91244,-4.86935 -35.71121,-6.0453 -52.12506,-17.37241 -49.59755,-34.22702 0.88443,-5.89781 7.04413,-12.15177 14.84232,-15.06944 6.4763,-2.4231 18.52111,-4.1169 21.48334,-3.02111 2.81091,1.03983 3.63718,4.38788 1.74839,7.0845 -0.86023,1.22815 -1.56406,2.5344 -1.56406,2.90278 0,3.50963 59.91194,9.81675 79,8.31658 8.61676,-0.67721 43.65235,-5.77535 55.5,-8.07598 l 8,-1.55348 16,9.70704 c 18.40704,11.16736 19.69284,12.16043 19.29402,14.90151 -0.4444,3.05441 -5.5255,5.92681 -17.48026,9.88181 -31.0856,10.28406 -66.13545,15.23276 -99.31376,14.02216 z m -42.5,-67.007 c -25.53423,-2.27486 -51.48028,-9.30617 -63.27644,-17.14775 -12.47882,-8.29539 -12.32739,-19.64025 0.37057,-27.76304 4.53625,-2.90181 24.71631,-10.39415 28.00088,-10.39602 0.60226,-3.4e-4 1.89309,0.88125 2.86852,1.95909 2.60664,2.88029 1.3132,6.23546 -3.4319,8.90236 -5.03343,2.82894 -5.33872,5.56829 -0.78163,7.01355 7.8036,2.47487 21.35835,4.18218 41.52223,5.23 38.99947,2.02662 82.47751,-1.75056 122.98583,-10.68446 9.13032,-2.01364 11.68177,-2.25925 13.5,-1.29952 2.98068,1.57332 21.63906,14.70018 24.49194,17.23099 2.46943,2.19065 2.95727,5.81797 1,7.43552 -4.56916,3.77612 -70.3204,15.60975 -103.89877,18.69927 -14.63154,1.34623 -52.01343,1.8301 -63.35123,0.82001 z m 187.07143,-6.87886 c -3.45664,-3.45663 -2.02098,-5.89604 7.67857,-13.04708 33.46978,-24.67576 54.70834,-49.18248 54.74023,-63.16361 0.025,-10.94676 -7.35794,-19.21247 -21.99023,-24.61963 -8.41444,-3.10944 -13.71527,-4.27882 -23.30746,-5.14168 -6.7013,-0.60281 -8.02812,-1.0391 -9.36501,-3.07944 -2.58443,-3.94435 0.009,-6.47976 10.83768,-10.59726 17.30663,-6.58038 33.71135,-8.60808 47.1206,-5.82434 16.71636,3.47031 29.61284,18.56271 34.16966,39.98783 3.97841,18.70558 -0.93544,33.7806 -15.83539,48.58075 -14.49642,14.39934 -43.81917,29.04079 -73.03004,36.46539 -9.49021,2.41216 -9.06257,2.39511 -11.01861,0.43907 z m -216.07143,-51.4223 c -27.82893,-2.11457 -55.3562,-7.86798 -68.5,-14.31703 -19.59831,-9.61596 -23.59233,-26.00365 -8.92681,-36.6273 12.60605,-9.13177 48.34888,-16.04909 82.97681,-16.05852 13.29424,-0.004 14.95,0.51399 14.95,4.67353 0,3.13464 -3.10894,4.84014 -12.5,6.85723 -17.11092,3.67522 -42.06526,13.24697 -41.2241,15.81235 1.5227,4.64396 64.49766,8.26693 114.935,6.61224 58.19596,-1.90922 86.5158,-4.56876 119.05645,-11.1807 l 10.76735,-2.18782 2.08734,2.08735 c 1.47675,1.47674 1.88323,2.73044 1.38957,4.28582 -1.63766,5.15982 -25.53689,17.5235 -47.28595,24.46223 -21.64074,6.90418 -39.70765,10.53753 -70.26282,14.13025 -15.6223,1.83689 -79.80596,2.79203 -97.46284,1.45037 z"
         id="path831" />
      <path
         style="fill:#da380e"
         d="m 663.12288,252.89358 c -0.8703,-1.9101 -0.84051,-3.14889 0.12628,-5.25 2.92438,-6.35558 7.00366,-19.21957 8.09821,-25.5377 1.82727,-10.54763 0.56125,-13.89333 -11.05399,-29.2123 -5.42132,-7.15 -11.50168,-15.925 -13.51191,-19.5 -10.08379,-17.93299 -14.4226,-45.31813 -9.49675,-59.9403 9.13588,-27.11945 45.52829,-55.37213 103.70199,-80.50744 10.75127,-4.64533 13.55074,-5.49813 15.18228,-4.62496 2.36208,1.26415 3.59057,4.47398 2.44682,6.39313 -0.44604,0.74844 -6.88598,6.24056 -14.31098,12.20472 -37.36346,30.01232 -55.06399,48.43646 -60.5586,63.0343 -4.73226,12.57247 -2.94734,20.12723 9.08217,38.44055 13.13279,19.99291 16.94519,30.16198 16.87057,45 -0.0414,8.24115 -0.46767,10.56674 -3.2166,17.55024 -5.20206,13.21552 -18.4404,30.14876 -31.31566,40.05604 -6.64055,5.10979 -10.31524,5.68758 -12.04383,1.89372 z m -38.47377,-21.43171 c -5.13799,-3.13293 -29.92545,-27.75477 -37.80857,-37.55594 -15.20499,-18.90453 -24.50875,-36.21643 -29.174,-54.28525 -2.16017,-8.36651 -2.44724,-11.26574 -2.05234,-20.7271 0.54414,-13.03693 2.56309,-19.81304 9.85186,-33.06539 6.08503,-11.06373 12.64684,-19.93862 22.43505,-30.34355 10.50846,-11.17056 20.66699,-19.51559 46.40372,-38.11974 37.94073,-27.425972 43.21472,-32.417953 50.68139,-47.97132 8.07516,-16.820888 12.03177,-38.431435 10.2579,-56.027501 -0.71957,-7.137822 -0.60401,-8.685502 0.76116,-10.193992 3.74906,-4.142667 7.80632,-0.702252 13.62272,11.551571 14.94408,31.483762 13.97468,63.270969 -2.74779,90.101072 -2.44169,3.91752 -5.84827,8.91064 -7.57019,11.09581 -7.42506,9.42265 -26.14753,27.10129 -48.00519,45.32876 -46.98666,39.18297 -51.02858,44.71146 -49.03524,67.06979 2.30837,25.89185 11.22117,55.46671 27.02363,89.67106 4.47122,9.67796 4.92872,12.84224 2.07735,14.36825 -2.60282,1.39298 -3.06857,1.33086 -6.72146,-0.89653 z"
         id="path829" />
    </g>
  </g>
</svg>
