<?xml version="1.0" encoding="UTF-8" standalone="no"?>
<!-- Created with Inkscape (http://www.inkscape.org/) -->

<svg
   version="1.1"
   id="svg2"
   width="4988.7056"
   height="4962.4019"
   viewBox="0 0 4988.7056 4962.4019"
   sodipodi:docname="python.svg"
   inkscape:version="1.1.1 (3bf5ae0d25, 2021-09-20)"
   xmlns:inkscape="http://www.inkscape.org/namespaces/inkscape"
   xmlns:sodipodi="http://sodipodi.sourceforge.net/DTD/sodipodi-0.dtd"
   xmlns="http://www.w3.org/2000/svg"
   xmlns:svg="http://www.w3.org/2000/svg">
  <defs
     id="defs6" />
  <sodipodi:namedview
     id="namedview4"
     pagecolor="#ffffff"
     bordercolor="#666666"
     borderopacity="1.0"
     inkscape:pageshadow="2"
     inkscape:pageopacity="0.0"
     inkscape:pagecheckerboard="0"
     showgrid="false"
     fit-margin-top="0"
     fit-margin-left="0"
     fit-margin-right="0"
     fit-margin-bottom="0"
     inkscape:zoom="0.14796226"
     inkscape:cx="2791.2524"
     inkscape:cy="2858.8372"
     inkscape:window-width="1914"
     inkscape:window-height="1049"
     inkscape:window-x="1920"
     inkscape:window-y="0"
     inkscape:window-maximized="1"
     inkscape:current-layer="g8" />
  <g
     inkscape:groupmode="layer"
     inkscape:label="Image"
     id="g8"
     transform="translate(293.26004,370.69959)">
    <path
       style="fill:#fed141"
       d="m 2161.173,4591.5446 c -357.8914,-6.1475 -635.6089,-60.9528 -833.6904,-164.5222 -21.2904,-11.132 -22.6053,-11.8614 -41.3096,-22.9159 -38.6426,-22.8383 -72.0585,-46.434 -104.5,-73.7899 -16.0941,-13.5712 -57.8262,-55.3178 -70.1838,-70.2082 -50.3308,-60.6467 -83.7702,-124.4736 -101.8127,-194.3332 -10.82768,-41.9242 -15.52188,-85.2612 -13.17338,-121.6176 0.9043,-13.9997 1.1951,-153.9618 1.1925,-574.014 0,-539.9495 0.1573,-572.036 3.04438,-608 10.2855,-128.1222 49.6374,-238.5332 116.7249,-327.5 36.7778,-48.7721 85.1221,-93.6264 138.8428,-128.8198 100.588,-65.8969 223.1772,-105.7804 366.8653,-119.3569 16.6477,-1.573 66.4186,-1.7469 662.5,-2.3149 l 644.5,-0.6141 22.0542,-2.1442 c 12.1299,-1.1793 29.4549,-3.0777 38.5,-4.2188 135.2647,-17.0636 248.5147,-63.6193 339.4458,-139.542 23.8558,-19.9184 49.2374,-45.34 70.4166,-70.5276 93.7667,-111.5132 152.0339,-268.4808 164.0586,-441.9617 0.64,-9.2343 1.0086,-128.2659 1.0149,-327.7746 l 0.01,-313.27467 230.75,0.329 c 252.9326,0.3607 233.1184,-0.096 270.75,6.239 35.7969,6.0261 85.7682,20.8749 121,35.9547 117.496,50.2902 216.5582,136.38167 295.7511,257.02657 109.9176,167.4521 177.5795,397.2251 201.7138,685 10.7589,128.2886 12.7801,277.0081 5.4973,404.5 -21.3751,374.1902 -122.0529,654.8267 -297.9403,830.5 -26.3028,26.2709 -50.2701,47.0104 -78.5219,67.9473 -99.3027,73.5913 -215.9868,118.1701 -340.5,130.087 -14.2346,1.3623 -113.181,1.5246 -896.75,1.471 l -880.75,-0.06 v 85.0275 85.0274 h 603.8391 603.8391 l 0.6692,53.25 c 0.3681,29.2875 0.756,132.45 0.8621,229.25 0.106,96.8 0.4899,206.825 0.8532,244.5 0.6834,70.8889 0.2943,83.8603 -3.1493,105 -19.5123,119.7824 -106.5923,229.2727 -245.9134,309.1998 -184.8333,106.0369 -456.0677,164.3231 -818,175.7819 -32.9158,1.0421 -147.444,1.9528 -178.5,1.4193 z m 745.0763,-383.4631 c 49.1646,-4.7803 94.1864,-25.5568 129.7158,-59.8608 19.2686,-18.604 32.1684,-36.192 44.0783,-60.0976 45.1863,-90.698 20.9489,-201.8233 -57.8609,-265.2854 -30.777,-24.7834 -65.9514,-40.1427 -106.0095,-46.2903 -15.0838,-2.3149 -47.0299,-2.3095 -61.8537,0.011 -97.1054,15.1969 -169.4935,87.9317 -184.2038,185.0857 -2.2381,14.7814 -2.2505,45.0785 -0.025,60 9.8706,66.1683 45.9773,121.0728 102.5822,155.988 38.6865,23.8628 87.3145,34.9479 133.5763,30.4499 z"
       id="path831" />
    <path
       style="fill:#3571a3"
       d="m 390.67302,3336.5245 c -53.24605,-3.0426 -113.4539,-16.8723 -167.01722,-38.3638 -18.1369,-7.2772 -52.39959,-23.7808 -69.48278,-33.4684 -104.90342,-59.4889 -194.52787,-152.1143 -263.71847,-272.5487 -98.90785,-172.1607 -158.06886,-400.1152 -177.25895,-683 -7.83778,-115.5382 -8.58458,-252.7544 -1.98923,-365.5 18.51283,-316.4721 94.46369,-567.2424 224.64981,-741.7361 52.47778,-70.3382 112.36372,-127.8139 179.81684,-172.5799 69.5199,-46.13767 145.90115,-78.63467 228.03532,-97.01957 52.18106,-11.6802 112.88723,-17.5259 157.59077,-15.175 12.18612,0.6408 317.49461,0.9957 861.62389,1.0015 l 842.75,0.01 v -85.5 -85.5 h -604.5 -604.49998 l -0.1436,-175.75 c -0.079,-96.6625 -0.2624,-179.125 -0.4076,-183.25 -0.1452,-4.125 -0.3598,-62.625 -0.4768,-130 -0.1921,-110.63257 -0.049,-123.61381 1.4812,-133.99714 7.77588,-52.77997 25.48658,-98.83537 56.33808,-146.50286 31.3316,-48.4094 80.0892,-97.17888 137.2087,-137.242 66.0186,-46.30489 152.8685,-87.50857 250,-118.60603 156.9417,-50.24616 346.8626,-79.69284 578,-89.61717 77.1108,-3.31091 230.7458,-3.88362 296,-1.10341 119.8069,5.10447 209.8698,12.95715 300,26.15732 363.0606,53.17265 609.6191,179.8735 725.3519,372.74204 40.9951,68.31813 65.4928,150.75832 65.5735,220.66925 0.1511,130.78693 -1.9205,1179.70777 -2.3384,1183.99997 -0.3212,3.3 -1.0468,12.3 -1.6123,20 -14.7711,201.1061 -101.853,358.4924 -253.9747,459.0177 -92.4015,61.061 -208.2091,101.5419 -334.5,116.9257 -43.8515,5.3417 9.9615,4.9012 -689.5,5.6431 -354.475,0.376 -646.75,0.9639 -649.5,1.3066 -2.75,0.3426 -11.525,1.0965 -19.5,1.6753 -152.1106,11.0394 -282.2699,59.895 -382.5,143.5721 -125.26308,104.5759 -206.63388,269.2475 -230.44688,466.3595 -5.7641,47.7119 -5.4354,26.6615 -5.7884,370.75 l -0.3243,316.25 H 627.39321 c -114.52111,0 -213.17019,0.1718 -219.22019,0.3762 -6.05,0.2044 -13.925,0.2045 -17.5,2e-4 z M 1539.173,445.13798 c 49.9116,-5.48608 96.0457,-27.47865 131.0307,-62.46364 52.6225,-52.62251 74.545,-128.1172 58.5219,-201.53248 -4.9661,-22.75371 -17.5425,-52.32111 -30.6243,-71.99823 -34.5826,-52.01793 -88.2148,-85.98677 -150.9283,-95.59299 -15.0161,-2.3001 -46.0418,-2.29491 -61,0.0102 -47.1214,7.26165 -86.7796,26.6425 -119.8628,58.5766 -37.4467,36.14614 -59.0134,79.33863 -65.6633,131.50617 -1.3405,10.51587 -1.3209,40.87933 0.033,51 5.4104,40.44705 20.1082,76.27759 44.1586,107.65062 3.9419,5.14216 12.3802,14.52438 18.7517,20.84938 36.0903,35.82682 81.342,57.01766 133.0829,62.32117 7.8169,0.80124 34.074,0.59933 42.5,-0.32682 z"
       id="path829" />
  </g>
</svg>
