<?xml version="1.0" encoding="UTF-8" standalone="no"?>
<!-- Created with Inkscape (http://www.inkscape.org/) -->

<svg
   version="1.1"
   id="svg2"
   width="862.74933"
   height="1497.0476"
   viewBox="0 0 862.74933 1497.0476"
   sodipodi:docname="510xH9hmTML._SL1500_.jpg"
   inkscape:version="1.1.1 (3bf5ae0d25, 2021-09-20)"
   xmlns:inkscape="http://www.inkscape.org/namespaces/inkscape"
   xmlns:sodipodi="http://sodipodi.sourceforge.net/DTD/sodipodi-0.dtd"
   xmlns="http://www.w3.org/2000/svg"
   xmlns:svg="http://www.w3.org/2000/svg">
  <defs
     id="defs6" />
  <sodipodi:namedview
     id="namedview4"
     pagecolor="#ffffff"
     bordercolor="#666666"
     borderopacity="1.0"
     inkscape:pageshadow="2"
     inkscape:pageopacity="0.0"
     inkscape:pagecheckerboard="0"
     showgrid="false"
     fit-margin-top="0"
     fit-margin-left="0"
     fit-margin-right="0"
     fit-margin-bottom="0"
     inkscape:zoom="0.49133333"
     inkscape:cx="425.37313"
     inkscape:cy="777.47626"
     inkscape:window-width="954"
     inkscape:window-height="1049"
     inkscape:window-x="2880"
     inkscape:window-y="0"
     inkscape:window-maximized="1"
     inkscape:current-layer="g8" />
  <g
     inkscape:groupmode="layer"
     inkscape:label="Image"
     id="g8"
     transform="translate(-7.5073744,26.901271)">
    <path
       style="fill:#ffffff"
       d="m 7.606938,1469.5698 c 0.31752,-0.811 36.69052,-80.2245 80.82888,-176.4745 44.138372,-96.25 80.458272,-175.7504 80.710912,-176.6676 0.38394,-1.3939 -0.17179,-1.6005 -3.38575,-1.2589 -7.20287,0.7657 -147.427262,5.2652 -148.216882,4.756 -0.46347,-0.2989 -17.76451003,21.4093 172.621802,-216.5938 89.2375,-111.55637 162.25,-203.30673 162.25,-203.88969 0,-0.58296 -0.65761,-0.80758 -1.46136,-0.49915 -1.74106,0.66811 -185.5315,-1.11876 -203.52555,-1.97874 l -12.48692,-0.59678 15.48692,-15.05465 C 171.96351,660.37851 274.06413,559.9368 320.4159,514.08698 c 21.175,-20.94569 53.1165,-52.4625 70.98111,-70.03735 17.86461,-17.57485 45.76461,-45.02711 62,-61.00503 16.23539,-15.97791 44.14389,-43.42791 62.01889,-61 52.6429,-51.75079 127.97491,-125.91163 187,-184.09273 17.875,-17.61941 49.81983,-49.095071 70.9885,-69.945901 21.16868,-20.850835 51.53742,-50.816874 67.48608,-66.5911977 15.94867,-15.7743243 29.16269,-28.5154783 29.36449,-28.3136773 0.29398,0.29398 -37.29614,61.705674 -53.86133,87.994266 -2.07942,3.3 -9.30346,14.999999 -16.05342,25.999999 -6.74997,11 -14.36635,23.375001 -16.9253,27.500001 -2.55895,4.125 -8.40851,13.575 -12.99902,21 -4.59051,7.425 -10.43814,16.875 -12.99473,21 -2.5566,4.125 -12.54353,20.325 -22.1932,36 -9.64966,15.675 -25.77001,41.775 -35.82299,58 -16.84047,27.17967 -39.76506,64.3154 -52.4721,85 -2.87197,4.675 -9.28871,15.025 -14.25943,23 -9.01663,14.46623 -21.75566,35.09149 -60.22008,97.5 -25.83625,41.9193 -36.87771,59.75725 -43.80723,70.77246 -3.03526,4.82486 -5.23588,9.05523 -4.89029,9.40083 0.63792,0.63791 46.45374,-1.21464 117.16005,-4.73733 50.98331,-2.54006 92.88852,-4.20864 94.90668,-3.77898 1.08199,0.23036 -11.40913,13.97383 -38.03013,41.84302 -21.80274,22.825 -43.93872,46 -49.19107,51.5 -5.25236,5.5 -20.60528,21.48007 -34.11761,35.51127 -29.46405,30.59547 -60.80684,63.28778 -90.5883,94.48873 -12.07449,12.65 -27.83432,29.075 -35.02184,36.5 -18.63106,19.24661 -31.68648,32.8749 -68.97351,72 -18.08356,18.975 -38.77197,40.575 -45.97423,48 -7.20227,7.425 -18.9075,19.575 -26.01164,27 -7.10413,7.425 -18.11,18.9 -24.45748,25.5 -6.34748,6.6 -12.61456,13.21908 -13.92685,14.70918 l -2.38598,2.7092 3.88598,-0.5383 c 2.13729,-0.296 12.21098,-1.8746 22.38598,-3.508 10.175,-1.6333 25.25,-4.0527 33.5,-5.3763 8.25,-1.32365 23.775,-3.78857 34.5,-5.47762 10.725,-1.68906 23.55,-3.76624 28.5,-4.61598 4.95,-0.84973 14.625,-2.37598 21.5,-3.39167 6.875,-1.01568 18.35,-2.80866 25.5,-3.98439 18.77025,-3.08653 40.19439,-6.52606 62.5,-10.03405 10.725,-1.68671 26.475,-4.19642 35,-5.57713 24.48913,-3.96627 27.35308,-4.39519 27.61284,-4.13543 0.25625,0.25625 -20.7712,19.52663 -58.07311,53.22047 -12.17792,11 -32.24374,29.18906 -44.5907,40.42026 -12.34697,11.2312 -33.69903,30.6324 -47.44903,43.1138 -13.75,12.4813 -30.85,28.0098 -38,34.5076 -7.15,6.4979 -19.73838,17.9217 -27.97417,25.3863 -25.02585,22.6824 -58.96037,53.487 -60.10392,54.5602 -0.59295,0.5565 -10.02507,9.1118 -20.96026,19.0118 -10.93519,9.9 -27.77505,25.2037 -37.42191,34.0081 -9.64686,8.8045 -24.51474,22.2614 -33.03974,29.9043 -8.525,7.643 -18.425,16.6473 -22,20.0097 -3.575,3.3624 -13.24927,12.1805 -21.49838,19.5957 -8.2491,7.4152 -30.0741,27.1786 -48.5,43.9186 -18.42589,16.74 -37.77662,34.2894 -43.001622,38.9987 -5.225,4.7092 -9.725,8.7879 -10,9.0636 -1.94162,1.9467 -26.22297,24.0361 -39,35.4794 -8.525,7.6351 -20.47507,18.5049 -26.55572,24.1552 -13.00654,12.086 -17.06662,15.4186 -16.25324,13.3412 z"
       id="path827" />
  </g>
</svg>
