<?xml version="1.0" encoding="UTF-8" standalone="no"?>
<!-- Created with Inkscape (http://www.inkscape.org/) -->

<svg
   width="61.585278mm"
   height="58.554897mm"
   viewBox="0 0 61.585278 58.554898"
   version="1.1"
   id="svg5"
   inkscape:version="1.1.1 (3bf5ae0d25, 2021-09-20)"
   sodipodi:docname="laptop.svg"
   xmlns:inkscape="http://www.inkscape.org/namespaces/inkscape"
   xmlns:sodipodi="http://sodipodi.sourceforge.net/DTD/sodipodi-0.dtd"
   xmlns="http://www.w3.org/2000/svg"
   xmlns:svg="http://www.w3.org/2000/svg">
  <sodipodi:namedview
     id="namedview7"
     pagecolor="#ffffff"
     bordercolor="#666666"
     borderopacity="1.0"
     inkscape:pageshadow="2"
     inkscape:pageopacity="0.0"
     inkscape:pagecheckerboard="0"
     inkscape:document-units="mm"
     showgrid="false"
     inkscape:zoom="1.28"
     inkscape:cx="103.90625"
     inkscape:cy="32.421875"
     inkscape:window-width="1920"
     inkscape:window-height="1080"
     inkscape:window-x="1920"
     inkscape:window-y="0"
     inkscape:window-maximized="1"
     inkscape:current-layer="layer1"
     fit-margin-top="0"
     fit-margin-left="0"
     fit-margin-right="0"
     fit-margin-bottom="0" />
  <defs
     id="defs2" />
  <g
     inkscape:label="Layer 1"
     inkscape:groupmode="layer"
     id="layer1"
     transform="translate(122.11621,-149.54061)">
    <path
       style="fill:#ffffff;stroke-width:0.0153955"
       d="m -119.32365,208.0808 c -0.57488,-0.0513 -1.1606,-0.30592 -1.65348,-0.71871 -0.74345,-0.6226 -1.22879,-1.6324 -1.12518,-2.34096 0.0124,-0.0802 0.091,-0.3471 0.21689,-0.73036 4.66423,-14.19742 5.33083,-16.21843 5.37506,-16.29683 0.0702,-0.12445 0.30132,-0.35021 0.47516,-0.46432 0.50515,-0.33156 1.19206,-0.54905 2.0784,-0.65805 0.21325,-0.0262 1.22601,-0.0275 22.631313,-0.0275 21.405292,0 22.418075,7.6e-4 22.631319,0.0275 0.886313,0.10915 1.573234,0.32649 2.078399,0.65805 0.174195,0.11424 0.404894,0.33993 0.475497,0.46494 0.03325,0.0589 0.785672,2.32824 2.266475,6.83555 1.21917,3.71112 2.357941,7.17701 2.530563,7.702 0.890702,2.70869 0.82141,2.46837 0.803417,2.78564 -0.04056,0.71468 -0.526039,1.56172 -1.206229,2.10409 -0.48132,0.3838 -1.028994,0.60871 -1.606623,0.65985 -0.215066,0.0189 -55.757801,0.0182 -55.970981,-7.7e-4 z m 55.994796,-1.69122 c 0.06775,-0.0158 0.164304,-0.0479 0.214403,-0.0702 0.309898,-0.13756 0.644355,-0.46679 0.809556,-0.79687 l 0.06346,-0.1268 -14.54205,-0.004 c -7.998118,-7.6e-4 -21.085949,-7.6e-4 -29.084065,0 l -14.54206,0.004 0.0635,0.1268 c 0.16767,0.33507 0.51548,0.6742 0.82133,0.80094 0.0522,0.0215 0.14343,0.0515 0.20262,0.0666 0.1028,0.026 1.38414,0.0272 27.988944,0.0282 27.479132,7.7e-4 27.882965,6.2e-4 28.00433,-0.0287 z m -20.834257,-1.95229 c -0.01408,-0.0486 -0.264778,-0.93028 -0.557801,-1.95908 l -0.532801,-1.87054 h -6.072005 -6.071961 l -0.07233,0.25402 c -0.03977,0.1397 -0.288046,1.01263 -0.551616,1.93982 -0.263581,0.92719 -0.482238,1.69446 -0.485895,1.70505 -0.006,0.0158 1.437686,0.0193 7.181417,0.0193 h 7.188024 z m -27.264159,-7.61307 c 0.10805,-0.40854 0.20066,-0.75841 0.20554,-0.77745 l 0.008,-0.0347 -1.39122,2.1e-4 -1.39125,1.5e-4 -0.23863,0.75566 c -0.13123,0.41562 -0.24086,0.76539 -0.24361,0.77727 -0.006,0.0183 0.20514,0.0215 1.42434,0.0215 h 1.4293 l 0.19665,-0.74283 z m 3.96556,-0.0158 c 0.0879,-0.41698 0.16306,-0.7668 0.16712,-0.77738 0.006,-0.0158 -0.32868,-0.0193 -1.64063,-0.0193 -1.55611,0 -1.64838,7.6e-4 -1.65602,0.0268 -0.006,0.0142 -0.0921,0.34561 -0.1943,0.73514 -0.10238,0.38949 -0.19241,0.72722 -0.19998,0.75052 l -0.014,0.0422 1.68886,-1.8e-4 1.68882,-1.4e-4 0.15988,-0.75813 z m 3.84271,0.72367 c 0.011,-0.0436 0.23888,-1.485 0.23888,-1.50534 0,-0.008 -0.59058,-0.0142 -1.64629,-0.0142 h -1.64624 l -0.0243,0.11163 c -0.0683,0.31326 -0.3011,1.42006 -0.3011,1.43088 0,0.007 0.75846,0.0124 1.6855,0.0124 h 1.6855 z m 3.995378,0.0307 c 0,-7.6e-4 0.03076,-0.29137 0.06833,-0.64278 0.03757,-0.35139 0.07274,-0.68739 0.07815,-0.74667 0.006,-0.0592 0.01422,-0.1199 0.01763,-0.1348 0.007,-0.0256 -0.07895,-0.0268 -1.648568,-0.0268 -0.9108,0 -1.65605,0.004 -1.65605,0.007 0,0.0142 -0.2311,1.46465 -0.23982,1.50584 l -0.008,0.0422 h 1.69473 c 0.9321,0 1.694721,-7.6e-4 1.694731,-0.004 z m 4.002971,-0.0538 c 0,-0.0319 0.01763,-0.37295 0.03837,-0.75823 0.02114,-0.38527 0.03827,-0.70917 0.03827,-0.71973 0,-0.0158 -0.341105,-0.0193 -1.6549,-0.0193 -1.34868,0 -1.655021,0.004 -1.655021,0.02 0,0.0124 -0.03466,0.3453 -0.07694,0.74283 -0.04228,0.39755 -0.07704,0.73839 -0.07704,0.75744 v 0.0347 h 1.693492 1.693512 v -0.0578 z m 3.987261,-0.71975 v -0.77746 h -1.651995 -1.651995 l -0.03446,0.67355 c -0.01873,0.37044 -0.03847,0.72031 -0.04348,0.77747 l -0.008,0.10403 h 1.695466 1.695506 z m 3.99566,0.64277 c -0.01408,-0.20725 -0.06982,-1.27883 -0.06982,-1.35376 v -0.0666 h -1.654997 -1.654996 v 0.77749 0.77747 h 1.694637 1.694666 z m 3.994574,0.0992 c 0,-0.0195 -0.03464,-0.36068 -0.07699,-0.75823 -0.04222,-0.39754 -0.07699,-0.73145 -0.07699,-0.74203 0,-0.0158 -0.341315,-0.0193 -1.655041,-0.0193 -1.313865,0 -1.654959,0.004 -1.65478,0.0193 0,0.011 0.01766,0.33446 0.03822,0.71973 0.02084,0.38528 0.03822,0.72649 0.03822,0.75823 v 0.0578 h 1.693496 1.693509 z m 3.996549,-0.007 c -0.0055,-0.0231 -0.02635,-0.15315 -0.04788,-0.28866 -0.100586,-0.63193 -0.192092,-1.21168 -0.192092,-1.2175 0,-0.004 -0.744583,-0.007 -1.6546,-0.007 h -1.654642 l 0.0069,0.0421 c 0.0041,0.0233 0.03878,0.3437 0.07685,0.71204 0.03822,0.36833 0.07354,0.69914 0.07865,0.73515 l 0.0083,0.0654 h 1.692971 1.692985 z m 3.993692,0.03 c 0,-0.0124 -0.301537,-1.44252 -0.317942,-1.50785 l -0.0083,-0.0347 h -1.645658 c -0.917648,0 -1.645618,0.006 -1.645618,0.0142 0,0.019 0.229249,1.46546 0.23888,1.50696 l 0.0083,0.0347 h 1.68552 c 0.927016,0 1.685506,-0.006 1.685506,-0.0124 z m 3.994809,-0.007 c -0.0041,-0.011 -0.09672,-0.35763 -0.206277,-0.77126 -0.109692,-0.4136 -0.202081,-0.75483 -0.205504,-0.75828 -0.0041,-0.004 -0.744084,-0.006 -1.64581,-7.6e-4 l -1.639504,0.004 0.162882,0.77351 0.16287,0.77352 1.689189,1.6e-4 c 1.344827,1.3e-4 1.687729,-0.004 1.682099,-0.019 z m 3.484679,-7.6e-4 c -0.0014,-0.0124 -0.112313,-0.3618 -0.243613,-0.77733 l -0.238633,-0.7555 -1.391227,-1.6e-4 -1.391242,-1.3e-4 0.0083,0.0347 c 0.0055,0.019 0.09741,0.36895 0.205532,0.77748 l 0.196631,0.74283 h 1.42931 c 1.226152,0 1.428593,-0.004 1.424342,-0.0219 z m -42.881033,-2.14942 c 0.006,-0.008 0.0396,-0.12818 0.0761,-0.26558 0.0363,-0.13728 0.11934,-0.45057 0.18432,-0.69613 0.0651,-0.24555 0.12169,-0.4586 0.1261,-0.4734 0.007,-0.0256 -0.0629,-0.0269 -1.32983,-0.0269 h -1.33778 l -0.23122,0.72744 c -0.12722,0.40007 -0.22839,0.73263 -0.22496,0.73897 0.011,0.0186 2.72588,0.0142 2.73741,-0.006 z m 3.8929,-0.0124 c 0.0124,-0.0438 0.30205,-1.41798 0.30205,-1.43533 0,-0.011 -0.50669,-0.0142 -1.58807,-0.0124 l -1.58809,0.004 -0.18982,0.71588 c -0.10432,0.39374 -0.18997,0.72455 -0.19012,0.73513 0,0.0158 0.33451,0.0193 1.62294,0.0193 1.53261,0 1.62362,-7.6e-4 1.63111,-0.0268 z m 3.88152,0.008 c 0.004,-0.011 0.0577,-0.34037 0.11991,-0.73286 0.0745,-0.47026 0.10748,-0.71573 0.0967,-0.71985 -0.008,-0.004 -0.72623,-0.006 -1.59374,-7.6e-4 l -1.57727,0.004 -0.15051,0.70818 c -0.0828,0.38951 -0.15067,0.72032 -0.15085,0.73514 0,0.0256 0.0871,0.0268 1.62433,0.0268 1.2859,0 1.62612,-0.006 1.63148,-0.0193 z m 3.878742,0.006 c 0.006,-0.008 0.03957,-0.30731 0.07744,-0.66584 0.03807,-0.35854 0.07324,-0.68486 0.07855,-0.7251 l 0.008,-0.0733 -1.598582,0.004 -1.59858,0.004 -0.11066,0.6928 c -0.061,0.38103 -0.11121,0.71186 -0.11177,0.73512 l -7.6e-4,0.0422 h 1.62329 c 0.95447,0 1.62689,-0.006 1.63196,-0.0142 z m 3.894679,-0.0976 c 0.01102,-0.12377 0.07053,-1.26061 0.07053,-1.32551 v -0.041 l -1.597092,0.004 -1.597073,0.004 -0.06442,0.60042 c -0.03537,0.33022 -0.06923,0.66105 -0.07534,0.73513 l -0.01102,0.1348 h 1.632599 1.632568 z m 3.873229,-0.62738 v -0.73898 h -1.593136 -1.593124 l -0.007,0.0347 c -0.008,0.0389 -0.07163,1.27596 -0.07093,1.37788 v 0.0654 h 1.631907 1.631938 v -0.73963 z m 3.878557,0.62738 c 0,-0.0614 -0.01587,-0.3922 -0.03464,-0.73516 l -0.03354,-0.6235 -1.59728,-0.004 -1.597274,-0.004 v 0.73907 0.73905 h 1.631892 1.631913 l -0.0014,-0.11162 z m 3.873804,-0.0231 c -0.0055,-0.074 -0.03973,-0.4049 -0.0752,-0.73514 l -0.06416,-0.60041 -1.597297,-0.004 -1.597284,-0.004 v 0.0347 c 0,0.0622 0.06098,1.21722 0.0705,1.33178 l 0.0083,0.11161 h 1.632592 1.632605 z m 3.886594,0.10087 c 0,-0.0287 -0.100999,-0.67924 -0.197915,-1.27474 l -0.02636,-0.16164 -1.598222,-0.004 -1.598249,-0.004 0.0083,0.0733 c 0.0055,0.0403 0.04071,0.36658 0.07851,0.72515 0.03781,0.35857 0.07271,0.65821 0.0774,0.66586 0.0055,0.008 0.682519,0.0142 1.631916,0.0142 h 1.623306 z m 3.878688,-7.6e-4 c 0,-0.019 -0.06844,-0.34987 -0.150865,-0.73513 l -0.149789,-0.70048 -1.588935,-0.004 -1.588923,-0.004 v 0.0358 c 0,0.0389 0.212154,1.39131 0.223234,1.42292 0.0055,0.0158 0.345537,0.0193 1.631433,0.0193 h 1.624727 z m 3.880509,0.0158 c 0,-0.011 -0.08582,-0.34141 -0.190216,-0.73512 l -0.190051,-0.7159 -1.58797,-0.004 c -0.979737,-7.6e-4 -1.587984,7.6e-4 -1.587984,0.011 0,0.0158 0.289904,1.39531 0.30206,1.43674 0.0083,0.0256 0.09851,0.0268 1.631104,0.0268 1.288364,0 1.623154,-0.004 1.623057,-0.0193 z m 3.376117,0.008 c 0.0041,-0.007 -0.0414,-0.16057 -0.09934,-0.34254 -0.05795,-0.18204 -0.162179,-0.5094 -0.231222,-0.72745 l -0.12556,-0.39642 h -1.337762 c -1.266883,0 -1.33732,7.6e-4 -1.32958,0.0269 0.0055,0.0142 0.08831,0.33176 0.186284,0.70435 0.09796,0.37256 0.184642,0.69298 0.192672,0.71203 l 0.01408,0.0347 h 1.361921 c 0.749053,0 1.364709,-0.006 1.368145,-0.0124 z m -41.643809,-2.0784 c 0.004,-0.007 0.0948,-0.34406 0.20203,-0.75051 0.10721,-0.40644 0.19839,-0.75109 0.20265,-0.76593 0.007,-0.0256 -0.0607,-0.0269 -1.27494,-0.0269 l -1.28269,1.3e-4 -0.23864,0.75567 c -0.13121,0.4156 -0.24089,0.7654 -0.24361,0.77728 -0.006,0.0183 0.18919,0.0215 1.31155,0.0215 0.72409,0 1.31974,-0.006 1.32365,-0.011 z m 3.78198,-7.6e-4 c 0,-0.007 0.0727,-0.35457 0.16165,-0.77263 0.089,-0.41802 0.16163,-0.76224 0.16163,-0.76489 0,-7.6e-4 -0.68912,-0.006 -1.5314,-0.006 h -1.53143 l -0.0227,0.0808 c -0.0124,0.0445 -0.10307,0.38568 -0.20128,0.75823 -0.0984,0.37257 -0.18143,0.68607 -0.185,0.69665 -0.006,0.0158 0.3158,0.0193 1.57103,0.0193 0.86765,0 1.57753,-0.006 1.57753,-0.0124 z m 3.77787,-0.03 c 0.005,-0.0231 0.0573,-0.35407 0.11714,-0.73511 0.0596,-0.38103 0.11245,-0.71187 0.11728,-0.73515 l 0.008,-0.0422 h -1.53796 -1.53797 l -0.15792,0.74581 c -0.0871,0.41019 -0.16164,0.76006 -0.16625,0.77746 l -0.008,0.0316 h 1.57862 1.57859 z m 3.772712,-0.008 c 0.006,-0.0275 0.03957,-0.35486 0.07785,-0.72743 0.03837,-0.37257 0.07344,-0.69992 0.07784,-0.72743 l 0.008,-0.0501 h -1.539952 -1.53994 l -0.008,0.0347 c -0.008,0.0395 -0.23923,1.49405 -0.23923,1.50988 0,0.006 0.7098,0.011 1.57732,0.011 h 1.577347 z m 3.771289,-0.0158 c 0.006,-0.036 0.02234,-0.35641 0.03957,-0.71203 0.01763,-0.35565 0.03466,-0.67606 0.03878,-0.71205 l 0.008,-0.0654 h -1.543703 -1.543693 l -0.08085,0.76592 c -0.04438,0.42126 -0.08045,0.7711 -0.08015,0.77745 0,0.007 0.710253,0.0124 1.577647,0.0124 h 1.577096 z m 3.765689,-0.71203 v -0.77747 h -1.539525 c -0.846777,0 -1.539586,0.006 -1.539656,0.0124 0,0.007 -0.01763,0.32677 -0.03837,0.71204 -0.02094,0.38527 -0.03837,0.72993 -0.03837,0.76594 v 0.0654 h 1.578037 1.578038 z m 3.771639,0.71203 c 0,-0.036 -0.01766,-0.38065 -0.03822,-0.76592 -0.02084,-0.38527 -0.03822,-0.70569 -0.03822,-0.71204 0,-0.007 -0.693018,-0.0124 -1.539786,-0.0124 h -1.539524 v 0.77747 0.77746 h 1.57802 1.578047 z m 3.772086,0.0385 c 0,-0.0142 -0.03464,-0.35154 -0.07699,-0.74826 -0.04222,-0.39674 -0.07685,-0.73447 -0.07685,-0.75053 0,-0.0284 -0.03849,-0.0293 -1.545777,-0.0293 h -1.545776 l 0.0055,0.0578 c 0.0041,0.0316 0.02015,0.35216 0.03753,0.71203 0.01766,0.35986 0.03505,0.68375 0.0396,0.71973 l 0.0083,0.0654 h 1.577083 c 1.491731,0 1.577098,-7.7e-4 1.577042,-0.0268 z m 3.771921,0.0177 c 0,-0.0158 -0.230464,-1.47258 -0.239019,-1.51026 l -0.0083,-0.0347 h -1.539954 -1.539953 l 0.0083,0.0501 c 0.0055,0.0275 0.0396,0.3514 0.07768,0.71973 0.03794,0.36835 0.07327,0.6957 0.07837,0.72744 l 0.0083,0.0577 h 1.576684 c 0.867162,0 1.576656,-0.006 1.576656,-0.011 z m 3.767215,-0.0215 c -0.0055,-0.0176 -0.07934,-0.36725 -0.166235,-0.77746 l -0.157929,-0.74582 h -1.537954 -1.537953 l 0.0083,0.0421 c 0.0055,0.0231 0.05409,0.32984 0.109279,0.68125 0.05533,0.35139 0.108036,0.68221 0.117281,0.73512 l 0.01587,0.0962 h 1.578256 1.578256 z m 3.711777,-0.20312 c -0.03408,-0.12915 -0.126112,-0.47725 -0.204318,-0.77361 l -0.142185,-0.53885 -1.534049,-0.004 c -0.843733,-7.6e-4 -1.534062,-7.6e-4 -1.534062,4.3e-4 0,7.6e-4 0.07286,0.34657 0.16164,0.76485 0.089,0.41825 0.161655,0.76621 0.161655,0.77319 0,0.007 0.709521,0.0124 1.576711,0.0124 h 1.576698 l -0.06209,-0.23477 z m 3.325908,0.21295 c -0.0014,-0.0124 -0.112314,-0.36183 -0.2436,-0.77736 l -0.238646,-0.75549 -1.282694,-1.3e-4 c -1.214396,-1.6e-4 -1.282295,7.6e-4 -1.274817,0.0268 0.0055,0.0142 0.09548,0.35948 0.202772,0.76592 0.107209,0.40645 0.198095,0.74419 0.201917,0.75054 0.0041,0.007 0.599415,0.0124 1.323494,0.0124 1.128781,0 1.315837,-0.004 1.311574,-0.0219 z m -43.589506,-7.39914 c -0.61278,-0.0371 -1.22008,-0.23409 -1.733,-0.56204 -0.44202,-0.28262 -0.87357,-0.71927 -1.14931,-1.16292 -0.28757,-0.46262 -0.47643,-1.02951 -0.52803,-1.58471 -0.0124,-0.12446 -0.0158,-4.56444 -0.0124,-14.98748 0.006,-14.04816 0.006,-14.81833 0.0319,-14.96437 0.11369,-0.64734 0.32909,-1.15852 0.6971,-1.65502 0.14007,-0.18888 0.49955,-0.5546 0.6762,-0.68781 0.55119,-0.41565 1.13621,-0.65605 1.81667,-0.74658 0.22928,-0.0303 43.724752,-0.0303 43.95403,0 0.862181,0.11479 1.612999,0.48902 2.20157,1.09761 0.531021,0.54905 0.865272,1.22715 0.989079,2.00655 0.02567,0.16112 0.02704,0.94236 0.02704,15.0805 v 14.91052 l -0.04153,0.22321 c -0.09851,0.52992 -0.283944,0.99196 -0.56822,1.41639 -0.587135,0.87664 -1.475435,1.43187 -2.554006,1.59648 -0.168181,0.0256 -1.271643,0.0271 -21.90005,0.029 -11.947633,7.6e-4 -21.806123,-0.004 -21.907733,-0.008 z m 41.806339,-18.18166 V 154.2754 h -20.029476 -20.029503 v 13.45562 13.45563 h 20.029503 20.029476 z"
       id="path6503" />
  </g>
</svg>
