<?xml version="1.0" encoding="UTF-8" standalone="no"?>
<!-- Created with Inkscape (http://www.inkscape.org/) -->

<svg
   version="1.1"
   id="svg2"
   width="2937.699"
   height="4373.5781"
   viewBox="0 0 2937.699 4373.5781"
   sodipodi:docname="lightning-bolt-icon-vector.svg"
   inkscape:version="1.2 (dc2aedaf03, 2022-05-15)"
   xmlns:inkscape="http://www.inkscape.org/namespaces/inkscape"
   xmlns:sodipodi="http://sodipodi.sourceforge.net/DTD/sodipodi-0.dtd"
   xmlns="http://www.w3.org/2000/svg"
   xmlns:svg="http://www.w3.org/2000/svg">
  <defs
     id="defs6" />
  <sodipodi:namedview
     id="namedview4"
     pagecolor="#ffffff"
     bordercolor="#666666"
     borderopacity="1.0"
     inkscape:showpageshadow="2"
     inkscape:pageopacity="0.0"
     inkscape:pagecheckerboard="0"
     inkscape:deskcolor="#d1d1d1"
     showgrid="false"
     inkscape:zoom="0.1728"
     inkscape:cx="147.56944"
     inkscape:cy="1660.8796"
     inkscape:window-width="954"
     inkscape:window-height="346"
     inkscape:window-x="0"
     inkscape:window-y="1783"
     inkscape:window-maximized="1"
     inkscape:current-layer="g8" />
  <g
     inkscape:groupmode="layer"
     inkscape:label="Image"
     id="g8"
     transform="translate(-1043.1799,-418.55703)">
    <path
       style="fill:#000000"
       d="m 1043.2566,4791.8482 c 2.6872,-4.8931 1026.0313,-1976.9532 1026.4517,-1978.0489 0.4861,-1.2667 -52.3924,-1.4511 -416.1571,-1.4511 -345.0134,0 -416.6267,-0.2274 -416.2068,-1.3217 0.9421,-2.455 1240.8638,-2391.17148 1241.5892,-2391.92888 0.3954,-0.4129 338.4948,-0.6379 751.3321,-0.5 l 750.6131,0.2506 -513.373,988.99998 c -282.3552,543.95 -513.3914,989.337 -513.4138,989.7488 -0.023,0.4119 187.4521,0.8619 416.61,1 l 416.6509,0.2512 -1370.4009,1195.4112 c -753.7204,657.4761 -1371.2657,1196.1261 -1372.3227,1197 -1.057,0.8738 -1.6748,1.1388 -1.3727,0.5888 z"
       id="path848" />
  </g>
</svg>
