<?xml version="1.0" encoding="UTF-8" standalone="no"?>
<!-- Created with Inkscape (http://www.inkscape.org/) -->

<svg
   width="60.08812mm"
   height="50.763977mm"
   viewBox="0 0 60.08812 50.763977"
   version="1.1"
   id="svg5"
   xml:space="preserve"
   inkscape:version="1.2.1 (9c6d41e410, 2022-07-14)"
   sodipodi:docname="factory.svg"
   xmlns:inkscape="http://www.inkscape.org/namespaces/inkscape"
   xmlns:sodipodi="http://sodipodi.sourceforge.net/DTD/sodipodi-0.dtd"
   xmlns="http://www.w3.org/2000/svg"
   xmlns:svg="http://www.w3.org/2000/svg"><sodipodi:namedview
     id="namedview7"
     pagecolor="#ffffff"
     bordercolor="#666666"
     borderopacity="1.0"
     inkscape:showpageshadow="2"
     inkscape:pageopacity="0.0"
     inkscape:pagecheckerboard="0"
     inkscape:deskcolor="#d1d1d1"
     inkscape:document-units="mm"
     showgrid="false"
     inkscape:zoom="5.1560172"
     inkscape:cx="136.24858"
     inkscape:cy="138.18806"
     inkscape:window-width="1914"
     inkscape:window-height="1046"
     inkscape:window-x="0"
     inkscape:window-y="0"
     inkscape:window-maximized="1"
     inkscape:current-layer="layer1" /><defs
     id="defs2" /><g
     inkscape:label="Layer 1"
     inkscape:groupmode="layer"
     id="layer1"
     transform="translate(-64.094299,-100.9787)"><path
       id="path1376"
       style="fill:#c7c98f;fill-opacity:1;stroke:none;stroke-width:0.264583px;stroke-linecap:butt;stroke-linejoin:miter;stroke-opacity:1"
       d="M 97.494844 121.78518 L 86.508435 121.98362 L 86.403532 124.05068 C 87.843941 124.74781 89.625842 125.62277 91.51123 126.55905 L 98.225549 126.3694 L 97.494844 121.78518 z " /><path
       style="fill:#c7c98f;fill-opacity:1;stroke:none;stroke-width:0.264583px;stroke-linecap:butt;stroke-linejoin:miter;stroke-opacity:1"
       d="m 87.424648,112.9877 -0.576191,4.23336 h 10.265791 l -0.56573,-4.23336 z"
       id="path1374" /><path
       style="fill:#c7c98f;fill-opacity:1;stroke:none;stroke-width:0.264583px;stroke-linecap:butt;stroke-linejoin:miter;stroke-opacity:1"
       d="m 68.894967,112.98773 -0.50569,4.23333 h 10.52168 l -0.491149,-4.23333 z"
       id="path486" /><path
       id="path1165"
       style="fill:#c7c98f;fill-opacity:1;stroke:none;stroke-width:0.264583px;stroke-linecap:butt;stroke-linejoin:miter;stroke-opacity:1"
       d="M 67.741105 121.98362 L 67.741105 123.85172 L 72.74235 126.37508 L 79.662341 126.39524 L 79.250997 121.98362 L 67.741105 121.98362 z " /><path
       style="fill:#a8d0d6;stroke-width:0.264583"
       d="m 71.083159,142.38569 c -0.0761,-0.19819 -0.10209,-1.0614 -0.0578,-1.91823 l 0.0804,-1.55787 2.05052,-0.0773 2.05052,-0.0773 v 1.9955 1.99551 h -1.99268 c -1.43744,0 -2.03121,-0.10041 -2.13096,-0.36036 z m 19.20489,-1.61289 v -1.9955 h 2.12825 2.12826 l -0.0777,1.91823 -0.0777,1.91823 -2.05052,0.0773 -2.05052,0.0773 z m 17.991661,-14.96009 v -3.175 h 4.49792 4.49792 v 3.175 3.175 h -4.49792 -4.49792 z m 0.0587,-8.40052 0.0736,-3.63802 4.43178,-0.0725 4.43177,-0.0725 v 3.71056 3.71056 h -4.50539 -4.50538 z m -0.0587,-8.79739 v -3.43959 h 4.49792 4.49792 v 3.43959 3.43958 h -4.49792 -4.49792 z"
       id="path207"
       sodipodi:nodetypes="cccccccscccccccccccccccccccccccccccccccccccccc" /><path
       style="fill:#eeb2a0;stroke-width:0.264583"
       d="m 81.556799,141.15855 v -8.46667 h 1.05833 1.05833 v 8.46667 8.46666 h -1.05833 -1.05833 z m 19.050001,0 v -8.46667 h 0.79375 0.79375 v 8.46667 8.46666 h -0.79375 -0.79375 z"
       id="path205"
       sodipodi:nodetypes="cccccccccccccccccc" /><path
       id="path203"
       style="fill:#b3b2b2;stroke-width:0.264583"
       d="M 101.94832 103.68034 C 102.17503 104.503 102.1943 107.44585 102.1943 117.89395 L 102.1943 131.89878 L 92.942151 127.26805 C 87.977184 124.78316 83.325731 122.55881 83.029061 122.45129 C 83.319071 122.97124 83.382878 124.28402 83.474511 127.59878 L 83.615588 132.69201 L 92.972123 132.69201 L 102.1943 132.69201 L 102.1943 141.15868 L 102.1943 149.62534 L 104.30735 149.62534 L 106.41988 149.62534 L 106.49016 141.35711 L 106.55992 133.08888 L 112.77763 133.01757 C 116.28459 132.97745 117.8489 132.97672 118.60208 133.08165 C 118.75272 133.10264 118.87111 133.12818 118.96589 133.15813 C 119.10804 133.20306 119.19723 133.25853 119.26457 133.3266 C 119.28713 133.34936 119.30733 133.37332 119.32607 133.39894 C 119.35698 133.44121 119.38539 133.51087 119.41134 133.61237 C 119.43729 133.71387 119.46083 133.84735 119.48213 134.01596 C 119.60996 135.02765 119.6568 137.31826 119.6568 141.73849 L 119.6568 149.62534 L 121.50888 149.62534 C 123.10914 149.62534 123.32709 149.64866 123.35528 150.09818 L 123.36097 150.09818 L 123.36097 126.73888 L 123.36097 103.84984 L 118.86305 103.83486 L 118.86305 117.21388 L 118.86305 130.57534 L 112.77763 130.57534 L 106.69222 130.57534 L 106.69222 117.21388 L 106.69222 103.77026 C 104.29725 103.74451 102.49813 103.71293 101.94832 103.68034 z M 65.61617 122.77995 C 65.920013 123.09528 65.946298 123.91399 65.946382 127.78895 L 65.946382 127.80652 L 65.946382 132.69201 L 73.845125 132.69201 L 82.343314 132.69201 C 82.343189 132.68467 82.34194 132.67565 82.341764 132.66824 C 81.974541 132.61553 81.845663 132.46143 81.786242 132.0967 C 81.763896 131.95968 81.751398 131.40808 81.745935 130.68748 L 73.743839 126.88048 L 65.61617 122.77995 z " /><path
       style="fill:#858587;stroke-width:0.264583"
       d="m 102.1943,150.68355 v -1.05834 h 2.11289 2.1129 l 0.0699,-8.26822 0.0699,-8.26823 6.21758,-0.0712 c 5.61114,-0.0642 6.24984,-0.0271 6.54843,0.3813 0.24725,0.33813 0.33087,2.44577 0.33087,8.33941 v 7.88693 h 1.85208 c 1.78246,0 1.85208,0.0241 1.85208,0.63982 0,1.56136 0.61477,1.47685 -10.74393,1.47685 H 102.19427 Z M 64.094299,127.53251 c 0,-5.53883 0.0153,-5.59461 1.34031,-4.88549 0.47761,0.25561 0.51177,0.60004 0.51177,5.15938 v 4.88548 h -0.92604 -0.92604 z m 17.69178,4.56406 c -0.0534,-0.32742 -0.0596,-2.70867 -0.0138,-5.29167 0.0743,-4.19694 0.13062,-4.69592 0.52917,-4.6923 0.95905,0.009 1.03111,0.34568 1.17321,5.48605 l 0.14079,5.09323 h -0.8662 c -0.69315,0 -0.88557,-0.11893 -0.96318,-0.59531 z m 19.945201,-28.431 c -0.50903,-0.098 -0.59532,-0.28221 -0.59532,-1.27067 v -1.15602 l 1.12448,-0.16005 c 0.61847,-0.088 5.76792,-0.12509 11.44323,-0.0824 l 10.31875,0.0777 0.08,1.38906 0.08,1.38907 -10.92789,-0.036 c -6.01034,-0.0198 -11.19578,-0.0876 -11.5232,-0.1507 z"
       id="path201" /><path
       id="path199"
       style="fill:#e14232;stroke-width:0.264583"
       d="M 64.094299 132.69201 L 64.094299 141.23051 L 64.094299 149.38918 L 81.556799 149.20521 L 81.556799 141.15868 L 81.556799 132.69201 L 72.825549 132.69201 L 64.094299 132.69201 z M 83.673466 132.69201 L 83.673466 141.15868 L 83.673466 149.18454 C 91.990368 149.10638 99.111437 149.10248 100.6068 149.17679 L 100.6068 141.15868 L 100.6068 132.69201 L 92.140132 132.69201 L 83.673466 132.69201 z M 70.179716 137.70152 L 73.156278 137.77645 L 76.132841 137.85138 L 76.132841 140.7618 L 76.132841 143.67222 L 73.34128 143.74663 C 71.805821 143.78764 70.466367 143.73821 70.364717 143.63656 C 70.263107 143.53492 70.179716 142.15804 70.179716 140.5768 L 70.179716 137.70152 z M 92.247619 137.71909 C 93.992428 137.71909 95.057013 137.83098 95.262422 138.03639 C 95.658272 138.43226 95.69242 142.57006 95.305831 143.2924 C 95.063751 143.74477 94.731672 143.80451 92.448124 143.80451 C 90.791436 143.80451 89.750599 143.69029 89.547009 143.4867 C 89.215049 143.15474 89.09109 138.91774 89.390429 138.13767 C 89.522339 137.79395 90.032482 137.71909 92.247619 137.71909 z " /><path
       style="fill:#cc1131;stroke-width:0.264583"
       d="m 76.265129,128.23333 -3.57187,-1.81065 3.48466,-0.0138 3.48467,-0.0138 0.18546,1.73178 c 0.102003,0.95248 0.14125,1.77349 0.0872,1.82446 -0.054,0.051 -1.7056,-0.72211 -3.67013,-1.71796 z m 18.25625,-0.0119 -3.57188,-1.82445 3.63803,-0.0138 3.63802,-0.0138 0.003,0.85989 c 0.002,0.47295 0.0767,1.30638 0.16691,1.85209 0.0902,0.5457 0.0591,0.98597 -0.0691,0.97837 -0.12818,-0.008 -1.913329,-0.70331 -3.80493,-1.83827 z m -26.63937,-6.83318 c 0.0775,-0.32742 0.223342,-1.399 0.32409,-2.38125 l 0.18318,-1.78594 h 5.26084 5.26084 v 0.75494 c 0,0.41522 0.0765,1.48678 0.16999,2.38125 l 0.16998,1.62631 h -5.75492 -5.75491 z m 18.79647,-1.031 c 0.09349,-0.89448 0.16998,-1.96603 0.16998,-2.38125 v -0.75494 h 5.13289 5.1329 l 0.23758,2.18281 c 0.130669,1.20055 0.19509,2.27211 0.14316,2.38125 -0.0519,0.10914 -2.54514,0.19844 -5.54046,0.19844 h -5.44603 z m -17.63699,-8.78855 c 0.09451,-0.91534 0.0407,-1.48436 -0.15141,-1.60311 -0.39465,-0.24391 -0.3815,-1.55089 0.0196,-1.95203 0.44563,-0.44563 8.97354,-0.44563 9.41917,0 0.39783,0.39783 0.4156,1.70731 0.0264,1.94783 -0.19063,0.11781 -0.229716,0.67104 -0.11326,1.60312 l 0.17782,1.42322 h -4.76242 -4.76242 z m 18.24938,-0.10233 c -0.0736,-0.83674 -0.21335,-1.88531 -0.31062,-2.33015 -0.29839,-1.36467 0.0654,-1.46133 5.19468,-1.3804 l 4.59541,0.0725 -0.0811,1.19063 c -0.04461,0.65484 -0.0945,1.8157 -0.11092,2.57969 l -0.0298,1.38906 h -4.56193 -4.56194 z"
       id="path197"
       sodipodi:nodetypes="ccccsccccccccscscsscccsscccssscccssscssccssscccscsscsccccc" /><path
       style="fill:#a7140f;stroke-width:0.264583"
       d="m 64.411799,151.42438 c -0.17463,-0.17462 -0.3175,-1.15717 -0.3175,-1.46866 v -0.56635 l 17.70201,-0.18692 c 9.73611,-0.1028 18.308611,-0.10645 19.050001,-0.008 1.31899,0.17496 1.34799,0.198 1.34799,1.07077 v 1.47675 H 83.461799 c -14.21695,0 -18.80904,-0.0765 -19.05,-0.3175 z"
       id="path195"
       sodipodi:nodetypes="cscscscscc" /></g></svg>
