<?xml version="1.0" encoding="UTF-8" standalone="no"?>
<!-- Created with Inkscape (http://www.inkscape.org/) -->

<svg
   version="1.1"
   id="svg2"
   width="1920"
   height="1080"
   viewBox="0 0 1920 1080"
   sodipodi:docname="img.svg"
   inkscape:version="1.2.1 (9c6d41e410, 2022-07-14)"
   xmlns:inkscape="http://www.inkscape.org/namespaces/inkscape"
   xmlns:sodipodi="http://sodipodi.sourceforge.net/DTD/sodipodi-0.dtd"
   xmlns="http://www.w3.org/2000/svg"
   xmlns:svg="http://www.w3.org/2000/svg">
  <defs
     id="defs6" />
  <sodipodi:namedview
     id="namedview4"
     pagecolor="#ffffff"
     bordercolor="#666666"
     borderopacity="1.0"
     inkscape:showpageshadow="2"
     inkscape:pageopacity="0.0"
     inkscape:pagecheckerboard="0"
     inkscape:deskcolor="#d1d1d1"
     showgrid="false"
     inkscape:zoom="1.1600437"
     inkscape:cx="121.97816"
     inkscape:cy="26.292113"
     inkscape:window-width="954"
     inkscape:window-height="1046"
     inkscape:window-x="960"
     inkscape:window-y="0"
     inkscape:window-maximized="1"
     inkscape:current-layer="g8" />
  <g
     inkscape:groupmode="layer"
     inkscape:label="Image"
     id="g8">
    <path
       style="fill:#ffffff"
       d="m 57.920791,205.40456 c -1.890766,-2.27823 0.06173,-4.83334 3.990763,-5.22245 4.001145,-0.39625 3.583521,-2.66756 -0.499807,-2.71827 -3.728112,-0.0463 -3.808505,-1.86101 -0.101275,-2.2861 C 65.45701,194.70229 67,196.54122 67,201.95851 v 4.71362 l -3.887197,0.15232 c -2.467569,0.0967 -4.363724,-0.42186 -5.192012,-1.41989 z M 64.755005,203.25 C 65.013086,202.46635 64.202886,202 62.583333,202 60.902826,202 60,202.54853 60,203.56955 c 0,1.88062 4.121647,1.60363 4.755005,-0.31955 z"
       id="path847-3"
       sodipodi:nodetypes="ssssscssssss" />
    <path
       style="fill:#ffffff"
       d="M 96,198.55479 C 96,191.6172 96.28356,190 97.5,190 c 0.922932,0 1.5,0.9374 1.5,2.43664 0,2.01494 0.559349,2.49088 3.23195,2.75 3.90878,0.37898 5.74386,4.12756 4.19212,8.56336 -0.84152,2.40556 -1.55458,2.78818 -5.69304,3.05479 L 96,207.10958 Z m 7.5,2.43151 c 0,-2.81963 -0.38245,-3.4863 -2,-3.4863 -1.33151,0 -2.109994,0.77636 -2.329081,2.32273 -0.476394,3.36248 0.563148,5.37513 2.576061,4.98748 1.27092,-0.24476 1.75302,-1.29638 1.75302,-3.82391 z"
       id="path847-6"
       sodipodi:nodetypes="sssssscssssss" />
    <path
       style="fill:#ffffff"
       d="m 136.95578,205.44672 c -0.70901,-0.85431 -1.28911,-2.85533 -1.28911,-4.44672 0,-1.59139 0.5801,-3.59241 1.28911,-4.44672 C 138.36936,194.85002 145,194.39396 145,196 c 0,0.55 -1.31968,1 -2.93261,1 -3.22172,0 -4.68865,2.46723 -3.56739,6 0.44467,1.40104 1.51303,2 3.56739,2 1.61293,0 2.93261,0.45 2.93261,1 0,1.60604 -6.63064,1.14998 -8.04422,-0.55328 z"
       id="path847-7"
       sodipodi:nodetypes="sssssssss" />
    <path
       style="fill:#ffffff"
       d="m 175.03069,205.05734 c -1.39393,-2.60457 -1.30254,-7.38549 0.16931,-8.85734 0.66,-0.66 2.46,-1.2 4,-1.2 2.32,0 2.8,-0.42857 2.8,-2.5 0,-1.375 0.45,-2.5 1,-2.5 0.58669,0 1,3.44536 1,8.33607 v 8.33606 l -3.96931,0.15554 c -2.9969,0.11743 -4.22182,-0.31627 -5,-1.77033 z M 181.75905,202 c 0.33775,-3.25949 -1.14189,-5.4508 -3.15813,-4.6771 -1.05777,0.4059 -1.60092,1.83603 -1.60092,4.21527 0,3.16231 0.27406,3.56201 2.25,3.28138 1.55782,-0.22124 2.32969,-1.08864 2.50905,-2.81955 z"
       id="path847"
       sodipodi:nodetypes="sssssscsssssss" />
    <ellipse
       style="opacity:0.01;fill:#000000;stroke-width:1.15794;stroke-linecap:round;stroke-linejoin:round;paint-order:markers fill stroke"
       id="path1100"
       cx="15.709454"
       cy="14.907054"
       rx="15.709454"
       ry="14.907054" />
    <ellipse
       style="opacity:0.01;fill:#000000;stroke-width:1.15794;stroke-linecap:round;stroke-linejoin:round;paint-order:markers fill stroke"
       id="path1100-5"
       cx="1904.2905"
       cy="14.907054"
       rx="15.709454"
       ry="14.907054" />
    <ellipse
       style="opacity:0.01;fill:#000000;stroke-width:1.15794;stroke-linecap:round;stroke-linejoin:round;paint-order:markers fill stroke"
       id="path1100-5-3"
       cx="1904.2905"
       cy="1065.0929"
       rx="15.709454"
       ry="14.907054" />
    <ellipse
       style="opacity:0.01;fill:#000000;stroke-width:1.15794;stroke-linecap:round;stroke-linejoin:round;paint-order:markers fill stroke"
       id="path1100-5-3-5"
       cx="15.709454"
       cy="1065.0929"
       rx="15.709454"
       ry="14.907054" />
  </g>
</svg>
