<?xml version="1.0" encoding="UTF-8" standalone="no"?>
<!-- Created with Inkscape (http://www.inkscape.org/) -->

<svg
   version="1.1"
   id="svg2"
   width="3840"
   height="2160"
   viewBox="0 0 3840 2160"
   sodipodi:docname="lp-max-sat-relax.svg"
   inkscape:version="1.2.1 (9c6d41e410, 2022-07-14)"
   xmlns:inkscape="http://www.inkscape.org/namespaces/inkscape"
   xmlns:sodipodi="http://sodipodi.sourceforge.net/DTD/sodipodi-0.dtd"
   xmlns="http://www.w3.org/2000/svg"
   xmlns:svg="http://www.w3.org/2000/svg">
  <defs
     id="defs6" />
  <sodipodi:namedview
     id="namedview4"
     pagecolor="#ffffff"
     bordercolor="#666666"
     borderopacity="1.0"
     inkscape:showpageshadow="2"
     inkscape:pageopacity="0.0"
     inkscape:pagecheckerboard="0"
     inkscape:deskcolor="#d1d1d1"
     showgrid="false"
     inkscape:zoom="0.4621974"
     inkscape:cx="2547.6128"
     inkscape:cy="1182.3952"
     inkscape:window-width="1914"
     inkscape:window-height="2126"
     inkscape:window-x="3840"
     inkscape:window-y="0"
     inkscape:window-maximized="1"
     inkscape:current-layer="g8" />
  <g
     inkscape:groupmode="layer"
     inkscape:label="Image"
     id="g8">
    <path
       id="path439"
       style="fill:#ffffff"
       d="m 1921.2363,632.2207 c -0.6421,-0.0126 -1.3068,0.006 -1.9941,0.0566 -6.1041,0.45114 -9.4598,2.95708 -12.3516,9.22266 -2.1089,4.56938 -2.584,18.45977 -0.8457,24.71875 1.3718,4.93919 5.3814,9.55283 9.2871,10.68359 5.0879,1.47301 7.6466,1.23785 11.7813,-1.08593 6.1142,-3.43642 8.3933,-9.10688 8.3633,-20.81641 -0.039,-15.24786 -4.6083,-22.59059 -14.2403,-22.7793 z m -0.9023,6.95118 c 0.2018,-0.003 0.4037,0.008 0.6055,0.0312 3.9322,0.45944 5.3652,4.67076 5.3652,15.78126 0,9.22574 -1.0304,13.46407 -3.7051,15.25 -1.9594,1.3083 -4.2475,0.8128 -6.1953,-1.3418 -1.6464,-1.82118 -1.9043,-3.70759 -1.9043,-13.89649 0,-10.28079 0.2487,-12.06349 1.9473,-13.93945 1.0812,-1.19409 2.4739,-1.86275 3.8867,-1.88476 z m -0.3438,11.89257 c -0.5666,0.0121 -1.1563,0.17916 -1.7402,0.54688 -2.3851,1.50203 -2.6776,3.81849 -0.7285,5.76758 1.9636,1.96362 2.5764,2.00121 4.8965,0.30468 3.0068,-2.19866 0.6322,-6.68447 -2.4278,-6.61914 z" />
    <path
       style="fill:#ffffff"
       d="M 2326,673.5 V 670 h 5 5 v -13.54215 -13.54216 l -4.4042,2.58104 -4.4042,2.58105 -2.1487,-3.0175 -2.1486,-3.01749 5.3028,-3.3714 C 2336.3083,633.51457 2337.5547,633 2341.9343,633 H 2346 v 18.5 18.5 h 4 c 3.9048,0 4,0.0833 4,3.5 v 3.5 h -14 -14 z"
       id="path441" />
    <path
       id="path433"
       style="fill:#ffffff"
       d="M 2033.875 863.5 C 2029.1707 863.5 2027.6827 863.94155 2025.4492 866 C 2020.7012 870.37613 2019.0455 875.46713 2019.0215 885.78125 C 2018.9915 898.46216 2021.6003 904.48236 2028.5 907.65234 C 2030.288 908.4738 2033.2203 908.82933 2035.7578 908.5332 C 2045.4193 907.4057 2049.5146 900.68046 2049.4766 886 C 2049.4352 869.91461 2044.987 863.5 2033.875 863.5 z M 2034.5449 870 C 2038.5499 870 2040.3047 874.8797 2040.3047 886.02539 C 2040.3047 895.20991 2039.2709 899.45071 2036.5996 901.23438 C 2034.6413 902.54193 2032.3526 902.04789 2030.4043 899.89648 C 2028.9007 898.23621 2028.4258 895.90689 2028.1484 888.84375 C 2027.5941 874.72959 2029.1991 870 2034.5449 870 z M 2033.8594 882.19531 C 2032.9271 882.22185 2032.0086 882.63543 2031.3164 883.58203 C 2029.6199 885.90217 2029.6574 886.51489 2031.6211 888.47852 C 2033.5702 890.4276 2035.8867 890.13511 2037.3887 887.75 C 2039.1169 885.00567 2036.4367 882.12194 2033.8594 882.19531 z " />
    <path
       style="fill:#ffffff"
       d="M 2440,904.5 V 901 h 5 5 v -13.59502 -13.59502 l -4.4919,2.63245 -4.492,2.63245 -1.9679,-3.236 -1.9679,-3.23599 7.2098,-4.29015 c 5.4396,-3.23676 8.2534,-4.29292 11.4599,-4.30144 L 2460,864 v 18.5 18.5 h 4 c 3.9048,0 4,0.0833 4,3.5 v 3.5 h -14 -14 z"
       id="path435" />
    <path
       style="fill:#ffffff"
       d="m 1075,1138.2835 c -4.6764,-2.383 -7.0064,-8.4425 -4.9003,-12.7438 2.2488,-4.5927 5.7485,-6.5074 13.159,-7.1994 6.2149,-0.5804 6.7413,-0.8116 6.7413,-2.9619 0,-3.9045 -4.0374,-5.7456 -10.8976,-4.9695 -4.8775,0.5518 -5.965,0.3917 -6.4816,-0.9547 -0.3414,-0.8898 -0.6208,-1.7741 -0.6208,-1.9651 0,-0.9457 11.1434,-2.4952 13.6369,-1.8962 8.7837,2.11 10.3631,5.0779 10.3631,19.473 0,6.3856 0.3922,9.8982 1.1327,10.145 0.6658,0.2219 0.8575,1.2445 0.4652,2.4806 -0.7881,2.483 -4.1048,2.0709 -5.8522,-0.7271 -1.0474,-1.6772 -1.2243,-1.6732 -3.6731,0.083 -3.9549,2.8361 -8.9973,3.313 -13.0726,1.2363 z m 12.6855,-5.4578 c 1.7275,-1.6229 2.3145,-3.2714 2.3145,-6.5 V 1122 l -4.25,0.015 c -8.3026,0.029 -12.8742,5.0944 -9.3927,10.4078 2.2137,3.3787 7.9439,3.5826 11.3282,0.4032 z"
       id="path429" />
    <path
       style="fill:#ffffff"
       d="m 1187,1195.5 v -2.5 h 11 11 v 2.5 2.5 h -11 -11 z"
       id="path427" />
    <path
       style="fill:#ffffff"
       d="m 1265,1215.2835 c -4.6764,-2.383 -7.0064,-8.4425 -4.9003,-12.7438 2.2488,-4.5927 5.7485,-6.5074 13.159,-7.1994 6.2149,-0.5804 6.7413,-0.8116 6.7413,-2.9619 0,-3.9045 -4.0374,-5.7456 -10.8976,-4.9695 -4.9525,0.5603 -5.9607,0.4028 -6.5051,-1.016 -0.8431,-2.1969 -0.8172,-2.2133 5.331,-3.3793 8.362,-1.5858 15.1315,0.8506 16.9633,6.1052 0.6096,1.7488 1.1084,7.575 1.1084,12.9471 0,6.3856 0.3922,9.8982 1.1327,10.145 0.6658,0.2219 0.8575,1.2445 0.4652,2.4806 -0.7881,2.483 -4.1048,2.0709 -5.8522,-0.7271 -1.0474,-1.6772 -1.2243,-1.6732 -3.6731,0.083 -3.9549,2.8361 -8.9973,3.313 -13.0726,1.2363 z m 12.6855,-5.4578 c 1.7275,-1.6229 2.3145,-3.2714 2.3145,-6.5 V 1199 l -4.25,0.015 c -8.3026,0.029 -12.8742,5.0944 -9.3927,10.4078 2.2137,3.3787 7.9439,3.5826 11.3282,0.4032 z"
       id="path423" />
    <path
       style="fill:#ffffff"
       d="m 1463,1216.3586 c -0.825,-0.2777 -2.5861,-1.0344 -3.9136,-1.6817 -1.8862,-0.9197 -2.5054,-0.9037 -2.8334,0.073 -0.2308,0.6875 -1.5155,1.25 -2.8548,1.25 h -2.4351 l 0.2685,-23.25 0.2684,-23.25 2.75,-0.3164 2.75,-0.3164 v 9.2407 9.2407 l 2.4919,-2.341 c 2.8081,-2.638 9.398,-3.2072 13.2521,-1.1446 5.5967,2.9953 8.0402,16.315 4.4726,24.3802 -1.1162,2.5235 -3.0841,5.2569 -4.3731,6.0743 -2.7363,1.7353 -7.6964,2.7638 -9.8435,2.0411 z m 6.9415,-6.7963 c 4.0339,-4.2939 4.0355,-16.5853 0,-20.6181 -2.5311,-2.5311 -6.9991,-2.4755 -10.3093,0.1284 -2.4927,1.9607 -2.6349,2.5512 -2.6349,10.9433 0,8.0331 0.2099,9.0177 2.2225,10.4274 3.3554,2.3502 8.0456,1.9647 10.719,-0.881 z"
       id="path425" />
    <path
       style="fill:#ffffff"
       d="m 1187,1272.5 v -2.5 h 11 11 v 2.5 2.5 h -11 -11 z"
       id="path419" />
    <path
       style="fill:#ffffff"
       d="m 1265.2126,1292.5269 c -3.8797,-1.7252 -6.6438,-7.2873 -5.7174,-11.5049 1.1768,-5.3582 7.9503,-9.0033 16.7548,-9.0164 3.3225,0 3.75,-0.288 3.75,-2.4825 0,-4.0599 -3.927,-5.9028 -10.8976,-5.1142 -4.9525,0.5603 -5.9607,0.4028 -6.5051,-1.016 -0.8431,-2.1969 -0.8172,-2.2133 5.331,-3.3793 8.362,-1.5858 15.1315,0.8506 16.9633,6.1052 0.6096,1.7488 1.1084,7.575 1.1084,12.9471 0,6.3856 0.3922,9.8982 1.1327,10.145 0.6658,0.2219 0.8575,1.2445 0.4652,2.4806 -0.7881,2.483 -4.1048,2.0709 -5.8522,-0.7271 -1.0474,-1.6772 -1.2243,-1.6732 -3.6731,0.083 -3.6393,2.6099 -8.9455,3.2204 -12.86,1.4797 z m 12.4729,-5.7012 c 1.7275,-1.6229 2.3145,-3.2714 2.3145,-6.5 V 1276 l -4.25,0.015 c -8.3026,0.029 -12.8742,5.0944 -9.3927,10.4078 2.2137,3.3787 7.9439,3.5826 11.3282,0.4032 z"
       id="path293" />
    <path
       style="fill:#ffffff"
       d="m 1567,1272.5 v -2.5 h 11 11 v 2.5 2.5 h -11 -11 z"
       id="path421" />
    <path
       style="fill:#ffffff"
       d="m 1653,1293.385 c -0.825,-0.2922 -2.5861,-1.0608 -3.9136,-1.7081 -1.8862,-0.9197 -2.5054,-0.9037 -2.8334,0.073 -0.2308,0.6875 -1.5072,1.25 -2.8363,1.25 H 1641 v -22.893 c 0,-19.953 0.2031,-22.971 1.5818,-23.5 4.0999,-1.5733 4.4182,-0.956 4.4182,8.5673 v 9.1743 l 2.4919,-2.341 c 2.8351,-2.6634 9.4079,-3.202 13.3474,-1.0936 7.9736,4.2673 7.9338,25.2572 -0.058,30.4935 -2.7212,1.783 -7.5656,2.7624 -9.7815,1.9775 z m 6.9415,-6.8227 c 4.0339,-4.2939 4.0355,-16.5853 0,-20.6181 -2.5311,-2.5311 -6.9991,-2.4755 -10.3093,0.1284 -2.4927,1.9607 -2.6349,2.5512 -2.6349,10.9433 0,8.0331 0.2099,9.0177 2.2225,10.4274 3.3554,2.3502 8.0456,1.9647 10.719,-0.881 z"
       id="path417" />
    <circle
       style="opacity:0.1;fill:#ffffff;stroke-width:1.416;stroke-linecap:square;stroke-miterlimit:2;paint-order:fill markers stroke;stop-color:#000000"
       id="path551"
       cx="54.869404"
       cy="54.869404"
       r="54.869404" />
    <circle
       style="opacity:0.1;fill:#ffffff;stroke-width:1.416;stroke-linecap:square;stroke-miterlimit:2;paint-order:fill markers stroke;stop-color:#000000"
       id="path551-3"
       cx="3785.1306"
       cy="54.869404"
       r="54.869404" />
    <circle
       style="opacity:0.1;fill:#ffffff;stroke-width:1.416;stroke-linecap:square;stroke-miterlimit:2;paint-order:fill markers stroke;stop-color:#000000"
       id="path551-6"
       cx="3785.1306"
       cy="2105.1306"
       r="54.869404" />
    <circle
       style="opacity:0.1;fill:#ffffff;stroke-width:1.416;stroke-linecap:square;stroke-miterlimit:2;paint-order:fill markers stroke;stop-color:#000000"
       id="path551-7"
       cx="54.869404"
       cy="2105.1306"
       r="54.869404" />
  </g>
</svg>
