<?xml version="1.0" encoding="UTF-8" standalone="no"?>
<!-- Created with Inkscape (http://www.inkscape.org/) -->

<svg
   version="1.1"
   id="svg2"
   width="3840"
   height="2160"
   viewBox="0 0 3840 2160"
   sodipodi:docname="lp-max-sat.svg"
   inkscape:version="1.2.1 (9c6d41e410, 2022-07-14)"
   xmlns:inkscape="http://www.inkscape.org/namespaces/inkscape"
   xmlns:sodipodi="http://sodipodi.sourceforge.net/DTD/sodipodi-0.dtd"
   xmlns="http://www.w3.org/2000/svg"
   xmlns:svg="http://www.w3.org/2000/svg">
  <defs
     id="defs6" />
  <sodipodi:namedview
     id="namedview4"
     pagecolor="#ffffff"
     bordercolor="#666666"
     borderopacity="1.0"
     inkscape:showpageshadow="2"
     inkscape:pageopacity="0.0"
     inkscape:pagecheckerboard="0"
     inkscape:deskcolor="#d1d1d1"
     showgrid="false"
     inkscape:zoom="0.87647882"
     inkscape:cx="1531.697"
     inkscape:cy="1402.7721"
     inkscape:window-width="1914"
     inkscape:window-height="1060"
     inkscape:window-x="3840"
     inkscape:window-y="1066"
     inkscape:window-maximized="1"
     inkscape:current-layer="g8" />
  <g
     inkscape:groupmode="layer"
     inkscape:label="Image"
     id="g8">
    <path
       style="fill:#ffffff"
       d="m 1075.0011,1138.2835 c -4.2685,-2.1758 -6.4108,-6.2863 -5.5811,-10.7086 1.1272,-6.0087 7.2619,-9.4902 16.83,-9.551 3.3176,-0.021 3.75,-0.3095 3.75,-2.5008 0,-3.9292 -3.78,-5.7415 -11.1649,-5.353 -5.2538,0.2763 -6.3277,0.055 -6.6158,-1.3631 -0.6691,-3.2932 12.8807,-4.3658 18.4841,-1.4632 4.0979,2.1227 5.2837,6.2291 5.291,18.3229 0,5.9336 0.4051,9.2998 1.1383,9.5442 0.6658,0.2219 0.8575,1.2445 0.4652,2.4806 -0.7881,2.483 -4.1048,2.0709 -5.8522,-0.7271 -1.0474,-1.6772 -1.2243,-1.6732 -3.6731,0.083 -3.9549,2.8361 -8.9974,3.3131 -13.0715,1.2363 z m 12.6844,-5.4578 c 1.7275,-1.6229 2.3145,-3.2714 2.3145,-6.5 V 1122 l -4.25,0.015 c -8.3026,0.029 -12.8742,5.0944 -9.3927,10.4078 2.2137,3.3787 7.9439,3.5826 11.3282,0.4032 z"
       id="path956" />
    <path
       style="fill:#ffffff"
       d="m 1187,1195.5 v -2.5 h 11 11 v 2.5 2.5 h -11 -11 z"
       id="path954" />
    <path
       style="fill:#ffffff"
       d="m 1265.0011,1215.2835 c -4.2685,-2.1758 -6.4108,-6.2863 -5.5811,-10.7086 1.1272,-6.0087 7.2619,-9.4902 16.83,-9.551 3.3176,-0.021 3.75,-0.3095 3.75,-2.5008 0,-3.9292 -3.78,-5.7415 -11.1649,-5.353 -5.2538,0.2763 -6.3277,0.055 -6.6158,-1.3631 -0.6691,-3.2932 12.8807,-4.3658 18.4841,-1.4632 4.0979,2.1227 5.2837,6.2291 5.291,18.3229 0,5.9336 0.4051,9.2998 1.1383,9.5442 0.6658,0.2219 0.8575,1.2445 0.4652,2.4806 -0.7881,2.483 -4.1048,2.0709 -5.8522,-0.7271 -1.0474,-1.6772 -1.2243,-1.6732 -3.6731,0.083 -3.9549,2.8361 -8.9974,3.3131 -13.0715,1.2363 z m 12.6844,-5.4578 c 1.7275,-1.6229 2.3145,-3.2714 2.3145,-6.5 V 1199 l -4.25,0.015 c -8.3026,0.029 -12.8742,5.0944 -9.3927,10.4078 2.2137,3.3787 7.9439,3.5826 11.3282,0.4032 z"
       id="path950" />
    <path
       style="fill:#ffffff"
       d="m 1082.5417,1293.28 c -1.0771,-0.2788 -2.9896,-1.1826 -4.25,-2.0085 -2.0628,-1.3515 -2.2917,-1.3402 -2.2917,0.1135 0,1.056 -0.8653,1.615 -2.5,1.615 h -2.5 v -22.893 c 0,-19.953 0.2031,-22.971 1.5818,-23.5 4.0663,-1.5604 4.4182,-0.9226 4.4182,8.008 v 8.615 l 2.7192,-1.7817 c 3.1185,-2.0433 9.7441,-2.3411 13.0248,-0.5853 5.5967,2.9953 8.0402,16.315 4.4726,24.3802 -2.786,6.2983 -8.7572,9.5684 -14.6749,8.0368 z m 7.3998,-6.7177 c 4.0339,-4.2939 4.0355,-16.5853 0,-20.6181 -2.5311,-2.5311 -6.9991,-2.4755 -10.3093,0.1284 -2.4927,1.9607 -2.6349,2.5512 -2.6349,10.9433 0,8.0331 0.2099,9.0177 2.2225,10.4274 3.3554,2.3502 8.0456,1.9647 10.719,-0.881 z"
       id="path936" />
    <path
       style="fill:#ffffff"
       d="m 1339,1272.5 v -2.5 h 11 11 v 2.5 2.5 h -11 -11 z"
       id="path944" />
    <path
       style="fill:#ffffff"
       d="m 1423.9136,1293.0663 c -7.8559,-2.4476 -11.4169,-8.4315 -10.7234,-18.0192 0.4633,-6.4046 2.2472,-9.7913 7.0438,-13.3725 3.43,-2.5609 12.0131,-2.7111 16.6057,-0.2906 3.1542,1.6624 3.2476,1.862 1.6811,3.593 -1.4819,1.6375 -1.9445,1.6837 -4.3397,0.4341 -8.7467,-4.5634 -15.7929,1.4546 -14.9731,12.7881 0.5711,7.8944 2.9149,10.3293 9.8447,10.2273 2.7469,-0.041 5.5238,-0.603 6.1708,-1.25 1.658,-1.658 2.5485,-1.471 3.7581,0.7891 0.8867,1.6569 0.6174,2.1881 -1.7148,3.3818 -3.6807,1.8838 -10.1508,2.7167 -13.3532,1.7189 z"
       id="path938" />
    <path
       style="fill:#ffffff"
       d="m 1081.9136,1370.0663 c -7.8559,-2.4476 -11.4169,-8.4315 -10.7234,-18.0192 0.4633,-6.4046 2.2472,-9.7913 7.0438,-13.3725 3.43,-2.5609 12.0131,-2.7111 16.6057,-0.2906 3.1542,1.6624 3.2476,1.862 1.6811,3.593 -1.4819,1.6375 -1.9445,1.6837 -4.3397,0.4341 -8.7467,-4.5634 -15.7929,1.4546 -14.9731,12.7881 0.5711,7.8944 2.9149,10.3293 9.8447,10.2273 2.7469,-0.041 5.5238,-0.603 6.1708,-1.25 1.658,-1.658 2.5485,-1.471 3.7581,0.7891 0.8867,1.6569 0.6174,2.1881 -1.7148,3.3818 -3.6807,1.8838 -10.1508,2.7167 -13.3532,1.7189 z"
       id="path293" />
    <circle
       style="opacity:1;fill:#ffffff;stroke-width:1.416;stroke-linecap:square;stroke-miterlimit:2;paint-order:fill markers stroke;stop-color:#000000"
       id="path1039"
       cx="76.324463"
       cy="76.324463"
       r="76.324463" />
    <circle
       style="fill:#ffffff;stroke-width:1.416;stroke-linecap:square;stroke-miterlimit:2;paint-order:fill markers stroke;stop-color:#000000"
       id="path1039-3"
       cx="3763.6755"
       cy="76.324463"
       r="76.324463" />
    <circle
       style="fill:#ffffff;stroke-width:1.416;stroke-linecap:square;stroke-miterlimit:2;paint-order:fill markers stroke;stop-color:#000000"
       id="path1039-6"
       cx="3763.6755"
       cy="2083.6755"
       r="76.324463" />
    <circle
       style="fill:#ffffff;stroke-width:1.416;stroke-linecap:square;stroke-miterlimit:2;paint-order:fill markers stroke;stop-color:#000000"
       id="path1039-7"
       cx="76.324463"
       cy="2083.6755"
       r="76.324463" />
  </g>
</svg>
