<?xml version="1.0" encoding="UTF-8" standalone="no"?>
<!-- Created with Inkscape (http://www.inkscape.org/) -->

<svg
   version="1.1"
   id="svg2"
   width="3840"
   height="2160"
   viewBox="0 0 3840 2160"
   sodipodi:docname="lp-sat.svg"
   inkscape:version="1.2.1 (9c6d41e410, 2022-07-14)"
   xmlns:inkscape="http://www.inkscape.org/namespaces/inkscape"
   xmlns:sodipodi="http://sodipodi.sourceforge.net/DTD/sodipodi-0.dtd"
   xmlns="http://www.w3.org/2000/svg"
   xmlns:svg="http://www.w3.org/2000/svg">
  <defs
     id="defs6" />
  <sodipodi:namedview
     id="namedview4"
     pagecolor="#ffffff"
     bordercolor="#666666"
     borderopacity="1.0"
     inkscape:showpageshadow="2"
     inkscape:pageopacity="0.0"
     inkscape:pagecheckerboard="0"
     inkscape:deskcolor="#d1d1d1"
     showgrid="false"
     inkscape:zoom="0.74668121"
     inkscape:cx="1672.0656"
     inkscape:cy="955.56174"
     inkscape:window-width="3834"
     inkscape:window-height="2126"
     inkscape:window-x="1920"
     inkscape:window-y="0"
     inkscape:window-maximized="1"
     inkscape:current-layer="g8" />
  <g
     inkscape:groupmode="layer"
     inkscape:label="Image"
     id="g8">
    <path
       style="fill:#ffffff"
       d="m 543.00115,676.28354 c -4.26851,-2.17587 -6.41081,-6.28633 -5.58117,-10.70867 1.12724,-6.00871 7.26194,-9.49014 16.83002,-9.55101 3.31761,-0.0211 3.75,-0.30946 3.75,-2.50081 0,-3.92917 -3.78002,-5.7415 -11.16488,-5.353 -5.25383,0.27639 -6.32774,0.0551 -6.61586,-1.36304 -0.66905,-3.29321 12.88073,-4.3658 18.48418,-1.4632 4.09785,2.12271 5.28363,6.22907 5.29098,18.32286 0.004,5.93358 0.40508,9.29983 1.13828,9.54423 0.66577,0.22192 0.85754,1.24448 0.46521,2.48062 -0.78808,2.483 -4.10481,2.07093 -5.85219,-0.72708 -1.04742,-1.67719 -1.22435,-1.6732 -3.67307,0.0828 -3.95491,2.8361 -8.99748,3.31302 -13.0715,1.2363 z m 12.6844,-5.45785 c 1.72747,-1.62288 2.31445,-3.27138 2.31445,-6.5 V 660 l -4.25,0.0147 c -8.3026,0.0288 -12.87418,5.09441 -9.39273,10.40776 2.21378,3.37867 7.94394,3.58261 11.32828,0.40319 z"
       id="a" />
    <path
       style="fill:#ffffff"
       d="m 584.578,685.25 c 0.33886,-1.5125 1.01348,-4.31145 1.49916,-6.21989 0.54997,-2.16107 0.51336,-3.83959 -0.0971,-4.45 -1.62716,-1.62716 -1.10569,-5.15649 1.05017,-7.10751 1.60566,-1.4531 2.59911,-1.63857 4.75,-0.88678 4.0133,1.40275 4.09698,6.20278 0.25583,14.67427 -2.59226,5.7171 -3.43679,6.73991 -5.56512,6.73991 -2.21989,0 -2.43808,-0.31698 -1.89299,-2.75 z"
       id="a," />
    <path
       style="fill:#ffffff"
       d="m 664.54168,677.27998 c -1.07707,-0.27878 -2.98957,-1.18257 -4.25,-2.00843 C 658.22893,673.91998 658,673.93131 658,675.38499 658,676.441 657.13468,677 655.5,677 H 653 v -22.89301 c 0,-19.95294 0.20314,-22.97097 1.58179,-23.5 4.0663,-1.56039 4.41821,-0.92255 4.41821,8.00802 v 8.61501 l 2.71918,-1.78168 c 3.11853,-2.04334 9.74415,-2.34111 13.02479,-0.58536 5.59673,2.99527 8.04028,16.31501 4.47264,24.38025 -2.78603,6.29828 -8.75722,9.56841 -14.67493,8.03675 z m 7.39983,-6.71771 c 4.03391,-4.29391 4.03553,-16.58523 0.003,-20.61805 -2.53114,-2.53114 -6.99908,-2.47551 -10.30936,0.12836 -2.4927,1.96076 -2.63486,2.55119 -2.63486,10.9433 0,8.03312 0.20985,9.0177 2.22251,10.42742 3.35538,2.3502 8.04557,1.9647 10.719,-0.88103 z"
       id="b" />
    <path
       style="fill:#ffffff"
       d="m 698.578,685.25 c 0.33886,-1.5125 1.01348,-4.31145 1.49916,-6.21989 0.54997,-2.16107 0.51336,-3.83959 -0.0971,-4.45 -1.62716,-1.62716 -1.10569,-5.15649 1.05017,-7.10751 1.60566,-1.4531 2.59911,-1.63857 4.75,-0.88678 4.0133,1.40275 4.09698,6.20278 0.25583,14.67427 -2.59226,5.7171 -3.43679,6.73991 -5.56512,6.73991 -2.21989,0 -2.43808,-0.31698 -1.89299,-2.75 z"
       id="b," />
    <path
       style="fill:#ffffff"
       d="m 777.91357,677.06632 c -7.85582,-2.44767 -11.41687,-8.43154 -10.72336,-18.01921 0.46327,-6.40462 2.24715,-9.79129 7.0438,-13.3725 3.43001,-2.56087 12.01308,-2.71107 16.60574,-0.29059 3.15414,1.66234 3.24756,1.86202 1.68105,3.593 -1.48187,1.63744 -1.94451,1.68372 -4.33975,0.43407 -8.74669,-4.56335 -15.79282,1.45457 -14.97302,12.78809 0.57103,7.89441 2.91485,10.32932 9.84466,10.22728 2.74692,-0.0404 5.5238,-0.60295 6.17085,-1.25 1.65797,-1.65797 2.54848,-1.47096 3.75807,0.78918 0.88673,1.65687 0.61736,2.18808 -1.71482,3.38175 -3.68065,1.88385 -10.15075,2.71674 -13.35322,1.71893 z"
       id="c" />
    <path
       style="fill:#ffffff"
       d="m 812.578,685.25 c 0.33886,-1.5125 1.01348,-4.31145 1.49916,-6.21989 0.54997,-2.16107 0.51336,-3.83959 -0.0971,-4.45 -1.62716,-1.62716 -1.10569,-5.15649 1.05017,-7.10751 1.60566,-1.4531 2.59911,-1.63857 4.75,-0.88678 4.0133,1.40275 4.09698,6.20278 0.25583,14.67427 -2.59226,5.7171 -3.43679,6.73991 -5.56512,6.73991 -2.21989,0 -2.43808,-0.31698 -1.89299,-2.75 z"
       id="c," />
    <path
       style="fill:#ffffff"
       d="m 887.03402,676.28923 c -5.18077,-2.67445 -7.54003,-7.48128 -7.50417,-15.28923 0.0343,-7.46848 2.24523,-12.96738 6.27548,-15.60811 3.00144,-1.96661 10.67507,-2.31149 12.428,-0.55856 C 900.5114,647.1114 901,645.90462 901,638 c 0,-8.27939 0.39331,-8.93751 4.41821,-7.39301 1.37865,0.52903 1.58179,3.54706 1.58179,23.5 V 677 h -2.5 c -1.84562,0 -2.5,-0.53134 -2.5,-2.02994 v -2.02993 l -2.75,2.01628 c -4.05205,2.97094 -8.17197,3.42045 -12.21598,1.33282 z m 11.33112,-5.36181 c 2.4927,-1.96076 2.63486,-2.55119 2.63486,-10.9433 0,-8.03312 -0.20985,-9.0177 -2.22251,-10.42742 -5.6373,-3.94852 -12.11045,-0.18767 -13.2971,7.72551 -1.79633,11.97877 5.36364,19.56132 12.88475,13.64521 z"
       id="d" />
    <path
       style="fill:#ffffff"
       d="m 885.59093,907.51931 c -2.14999,-0.76613 -4.7486,-2.23249 -5.7747,-3.25859 -1.82084,-1.82084 -1.8073,-1.92043 0.56421,-4.14835 2.32966,-2.1886 2.5359,-2.21324 5.0018,-0.59752 3.35208,2.19636 9.21315,2.16134 11.67852,-0.0698 2.48576,-2.24958 2.66721,-9.57418 0.29592,-11.94547 -1.36634,-1.36635 -2.88325,-1.52713 -9,-0.95394 L 881,887.23498 V 875.61749 864 h 13 13 v 3.5 3.5 h -8.5 -8.5 v 4.62781 4.62781 l 4.00277,-0.64007 c 5.28464,-0.84505 10.36668,1.32898 13.03048,5.57427 1.63784,2.61024 1.99885,4.52837 1.70728,9.0713 -0.31459,4.90161 -0.861,6.26796 -3.66243,9.1583 -2.00129,2.06481 -4.99307,3.82535 -7.62821,4.48888 -5.48304,1.38065 -7.03559,1.32971 -11.85896,-0.38904 z"
       id="51" />
    <path
       id="01"
       style="fill:#ffffff"
       d="M 932.48828 863.21875 C 932.08249 863.22613 931.66701 863.24595 931.24219 863.27734 C 921.47144 863.99947 917.03101 870.9612 917.06641 885.5 C 917.09794 898.43689 919.69065 904.52609 926.5 907.65039 C 932.33861 910.32929 939.7334 907.93938 944.18359 901.9375 C 948.44462 896.19076 948.91457 880.11537 945.07422 871.43359 C 942.54351 865.7125 938.57511 863.10799 932.48828 863.21875 z M 932.55469 870.09961 C 936.84551 870.00121 938.26265 874.29215 938.32031 886 C 938.36559 895.19522 937.33716 899.40646 934.59961 901.23438 C 932.64152 902.54182 930.3527 902.04742 928.4043 899.89648 C 926.87549 898.20877 926.42965 895.90279 926.14648 888.21289 C 925.71899 876.60348 927.03078 871.28188 930.53516 870.40234 C 931.26978 870.21797 931.94171 870.11367 932.55469 870.09961 z M 932.03906 882.07227 C 931.45324 882.07264 930.84553 882.23629 930.25 882.61133 C 927.86489 884.11336 927.5724 886.42982 929.52148 888.37891 C 931.52971 890.38713 933.38687 890.44547 934.96094 888.54883 C 937.16082 885.89814 934.86165 882.07047 932.03906 882.07227 z " />
    <path
       id="02"
       style="fill:#ffffff"
       d="M 970.48828 863.21875 C 970.08249 863.22613 969.66701 863.24595 969.24219 863.27734 C 959.47144 863.99947 955.03101 870.9612 955.06641 885.5 C 955.09794 898.43689 957.69065 904.52609 964.5 907.65039 C 970.33861 910.32929 977.7334 907.93938 982.18359 901.9375 C 986.44462 896.19076 986.91457 880.11537 983.07422 871.43359 C 980.54351 865.7125 976.57511 863.10799 970.48828 863.21875 z M 970.55469 870.09961 C 974.84551 870.00121 976.26265 874.29215 976.32031 886 C 976.36559 895.19522 975.33716 899.40646 972.59961 901.23438 C 970.64152 902.54182 968.3527 902.04742 966.4043 899.89648 C 964.87549 898.20877 964.42965 895.90279 964.14648 888.21289 C 963.71899 876.60348 965.03078 871.28188 968.53516 870.40234 C 969.26978 870.21797 969.94171 870.11367 970.55469 870.09961 z M 970.03906 882.07227 C 969.45324 882.07264 968.84553 882.23629 968.25 882.61133 C 965.86489 884.11336 965.5724 886.42982 967.52148 888.37891 C 969.52971 890.38713 971.38687 890.44547 972.96094 888.54883 C 975.16082 885.89814 972.86165 882.07047 970.03906 882.07227 z " />
    <path
       style="fill:#ffffff"
       d="m 1113.0011,907.28354 c -4.2685,-2.17587 -6.4108,-6.28633 -5.5811,-10.70867 1.1272,-6.00871 7.2619,-9.49014 16.83,-9.55101 3.3176,-0.0211 3.75,-0.30946 3.75,-2.50081 0,-3.92917 -3.78,-5.7415 -11.1649,-5.353 -5.2538,0.27639 -6.3277,0.0551 -6.6158,-1.36304 -0.6691,-3.29321 12.8807,-4.3658 18.4841,-1.4632 4.0979,2.12271 5.2837,6.22907 5.291,18.32286 0,5.93358 0.4051,9.29983 1.1383,9.54423 0.6658,0.22192 0.8575,1.24448 0.4652,2.48062 -0.7881,2.483 -4.1048,2.07093 -5.8522,-0.72708 -1.0474,-1.67719 -1.2243,-1.6732 -3.6731,0.0828 -3.9549,2.8361 -8.9974,3.31302 -13.0715,1.2363 z m 12.6844,-5.45785 c 1.7275,-1.62288 2.3145,-3.27138 2.3145,-6.5 V 891 l -4.25,0.0147 c -8.3026,0.0288 -12.8742,5.09441 -9.3927,10.40776 2.2137,3.37867 7.9439,3.58261 11.3282,0.40319 z"
       id="a1" />
    <path
       style="fill:#ffffff"
       d="m 1195,895.5575 v -4.4425 l -4.25,-0.3075 c -3.533,-0.25563 -4.3039,-0.68708 -4.5696,-2.5575 -0.2913,-2.05169 0.083,-2.25 4.25,-2.25 H 1195 v -4.5 c 0,-4.33333 0.1111,-4.5 3,-4.5 2.8889,0 3,0.16667 3,4.5 v 4.5 h 4.5696 c 4.1668,0 4.5413,0.19831 4.25,2.25 -0.2657,1.87042 -1.0366,2.30187 -4.5696,2.5575 l -4.25,0.3075 v 4.4425 c 0,4.26944 -0.1169,4.4425 -3,4.4425 -2.8831,0 -3,-0.17306 -3,-4.4425 z"
       id="+1" />
    <path
       style="fill:#ffffff"
       d="M 1300,904.5 V 901 h 5 5 v -13.59502 -13.59502 l -4.4919,2.63245 -4.492,2.63245 -1.9679,-3.236 -1.9679,-3.23599 7.2098,-4.29015 c 5.4396,-3.23676 8.2534,-4.29292 11.4599,-4.30144 L 1320,864 v 18.5 18.5 h 4 c 3.9048,0 4,0.0833 4,3.5 v 3.5 h -14 -14 z"
       id="11" />
    <path
       id="03"
       style="fill:#ffffff"
       d="M 1350.4883 863.21875 C 1350.0825 863.22613 1349.667 863.24595 1349.2422 863.27734 C 1339.4714 863.99947 1335.0314 870.9612 1335.0664 885.5 C 1335.0979 898.43689 1337.6906 904.52609 1344.5 907.65039 C 1350.3386 910.32929 1357.7334 907.93938 1362.1836 901.9375 C 1366.4446 896.19076 1366.9146 880.11537 1363.0742 871.43359 C 1360.5435 865.7125 1356.5751 863.10799 1350.4883 863.21875 z M 1350.5547 870.09961 C 1354.8455 870.00121 1356.2626 874.29215 1356.3203 886 C 1356.3656 895.19522 1355.3372 899.40646 1352.5996 901.23438 C 1350.6415 902.54182 1348.3527 902.04742 1346.4043 899.89648 C 1344.8755 898.20877 1344.4296 895.90279 1344.1465 888.21289 C 1343.719 876.60348 1345.0308 871.28188 1348.5352 870.40234 C 1349.2698 870.21797 1349.9417 870.11367 1350.5547 870.09961 z M 1350.0391 882.07227 C 1349.4532 882.07264 1348.8455 882.23629 1348.25 882.61133 C 1345.8649 884.11336 1345.5724 886.42982 1347.5215 888.37891 C 1349.5297 890.38713 1351.3869 890.44547 1352.9609 888.54883 C 1355.1608 885.89814 1352.8616 882.07047 1350.0391 882.07227 z " />
    <path
       style="fill:#ffffff"
       d="m 1500.5417,908.27998 c -1.0771,-0.27878 -2.9896,-1.18257 -4.25,-2.00843 -2.0628,-1.35157 -2.2917,-1.34024 -2.2917,0.11344 0,1.05601 -0.8653,1.61501 -2.5,1.61501 h -2.5 v -22.89301 c 0,-19.95294 0.2031,-22.97097 1.5818,-23.5 4.0663,-1.56039 4.4182,-0.92255 4.4182,8.00802 v 8.61501 l 2.7192,-1.78168 c 3.1185,-2.04334 9.7441,-2.34111 13.0248,-0.58536 5.5967,2.99527 8.0402,16.31501 4.4726,24.38025 -2.786,6.29828 -8.7572,9.56841 -14.6749,8.03675 z m 7.3998,-6.71771 c 4.0339,-4.29391 4.0355,-16.58523 0,-20.61805 -2.5311,-2.53114 -6.9991,-2.47551 -10.3093,0.12836 -2.4927,1.96076 -2.6349,2.55119 -2.6349,10.9433 0,8.03312 0.2099,9.0177 2.2225,10.42742 3.3554,2.3502 8.0456,1.9647 10.719,-0.88103 z"
       id="b1" />
    <path
       style="fill:#ffffff"
       d="m 1575,895.5575 v -4.4425 l -4.25,-0.3075 c -3.533,-0.25563 -4.3039,-0.68708 -4.5696,-2.5575 -0.2913,-2.05169 0.083,-2.25 4.25,-2.25 H 1575 v -4.5 c 0,-4.33333 0.1111,-4.5 3,-4.5 2.8889,0 3,0.16667 3,4.5 v 4.5 h 4.5696 c 4.1668,0 4.5413,0.19831 4.25,2.25 -0.2657,1.87042 -1.0366,2.30187 -4.5696,2.5575 l -4.25,0.3075 v 4.4425 c 0,4.26944 -0.1169,4.4425 -3,4.4425 -2.8831,0 -3,-0.17306 -3,-4.4425 z"
       id="+2" />
    <path
       style="fill:#ffffff"
       d="m 1639,904.22497 c 0,-3.37669 0.7994,-4.56378 7.5756,-11.25 10.4646,-10.32546 13.5473,-16.70922 9.853,-20.40354 -2.1441,-2.14412 -7.6419,-1.97805 -10.5622,0.31904 -2.3711,1.86508 -2.4411,1.86042 -5.2103,-0.34767 l -2.8069,-2.23815 3.05,-2.56639 c 8.9517,-7.53237 22.8458,-5.10099 26.0328,4.55557 1.9714,5.97347 -1.2454,12.6932 -10.3746,21.67201 -3.0566,3.00621 -5.5574,5.81871 -5.5574,6.25 0,0.43129 3.825,0.78416 8.5,0.78416 h 8.5 v 3.5 3.5 h -14.5 -14.5 z"
       id="21" />
    <path
       style="fill:#ffffff"
       d="m 1682.5909,907.57646 c -2.15,-0.79759 -4.7486,-2.28969 -5.7747,-3.31579 -1.8208,-1.82084 -1.8057,-1.92191 0.6298,-4.20992 1.99,-1.86957 2.7854,-2.10357 3.9278,-1.15551 2.5877,2.14761 7.5102,3.04115 10.6753,1.9378 8.0834,-2.8179 5.8024,-12.83304 -2.9228,-12.83304 -3.8389,0 -3.8678,-0.0292 -3.2144,-3.25 0.5425,-2.67461 1.1841,-3.30907 3.6237,-3.58366 8.9139,-1.00331 8.3297,-11.16634 -0.6418,-11.16634 -1.8968,0 -4.4812,0.72312 -5.743,1.60694 -2.154,1.5087 -2.4408,1.46924 -4.6917,-0.64536 -2.8481,-2.67564 -2.5526,-3.36309 2.5689,-5.97587 4.6007,-2.34711 12.5257,-2.61685 17.3734,-0.59134 8.5518,3.57316 8.9347,14.37248 0.6604,18.62449 l -2.4382,1.25295 3.5461,1.41439 c 5.966,2.37955 7.9196,9.37294 4.4776,16.02899 -2.9341,5.6738 -14.3698,8.71275 -22.0564,5.86127 z"
       id="31" />
    <path
       id="04"
       style="fill:#ffffff"
       d="M 1730.4883 863.21875 C 1730.0825 863.22613 1729.667 863.24595 1729.2422 863.27734 C 1719.4714 863.99947 1715.0314 870.9612 1715.0664 885.5 C 1715.0979 898.43689 1717.6906 904.52609 1724.5 907.65039 C 1730.3386 910.32929 1737.7334 907.93938 1742.1836 901.9375 C 1746.4446 896.19076 1746.9146 880.11537 1743.0742 871.43359 C 1740.5435 865.7125 1736.5751 863.10799 1730.4883 863.21875 z M 1730.5547 870.09961 C 1734.8455 870.00121 1736.2626 874.29215 1736.3203 886 C 1736.3656 895.19522 1735.3372 899.40646 1732.5996 901.23438 C 1730.6415 902.54182 1728.3527 902.04742 1726.4043 899.89648 C 1724.8755 898.20877 1724.4296 895.90279 1724.1465 888.21289 C 1723.719 876.60348 1725.0308 871.28188 1728.5352 870.40234 C 1729.2698 870.21797 1729.9417 870.11367 1730.5547 870.09961 z M 1730.0391 882.07227 C 1729.4532 882.07264 1728.8455 882.23825 1728.25 882.61328 C 1725.8649 884.11531 1725.5724 886.42982 1727.5215 888.37891 C 1729.5297 890.38713 1731.3869 890.44547 1732.9609 888.54883 C 1735.1608 885.89814 1732.8616 882.07047 1730.0391 882.07227 z " />
    <path
       style="fill:#ffffff"
       d="m 1879.9136,908.06635 c -7.8559,-2.44767 -11.4169,-8.43154 -10.7234,-18.01921 0.4633,-6.40462 2.2472,-9.79129 7.0438,-13.3725 3.43,-2.56087 12.0131,-2.71107 16.6057,-0.29059 3.1542,1.66234 3.2476,1.86202 1.6811,3.593 -1.4819,1.63744 -1.9445,1.68372 -4.3397,0.43407 -8.7467,-4.56335 -15.7929,1.45457 -14.9731,12.78809 0.5711,7.89441 2.9149,10.32932 9.8447,10.22728 2.7469,-0.0404 5.5238,-0.60295 6.1708,-1.25 1.658,-1.65797 2.5485,-1.47096 3.7581,0.78918 0.8867,1.65687 0.6174,2.18808 -1.7148,3.38175 -3.6807,1.88385 -10.1508,2.71674 -13.3532,1.71893 z"
       id="c1" />
    <path
       style="fill:#ffffff"
       d="m 1955,895.5575 v -4.4425 l -4.25,-0.3075 c -3.533,-0.25563 -4.3039,-0.68708 -4.5696,-2.5575 -0.2913,-2.05169 0.083,-2.25 4.25,-2.25 H 1955 v -4.5 c 0,-4.33333 0.1111,-4.5 3,-4.5 2.8889,0 3,0.16667 3,4.5 v 4.5 h 4.5696 c 4.1668,0 4.5413,0.19831 4.25,2.25 -0.2657,1.87042 -1.0366,2.30187 -4.5696,2.5575 l -4.25,0.3075 v 4.4425 c 0,4.26944 -0.1169,4.4425 -3,4.4425 -2.8831,0 -3,-0.17306 -3,-4.4425 z"
       id="+3" />
    <path
       style="fill:#ffffff"
       d="M 2022,904.5 V 901 h 5 5 v -13.59502 -13.59502 l -4.4919,2.63245 -4.492,2.63245 -1.9679,-3.236 -1.9679,-3.23599 7.2098,-4.29015 c 5.4396,-3.23676 8.2534,-4.29292 11.4599,-4.30144 L 2042,864 v 18.5 18.5 h 4 c 3.9048,0 4,0.0833 4,3.5 v 3.5 h -14 -14 z"
       id="12" />
    <path
       id="05"
       style="fill:#ffffff"
       d="M 2072.4883 863.21875 C 2072.0825 863.22613 2071.667 863.24595 2071.2422 863.27734 C 2061.4714 863.99947 2057.0314 870.9612 2057.0664 885.5 C 2057.0979 898.43689 2059.6906 904.52609 2066.5 907.65039 C 2072.3386 910.32929 2079.7334 907.93938 2084.1836 901.9375 C 2088.4446 896.19076 2088.9146 880.11537 2085.0742 871.43359 C 2082.5435 865.7125 2078.5751 863.10799 2072.4883 863.21875 z M 2072.5547 870.09961 C 2076.8455 870.00121 2078.2626 874.29215 2078.3203 886 C 2078.3656 895.19522 2077.3372 899.40646 2074.5996 901.23438 C 2072.6415 902.54182 2070.3527 902.04742 2068.4043 899.89648 C 2066.8755 898.20877 2066.4296 895.90279 2066.1465 888.21289 C 2065.719 876.60348 2067.0308 871.28188 2070.5352 870.40234 C 2071.2698 870.21797 2071.9417 870.11367 2072.5547 870.09961 z M 2072.0391 882.07227 C 2071.4532 882.07264 2070.8455 882.23629 2070.25 882.61133 C 2067.8649 884.11336 2067.5724 886.42982 2069.5215 888.37891 C 2071.5297 890.38713 2073.3869 890.44547 2074.9609 888.54883 C 2077.1608 885.89814 2074.8616 882.07047 2072.0391 882.07227 z " />
    <path
       style="fill:#ffffff"
       d="m 2217.034,907.28923 c -5.1807,-2.67445 -7.54,-7.48128 -7.5041,-15.28923 0.034,-7.46848 2.2452,-12.96738 6.2754,-15.60811 3.0015,-1.96661 10.6751,-2.31149 12.428,-0.55856 2.2781,2.27807 2.7667,1.07129 2.7667,-6.83333 0,-8.27939 0.3933,-8.93751 4.4182,-7.39301 1.3787,0.52903 1.5818,3.54706 1.5818,23.5 V 908 h -2.5 c -1.8456,0 -2.5,-0.53134 -2.5,-2.02994 v -2.02993 l -2.75,2.01628 c -4.052,2.97094 -8.172,3.42045 -12.216,1.33282 z m 11.3311,-5.36181 c 2.4927,-1.96076 2.6349,-2.55119 2.6349,-10.9433 0,-8.03312 -0.2099,-9.0177 -2.2225,-10.42742 -5.6373,-3.94852 -12.1105,-0.18767 -13.2971,7.72551 -1.7963,11.97877 5.3636,19.56132 12.8847,13.64521 z"
       id="d1" />
    <path
       id="&lt;=1"
       style="fill:#ffffff"
       d="M 2311 871 C 2310.4887 871 2305.892 873.52978 2300.7852 876.62109 C 2281.519 888.2835 2281.5603 887.93349 2298.2285 898.27734 C 2307.2921 903.90201 2310.786 905.59276 2311.7285 904.81055 C 2312.4279 904.23012 2313 903.24437 2313 902.61914 C 2313 901.99392 2308.2858 898.61458 2302.5234 895.10938 C 2296.7609 891.60417 2292.2796 888.35747 2292.5645 887.89648 C 2292.8494 887.4355 2297.7555 884.25592 2303.4688 880.83008 C 2312.4271 875.45832 2313.7237 874.35371 2312.8926 872.80078 C 2312.3626 871.81039 2311.5113 871 2311 871 z M 2326 879.9375 L 2326 882.46875 L 2326 885 L 2338.5703 885 C 2351.0334 885 2351.1371 884.98095 2350.8203 882.75 C 2350.5113 880.57447 2350.0945 880.49024 2338.25 880.21875 L 2326 879.9375 z M 2326 891.9375 L 2326 894.46875 L 2326 897 L 2338.5703 897 C 2351.0334 897 2351.1371 896.98095 2350.8203 894.75 C 2350.5113 892.57447 2350.0945 892.49024 2338.25 892.21875 L 2326 891.9375 z " />
    <path
       style="fill:#ffffff"
       d="m 2405.5909,907.51926 c -2.15,-0.76613 -4.7486,-2.23249 -5.7747,-3.25859 -1.8208,-1.82084 -1.8073,-1.92043 0.5642,-4.14835 2.3297,-2.1886 2.5359,-2.21324 5.0018,-0.59752 3.3521,2.19636 9.2132,2.16134 11.6786,-0.0698 2.4857,-2.24958 2.6672,-9.57418 0.2959,-11.94547 -1.3664,-1.36635 -2.8833,-1.52713 -9,-0.95394 L 2401,887.23497 v -11.61749 -11.61749 h 13 13 v 3.5 3.5 h -8.5 -8.5 v 4.62781 4.62781 l 4.0028,-0.64007 c 5.2846,-0.84505 10.3666,1.32898 13.0304,5.57427 1.6379,2.61024 1.9989,4.52837 1.7073,9.0713 -0.3146,4.90161 -0.861,6.26796 -3.6624,9.1583 -2.0013,2.06481 -4.9931,3.82535 -7.6282,4.48888 -5.4831,1.38065 -7.0356,1.32971 -11.859,-0.38904 z"
       id="52" />
    <path
       id="06"
       style="fill:#ffffff"
       d="M 2452.4883 863.21875 C 2452.0825 863.22613 2451.667 863.24595 2451.2422 863.27734 C 2441.4714 863.99947 2437.0314 870.9612 2437.0664 885.5 C 2437.0979 898.43689 2439.6906 904.52609 2446.5 907.65039 C 2452.3386 910.32929 2459.7334 907.93938 2464.1836 901.9375 C 2468.4446 896.19076 2468.9146 880.11537 2465.0742 871.43359 C 2462.5435 865.7125 2458.5751 863.10799 2452.4883 863.21875 z M 2452.5547 870.09961 C 2456.8455 870.00121 2458.2626 874.29215 2458.3203 886 C 2458.3656 895.19522 2457.3372 899.40646 2454.5996 901.23438 C 2452.6415 902.54182 2450.3527 902.04742 2448.4043 899.89648 C 2446.8755 898.20877 2446.4296 895.90279 2446.1465 888.21289 C 2445.719 876.60348 2447.0308 871.28188 2450.5352 870.40234 C 2451.2698 870.21797 2451.9417 870.11367 2452.5547 870.09961 z M 2452.0391 882.07227 C 2451.4532 882.07264 2450.8455 882.23629 2450.25 882.61133 C 2447.8649 884.11336 2447.5724 886.42982 2449.5215 888.37891 C 2451.5297 890.38713 2453.3869 890.44547 2454.9609 888.54883 C 2457.1608 885.89814 2454.8616 882.07047 2452.0391 882.07227 z " />
    <path
       style="fill:#ffffff"
       d="M 920,981.5 V 978 h 5 5 v -13.59502 -13.59502 l -4.49194,2.63245 -4.49193,2.63245 -1.96793,-3.236 -1.96792,-3.23599 7.20986,-4.29015 c 5.43957,-3.23676 8.25339,-4.29292 11.45986,-4.30144 L 940,941 v 18.5 18.5 h 4 c 3.90476,0 4,0.0833 4,3.5 v 3.5 h -14 -14 z"
       id="path1025" />
    <path
       id="path1013"
       style="fill:#ffffff"
       d="M 970.48828 940.21875 C 970.08249 940.22613 969.66701 940.24595 969.24219 940.27734 C 959.47144 940.99947 955.03101 947.9612 955.06641 962.5 C 955.09794 975.43689 957.69065 981.52609 964.5 984.65039 C 970.33861 987.32929 977.7334 984.93938 982.18359 978.9375 C 986.44462 973.19076 986.91457 957.11537 983.07422 948.43359 C 980.54351 942.7125 976.57511 940.10799 970.48828 940.21875 z M 970.55469 947.09961 C 974.84551 947.00121 976.26265 951.29215 976.32031 963 C 976.36559 972.19522 975.33716 976.40646 972.59961 978.23438 C 970.64152 979.54182 968.3527 979.04742 966.4043 976.89648 C 964.87549 975.20877 964.42965 972.90279 964.14648 965.21289 C 963.71899 953.60348 965.03078 948.28188 968.53516 947.40234 C 969.26978 947.21797 969.94171 947.11367 970.55469 947.09961 z M 970.03906 959.07227 C 969.45324 959.07264 968.84553 959.23629 968.25 959.61133 C 965.86489 961.11336 965.5724 963.42982 967.52148 965.37891 C 969.52971 967.38713 971.38687 967.44547 972.96094 965.54883 C 975.16082 962.89814 972.86165 959.07047 970.03906 959.07227 z " />
    <path
       style="fill:#ffffff"
       d="m 1113.0011,984.28354 c -4.2685,-2.17587 -6.4108,-6.28633 -5.5811,-10.70867 1.1272,-6.00871 7.2619,-9.49014 16.83,-9.55101 3.3176,-0.0211 3.75,-0.30946 3.75,-2.50081 0,-3.92917 -3.78,-5.7415 -11.1649,-5.353 -5.2538,0.27639 -6.3277,0.0551 -6.6158,-1.36304 -0.6691,-3.29321 12.8807,-4.3658 18.4841,-1.4632 4.0979,2.12271 5.2837,6.22907 5.291,18.32286 0,5.93358 0.4051,9.29983 1.1383,9.54423 0.6658,0.22192 0.8575,1.24448 0.4652,2.48062 -0.7881,2.483 -4.1048,2.07093 -5.8522,-0.72708 -1.0474,-1.67719 -1.2243,-1.6732 -3.6731,0.0828 -3.9549,2.8361 -8.9974,3.31302 -13.0715,1.2363 z m 12.6844,-5.45785 c 1.7275,-1.62288 2.3145,-3.27138 2.3145,-6.5 V 968 l -4.25,0.0147 c -8.3026,0.0288 -12.8742,5.09441 -9.3927,10.40776 2.2137,3.37867 7.9439,3.58261 11.3282,0.40319 z"
       id="a2" />
    <path
       style="fill:#ffffff"
       d="m 1195,972.5575 v -4.4425 l -4.25,-0.3075 c -3.533,-0.25563 -4.3039,-0.68708 -4.5696,-2.5575 -0.2913,-2.05169 0.083,-2.25 4.25,-2.25 H 1195 v -4.5 c 0,-4.33333 0.1111,-4.5 3,-4.5 2.8889,0 3,0.16667 3,4.5 v 4.5 h 4.5696 c 4.1668,0 4.5413,0.19831 4.25,2.25 -0.2657,1.87042 -1.0366,2.30187 -4.5696,2.5575 l -4.25,0.3075 v 4.4425 c 0,4.26944 -0.1169,4.4425 -3,4.4425 -2.8831,0 -3,-0.17306 -3,-4.4425 z"
       id="path1037" />
    <path
       style="fill:#ffffff"
       d="m 1335,981.22497 c 0,-3.37669 0.7994,-4.56378 7.5756,-11.25 10.4646,-10.32546 13.5473,-16.70922 9.853,-20.40354 -2.1441,-2.14412 -7.6419,-1.97805 -10.5622,0.31904 -2.3711,1.86508 -2.4411,1.86042 -5.2103,-0.34767 l -2.8069,-2.23815 3.05,-2.56639 c 8.9517,-7.53237 22.8458,-5.10099 26.0328,4.55557 1.9714,5.97347 -1.2454,12.6932 -10.3746,21.67201 -3.0566,3.00621 -5.5574,5.81871 -5.5574,6.25 0,0.43129 3.825,0.78416 8.5,0.78416 h 8.5 v 3.5 3.5 h -14.5 -14.5 z"
       id="path1027" />
    <path
       style="fill:#ffffff"
       d="m 1500.5417,985.27998 c -1.0771,-0.27878 -2.9896,-1.18257 -4.25,-2.00843 -2.0628,-1.35157 -2.2917,-1.34024 -2.2917,0.11344 0,1.05601 -0.8653,1.61501 -2.5,1.61501 h -2.5 v -22.89301 c 0,-19.95294 0.2031,-22.97097 1.5818,-23.5 4.0663,-1.56039 4.4182,-0.92255 4.4182,8.00802 v 8.61501 l 2.7192,-1.78168 c 3.1185,-2.04334 9.7441,-2.34111 13.0248,-0.58536 5.5967,2.99527 8.0402,16.31501 4.4726,24.38025 -2.786,6.29828 -8.7572,9.56841 -14.6749,8.03675 z m 7.3998,-6.71771 c 4.0339,-4.29391 4.0355,-16.58523 0,-20.61805 -2.5311,-2.53114 -6.9991,-2.47551 -10.3093,0.12836 -2.4927,1.96076 -2.6349,2.55119 -2.6349,10.9433 0,8.03312 0.2099,9.0177 2.2225,10.42742 3.3554,2.3502 8.0456,1.9647 10.719,-0.88103 z"
       id="b2" />
    <path
       style="fill:#ffffff"
       d="M 1567,964.5 V 962 h 11 11 v 2.5 2.5 h -11 -11 z"
       id="path1043" />
    <path
       style="fill:#ffffff"
       d="m 1722.5,983.79566 c -1.65,-0.58821 -3.1319,-1.17727 -3.2931,-1.30904 -0.1613,-0.13176 3.2809,-7.83265 7.6493,-17.11309 L 1734.7986,948.5 1725.3993,948.21379 1716,947.92758 V 944.46379 941 h 14.5 14.5 v 2.79775 c 0,3.60955 -16.4861,40.64411 -18.2,40.88481 -0.715,0.10041 -2.65,-0.2987 -4.3,-0.8869 z"
       id="path1029" />
    <path
       style="fill:#ffffff"
       d="m 1879.9136,985.06632 c -7.8559,-2.44767 -11.4169,-8.43154 -10.7234,-18.01921 0.4633,-6.40462 2.2472,-9.79129 7.0438,-13.3725 3.43,-2.56087 12.0131,-2.71107 16.6057,-0.29059 3.1542,1.66234 3.2476,1.86202 1.6811,3.593 -1.4819,1.63744 -1.9445,1.68372 -4.3397,0.43407 -8.7467,-4.56335 -15.7929,1.45457 -14.9731,12.78809 0.5711,7.89441 2.9149,10.32932 9.8447,10.22728 2.7469,-0.0404 5.5238,-0.60295 6.1708,-1.25 1.658,-1.65797 2.5485,-1.47096 3.7581,0.78918 0.8867,1.65687 0.6174,2.18808 -1.7148,3.38175 -3.6807,1.88385 -10.1508,2.71674 -13.3532,1.71893 z"
       id="c2" />
    <path
       style="fill:#ffffff"
       d="m 1955,972.5575 v -4.4425 l -4.25,-0.3075 c -3.533,-0.25563 -4.3039,-0.68708 -4.5696,-2.5575 -0.2913,-2.05169 0.083,-2.25 4.25,-2.25 H 1955 v -4.5 c 0,-4.33333 0.1111,-4.5 3,-4.5 2.8889,0 3,0.16667 3,4.5 v 4.5 h 4.5696 c 4.1668,0 4.5413,0.19831 4.25,2.25 -0.2657,1.87042 -1.0366,2.30187 -4.5696,2.5575 l -4.25,0.3075 v 4.4425 c 0,4.26944 -0.1169,4.4425 -3,4.4425 -2.8831,0 -3,-0.17306 -3,-4.4425 z"
       id="path1039" />
    <path
       style="fill:#ffffff"
       d="m 2217.034,984.28923 c -5.1807,-2.67445 -7.54,-7.48128 -7.5041,-15.28923 0.034,-7.46848 2.2452,-12.96738 6.2754,-15.60811 3.0015,-1.96661 10.6751,-2.31149 12.428,-0.55856 2.2781,2.27807 2.7667,1.07129 2.7667,-6.83333 0,-8.27939 0.3933,-8.93751 4.4182,-7.39301 1.3787,0.52903 1.5818,3.54706 1.5818,23.5 V 985 h -2.5 c -1.8456,0 -2.5,-0.53134 -2.5,-2.02994 v -2.02993 l -2.75,2.01628 c -4.052,2.97094 -8.172,3.42045 -12.216,1.33282 z m 11.3311,-5.36181 c 2.4927,-1.96076 2.6349,-2.55119 2.6349,-10.9433 0,-8.03312 -0.2099,-9.0177 -2.2225,-10.42742 -5.6373,-3.94852 -12.1105,-0.18767 -13.2971,7.72551 -1.7963,11.97877 5.3636,19.56132 12.8847,13.64521 z"
       id="d2" />
    <path
       id="path1045"
       style="fill:#ffffff"
       d="M 2311 948 C 2310.4887 948 2305.892 950.52978 2300.7852 953.62109 C 2281.519 965.2835 2281.5603 964.93349 2298.2285 975.27734 C 2307.2921 980.90201 2310.786 982.59276 2311.7285 981.81055 C 2312.4279 981.23012 2313 980.24437 2313 979.61914 C 2313 978.99392 2308.2858 975.61458 2302.5234 972.10938 C 2296.7609 968.60417 2292.2796 965.35747 2292.5645 964.89648 C 2292.8494 964.4355 2297.7555 961.25592 2303.4688 957.83008 C 2312.4271 952.45832 2313.7237 951.35371 2312.8926 949.80078 C 2312.3626 948.81039 2311.5113 948 2311 948 z M 2326 956.9375 L 2326 959.46875 L 2326 962 L 2338.5703 962 C 2351.0334 962 2351.1371 961.98095 2350.8203 959.75 C 2350.5113 957.57447 2350.0945 957.49024 2338.25 957.21875 L 2326 956.9375 z M 2326 968.9375 L 2326 971.46875 L 2326 974 L 2338.5703 974 C 2351.0334 974 2351.1371 973.98095 2350.8203 971.75 C 2350.5113 969.57447 2350.0945 969.49024 2338.25 969.21875 L 2326 968.9375 z " />
    <path
       style="fill:#ffffff"
       d="M 2402,981.5 V 978 h 5 5 v -13.59502 -13.59502 l -4.4919,2.63245 -4.492,2.63245 -1.9679,-3.236 -1.9679,-3.23599 7.2098,-4.29015 c 5.4396,-3.23676 8.2534,-4.29292 11.4599,-4.30144 L 2422,941 v 18.5 18.5 h 4 c 3.9048,0 4,0.0833 4,3.5 v 3.5 h -14 -14 z"
       id="path1031" />
    <path
       style="fill:#ffffff"
       d="m 2437,981.22497 c 0,-3.37669 0.7994,-4.56378 7.5756,-11.25 10.4646,-10.32546 13.5473,-16.70922 9.853,-20.40354 -2.1441,-2.14412 -7.6419,-1.97805 -10.5622,0.31904 -2.3711,1.86508 -2.4411,1.86042 -5.2103,-0.34767 l -2.8069,-2.23815 3.05,-2.56639 c 8.9517,-7.53237 22.8458,-5.10099 26.0328,4.55557 1.9714,5.97347 -1.2454,12.6932 -10.3746,21.67201 -3.0566,3.00621 -5.5574,5.81871 -5.5574,6.25 0,0.43129 3.825,0.78416 8.5,0.78416 h 8.5 v 3.5 3.5 h -14.5 -14.5 z"
       id="path1033" />
    <path
       style="fill:#ffffff"
       d="m 2481.5909,984.51926 c -2.15,-0.76613 -4.7486,-2.23249 -5.7747,-3.25859 -1.8208,-1.82084 -1.8073,-1.92043 0.5642,-4.14835 2.3297,-2.1886 2.5359,-2.21324 5.0018,-0.59752 3.3521,2.19636 9.2132,2.16134 11.6786,-0.0698 2.4857,-2.24958 2.6672,-9.57418 0.2959,-11.94547 -1.3664,-1.36635 -2.8833,-1.52713 -9,-0.95394 L 2477,964.23497 v -11.61749 -11.61749 h 13 13 v 3.5 3.5 h -8.5 -8.5 v 4.62781 4.62781 l 4.0028,-0.64007 c 5.2846,-0.84505 10.3666,1.32898 13.0304,5.57427 1.6379,2.61024 1.9989,4.52837 1.7073,9.0713 -0.3146,4.90161 -0.861,6.26796 -3.6624,9.1583 -2.0013,2.06481 -4.9931,3.82535 -7.6282,4.48888 -5.4831,1.38065 -7.0356,1.32971 -11.859,-0.38904 z"
       id="path1023" />
    <path
       style="fill:#ffffff"
       d="m 883,1041.5 v -2.5 h 11 11 v 2.5 2.5 h -11 -11 z"
       id="-" />
    <path
       style="fill:#ffffff"
       d="m 923.59093,1061.519 c -2.14999,-0.7662 -4.7486,-2.2325 -5.7747,-3.2586 -1.82084,-1.8209 -1.8073,-1.9205 0.56421,-4.1484 2.32966,-2.1886 2.5359,-2.2132 5.0018,-0.5975 3.35208,2.1964 9.21315,2.1613 11.67852,-0.07 2.48576,-2.2496 2.66721,-9.5742 0.29592,-11.9455 -1.36634,-1.3663 -2.88325,-1.5271 -9,-0.9539 L 919,1041.235 V 1029.6175 1018 h 13 13 v 3.5 3.5 h -8.5 -8.5 v 4.6278 4.6278 l 4.00277,-0.6401 c 5.28464,-0.845 10.36668,1.329 13.03048,5.5743 1.63784,2.6103 1.99885,4.5284 1.70728,9.0713 -0.31459,4.9016 -0.861,6.268 -3.66243,9.1583 -2.00129,2.0648 -4.99307,3.8254 -7.62821,4.4889 -5.48304,1.3806 -7.03559,1.3297 -11.85896,-0.389 z"
       id="path977" />
    <path
       id="path981"
       style="fill:#ffffff"
       d="M 970.48828 1017.2188 C 970.08249 1017.2261 969.66701 1017.246 969.24219 1017.2773 C 959.47144 1017.9995 955.03101 1024.9612 955.06641 1039.5 C 955.09794 1052.4369 957.69065 1058.5241 964.5 1061.6484 C 970.33861 1064.3273 977.7334 1061.9394 982.18359 1055.9375 C 986.44462 1050.1908 986.91457 1034.1154 983.07422 1025.4336 C 980.54351 1019.7125 976.57511 1017.108 970.48828 1017.2188 z M 970.55469 1024.0996 C 974.84551 1024.0012 976.26265 1028.2922 976.32031 1040 C 976.36559 1049.1952 975.33716 1053.4065 972.59961 1055.2344 C 970.64152 1056.5418 968.3527 1056.0474 966.4043 1053.8965 C 964.87549 1052.2088 964.42965 1049.9008 964.14648 1042.2109 C 963.71899 1030.6015 965.03078 1025.2818 968.53516 1024.4023 C 969.26978 1024.218 969.94171 1024.1137 970.55469 1024.0996 z M 970.03906 1036.0703 C 969.45324 1036.0707 968.84553 1036.2363 968.25 1036.6113 C 965.86489 1038.1133 965.5724 1040.4298 967.52148 1042.3789 C 969.52971 1044.3872 971.38687 1044.4436 972.96094 1042.5469 C 975.16082 1039.8962 972.86165 1036.0685 970.03906 1036.0703 z " />
    <path
       style="fill:#ffffff"
       d="m 1113.0011,1061.2832 c -4.2685,-2.1758 -6.4108,-6.2863 -5.5811,-10.7086 1.1272,-6.0087 7.2619,-9.4902 16.83,-9.551 3.3176,-0.021 3.75,-0.3095 3.75,-2.5008 0,-3.9292 -3.78,-5.7415 -11.1649,-5.353 -5.2538,0.2763 -6.3277,0.055 -6.6158,-1.3631 -0.6691,-3.2932 12.8807,-4.3658 18.4841,-1.4632 4.0979,2.1227 5.2837,6.2291 5.291,18.3229 0,5.9336 0.4051,9.2998 1.1383,9.5442 0.6658,0.2219 0.8575,1.2445 0.4652,2.4806 -0.7881,2.483 -4.1048,2.0709 -5.8522,-0.7271 -1.0474,-1.6772 -1.2243,-1.6732 -3.6731,0.083 -3.9549,2.8361 -8.9974,3.3131 -13.0715,1.2363 z m 12.6844,-5.4578 c 1.7275,-1.6229 2.3145,-3.2714 2.3145,-6.5 v -4.3257 l -4.25,0.015 c -8.3026,0.029 -12.8742,5.0944 -9.3927,10.4078 2.2137,3.3787 7.9439,3.5826 11.3282,0.4032 z"
       id="a3" />
    <path
       style="fill:#ffffff"
       d="m 1567,1043.5 v -2.5 h 11 11 v 2.5 2.5 h -11 -11 z"
       id="path1007" />
    <path
       style="fill:#ffffff"
       d="m 1680,1058.5 v -3.5 h 5 5 v -13.595 -13.595 l -4.4919,2.6324 -4.492,2.6325 -1.9679,-3.236 -1.9679,-3.236 7.2098,-4.2902 c 5.4396,-3.2367 8.2534,-4.2929 11.4599,-4.3014 l 4.25,-0.011 v 18.5 18.5 h 4 c 3.9048,0 4,0.083 4,3.5 v 3.5 h -14 -14 v -3.5 z"
       id="path999" />
    <path
       style="fill:#ffffff"
       d="m 1721.5909,1061.519 c -2.15,-0.7662 -4.7486,-2.2325 -5.7747,-3.2586 -1.8208,-1.8209 -1.8073,-1.9205 0.5642,-4.1484 2.3297,-2.1886 2.5359,-2.2132 5.0018,-0.5975 3.3521,2.1964 9.2132,2.1613 11.6786,-0.07 2.4857,-2.2496 2.6672,-9.5742 0.2959,-11.9455 -1.3664,-1.3663 -2.8833,-1.5271 -9,-0.9539 l -7.3567,0.6894 v -11.6175 -11.6175 h 13 13 v 3.5 3.5 h -8.5 -8.5 v 4.6278 4.6278 l 4.0028,-0.6401 c 5.2846,-0.845 10.3666,1.329 13.0304,5.5743 1.6379,2.6103 1.9989,4.5284 1.7073,9.0713 -0.3146,4.9016 -0.861,6.268 -3.6624,9.1583 -2.0013,2.0648 -4.9931,3.8254 -7.6282,4.4889 -5.4831,1.3806 -7.0356,1.3297 -11.859,-0.389 z"
       id="path985" />
    <path
       style="fill:#ffffff"
       d="m 1879.9136,1062.066 c -7.8559,-2.4476 -11.4169,-8.4315 -10.7234,-18.0192 0.4633,-6.4046 2.2472,-9.7913 7.0438,-13.3725 3.43,-2.5609 12.0131,-2.7111 16.6057,-0.2906 3.1542,1.6624 3.2476,1.862 1.6811,3.593 -1.4819,1.6375 -1.9445,1.6837 -4.3397,0.4341 -8.7467,-4.5634 -15.7929,1.4546 -14.9731,12.7881 0.5711,7.8944 2.9149,10.3293 9.8447,10.2273 2.7469,-0.041 5.5238,-0.603 6.1708,-1.25 1.658,-1.658 2.5485,-1.471 3.7581,0.7891 0.8867,1.6569 0.6174,2.1881 -1.7148,3.3818 -3.6807,1.8838 -10.1508,2.7167 -13.3532,1.7189 z"
       id="c3" />
    <path
       id="path1009"
       style="fill:#ffffff"
       d="M 2311 1025 C 2310.4887 1025 2305.892 1027.5298 2300.7852 1030.6211 C 2281.519 1042.2835 2281.5603 1041.9335 2298.2285 1052.2773 C 2307.2921 1057.902 2310.786 1059.5927 2311.7285 1058.8105 C 2312.4279 1058.2301 2313 1057.2444 2313 1056.6191 C 2313 1055.9939 2308.2858 1052.6146 2302.5234 1049.1094 C 2296.7609 1045.6041 2292.2796 1042.3575 2292.5645 1041.8965 C 2292.8494 1041.4355 2297.7555 1038.256 2303.4688 1034.8301 C 2312.4271 1029.4584 2313.7237 1028.3537 2312.8926 1026.8008 C 2312.3626 1025.8104 2311.5113 1025 2311 1025 z M 2326 1033.9375 L 2326 1036.4688 L 2326 1039 L 2338.5703 1039 C 2351.0334 1039 2351.1371 1038.9809 2350.8203 1036.75 C 2350.5113 1034.5745 2350.0945 1034.4902 2338.25 1034.2188 L 2326 1033.9375 z M 2326 1045.9375 L 2326 1048.4688 L 2326 1051 L 2338.5703 1051 C 2351.0334 1051 2351.1371 1050.9809 2350.8203 1048.75 C 2350.5113 1046.5745 2350.0945 1046.4902 2338.25 1046.2188 L 2326 1045.9375 z " />
    <path
       style="fill:#ffffff"
       d="m 2405.5909,1061.519 c -2.15,-0.7662 -4.7486,-2.2325 -5.7747,-3.2586 -1.8208,-1.8209 -1.8073,-1.9205 0.5642,-4.1484 2.3297,-2.1886 2.5359,-2.2132 5.0018,-0.5975 3.3521,2.1964 9.2132,2.1613 11.6786,-0.07 2.4857,-2.2496 2.6672,-9.5742 0.2959,-11.9455 -1.3664,-1.3663 -2.8833,-1.5271 -9,-0.9539 l -7.3567,0.6894 v -11.6175 -11.6175 h 13 13 v 3.5 3.5 h -8.5 -8.5 v 4.6278 4.6278 l 4.0028,-0.6401 c 5.2846,-0.845 10.3666,1.329 13.0304,5.5743 1.6379,2.6103 1.9989,4.5284 1.7073,9.0713 -0.3146,4.9016 -0.861,6.268 -3.6624,9.1583 -2.0013,2.0648 -4.9931,3.8254 -7.6282,4.4889 -5.4831,1.3806 -7.0356,1.3297 -11.859,-0.389 z"
       id="path989" />
    <path
       id="path993"
       style="fill:#ffffff"
       d="M 2452.4883 1017.2188 C 2452.0825 1017.2261 2451.667 1017.246 2451.2422 1017.2773 C 2441.4714 1017.9995 2437.0314 1024.9612 2437.0664 1039.5 C 2437.0979 1052.4369 2439.6906 1058.5241 2446.5 1061.6484 C 2452.3386 1064.3273 2459.7334 1061.9394 2464.1836 1055.9375 C 2468.4446 1050.1908 2468.9146 1034.1154 2465.0742 1025.4336 C 2462.5435 1019.7125 2458.5751 1017.108 2452.4883 1017.2188 z M 2452.5547 1024.0996 C 2456.8455 1024.0012 2458.2626 1028.2922 2458.3203 1040 C 2458.3656 1049.1952 2457.3372 1053.4065 2454.5996 1055.2344 C 2452.6415 1056.5418 2450.3527 1056.0474 2448.4043 1053.8965 C 2446.8755 1052.2088 2446.4296 1049.9008 2446.1465 1042.2109 C 2445.719 1030.6015 2447.0308 1025.2818 2450.5352 1024.4023 C 2451.2698 1024.218 2451.9417 1024.1137 2452.5547 1024.0996 z M 2452.0391 1036.0703 C 2451.4532 1036.0707 2450.8455 1036.2363 2450.25 1036.6113 C 2447.8649 1038.1133 2447.5724 1040.4298 2449.5215 1042.3789 C 2451.5297 1044.3872 2453.3869 1044.4436 2454.9609 1042.5469 C 2457.1608 1039.8962 2454.8616 1036.0685 2452.0391 1036.0703 z " />
    <path
       id="path997"
       style="fill:#ffffff"
       d="m 2490.4883,1017.2188 c -0.4058,0.01 -0.8213,0.027 -1.2461,0.058 -9.7708,0.7222 -14.2108,7.6839 -14.1758,22.2227 0.032,12.9369 2.6242,19.0241 9.4336,22.1484 5.8386,2.6789 13.2334,0.291 17.6836,-5.7109 4.261,-5.7467 4.731,-21.8221 0.8906,-30.5039 -2.5307,-5.7211 -6.4991,-8.3256 -12.5859,-8.2148 z m 0.066,6.8808 c 4.2908,-0.098 5.7079,4.1926 5.7656,15.9004 0.045,9.1952 -0.9831,13.4065 -3.7207,15.2344 -1.9581,1.3074 -4.2469,0.813 -6.1953,-1.3379 -1.5288,-1.6877 -1.9747,-3.9957 -2.2578,-11.6856 -0.4275,-11.6094 0.8843,-16.9291 4.3887,-17.8086 0.7346,-0.1843 1.4065,-0.2886 2.0195,-0.3027 z m -0.5156,11.9707 c -0.5859,4e-4 -1.1936,0.166 -1.7891,0.541 -2.3851,1.502 -2.6776,3.8185 -0.7285,5.7676 2.0082,2.0083 3.8654,2.0647 5.4394,0.168 2.1999,-2.6507 -0.099,-6.4784 -2.9218,-6.4766 z" />
    <path
       style="fill:#ffffff"
       d="m 882,1289.5 v -3.5 h 5 5 v -13.595 -13.595 l -4.49194,2.6324 -4.49193,2.6325 -1.96793,-3.236 -1.96792,-3.236 7.20986,-4.2902 c 5.43957,-3.2367 8.25339,-4.2929 11.45986,-4.3014 L 902,1249 v 18.5 18.5 h 4 c 3.90476,0 4,0.083 4,3.5 v 3.5 h -14 -14 z"
       id="18" />
    <path
       style="fill:#ffffff"
       d="m 925.60432,1293.0198 c -4.25401,-1.3586 -8.48678,-5.8763 -9.23316,-9.8549 -0.77983,-4.1569 1.59147,-9.2718 5.19176,-11.1986 l 2.37616,-1.2717 -2.96954,-3.3821 c -3.91463,-4.4585 -4.0652,-9.8569 -0.39654,-14.2169 6.57652,-7.8157 22.8083,-5.6176 25.30562,3.427 1.20989,4.3818 0.70589,6.045 -3.04459,10.047 l -2.87668,3.0696 2.35201,1.2588 c 4.96348,2.6563 7.08094,9.9565 4.51893,15.5795 -2.48736,5.4592 -13.74732,8.9301 -21.22397,6.5423 z M 937,1285 c 3.58555,-3.5856 1.76299,-8.6129 -3.98569,-10.9941 -2.66485,-1.1038 -3.32332,-1.0362 -5.03983,0.5172 -2.4545,2.2213 -2.63072,8.0943 -0.31949,10.6482 2.1836,2.4128 6.84635,2.3274 9.34501,-0.1713 z m -1.80699,-19.75 c 2.53773,-2.9548 2.94184,-5.3953 1.30662,-7.8909 -1.69554,-2.5877 -6.23679,-3.2219 -8.29963,-1.1591 -2.1197,2.1197 -1.39995,6.4976 1.43486,8.7274 3.20311,2.5196 3.64904,2.5455 5.55815,0.3226 z"
       id="path326" />
    <path
       style="fill:#ffffff"
       d="m 1075.0011,1290.2835 c -4.2685,-2.1758 -6.4108,-6.2863 -5.5811,-10.7086 1.1272,-6.0087 7.2619,-9.4902 16.83,-9.551 3.3176,-0.021 3.75,-0.3095 3.75,-2.5008 0,-3.9292 -3.78,-5.7415 -11.1649,-5.353 -5.2538,0.2763 -6.3277,0.055 -6.6158,-1.3631 -0.6691,-3.2932 12.8807,-4.3658 18.4841,-1.4632 4.0979,2.1227 5.2837,6.2291 5.291,18.3229 0,5.9336 0.4051,9.2998 1.1383,9.5442 0.6658,0.2219 0.8575,1.2445 0.4652,2.4806 -0.7881,2.483 -4.1048,2.0709 -5.8522,-0.7271 -1.0474,-1.6772 -1.2243,-1.6732 -3.6731,0.083 -3.9549,2.8361 -8.9974,3.3131 -13.0715,1.2363 z m 12.6844,-5.4578 c 1.7275,-1.6229 2.3145,-3.2714 2.3145,-6.5 V 1274 l -4.25,0.015 c -8.3026,0.029 -12.8742,5.0944 -9.3927,10.4078 2.2137,3.3787 7.9439,3.5826 11.3282,0.4032 z"
       id="a4" />
    <path
       style="fill:#ffffff"
       d="m 1157,1280.5575 v -4.4425 l -4.25,-0.3075 c -3.533,-0.2556 -4.3039,-0.6871 -4.5696,-2.5575 -0.2913,-2.0517 0.083,-2.25 4.25,-2.25 H 1157 v -4.5 c 0,-4.3333 0.1111,-4.5 3,-4.5 2.8889,0 3,0.1667 3,4.5 v 4.5 h 4.5696 c 4.1668,0 4.5413,0.1983 4.25,2.25 -0.2657,1.8704 -1.0366,2.3019 -4.5696,2.5575 l -4.25,0.3075 v 4.4425 c 0,4.2694 -0.1169,4.4425 -3,4.4425 -2.8831,0 -3,-0.1731 -3,-4.4425 z"
       id="path971" />
    <path
       style="fill:#ffffff"
       d="m 1221,1289.225 c 0,-3.3767 0.7994,-4.5638 7.5756,-11.25 10.4646,-10.3255 13.5473,-16.7092 9.853,-20.4036 -2.1441,-2.1441 -7.6419,-1.978 -10.5622,0.3191 -2.3711,1.8651 -2.4411,1.8604 -5.2103,-0.3477 l -2.8069,-2.2381 3.05,-2.5664 c 8.9517,-7.5324 22.8458,-5.101 26.0328,4.5555 1.9714,5.9735 -1.2454,12.6932 -10.3746,21.672 -3.0566,3.0063 -5.5574,5.8188 -5.5574,6.25 0,0.4313 3.825,0.7842 8.5,0.7842 h 8.5 v 3.5 3.5 h -14.5 -14.5 z"
       id="path965" />
    <path
       style="fill:#ffffff"
       d="m 1386.5417,1293.28 c -1.0771,-0.2788 -2.9896,-1.1826 -4.25,-2.0085 -2.0628,-1.3515 -2.2917,-1.3402 -2.2917,0.1135 0,1.056 -0.8653,1.615 -2.5,1.615 h -2.5 v -22.893 c 0,-19.953 0.2031,-22.971 1.5818,-23.5 4.0663,-1.5604 4.4182,-0.9226 4.4182,8.008 v 8.615 l 2.7192,-1.7817 c 3.1185,-2.0433 9.7441,-2.3411 13.0248,-0.5853 5.5967,2.9953 8.0402,16.315 4.4726,24.3802 -2.786,6.2983 -8.7572,9.5684 -14.6749,8.0368 z m 7.3998,-6.7177 c 4.0339,-4.2939 4.0355,-16.5853 0,-20.6181 -2.5311,-2.5311 -6.9991,-2.4755 -10.3093,0.1284 -2.4927,1.9607 -2.6349,2.5512 -2.6349,10.9433 0,8.0331 0.2099,9.0177 2.2225,10.4274 3.3554,2.3502 8.0456,1.9647 10.719,-0.881 z"
       id="b4" />
    <path
       style="fill:#ffffff"
       d="m 1461,1280.5575 v -4.4425 l -4.25,-0.3075 c -3.533,-0.2556 -4.3039,-0.6871 -4.5696,-2.5575 -0.2913,-2.0517 0.083,-2.25 4.25,-2.25 H 1461 v -4.5 c 0,-4.3333 0.1111,-4.5 3,-4.5 2.8889,0 3,0.1667 3,4.5 v 4.5 h 4.5696 c 4.1668,0 4.5413,0.1983 4.25,2.25 -0.2657,1.8704 -1.0366,2.3019 -4.5696,2.5575 l -4.25,0.3075 v 4.4425 c 0,4.2694 -0.1169,4.4425 -3,4.4425 -2.8831,0 -3,-0.1731 -3,-4.4425 z"
       id="path973" />
    <path
       style="fill:#ffffff"
       d="m 1528,1289.5 v -3.5 h 5 5 v -13.595 -13.595 l -4.4919,2.6324 -4.492,2.6325 -1.9679,-3.236 -1.9679,-3.236 7.2098,-4.2902 c 5.4396,-3.2367 8.2534,-4.2929 11.4599,-4.3014 l 4.25,-0.011 v 18.5 18.5 h 4 c 3.9048,0 4,0.083 4,3.5 v 3.5 h -14 -14 v -3.5 z"
       id="path967" />
    <path
       id="path957"
       style="fill:#ffffff"
       d="M 1578.4883 1248.2188 C 1578.0825 1248.2261 1577.667 1248.246 1577.2422 1248.2773 C 1567.4714 1248.9995 1563.0314 1255.9612 1563.0664 1270.5 C 1563.0979 1283.4369 1565.6906 1289.5261 1572.5 1292.6504 C 1578.3386 1295.3293 1585.7334 1292.9394 1590.1836 1286.9375 C 1594.4446 1281.1908 1594.9146 1265.1154 1591.0742 1256.4336 C 1588.5435 1250.7125 1584.5751 1248.108 1578.4883 1248.2188 z M 1578.5547 1255.0996 C 1582.8455 1255.0012 1584.2626 1259.2922 1584.3203 1271 C 1584.3656 1280.1952 1583.3372 1284.4065 1580.5996 1286.2344 C 1578.6415 1287.5418 1576.3527 1287.0474 1574.4043 1284.8965 C 1572.8755 1283.2088 1572.4296 1280.9008 1572.1465 1273.2109 C 1571.719 1261.6015 1573.0308 1256.2818 1576.5352 1255.4023 C 1577.2698 1255.218 1577.9417 1255.1137 1578.5547 1255.0996 z M 1578.0391 1267.0723 C 1577.4532 1267.0726 1576.8455 1267.2363 1576.25 1267.6113 C 1573.8649 1269.1133 1573.5724 1271.4298 1575.5215 1273.3789 C 1577.5297 1275.3872 1579.3869 1275.4455 1580.9609 1273.5488 C 1583.1608 1270.8982 1580.8616 1267.0705 1578.0391 1267.0723 z " />
    <path
       style="fill:#ffffff"
       d="m 1727.9136,1293.0663 c -7.8559,-2.4476 -11.4169,-8.4315 -10.7234,-18.0192 0.4633,-6.4046 2.2472,-9.7913 7.0438,-13.3725 3.43,-2.5609 12.0131,-2.7111 16.6057,-0.2906 3.1542,1.6624 3.2476,1.862 1.6811,3.593 -1.4819,1.6375 -1.9445,1.6837 -4.3397,0.4341 -8.7467,-4.5634 -15.7929,1.4546 -14.9731,12.7881 0.5711,7.8944 2.9149,10.3293 9.8447,10.2273 2.7469,-0.041 5.5238,-0.603 6.1708,-1.25 1.658,-1.658 2.5485,-1.471 3.7581,0.7891 0.8867,1.6569 0.6174,2.1881 -1.7148,3.3818 -3.6807,1.8838 -10.1508,2.7167 -13.3532,1.7189 z"
       id="c4" />
    <path
       style="fill:#ffffff"
       d="m 1803,1280.5575 v -4.4425 l -4.25,-0.3075 c -3.533,-0.2556 -4.3039,-0.6871 -4.5696,-2.5575 -0.2913,-2.0517 0.083,-2.25 4.25,-2.25 H 1803 v -4.5 c 0,-4.3333 0.1111,-4.5 3,-4.5 2.8889,0 3,0.1667 3,4.5 v 4.5 h 4.5696 c 4.1668,0 4.5413,0.1983 4.25,2.25 -0.2657,1.8704 -1.0366,2.3019 -4.5696,2.5575 l -4.25,0.3075 v 4.4425 c 0,4.2694 -0.1169,4.4425 -3,4.4425 -2.8831,0 -3,-0.1731 -3,-4.4425 z"
       id="path975" />
    <path
       style="fill:#ffffff"
       d="m 1874.5,1291.7957 c -1.65,-0.5882 -3.1319,-1.1773 -3.2931,-1.3091 -0.1613,-0.1317 3.2809,-7.8326 7.6493,-17.1131 l 7.9424,-16.8735 -9.3993,-0.2862 -9.3993,-0.2862 V 1252.4638 1249 h 14.5 14.5 v 2.7978 c 0,3.6095 -16.4861,40.6441 -18.2,40.8848 -0.715,0.1004 -2.65,-0.2987 -4.3,-0.8869 z"
       id="path969" />
    <path
       style="fill:#ffffff"
       d="m 2027.034,1292.2892 c -5.1807,-2.6744 -7.54,-7.4812 -7.5041,-15.2892 0.034,-7.4685 2.2452,-12.9674 6.2754,-15.6081 3.0015,-1.9666 10.6751,-2.3115 12.428,-0.5586 2.2781,2.2781 2.7667,1.0713 2.7667,-6.8333 0,-8.2794 0.3933,-8.9375 4.4182,-7.393 1.3787,0.529 1.5818,3.547 1.5818,23.5 V 1293 h -2.5 c -1.8456,0 -2.5,-0.5313 -2.5,-2.0299 v -2.03 l -2.75,2.0163 c -4.052,2.971 -8.172,3.4205 -12.216,1.3328 z m 11.3311,-5.3618 c 2.4927,-1.9607 2.6349,-2.5512 2.6349,-10.9433 0,-8.0331 -0.2099,-9.0177 -2.2225,-10.4274 -5.6373,-3.9485 -12.1105,-0.1877 -13.2971,7.7255 -1.7963,11.9788 5.3636,19.5613 12.8847,13.6452 z"
       id="path961" />
    <circle
       style="opacity:1;fill:#000000;stroke-width:1.416;stroke-linecap:square;stroke-miterlimit:2;paint-order:fill markers stroke;stop-color:#000000"
       id="path427"
       cx="3774.2273"
       cy="65.772812"
       r="65.772812" />
    <circle
       style="fill:#000000;stroke-width:1.416;stroke-linecap:square;stroke-miterlimit:2;paint-order:fill markers stroke;stop-color:#000000"
       id="path427-3"
       cx="65.772812"
       cy="65.772812"
       r="65.772812" />
    <circle
       style="fill:#000000;stroke-width:1.416;stroke-linecap:square;stroke-miterlimit:2;paint-order:fill markers stroke;stop-color:#000000"
       id="path427-6"
       cx="3774.2273"
       cy="2094.2273"
       r="65.772812" />
    <circle
       style="fill:#000000;stroke-width:1.416;stroke-linecap:square;stroke-miterlimit:2;paint-order:fill markers stroke;stop-color:#000000"
       id="path427-7"
       cx="65.772812"
       cy="2094.2273"
       r="65.772812" />
  </g>
</svg>
