<?xml version="1.0" encoding="UTF-8" standalone="no"?>
<!-- Created with Inkscape (http://www.inkscape.org/) -->

<svg
   version="1.1"
   id="svg2"
   width="240"
   height="240"
   viewBox="0 0 240 240"
   sodipodi:docname="rabbit.svg"
   inkscape:version="1.2 (dc2aedaf03, 2022-05-15)"
   xmlns:inkscape="http://www.inkscape.org/namespaces/inkscape"
   xmlns:sodipodi="http://sodipodi.sourceforge.net/DTD/sodipodi-0.dtd"
   xmlns="http://www.w3.org/2000/svg"
   xmlns:svg="http://www.w3.org/2000/svg">
  <defs
     id="defs6" />
  <sodipodi:namedview
     id="namedview4"
     pagecolor="#ffffff"
     bordercolor="#666666"
     borderopacity="1.0"
     inkscape:showpageshadow="2"
     inkscape:pageopacity="0.0"
     inkscape:pagecheckerboard="0"
     inkscape:deskcolor="#d1d1d1"
     showgrid="false"
     inkscape:zoom="3.6"
     inkscape:cx="124.02778"
     inkscape:cy="250.83333"
     inkscape:window-width="1914"
     inkscape:window-height="2129"
     inkscape:window-x="3840"
     inkscape:window-y="0"
     inkscape:window-maximized="1"
     inkscape:current-layer="g8" />
  <g
     inkscape:groupmode="layer"
     inkscape:label="Image"
     id="g8"
     transform="translate(3.3449969,-3.9084178)">
    <path
       style="fill:#ffffff;fill-opacity:1;stroke:none;stroke-width:0.102049;stroke-linecap:square;stroke-miterlimit:2;paint-order:fill markers stroke;stop-color:#000000"
       d="m 64.829905,147.88446 c -3.378408,-0.26102 -5.826823,-0.96238 -7.822666,-2.24085 -2.640488,-1.69141 -5.057929,-4.52242 -6.425897,-7.52521 -0.871785,-1.91363 -1.244744,-3.59095 -1.330054,-5.98167 -0.155911,-4.36923 1.289561,-8.22548 4.524832,-12.07143 0.383454,-0.45583 1.250541,-1.40631 1.926861,-2.11218 1.775164,-1.85272 3.443837,-3.93209 5.794494,-7.22066 1.398264,-1.95617 3.519417,-5.14425 4.699081,-7.06269 2.158032,-3.50952 2.866972,-4.630951 3.963689,-6.269936 3.42391,-5.116861 6.549729,-8.832643 9.349228,-11.113795 2.35729,-1.920821 4.306669,-2.627876 6.042704,-2.191735 1.077374,0.270668 2.504596,1.073206 2.925573,1.645073 0.535763,0.727794 0.739912,1.565983 0.605427,2.485733 -0.329657,2.25454 -1.73427,5.127937 -6.563444,13.42675 -3.354882,5.76528 -5.438322,9.86763 -5.589313,11.00549 -0.107282,0.80849 1.043794,3.21219 3.02981,6.32693 0.918277,1.44016 1.326951,2.14091 1.786268,3.0629 0.586495,1.17726 0.73055,1.60378 0.742393,2.19808 0.0059,0.29728 0.03379,0.59246 0.06191,0.65596 0.04361,0.0984 -0.02898,0.1215 -0.492259,0.15654 -0.937204,0.0709 -1.534761,0.4532 -1.760052,1.12607 -0.397422,1.18701 0.661416,2.08226 3.377478,2.8557 l 0.684869,0.19502 0.206813,0.53157 c 0.18542,0.47656 0.203663,0.59745 0.176355,1.16863 -0.04097,0.85684 -0.273911,1.35224 -0.803549,1.70893 -0.203989,0.13737 -0.416251,0.24977 -0.471695,0.24977 -0.05544,0 -0.428829,-0.13201 -0.829746,-0.29335 -2.167879,-0.87243 -4.177199,-1.02209 -5.104702,-0.38021 -0.319208,0.2209 -0.632983,0.8067 -0.632983,1.18174 0,0.22463 0.056,0.31656 0.378358,0.62108 0.402485,0.38021 1.430263,1.08892 2.612474,1.80146 0.791768,0.47722 2.697557,1.54606 3.004884,1.68526 0.165568,0.075 0.201558,0.1467 0.243957,0.48604 0.06487,0.51924 -0.0431,0.96711 -0.413222,1.71405 -1.029556,2.07773 -4.026216,4.92695 -6.69127,6.36203 -1.549153,0.8342 -3.692722,1.42419 -6.197871,1.7059 -1.178614,0.13254 -3.9202,0.19111 -5.008744,0.10701 z"
       id="path479"
       sodipodi:nodetypes="sssssssssssssssssscssscssssssssssssssss" />
    <path
       style="fill:#eaeef0"
       d="m 184.13821,196.90842 c 2.66447,-12.70574 1.00084,-26.15509 -4.69586,-37.96307 l -4.05671,-6.68647 5.26778,-1.74719 c 6.27681,-2.08186 11.61566,-1.99627 17.54245,0.7636 9.39665,4.37566 13.18228,11.75979 12.09164,23.58565 -0.83066,9.00692 -4.43294,14.63816 -11.66582,18.23653 -3.00668,1.49582 -7.26669,2.85272 -9.46669,3.01532 -2.29987,0.16998 -4.3275,0.93318 -4.77053,1.79563 -0.46576,0.90671 -0.56316,0.51118 -0.24626,-1 z"
       id="path305"
       sodipodi:nodetypes="sscsssssss" />
    <path
       style="fill:#dddddd"
       d="m 100.90665,235.2029 c -2.944287,-0.56722 -3.681067,-3.76419 -2.872507,-12.46399 0.35602,-3.83068 0.30386,-6.75259 -0.11591,-6.49313 -0.41978,0.25946 -0.6366,-1.39781 -0.48184,-3.68281 0.61063,-9.01556 -3.375568,-8.76163 -6.814538,0.43409 -2.522416,6.74487 -9.234149,14.80272 -12.545435,15.06155 -1.056779,0.0826 0.103583,0.46502 2.578583,0.84981 l 4.5,0.69961 -3.782119,0.1502 c -2.080165,0.0826 -5.401028,-0.52623 -7.379695,-1.35297 -3.497958,-1.46154 -3.581186,-1.62077 -3.005624,-5.75 0.325575,-2.33576 1.290112,-6.72184 2.143416,-9.74684 1.909874,-6.77059 0.95323,-12.48502 -4.185215,-25 -3.666147,-8.92911 -4.691762,-20.35199 -3.367095,-27.41307 l 0.673413,-3.5896 3.702941,2.96416 c 15.685663,12.55619 39.880015,10.0343 50.185535,-6.21149 2.08246,-3.28283 1.6559,-3.37298 -3.50408,-0.74055 -11.12005,5.67302 -27.023673,7.22304 -36.629314,2.36303 -3.390376,-1.71537 -5.97956,-2.41534 -7.338705,-1.98396 -2.782433,0.88311 -13.735936,-2.94 -17.513458,-5.53648 -6.892714,-4.7377 -9.470202,-11.97043 -7.545696,-21.17408 0.978051,-4.67738 2.09649,-6.73951 5.688646,-10.48849 2.459184,-2.56655 6.358049,-8.25518 8.664146,-12.64141 2.644416,-5.029708 6.59343,-10.426056 10.692904,-14.611905 5.542626,-5.659407 7.515671,-6.972719 13.395798,-8.916604 5.879629,-1.94372 25.711529,-9.751854 16.994449,-5.192172 -3.482577,1.821646 4.8218,3.637071 6.0593,3.697251 1.2375,0.06018 2.55045,1.312868 2.55045,1.725368 0,2.201784 2.86711,0.246741 4.39956,-3 3.98393,-8.440586 15.51313,-24.266311 23.54936,-32.32537 14.88225,-14.924522 30.62991,-20.534566 37.95147,-13.520066 3.55937,3.4101 5.59344,10.816692 4.66707,16.994129 -2.48037,16.540325 -23.02118,40.714513 -43.31746,50.979718 -2.8875,1.460401 -5.24977,2.985201 -5.2495,3.388431 2.8e-4,0.40324 0.94817,3.20816 2.10643,6.23316 1.20421,3.14504 2.16739,8.1356 2.24949,11.65542 l 0.14358,6.15542 5.5,1.55228 c 13.81864,3.90009 29.17212,16.838 35.39729,29.82825 7.27269,15.17611 8.96887,27.83725 3.91137,45.33947 -4.56442,15.79586 -9.39388,20.17329 -23.53682,24.89785 -18.32292,5.80631 -33.96082,4.32764 -31.45663,0.4399 -0.74505,-3.89747 4.4621,-9.13245 13.66625,-13.73927 l 7.80635,-3.9072 -5.42057,-5.35323 c -6.07071,-5.99531 -7.77004,-10.26218 -6.42851,-16.14146 1.18721,-5.20295 3.4371,-8.32869 8.6292,-11.98842 4.92304,-3.47008 5.33083,-4.31898 2.50547,-5.21571 -2.52408,-0.80112 -8.83849,1.88473 -12.41268,5.27975 -4.18364,3.97393 -5.66903,7.47064 -6.36137,14.97514 -0.58539,6.34525 -0.859,6.93291 -4.88404,10.49016 -2.54202,2.24658 -4.86475,5.47723 -5.75176,8 -0.81831,2.32741 -2.49728,7.08437 -3.73104,10.57102 -1.23376,3.48665 -3.26649,7.84726 -4.51716,9.69023 -1.55164,2.28648 -1.89936,3.5036 -1.09465,3.83168 1.44365,0.58861 -5.94976,0.53415 -9.06905,-0.0668 z M 75.281072,145.28157 c 3.919359,-1.85986 8.046425,-6.48398 7.348307,-8.30325 -0.414949,-1.08134 10.67758,4.31267 15.737534,7.79834 2.121407,1.46138 4.288087,1.56307 4.288087,-0.40008 0,-1.39197 -16.757618,-11.4573 -19.118671,-11.48347 -1.172665,-0.013 -1.17315,-0.14717 -0.0032,-0.8882 0.757964,-0.48009 0.901694,-2.152 0.510146,-2.78554 -0.826938,-1.33801 1.564686,-0.18571 11.993066,2.83387 5.130779,1.48565 7.165899,1.70354 7.999999,0.85653 0.82715,-0.83996 0.64557,-1.48539 -0.6968,-2.47679 -2.07901,-1.53541 -16.203964,-5.52456 -19.561653,-5.52456 -1.232505,0 -2.013852,-0.3674 -1.736328,-0.81644 0.277525,-0.44905 -0.818991,-2.81155 -2.436701,-5.25 -1.617711,-2.43846 -2.943219,-5.10959 -2.945574,-5.93586 -0.0024,-0.82626 2.217281,-5.27691 4.932524,-9.89033 6.546882,-11.123676 7.666014,-13.924845 6.382632,-15.975616 -0.561639,-0.897466 -2.193021,-1.772192 -3.625294,-1.943836 -3.962913,-0.474915 -10.274508,6.027854 -17.459435,17.988272 -3.410976,5.6781 -8.243469,12.33521 -10.738876,14.79358 -5.114217,5.03833 -6.992928,10.12847 -5.970941,16.17756 0.781083,4.62319 4.648928,9.5833 8.925532,11.44607 4.215113,1.83599 12.067767,1.72907 16.175646,-0.22025 z m 32.542368,-24.69725 c 3.76378,-4.76238 2.34745,-13.42593 -2.47121,-15.11604 -3.52324,-1.23576 -5.593817,-0.0652 -7.986457,4.51503 -2.262843,4.33174 -1.562987,8.67732 1.88612,11.71141 2.977097,2.61887 5.926167,2.23684 8.571547,-1.1104 z m 32.2884,-35.750667 C 154.16917,75.918757 170.655,54.66701 170.655,45.460714 c 0,-2.914482 -0.42663,-3.62127 -2.5,-4.141652 -1.375,-0.345103 -3.52162,-0.371049 -4.77027,-0.05766 -10.23726,2.569388 -34.25211,29.253715 -36.33915,40.378586 -1.28563,6.853002 4.90871,8.367027 13.06626,3.193663 z"
       id="path303"
       sodipodi:nodetypes="ssssssscsssssscsssssssssssssssssssssscsssccscssssssssssssssssssssssssscssssssssssssssssssss" />
    <path
       style="fill:#fdafb0"
       d="m 127.6641,86.41938 c -3.25636,-3.923675 3.40749,-16.423958 15.75486,-29.553513 11.64665,-12.384448 18.97768,-16.992062 24.73604,-15.546805 7.28172,1.827597 -1.70376,19.942174 -17.24449,34.764591 -10.90057,10.396723 -19.88175,14.3899 -23.24641,10.335727 z"
       id="path301" />
    <path
       style="fill:#a6a6a7"
       d="m 110.43202,232.0917 c 1.27298,-1.87585 3.92173,-6.85726 5.15549,-10.34391 1.23376,-3.48665 2.91273,-8.24361 3.73104,-10.57102 0.88701,-2.52277 3.20974,-5.75342 5.75176,-8 4.02504,-3.55725 4.29865,-4.14491 4.88404,-10.49016 0.69234,-7.5045 2.17773,-11.00121 6.36137,-14.97514 3.57419,-3.39502 9.8886,-6.08087 12.41268,-5.27975 2.82536,0.89673 2.41757,1.74563 -2.50547,5.21571 -5.1921,3.65973 -7.44199,6.78547 -8.6292,11.98842 -1.34153,5.87928 0.3578,10.14615 6.42851,16.14146 l 5.42057,5.35323 -7.80635,3.9072 c -9.20415,4.60682 -14.4113,9.8418 -13.66625,13.73927 0.46691,2.44247 0.41398,2.48153 -0.90973,0.67126 -2.86422,-3.91705 -0.74358,-8.21062 6.96087,-14.09341 l 4.79906,-3.66435 -2.7698,-2.89105 c -1.52338,-1.59007 -3.34142,-2.89104 -4.04007,-2.89104 -2.30515,0 -6.80137,6.81158 -10.35554,15.68821 -2.73964,6.84231 -4.44951,9.90825 -7.10921,11.69702 -5.03798,3.38827 -6.87883,2.87259 -4.11377,-1.20195 z m -31.199335,-4.60169 c 4.279592,-1.86349 8.674042,-8.30765 11.303453,-15.33863 2.27924,-6.09462 5.132902,-8.06526 6.696265,-5.59626 1.82192,2.87734 2.07673,7.87468 -1.05026,12.74767 -4.542413,7.07874 -8.248054,11.06721 -14.282294,10.27836 l -5.744846,-0.75101 z m 6.292943,-59.59906 c -10.092681,-1.70536 -19.870625,-8.04882 -19.870625,-12.89111 0,-2.63646 0.181336,-2.72838 5.25,-2.6611 3.34057,0.0443 6.949389,0.9068 9.922489,2.37136 9.085621,4.47561 25.093468,3.67442 35.808988,-1.79223 5.15998,-2.63243 5.58654,-2.54228 3.50408,0.74055 -4.93727,7.78319 -11.96053,12.31214 -21.959427,14.16054 -6.448909,1.19214 -6.040022,1.18982 -12.655505,0.072 z m 9.808762,-24.07368 c -2.561735,-1.59446 -7.81258,-4.50684 -11.668544,-6.47194 -3.855964,-1.96511 -7.010843,-3.96576 -7.010843,-4.4459 0,-1.76344 2.202477,-2.15167 5.310357,-0.93604 6.217451,2.43192 20.68964,11.11482 20.68964,12.41319 0,2.52581 -2.694697,2.31993 -7.32061,-0.55931 z m -64.981621,-5.54442 c -1.911877,-1.91187 -0.04465,-3.19945 6.830655,-4.71018 9.360099,-2.05673 9.471579,-2.0547 9.471579,0.1729 0,1.45834 -1.305379,2.06767 -6.46709,3.01875 -3.5569,0.65539 -7.067905,1.42217 -7.802234,1.70396 -0.73433,0.28178 -1.649139,0.19834 -2.03291,-0.18543 z m 64.802234,-6.37554 c -3.3,-0.99002 -8.158121,-2.35678 -10.795825,-3.03725 -3.501654,-0.90335 -4.710989,-1.67093 -4.481445,-2.84443 0.387297,-1.97999 3.336785,-1.75877 13.9618,1.04717 8.401567,2.21875 11.507107,3.9175 10.409227,5.69392 -0.88982,1.43976 -1.67845,1.36523 -9.093757,-0.85941 z M 31.95815,124.25602 c -0.823437,-2.14584 -0.289593,-2.33413 8.550177,-3.01581 7.211349,-0.5561 8.146676,-0.43539 8.146676,1.05138 0,2.08496 -0.827436,2.34491 -9.323315,2.92911 -5.320606,0.36585 -6.944491,0.1534 -7.373538,-0.96468 z M 103.655,78.763221 c -2.475,-0.509336 -6.638567,-0.797532 -9.252381,-0.640435 l -4.752384,0.285632 -1.554231,-5.5 c -0.854826,-3.025 -1.741996,-6.175 -1.971488,-7 -0.229492,-0.825 -0.867616,-5.515092 -1.418055,-10.422427 -1.916429,-17.085568 1.56732,-34.963975 8.017087,-41.143243 2.561289,-2.453871 3.88944,-2.93433 8.111472,-2.93433 4.58501,0 5.34441,0.342092 8.26848,3.724745 3.71087,4.292833 5.07273,8.254952 6.64687,19.337881 1.72071,12.1149 -0.21435,32.729516 -4.00918,42.710675 -1.11638,2.936302 -1.31453,2.975057 -8.08619,1.581502 z"
       id="path299"
       sodipodi:nodetypes="sssssssssscsssscsssssssssscssscssssssssssssssssssssssssssssssscsssssssss" />
    <path
       style="fill:#2e2f2f"
       d="m 62.702098,136.95869 c -0.799097,-0.50551 -2.654658,-0.67876 -4.123468,-0.385 -2.028445,0.40569 -3.061651,-0.0242 -4.297095,-1.78808 -1.750055,-2.49856 -2.18035,-5.87719 -0.748504,-5.87719 0.482915,0 1.526605,0.97681 2.319311,2.17069 0.841677,1.26763 1.932477,1.86711 2.621972,1.44098 1.778487,-1.09916 1.380153,-4.79982 -0.819311,-7.61167 -2.309885,-2.95302 -2.592596,-6 -0.556704,-6 0.793813,0 2.108753,0.95007 2.92209,2.11127 1.388994,1.98307 1.618487,2.01343 3.77921,0.5 2.54129,-1.77998 5.855404,-2.14887 5.855404,-0.65174 0,1.10353 -5.099837,6.04047 -6.239782,6.04047 -0.41812,0 -0.760218,1.35 -0.760218,3 0,2.30786 0.449966,3 1.95031,3 1.07267,0 2.366965,-0.74452 2.87621,-1.65449 1.257552,-2.24712 4.358799,-1.03778 3.504622,1.36664 -1.620951,4.5628 -5.072032,6.37004 -8.284047,4.33812 z M 98.17631,121.79872 c -5.83897,-3.70028 -1.634965,-16.89226 4.91058,-17.39003 6.66093,-0.50655 9.95787,11.92258 4.70315,17.33069 -2.8165,2.89871 -6.27652,2.1742 -9.61373,0.0593 z"
       id="path295"
       sodipodi:nodetypes="sssssssssssssssssssss" />
  </g>
</svg>
