<?xml version="1.0" encoding="UTF-8" standalone="no"?>
<!-- Created with Inkscape (http://www.inkscape.org/) -->

<svg
   version="1.1"
   id="svg2"
   width="240"
   height="240"
   viewBox="0 0 240 240"
   sodipodi:docname="turtle.svg"
   inkscape:version="1.2 (dc2aedaf03, 2022-05-15)"
   xmlns:inkscape="http://www.inkscape.org/namespaces/inkscape"
   xmlns:sodipodi="http://sodipodi.sourceforge.net/DTD/sodipodi-0.dtd"
   xmlns="http://www.w3.org/2000/svg"
   xmlns:svg="http://www.w3.org/2000/svg">
  <defs
     id="defs6" />
  <sodipodi:namedview
     id="namedview4"
     pagecolor="#ffffff"
     bordercolor="#666666"
     borderopacity="1.0"
     inkscape:showpageshadow="2"
     inkscape:pageopacity="0.0"
     inkscape:pagecheckerboard="0"
     inkscape:deskcolor="#d1d1d1"
     showgrid="false"
     inkscape:zoom="3.1924952"
     inkscape:cx="129.83575"
     inkscape:cy="167.73713"
     inkscape:window-width="1920"
     inkscape:window-height="1080"
     inkscape:window-x="0"
     inkscape:window-y="0"
     inkscape:window-maximized="1"
     inkscape:current-layer="g8" />
  <g
     inkscape:groupmode="layer"
     inkscape:label="Image"
     id="g8"
     transform="translate(-17.482774,-23.913642)">
    <path
       style="fill:#bbcd46"
       d="m 140.92767,247.90312 c -6.19787,-1.91845 -7.65324,-4.78161 -8.40328,-16.53188 -0.43024,-6.74018 -1.13237,-10.89565 -1.92362,-11.38467 -0.68534,-0.42356 -6.95475,-1.06627 -13.93203,-1.42824 -6.97728,-0.36197 -16.06097,-0.93738 -20.185966,-1.2787 l -7.5,-0.62058 0.338802,6.7058 c 0.440597,8.72058 -0.944432,11.97377 -5.95055,13.97683 -5.803813,2.32222 -18.216293,2.05963 -23.870269,-0.50499 -9.396452,-4.26219 -10.544652,-7.78251 -6.631741,-20.33258 1.437567,-4.61078 2.613758,-9.09103 2.613758,-9.95612 0,-0.86509 -2.449367,-3.13973 -5.443037,-5.05476 -11.45846,-7.32989 -16.608911,-13.60438 -20.535485,-25.01716 -6.019469,-17.49589 -1.990678,-35.50245 10.829389,-48.40164 6.874818,-6.91724 13.891921,-10.8011 22.87348,-12.66013 13.407774,-2.77519 21.700059,-1.5396 34.377971,5.12245 13.904768,7.30674 20.522688,17.59717 27.379338,42.573 7.19538,26.20967 13.22876,28.22557 40.34466,26.98842 14.32176,-0.65342 23.6191,-2.82885 33.6174,-7.49641 9.37036,-4.37441 23.1457,-16.09616 27.9837,-25.9206 3.1124,-6.32032 3.29395,-7.76363 3.4267,-15.72399 l 0.1397,-8.37725 7.26854,-2.72385 c 7.08317,-2.65438 11.06366,-3.66385 11.54636,-0.27507 0.43552,3.05756 -3.44412,10.15442 -12.20859,22.33264 -4.15618,5.775 -7.55837,11.4 -7.56042,12.5 -0.002,1.1 1.10508,6.725 2.46029,12.5 1.35521,5.775 2.47211,12.64934 2.48201,15.27632 0.0163,4.31811 -0.40193,5.19623 -4.35933,9.15363 -5.49028,5.49028 -12.26668,7.2816 -21.32117,5.63619 -6.31363,-1.14733 -9.30151,-3.61336 -9.30151,-7.67692 0,-1.31407 -0.19789,-2.38922 -0.43975,-2.38922 -0.72341,0 -26.8935,13.93325 -27.7172,14.75695 -0.4181,0.4181 -0.11953,4.35633 0.66349,8.75162 2.89102,16.22791 1.45069,21.39736 -7.11749,25.54514 -5.34195,2.58599 -18.42613,3.64379 -23.94415,1.93577 z"
       id="path247"
       sodipodi:nodetypes="ssssscssssssssssssssscssssssssssssss" />
    <path
       style="fill:#6d8139"
       d="m 146.20027,191.88803 c -7.17203,-1.8139 -10.96971,-4.64237 -15.04199,-11.2031 l -1.69372,-2.72871 3.22771,-2.25237 c 1.64612,-1.1487 8.63657,3.10587 21.98197,3.10466 22.9563,-0.002 27.76663,-0.88271 41.44193,-7.58667 15.56809,-7.63185 23.63662,-23.98028 31.84083,-40.23057 l 2.19512,-4.34793 1.30354,6.14256 c 3.14293,14.81014 -1.1464,26.38513 -14.89959,40.20739 -9.68169,9.7303 -16.53073,13.56667 -30.39346,17.02437 -9.29639,2.31875 -33.67758,3.45987 -39.96234,1.87037 z m -13.42817,-21.99852 -6.60611,-2.47587 -2.79338,-9.84836 c -1.53636,-5.4166 -4.6263,-12.45817 -6.27611,-15.98377 -3.53143,-7.54647 -11.09383,-16.02671 -17.150568,-19.79342 -2.75206,-1.71152 -6.089187,-1.92404 -5.74083,-5.03409 0.524305,-4.68087 9.020758,-10.98876 10.890718,-11.45809 2.05185,-0.51498 20.12565,3.07762 31.13108,6.18806 3.18742,0.90085 5.82125,2.36292 6.71564,3.72793 2.53697,3.87191 12.26343,51.37472 11.12611,54.33853 -0.74597,1.94398 -14.00158,3.07313 -21.29655,0.33908 z m 32.81867,-1.77408 c -1.43029,-2.67251 -4.49724,-15.45847 -8.60507,-35.8741 -4.20559,-20.90144 -4.20187,-20.92596 3.78298,-24.97329 8.30772,-4.211 21.3081,-11.748956 23.17698,-11.748956 2.46676,0 5.95552,7.087486 16.72876,22.394556 17.19105,24.42576 16.492,22.69254 11.86492,29.41778 -7.52871,10.9426 -16.14102,16.34378 -32.96653,20.67482 -9.32562,2.40051 -12.74149,2.42718 -13.98204,0.10919 z m 49.79813,-38.18451 c -3.92939,-4.35677 -22.12906,-34.187582 -23.70785,-37.240624 -1.33831,-2.588009 -1.40419,-3.738196 -0.40509,-7.072892 0.65622,-2.190262 1.92243,-3.567938 2.18705,-3.567938 1.66614,0 15.86981,12.029416 20.37518,17.638016 5.91316,7.361118 13.53198,18.892638 11.75784,17.796158 -0.68372,-0.42256 -0.62003,4.29578 -0.62003,5.59547 0,3.08633 -2.11841,11.00183 -2.9444,11.00183 -0.38884,0 -5.5266,-2.91252 -6.6427,-4.15002 z M 82.682028,114.9272 c -1.81541,-0.42994 -3.557583,-1.03855 -3.871494,-1.35247 -0.732727,-0.73272 3.812681,-8.64514 8.901492,-15.495263 l 3.962644,-5.334176 2.404052,2.25849 c 1.322229,1.242169 2.404052,2.90703 2.404052,3.699692 0,0.792661 -2.025,4.487237 -4.5,8.210167 -2.475,3.72293 -3.580658,8.06879 -3.580658,8.68232 0,1.23674 -1.030453,0.44189 -5.720088,-0.66876 z M 129.43311,99.99833 c -18.53023,-3.816736 -24.04032,-4.635015 -27.71482,-8.82004 -1.51689,-1.997379 -2.66562,-3.664254 -4.235516,-3.681198 0,-1.41719 16.421446,-9.926461 23.499996,-12.177241 10.41774,-3.312545 28.16831,-4.819192 41.14098,-3.491996 11.43505,1.169888 24.77686,4.851324 23.49065,6.481829 -0.47897,0.607177 0.25735,3.340691 -0.11507,5.407353 -0.4035,2.239157 -1.56745,4.339729 -2.88039,5.198226 -3.67313,2.401761 -33.28153,15.429207 -35.44305,15.362547 -1.10966,-0.0342 -10.29047,-2.7445 -17.74278,-4.27948 z"
       id="path245"
       sodipodi:nodetypes="sscscsscssssscssssssssssssssssssssssssssssscssssssccsssssss" />
    <path
       style="fill:#4c5425"
       d="m 136.09612,179.9281 c -2.68766,-0.48827 -5.96573,-1.28956 -6.36747,-1.7369 -1.15847,-1.28997 -4.71677,-11.11275 -3.95314,-11.0996 0.37911,0.007 4.68226,1.5101 7.70726,2.32204 7.18392,1.92825 19.8661,2.01252 20.58588,0.13679 1.13732,-2.96381 -8.58914,-50.46662 -11.12611,-54.33853 -0.89439,-1.36501 -3.52822,-2.82708 -6.71564,-3.72793 -11.11099,-3.14027 -29.08833,-6.70075 -31.18101,-6.17553 -1.35058,0.33898 -3.63356,3.01538 -5.948184,6.9732 l -4.111888,7.03193 -3.919116,-1.64554 c -2.155514,-0.90505 -4.233514,-1.6254 -4.239108,-2.10143 -0.0056,-0.47604 2.68018,-4.93003 5.15518,-8.65296 2.475,-3.72293 3.323632,-6.998851 3.323632,-7.714437 0,-0.715586 -0.974012,-2.337853 -2.16447,-3.605039 -2.132234,-2.269659 -1.781272,-3.033547 0.09366,-5.105327 3.802719,-4.201957 5.99334,-3.93389 9.340674,-0.121484 3.72792,4.245866 9.94507,6.363441 29.90813,10.186777 l 13.79746,2.6425 16.35046,-6.690686 c 8.99275,-3.679878 17.35886,-7.351247 18.59137,-8.158597 1.43455,-0.939703 2.47137,-2.909071 2.88135,-5.47297 0.35224,-2.202784 1.00042,-4.227545 1.4404,-4.49947 1.19218,-0.736805 7.93733,2.725901 7.93733,4.074724 0,0.64106 -0.48095,2.545214 -1.06877,4.231453 -1.42398,4.084825 -0.41194,5.920412 13.26282,24.055456 11.9225,15.81122 15.42476,19.89163 16.31184,19.00455 0.31157,-0.31158 1.17127,-3.43771 1.91044,-6.94697 l 1.34395,-6.38048 2.54032,3.80256 c 3.85943,5.77709 2.26889,9.28523 -1.36863,18.71762 -7.74121,20.07362 -23.36906,33.98237 -44.43197,39.54433 -7.03004,1.85638 -38.2238,2.84205 -45.88665,1.44995 z m 43.47669,-11.92186 c 16.82551,-4.33104 25.43782,-9.73222 32.96653,-20.67482 4.62708,-6.72524 5.32613,-4.99202 -11.86492,-29.41778 -10.77324,-15.30707 -14.83244,-19.999998 -17.2992,-19.999998 -1.86888,0 -14.29882,5.143398 -22.60654,9.354398 -7.98485,4.04734 -7.98857,4.07185 -3.78298,24.97329 4.10783,20.41563 7.17478,33.20159 8.60507,35.8741 1.24055,2.31799 4.65642,2.29132 13.98204,-0.10919 z"
       id="path243"
       sodipodi:nodetypes="sscsssssscsssssssscssssssssscssssssssssss" />
    <path
       style="fill:#292a27"
       d="m 80.772023,155.66364 c -1.132658,-1.2375 -2.368666,-3.26956 -2.746685,-4.5157 -0.904817,-2.98273 1.131293,-8.98939 3.47178,-10.24198 8.417641,-4.50498 16.936767,6.71494 10.913076,14.37282 -2.744238,3.48873 -8.619433,3.68302 -11.638171,0.38486 z m -34.834704,-1.20455 c -2.830286,-2.83028 -3.207007,-7.18967 -0.99153,-11.47393 2.454831,-4.74712 8.717468,-5.63721 12.362671,-1.75707 5.086985,5.41485 1.272399,15.68555 -5.825686,15.68555 -1.948373,0 -3.998217,-0.90731 -5.545455,-2.45455 z"
       id="path241"
       sodipodi:nodetypes="ssssssssss" />
    <path
       style="fill:#292a27"
       d="m 72.602106,167.21514 c 4.961319,2.44664 11.541315,8.97246 11.141299,11.04958 -0.603428,3.13335 -3.547011,2.60138 -8.864752,-1.60205 -2.827403,-2.23494 -5.730103,-4.06352 -6.450445,-4.06352 -0.720343,0 -3.678214,1.59388 -6.573049,3.54196 -5.482098,3.68918 -8.192484,4.08882 -8.731968,1.28751 -0.398339,-2.06841 2.849118,-5.18351 9.294325,-8.91552 5.793195,-3.35447 5.968941,-3.37687 10.18459,-1.29796 z"
       id="path241-3"
       sodipodi:nodetypes="ssssssss" />
  </g>
</svg>
