<?xml version="1.0" encoding="utf-8" ?>
<svg baseProfile="full" height="1080px" version="1.1" width="1920px" xmlns="http://www.w3.org/2000/svg" xmlns:ev="http://www.w3.org/2001/xml-events" xmlns:xlink="http://www.w3.org/1999/xlink"><defs /><polygon fill="rgb(145, 219, 87)" points="260.9536066779996,275.23548067896377 495.5234528971226,430.49034292471424 653.4607508532422,365.4573378839591 703.6600924008284,224.62029631989796 518.5899305855228,0.3186716313018394" /><polygon fill="rgb(87, 211, 219)" points="1724.4470853479656,732.9007714456457 1809.4327812781278,574.7878487848786 1746.0265394402036,481.63950381679393 1491.692272154557,468.3002939941201 1454.6710148708582,516.0696582311507 1521.133101797896,742.3772706789116" /><polygon fill="rgb(87, 211, 219)" points="280.02673492605237,1014.1641069397042 284.4686746987952,1080.0 690.2926829268292,1080.0 692.6390711761736,1055.94952044422 504.61940298507466,817.6455223880597" /><polygon fill="rgb(145, 219, 87)" points="1215.7280175435735,770.0073777574879 1193.5598348911783,659.5240158286142 882.9709839520183,597.90922353704 871.759344782797,602.7384182421706 844.961221674053,670.2953633246927 897.1078647718246,870.7702356783476 1014.952058840905,930.8629704023158" /><polygon fill="rgb(161, 87, 219)" points="1851.270925110132,0.0 1531.1153846153845,0.0 1527.717992103779,176.6644106034969 1755.0178441369264,210.09085943190095" /><polygon fill="rgb(87, 211, 219)" points="206.58905393712138,653.2555523507355 96.4417665255128,479.8876325194462 0.0,483.84016393442624 0.0,864.109375 104.50485674638803,851.590564035589" /><polygon fill="rgb(145, 219, 87)" points="1238.0860215053763,0.0 919.4406779661018,0.0 907.1402835777412,145.14465378265515 1098.3427172710383,268.18428634057744 1222.4991295905727,189.07577583609535" /><polygon fill="rgb(87, 211, 219)" points="183.66875,0.0 0.0,0.0 0.0,168.33870967741936 181.1080945198592,204.85243841126191" /><polygon fill="rgb(161, 87, 219)" points="1604.3983050847457,1080.0 1920.0,1080.0 1920.0,926.4512195121952 1805.059046177139,905.425435276306 1604.708699409477,1058.6345239809884" /><polygon fill="rgb(87, 211, 219)" points="653.4607508532424,365.45733788395904 495.5234528971226,430.49034292471424 433.5043036219745,648.8494309976314 509.9808339667717,768.0522858073623 844.9612216740531,670.2953633246926 871.759344782797,602.7384182421706" /><polygon fill="rgb(87, 112, 219)" points="0.0,1080.0 284.4686746987952,1080.0 280.02673492605237,1014.1641069397043 104.50485674638801,851.590564035589 0.0,864.109375" /><polygon fill="rgb(87, 211, 219)" points="1240.8725961538462,1080.0 1604.3983050847457,1080.0 1604.708699409477,1058.6345239809878 1445.2646485564626,877.6840662687295 1371.2900845630907,884.8428950422816" /><polygon fill="rgb(161, 87, 219)" points="1275.781008136535,543.9699345108156 1454.6710148708582,516.0696582311506 1491.692272154557,468.30029399412 1465.5147874664142,237.52510003286102 1222.499129590573,189.07577583609523 1098.3427172710383,268.1842863405775 1098.077248761783,282.42003514938506" /><polygon fill="rgb(87, 112, 219)" points="703.6600924008284,224.62029631989805 653.4607508532423,365.4573378839589 871.759344782797,602.7384182421706 882.970983952018,597.9092235370401 1098.077248761783,282.4200351493846 1098.3427172710383,268.1842863405774 907.1402835777412,145.1446537826551" /><polygon fill="rgb(161, 87, 219)" points="1746.0265394402036,481.6395038167939 1809.4327812781278,574.7878487848785 1920.0,590.1919504643963 1920.0,294.9365384615385 1809.208254676506,296.21490475373264" /><polygon fill="rgb(87, 112, 219)" points="495.5234528971226,430.4903429247143 260.9536066779996,275.23548067896377 240.21283984917642,274.8131573724945 96.4417665255128,479.8876325194462 206.58905393712143,653.2555523507355 433.5043036219745,648.8494309976315" /><polygon fill="rgb(87, 112, 219)" points="692.6390711761736,1055.94952044422 690.2926829268292,1080.0 1082.0893470790377,1080.0 1014.9520588409049,930.8629704023157 897.1078647718244,870.7702356783475" /><polygon fill="rgb(87, 211, 219)" points="919.4406779661018,0.0 518.5513698630137,0.0 518.5899305855229,0.3186716313019957 703.6600924008284,224.62029631989805 907.1402835777412,145.1446537826551" /><polygon fill="rgb(145, 219, 87)" points="206.58905393712143,653.2555523507355 104.50485674638801,851.590564035589 280.0267349260523,1014.1641069397042 504.61940298507466,817.6455223880598 509.9808339667717,768.0522858073623 433.5043036219745,648.8494309976315" /><polygon fill="rgb(87, 112, 219)" points="1193.5598348911783,659.5240158286144 1215.7280175435735,770.0073777574878 1371.2900845630907,884.8428950422816 1445.2646485564626,877.6840662687295 1521.133101797896,742.3772706789118 1454.6710148708582,516.0696582311506 1275.781008136535,543.9699345108156" /><polygon fill="rgb(87, 211, 219)" points="1531.1153846153845,0.0 1238.0860215053763,0.0 1222.4991295905727,189.07577583609518 1465.5147874664142,237.525100032861 1527.717992103779,176.664410603497" /><polygon fill="rgb(87, 112, 219)" points="1491.692272154557,468.3002939941201 1746.0265394402036,481.6395038167939 1809.208254676506,296.2149047537326 1755.0178441369264,210.09085943190095 1527.717992103779,176.66441060349692 1465.5147874664142,237.52510003286105" /><polygon fill="rgb(145, 219, 87)" points="0.0,168.33870967741936 0.0,483.84016393442624 96.4417665255128,479.8876325194462 240.21283984917642,274.8131573724945 181.10809451985926,204.85243841126197" /><polygon fill="rgb(87, 112, 219)" points="1920.0,926.4512195121952 1920.0,590.1919504643963 1809.4327812781278,574.7878487848785 1724.4470853479654,732.9007714456457 1805.0590461771385,905.4254352763058" /><polygon fill="rgb(161, 87, 219)" points="504.61940298507466,817.6455223880597 692.6390711761736,1055.94952044422 897.1078647718246,870.7702356783475 844.961221674053,670.2953633246926 509.9808339667717,768.0522858073623" /><polygon fill="rgb(161, 87, 219)" points="518.5513698630137,0.0 183.66875,0.0 181.1080945198592,204.85243841126191 240.21283984917642,274.8131573724945 260.9536066779996,275.23548067896377 518.5899305855229,0.3186716313017257" /><polygon fill="rgb(87, 211, 219)" points="1920.0,0.0 1851.270925110132,0.0 1755.0178441369264,210.09085943190092 1809.208254676506,296.21490475373264 1920.0,294.9365384615385" /><polygon fill="rgb(145, 219, 87)" points="1604.7086994094775,1058.6345239809882 1805.0590461771387,905.4254352763062 1724.4470853479654,732.9007714456457 1521.133101797896,742.3772706789116 1445.2646485564626,877.6840662687295" /><polygon fill="rgb(161, 87, 219)" points="1082.0893470790377,1080.0 1240.8725961538462,1080.0 1371.2900845630907,884.8428950422816 1215.7280175435735,770.0073777574878 1014.952058840905,930.8629704023159" /><polygon fill="rgb(87, 211, 219)" points="882.9709839520181,597.90922353704 1193.5598348911783,659.5240158286142 1275.781008136535,543.9699345108157 1098.077248761783,282.42003514938494" /></svg>