<?xml version="1.0" encoding="utf-8" ?>
<svg baseProfile="full" height="1080px" version="1.1" width="1920px" xmlns="http://www.w3.org/2000/svg" xmlns:ev="http://www.w3.org/2001/xml-events" xmlns:xlink="http://www.w3.org/1999/xlink"><defs /><polygon fill="rgb(87, 211, 219)" points="1410.8570210346788,138.14184195565662 1381.7193276588428,168.67814461353277 1383.7209115836308,352.82386569403485 1670.977796082083,465.8206496436629 1672.0824770146023,465.5438074634938 1686.651515151515,429.1212121212119 1625.1531511433352,147.98583379810373" /><polygon fill="rgb(161, 87, 219)" points="0.0,886.9253731343283 0.0,1080.0 355.42011019283746,1080.0 363.7767420586101,985.2044572726412 193.49552360282144,781.5136326641345" /><polygon fill="rgb(145, 219, 87)" points="688.695443645084,0.0 380.5833333333333,0.0 400.3723135271808,356.2016434892541 627.9727577535625,314.3440905280804 730.5939585528627,94.4415173867229" /><polygon fill="rgb(161, 87, 219)" points="1920.0,1080.0 1920.0,917.4464285714287 1732.1788379798518,877.8088456775662 1645.8221649299703,928.4398813835242 1628.7762836185818,1080.0" /><polygon fill="rgb(161, 87, 219)" points="954.7307692307693,1080.0 1223.4516129032259,1080.0 1259.2008431520917,895.295643714193 1107.1884109004832,746.9169747833402 910.2514470819394,841.1653788965003" /><polygon fill="rgb(145, 219, 87)" points="1117.2213669297669,615.7966184006341 1230.2614484705027,497.0385560815732 1230.5795459236326,494.92138286893737 1036.6099083853649,213.8633366400187 977.73350435258,226.14088060894068 853.3568034124416,489.6508402278778" /><polygon fill="rgb(87, 211, 219)" points="0.0,179.35072463768117 0.0,525.9718934911242 120.86819035691929,514.8863494051345 193.57040328092958,393.715994531784 77.50701967241528,188.5617037871566" /><polygon fill="rgb(145, 219, 87)" points="772.8052482619975,522.4767629914982 770.3229659360497,521.8546052729743 493.725526163352,642.9354122417456 546.8834586466165,817.517253660467 676.3210957583548,880.1923200514138 827.4022916695271,812.4477268670448" /><polygon fill="rgb(87, 211, 219)" points="1920.0,0.0 1706.8652173913042,0.0 1704.2980457330502,63.26244443554512 1920.0,166.55633802816897" /><polygon fill="rgb(161, 87, 219)" points="1103.1761904761904,0.0 688.695443645084,0.0 730.5939585528628,94.4415173867229 977.73350435258,226.14088060894068 1036.609908385365,213.86333664001867 1092.5131995050185,152.67464345087066" /><polygon fill="rgb(87, 112, 219)" points="1789.9762295362111,594.9058238490722 1672.0824770146025,465.54380746349386 1670.9777960820827,465.82064964366305 1463.4368480583134,658.8337313057687 1461.4874683568764,815.758797271445 1645.8221649299703,928.4398813835243 1732.1788379798522,877.8088456775661" /><polygon fill="rgb(145, 219, 87)" points="1259.2008431520917,895.295643714193 1223.4516129032259,1080.0 1628.7762836185818,1080.0 1645.8221649299703,928.4398813835243 1461.4874683568764,815.7587972714449" /><polygon fill="rgb(145, 219, 87)" points="259.7833333333333,0.0 0.0,0.0 0.0,179.35072463768117 77.50701967241528,188.5617037871566" /><polygon fill="rgb(145, 219, 87)" points="1686.6515151515152,429.1212121212121 1672.0824770146025,465.5438074634938 1789.9762295362111,594.9058238490721 1920.0,596.1480891719746 1920.0,285.77857142857147" /><polygon fill="rgb(145, 219, 87)" points="400.0890410958904,356.5678249248246 193.57040328092958,393.715994531784 120.86819035691921,514.8863494051346 220.80927582404118,698.3308418086019 490.0708764665287,640.7787439613527" /><polygon fill="rgb(87, 112, 219)" points="363.7767420586101,985.2044572726412 355.42011019283746,1080.0 679.3484848484849,1080.0 676.3210957583548,880.1923200514138 546.8834586466165,817.517253660467" /><polygon fill="rgb(87, 211, 219)" points="1461.4874683568764,815.7587972714449 1463.4368480583134,658.8337313057684 1230.2614484705025,497.0385560815732 1117.2213669297666,615.7966184006341 1107.1884109004832,746.91697478334 1259.2008431520917,895.2956437141931" /><polygon fill="rgb(145, 219, 87)" points="1394.28,0.0 1103.1761904761904,0.0 1092.5131995050185,152.6746434508706 1381.719327658843,168.67814461353282 1410.8570210346788,138.14184195565676" /><polygon fill="rgb(87, 112, 219)" points="0.0,525.9718934911242 0.0,886.9253731343283 193.4955236028215,781.5136326641345 220.80927582404115,698.3308418086019 120.86819035691917,514.8863494051345" /><polygon fill="rgb(87, 211, 219)" points="730.5939585528628,94.44151738672286 627.9727577535625,314.3440905280805 770.32296593605,521.8546052729743 772.8052482619973,522.4767629914982 853.3568034124418,489.6508402278777 977.73350435258,226.14088060894065" /><polygon fill="rgb(87, 112, 219)" points="1706.8652173913042,0.0 1394.28,0.0 1410.8570210346788,138.14184195565662 1625.153151143335,147.98583379810373 1704.2980457330502,63.26244443554527" /><polygon fill="rgb(87, 112, 219)" points="380.5833333333333,0.0 259.7833333333333,0.0 77.50701967241528,188.5617037871566 193.5704032809296,393.7159945317841 400.08904109589037,356.56782492482466 400.3723135271808,356.2016434892541" /><polygon fill="rgb(87, 211, 219)" points="1920.0,917.4464285714287 1920.0,596.1480891719746 1789.9762295362113,594.9058238490721 1732.1788379798522,877.8088456775663" /><polygon fill="rgb(87, 211, 219)" points="679.3484848484849,1080.0 954.7307692307693,1080.0 910.2514470819394,841.1653788965004 827.4022916695275,812.4477268670447 676.3210957583548,880.192320051414" /><polygon fill="rgb(87, 112, 219)" points="1092.5131995050185,152.6746434508706 1036.6099083853649,213.8633366400188 1230.5795459236326,494.92138286893726 1383.7209115836308,352.82386569403496 1381.7193276588428,168.67814461353282" /><polygon fill="rgb(87, 211, 219)" points="193.4955236028215,781.5136326641345 363.7767420586101,985.2044572726412 546.8834586466165,817.517253660467 493.7255261633519,642.9354122417454 490.0708764665286,640.7787439613527 220.80927582404115,698.3308418086019" /><polygon fill="rgb(87, 112, 219)" points="910.2514470819394,841.1653788965004 1107.1884109004832,746.9169747833402 1117.2213669297666,615.7966184006341 853.3568034124416,489.6508402278778 772.8052482619975,522.476762991498 827.4022916695271,812.4477268670446" /><polygon fill="rgb(161, 87, 219)" points="1625.1531511433352,147.98583379810364 1686.651515151515,429.12121212121224 1920.0,285.77857142857147 1920.0,166.55633802816897 1704.2980457330502,63.26244443554514" /><polygon fill="rgb(161, 87, 219)" points="493.7255261633521,642.9354122417456 770.32296593605,521.8546052729741 627.9727577535624,314.3440905280804 400.37231352718084,356.2016434892541 400.0890410958904,356.56782492482455 490.0708764665287,640.7787439613527" /><polygon fill="rgb(161, 87, 219)" points="1670.977796082083,465.82064964366293 1383.7209115836308,352.82386569403485 1230.5795459236326,494.9213828689372 1230.2614484705025,497.03855608157323 1463.4368480583134,658.8337313057685" /></svg>