<?xml version="1.0" encoding="utf-8" ?>
<svg baseProfile="full" height="1080px" version="1.1" width="1920px" xmlns="http://www.w3.org/2000/svg" xmlns:ev="http://www.w3.org/2001/xml-events" xmlns:xlink="http://www.w3.org/1999/xlink"><defs /><polygon fill="rgb(145, 219, 87)" points="1762.35,0.0 1429.0866666666666,0.0 1461.6094216938689,215.2241141506026 1692.227726300784,233.74091233071988" /><polygon fill="rgb(145, 219, 87)" points="385.97011952191235,1080.0 559.7031250000001,1080.0 663.8103782735209,777.1425359315758 511.536309119958,671.1895997023485 329.18319334812776,770.1409028343493" /><polygon fill="rgb(87, 112, 219)" points="1473.6119364356334,806.2418862259951 1405.9838772464802,825.4257769415428 1351.8191489361702,1080.0 1596.9166666666667,1080.0 1645.9448400236313,936.502907247909" /><polygon fill="rgb(87, 112, 219)" points="941.259643916914,0.0 632.5352112676056,0.0 730.6226096737907,240.14500989100497 961.4491605601621,161.99683592320525" /><polygon fill="rgb(161, 87, 219)" points="137.68566176470588,0.0 0.0,0.0 0.0,413.47058823529414 2.007092198581546,413.75591016548464 301.53740195510227,209.23790296613993" /><polygon fill="rgb(87, 112, 219)" points="953.1270863451176,877.334669470364 1083.199409554482,862.609500805153 1215.6987686483242,738.8746907564287 1195.888326691443,561.5240675233955 1158.5844186567722,517.1405857011232 1062.076971559127,476.75983809974 867.9615057874057,559.6889136667729 809.3560572194904,743.4969114479619" /><polygon fill="rgb(87, 112, 219)" points="1920.0,677.8983286908078 1920.0,395.7962962962963 1739.5723497549652,328.97124064998707 1564.9138378800762,549.2791363103584 1580.2915381801074,602.2955887733234 1837.854562419921,711.3056654225392" /><polygon fill="rgb(87, 211, 219)" points="1062.076971559127,476.7598380997401 1158.5844186567722,517.1405857011231 1319.021702036899,264.37618641356505 1178.6460100983813,146.24582270574152 998.7012615054986,185.6276700408842" /><polygon fill="rgb(87, 112, 219)" points="0.0,838.8820093457944 0.0,1080.0 181.24324324324326,1080.0 19.20491694791872,840.1832770829197" /><polygon fill="rgb(145, 219, 87)" points="368.95192307692304,445.26133241758237 499.68879668049794,527.7500740960285 688.1072753209701,376.342368045649 691.9219026705391,293.69210880498684 382.533436283067,193.93601450248423 322.97712106768347,217.02927958600029" /><polygon fill="rgb(145, 219, 87)" points="0.0,413.47058823529414 0.0,838.8820093457944 19.204916947918747,840.1832770829197 192.16069473919356,720.1096615659555 178.54132231404958,560.8677685950413 2.0070921985816454,413.7559101654847" /><polygon fill="rgb(87, 211, 219)" points="887.8389261744967,1080.0 1208.3636363636365,1080.0 1083.1994095544821,862.609500805153 953.1270863451176,877.334669470364" /><polygon fill="rgb(161, 87, 219)" points="1920.0,0.0 1762.35,0.0 1692.227726300784,233.74091233071994 1739.572349754965,328.971240649987 1920.0,395.7962962962963" /><polygon fill="rgb(161, 87, 219)" points="1920.0,1079.4124293785312 1920.0,677.8983286908078 1837.854562419921,711.3056654225392 1743.0813308687616,910.4900842758233" /><polygon fill="rgb(87, 112, 219)" points="506.3836633663366,0.0 137.68566176470588,0.0 301.53740195510227,209.23790296613993 322.97712106768347,217.02927958600026 382.5334362830669,193.93601450248423" /><polygon fill="rgb(87, 211, 219)" points="511.536309119958,671.1895997023485 663.8103782735208,777.1425359315757 809.3560572194904,743.496911447962 867.9615057874057,559.6889136667728 688.1072753209701,376.34236804564904 499.68879668049794,527.7500740960285" /><polygon fill="rgb(161, 87, 219)" points="1195.888326691443,561.5240675233958 1215.6987686483242,738.8746907564284 1405.9838772464802,825.4257769415428 1473.6119364356332,806.2418862259951 1580.2915381801074,602.2955887733236 1564.913837880076,549.2791363103582 1470.640532989469,502.3102299591661" /><polygon fill="rgb(161, 87, 219)" points="559.7031250000001,1080.0 887.8389261744967,1080.0 953.1270863451176,877.3346694703641 809.3560572194904,743.496911447962 663.810378273521,777.1425359315757" /><polygon fill="rgb(87, 112, 219)" points="329.1831933481279,770.1409028343493 511.536309119958,671.1895997023486 499.68879668049794,527.7500740960285 368.95192307692304,445.26133241758237 178.54132231404958,560.8677685950413 192.16069473919356,720.1096615659555" /><polygon fill="rgb(145, 219, 87)" points="1254.7739726027398,0.0 941.259643916914,0.0 961.4491605601621,161.9968359232053 998.7012615054987,185.62767004088417 1178.646010098381,146.24582270574152" /><polygon fill="rgb(161, 87, 219)" points="867.9615057874058,559.6889136667728 1062.076971559127,476.75983809974 998.7012615054986,185.6276700408841 961.449160560162,161.99683592320525 730.6226096737907,240.14500989100497 691.9219026705391,293.69210880498684 688.1072753209701,376.34236804564904" /><polygon fill="rgb(145, 219, 87)" points="1837.854562419921,711.305665422539 1580.2915381801076,602.2955887733235 1473.6119364356332,806.241886225995 1645.9448400236313,936.502907247909 1743.0813308687614,910.4900842758233" /><polygon fill="rgb(87, 211, 219)" points="19.204916947918733,840.1832770829197 181.24324324324326,1080.0 385.97011952191235,1080.0 329.1831933481278,770.1409028343493 192.16069473919362,720.1096615659555" /><polygon fill="rgb(87, 211, 219)" points="1692.2277263007838,233.74091233071988 1461.6094216938689,215.22411415060262 1408.243550506778,260.3627468630168 1470.6405329894692,502.3102299591663 1564.9138378800762,549.2791363103584 1739.5723497549652,328.97124064998707" /><polygon fill="rgb(87, 211, 219)" points="1920.0,1080.0 1920.0,1079.4124293785312 1743.0813308687616,910.4900842758233 1645.9448400236313,936.502907247909 1596.9166666666667,1080.0" /><polygon fill="rgb(145, 219, 87)" points="1215.6987686483244,738.8746907564285 1083.1994095544821,862.6095008051528 1208.3636363636365,1080.0 1351.8191489361702,1080.0 1405.9838772464802,825.425776941543" /><polygon fill="rgb(161, 87, 219)" points="1429.0866666666666,0.0 1254.7739726027398,0.0 1178.6460100983813,146.2458227057415 1319.021702036899,264.3761864135651 1408.243550506778,260.3627468630169 1461.6094216938689,215.22411415060267" /><polygon fill="rgb(87, 211, 219)" points="632.5352112676056,0.0 506.3836633663366,0.0 382.533436283067,193.9360145024842 691.921902670539,293.6921088049869 730.6226096737907,240.14500989100497" /><polygon fill="rgb(87, 211, 219)" points="368.95192307692304,445.26133241758237 322.97712106768347,217.02927958600023 301.5374019551022,209.23790296613987 2.007092198581546,413.75591016548464 178.54132231404955,560.8677685950413" /><polygon fill="rgb(145, 219, 87)" points="1319.021702036899,264.3761864135651 1158.5844186567722,517.1405857011231 1195.8883266914431,561.5240675233958 1470.6405329894692,502.3102299591661 1408.243550506778,260.3627468630169" /></svg>