<?xml version="1.0" encoding="utf-8" ?>
<svg baseProfile="full" height="1080px" version="1.1" width="1920px" xmlns="http://www.w3.org/2000/svg" xmlns:ev="http://www.w3.org/2001/xml-events" xmlns:xlink="http://www.w3.org/1999/xlink"><defs /><polygon fill="rgb(87, 112, 219)" points="822.8527131782945,0.0 506.8689320388349,0.0 482.8143059920916,112.61938558247986 652.2036084282407,318.7839971001614 734.2571797937112,278.75180016125006" /><polygon fill="rgb(145, 219, 87)" points="1646.203391135614,222.59377213786348 1640.7508901358701,235.47855128606813 1772.335388203932,424.48173942019326 1920.0,421.7253333333333 1920.0,35.69782608695664" /><polygon fill="rgb(145, 219, 87)" points="899.2072243346008,1080.0 1217.5972222222224,1080.0 1259.110349742353,889.7943975441289 1174.0476067936183,824.4881626351004 1023.3244690344459,839.979151793682" /><polygon fill="rgb(87, 112, 219)" points="1783.370901639344,1080.0 1920.0,1080.0 1920.0,817.2014388489208 1762.1542676338943,824.3934506353861 1756.587161658803,837.9543498054802" /><polygon fill="rgb(145, 219, 87)" points="149.34205856255542,609.8639948733116 125.90282685512356,589.6802120141342 0.0,590.0260989010989 0.0,917.5492957746479 162.9439167172917,896.8944330921744 173.72238477602937,885.2713835810729" /><polygon fill="rgb(87, 112, 219)" points="1431.1245834875972,279.2407441688262 1265.5474285714288,149.14440816326533 1108.526810003944,210.93688878550995 1016.0552532063465,388.9712079073213 1024.2548317026528,436.83901750737976 1222.2115666178622,559.586383601757 1373.2901067202135,512.7474441171374" /><polygon fill="rgb(145, 219, 87)" points="171.4915254237288,0.0 0.0,0.0 0.0,255.6 171.18309859154934,272.71830985915494 216.170100832968,239.63963174046472" /><polygon fill="rgb(145, 219, 87)" points="437.23259532595324,631.7479704797048 458.87541580244977,900.7373106875905 480.0647941505944,919.3115442396033 655.2696560120253,887.8254531224767 786.0674590923124,666.1486569928991 685.8950474427216,583.096621152511" /><polygon fill="rgb(145, 219, 87)" points="1502.782343790511,1026.5743237403856 1756.5871616588033,837.9543498054799 1762.1542676338943,824.3934506353863 1652.926064823397,673.3153616905987 1542.8750879064917,663.2626282222276 1338.9437531998076,886.7322943978155" /><polygon fill="rgb(161, 87, 219)" points="1588.7,0.0 1289.764175257732,0.0 1265.5474285714286,149.14440816326524 1431.1245834875972,279.2407441688264 1640.7508901358701,235.47855128606838 1646.2033911356145,222.5937721378627" /><polygon fill="rgb(87, 211, 219)" points="125.90282685512366,589.6802120141343 149.34205856255534,609.8639948733116 387.5685078808116,589.0091541922521 422.3316866898514,406.1246048055644 252.27351590406528,243.75267902704542 216.17010083296802,239.63963174046472 171.18309859154928,272.71830985915494" /><polygon fill="rgb(87, 112, 219)" points="174.52371541501975,1080.0 466.3185840707965,1080.0 480.0647941505944,919.3115442396033 458.87541580244977,900.7373106875905 173.72238477602946,885.2713835810728 162.94391671729164,896.8944330921744" /><polygon fill="rgb(161, 87, 219)" points="1920.0,817.2014388489208 1920.0,421.7253333333333 1772.335388203932,424.48173942019326 1652.926064823397,673.3153616905989 1762.154267633894,824.3934506353861" /><polygon fill="rgb(87, 211, 219)" points="1289.764175257732,0.0 888.6613756613757,0.0 1108.526810003944,210.9368887855099 1265.5474285714286,149.14440816326535" /><polygon fill="rgb(161, 87, 219)" points="734.2571797937114,278.75180016125 652.2036084282406,318.7839971001615 644.723676828128,333.32363942397603 685.8950474427216,583.0966211525111 786.0674590923124,666.1486569928991 846.4301075268818,661.505376344086 1024.254831702653,436.8390175073799 1016.0552532063467,388.9712079073211" /><polygon fill="rgb(87, 211, 219)" points="1023.3244690344459,839.9791517936821 1174.0476067936181,824.4881626351006 1222.2115666178624,559.5863836017569 1024.254831702653,436.8390175073799 846.4301075268817,661.5053763440861" /><polygon fill="rgb(87, 211, 219)" points="1772.335388203932,424.4817394201934 1640.7508901358703,235.47855128606832 1431.1245834875972,279.2407441688264 1373.2901067202135,512.7474441171373 1542.8750879064917,663.2626282222276 1652.926064823397,673.3153616905987" /><polygon fill="rgb(161, 87, 219)" points="506.8689320388349,0.0 171.4915254237288,0.0 216.170100832968,239.6396317404647 252.2735159040654,243.75267902704542 482.8143059920916,112.61938558248006" /><polygon fill="rgb(87, 211, 219)" points="466.3185840707965,1080.0 839.7185929648241,1080.0 655.2696560120254,887.8254531224767 480.0647941505944,919.3115442396034" /><polygon fill="rgb(161, 87, 219)" points="0.0,255.6 0.0,590.0260989010989 125.90282685512368,589.6802120141342 171.1830985915493,272.7183098591549" /><polygon fill="rgb(87, 112, 219)" points="839.7185929648241,1080.0 899.2072243346008,1080.0 1023.3244690344459,839.9791517936821 846.4301075268817,661.505376344086 786.0674590923124,666.1486569928991 655.2696560120253,887.8254531224766" /><polygon fill="rgb(145, 219, 87)" points="888.6613756613757,0.0 822.8527131782945,0.0 734.2571797937112,278.75180016124995 1016.0552532063466,388.97120790732106 1108.526810003944,210.93688878550978" /><polygon fill="rgb(161, 87, 219)" points="1174.0476067936181,824.4881626351001 1259.110349742353,889.7943975441289 1338.9437531998076,886.7322943978155 1542.8750879064917,663.2626282222275 1373.2901067202135,512.7474441171373 1222.2115666178624,559.5863836017569" /><polygon fill="rgb(161, 87, 219)" points="458.87541580244977,900.7373106875905 437.23259532595324,631.7479704797048 387.5685078808115,589.0091541922521 149.34205856255542,609.8639948733116 173.72238477602934,885.2713835810728" /><polygon fill="rgb(145, 219, 87)" points="252.2735159040653,243.75267902704545 422.3316866898513,406.12460480556433 644.723676828128,333.32363942397603 652.2036084282407,318.7839971001613 482.8143059920917,112.61938558247998" /><polygon fill="rgb(161, 87, 219)" points="1505.409836065574,1080.0 1783.370901639344,1080.0 1756.5871616588029,837.9543498054801 1502.7823437905108,1026.5743237403856" /><polygon fill="rgb(87, 211, 219)" points="0.0,1080.0 174.52371541501975,1080.0 162.94391671729164,896.8944330921744 0.0,917.5492957746479" /><polygon fill="rgb(87, 211, 219)" points="1217.5972222222224,1080.0 1505.409836065574,1080.0 1502.7823437905108,1026.5743237403856 1338.9437531998076,886.7322943978155 1259.1103497423528,889.7943975441289" /><polygon fill="rgb(87, 112, 219)" points="422.33168668985144,406.12460480556433 387.5685078808116,589.0091541922521 437.2325953259533,631.7479704797048 685.8950474427216,583.096621152511 644.723676828128,333.32363942397603" /><polygon fill="rgb(87, 211, 219)" points="1920.0,0.0 1588.7,0.0 1646.2033911356148,222.59377213786314 1920.0,35.69782608695664" /></svg>